G04*
G04 #@! TF.GenerationSoftware,Altium Limited,CircuitStudio,1.5.2 (30)*
G04*
G04 Layer_Physical_Order=2*
G04 Layer_Color=12500520*
%FSLAX25Y25*%
%MOIN*%
G70*
G01*
G75*
%ADD10C,0.01200*%
%ADD15C,0.00300*%
%ADD16C,0.02050*%
G36*
X251305Y147371D02*
X252522Y146868D01*
X253566Y146066D01*
X254367Y145022D01*
X254871Y143805D01*
X254978Y142991D01*
X255000Y142500D01*
X255000D01*
X255043Y72500D01*
X255043Y72500D01*
X254871Y71195D01*
X254367Y69978D01*
X253566Y68934D01*
X252522Y68133D01*
X251305Y67629D01*
X250491Y67522D01*
X250000Y67500D01*
Y67500D01*
X227500Y67457D01*
X226724Y67559D01*
Y105500D01*
X226715Y105544D01*
X226881Y106378D01*
X227378Y107122D01*
X228122Y107620D01*
X228956Y107785D01*
X229000Y107776D01*
X231406D01*
X231866Y107469D01*
X232500Y107343D01*
X233134Y107469D01*
X233672Y107828D01*
X234031Y108366D01*
X234157Y109000D01*
X234031Y109634D01*
X233672Y110172D01*
X233134Y110531D01*
X232500Y110657D01*
X231866Y110531D01*
X231406Y110223D01*
X229000D01*
Y110241D01*
X227773Y110079D01*
X226630Y109605D01*
X225648Y108852D01*
X225017Y108851D01*
X224979Y108899D01*
X225288Y109643D01*
X225969Y110531D01*
X226857Y111212D01*
X227890Y111641D01*
X228969Y111783D01*
X229000Y111776D01*
X231406D01*
X231866Y111469D01*
X232500Y111343D01*
X233134Y111469D01*
X233672Y111828D01*
X234031Y112366D01*
X234157Y113000D01*
X234031Y113634D01*
X233672Y114172D01*
X233134Y114531D01*
X232500Y114657D01*
X231866Y114531D01*
X231406Y114224D01*
X229000D01*
Y114232D01*
X227687Y114103D01*
X226424Y113720D01*
X225260Y113098D01*
X224239Y112260D01*
X223402Y111240D01*
X222977Y110444D01*
X222477Y110569D01*
X222475Y113289D01*
X222724Y113891D01*
X223325Y114674D01*
X224109Y115276D01*
X225021Y115654D01*
X225982Y115780D01*
X226000Y115777D01*
X231406D01*
X231866Y115469D01*
X232500Y115343D01*
X233134Y115469D01*
X233672Y115828D01*
X234031Y116366D01*
X234157Y117000D01*
X234031Y117634D01*
X233672Y118172D01*
X233134Y118531D01*
X232500Y118657D01*
X231866Y118531D01*
X231406Y118224D01*
X226000D01*
Y118230D01*
X224785Y118110D01*
X223616Y117756D01*
X222972Y117412D01*
X222472Y117711D01*
X222471Y119633D01*
X222521Y119653D01*
X223482Y119780D01*
X223500Y119776D01*
X231406D01*
X231866Y119469D01*
X232500Y119343D01*
X233134Y119469D01*
X233672Y119828D01*
X234031Y120366D01*
X234157Y121000D01*
X234031Y121634D01*
X233672Y122172D01*
X233134Y122531D01*
X232500Y122657D01*
X231866Y122531D01*
X231406Y122223D01*
X223500D01*
Y122230D01*
X222840Y122165D01*
X222469Y122501D01*
X222457Y142500D01*
X222629Y143805D01*
X223132Y145022D01*
X223934Y146066D01*
X224978Y146868D01*
X226195Y147371D01*
X227457Y147538D01*
X227500Y147500D01*
Y147500D01*
X250000Y147543D01*
X250000D01*
X251305Y147371D01*
D02*
G37*
%LPC*%
G36*
X241024Y84724D02*
X234724D01*
X234265Y84534D01*
X234075Y84075D01*
Y77579D01*
X234265Y77120D01*
X234724Y76929D01*
X241024D01*
X241483Y77120D01*
X241673Y77579D01*
Y84075D01*
X241483Y84534D01*
X241024Y84724D01*
D02*
G37*
G36*
X241024Y138071D02*
X234724D01*
X234265Y137881D01*
X234075Y137421D01*
Y130925D01*
X234265Y130466D01*
X234724Y130276D01*
X241024D01*
X241483Y130466D01*
X241673Y130925D01*
Y137421D01*
X241483Y137881D01*
X241024Y138071D01*
D02*
G37*
%LPD*%
D10*
X229000Y109000D02*
X227918Y108829D01*
X226943Y108332D01*
X226168Y107557D01*
X225671Y106582D01*
X225500Y105500D01*
X220500Y57500D02*
X221476Y57596D01*
X222413Y57881D01*
X223278Y58343D01*
X224036Y58965D01*
X224657Y59722D01*
X225119Y60587D01*
X225404Y61524D01*
X225500Y62500D01*
X229000Y113000D02*
X228045Y112916D01*
X227119Y112668D01*
X226250Y112263D01*
X225465Y111713D01*
X224787Y111035D01*
X224237Y110250D01*
X223832Y109381D01*
X223584Y108455D01*
X223500Y107500D01*
X218500Y60000D02*
X219476Y60096D01*
X220413Y60381D01*
X221278Y60843D01*
X222036Y61465D01*
X222657Y62222D01*
X223119Y63087D01*
X223404Y64025D01*
X223500Y65000D01*
X226000Y117000D02*
X225025Y116904D01*
X224087Y116619D01*
X223222Y116157D01*
X222464Y115535D01*
X221843Y114778D01*
X221381Y113913D01*
X221096Y112976D01*
X221000Y112000D01*
X216000Y62500D02*
X216975Y62596D01*
X217913Y62881D01*
X218778Y63343D01*
X219535Y63964D01*
X220157Y64722D01*
X220619Y65587D01*
X220904Y66524D01*
X221000Y67500D01*
X223500Y121000D02*
X222524Y120904D01*
X221587Y120619D01*
X220722Y120157D01*
X219965Y119536D01*
X219343Y118778D01*
X218881Y117913D01*
X218596Y116975D01*
X218500Y116000D01*
X213500Y65000D02*
X214475Y65096D01*
X215413Y65381D01*
X216278Y65843D01*
X217036Y66465D01*
X217657Y67222D01*
X218119Y68087D01*
X218404Y69024D01*
X218500Y70000D01*
X223500Y121000D02*
X232500D01*
X226000Y117000D02*
X232500D01*
X229000Y113000D02*
X232500D01*
X229000Y109000D02*
X232500D01*
X225500Y62500D02*
Y105500D01*
X207500Y57500D02*
X220500D01*
X223500Y65000D02*
Y107500D01*
X205000Y60000D02*
X218500D01*
X221000Y67500D02*
Y112000D01*
X202500Y62500D02*
X216000D01*
X200000Y65000D02*
X213500D01*
X218500Y70000D02*
Y116000D01*
X25000Y25850D02*
Y88350D01*
Y151350D01*
Y214350D01*
Y277350D01*
Y340350D01*
X72500Y25850D02*
Y88350D01*
Y151350D01*
Y214350D01*
Y277350D01*
Y340350D01*
X120000Y25850D02*
Y88350D01*
Y151350D01*
Y214350D01*
Y277350D01*
Y340350D01*
X167500Y277350D02*
Y340350D01*
Y214350D02*
Y277350D01*
Y151350D02*
Y214350D01*
Y88350D02*
Y151350D01*
Y25850D02*
Y88350D01*
D15*
X118Y382008D02*
X0Y381890D01*
X205043Y77457D02*
X206019Y77553D01*
X206957Y77838D01*
X207821Y78299D01*
X208579Y78921D01*
X209201Y79679D01*
X209663Y80543D01*
X209947Y81481D01*
X210043Y82457D01*
Y132522D02*
X209947Y133497D01*
X209663Y134435D01*
X209201Y135299D01*
X208579Y136057D01*
X207821Y136679D01*
X206957Y137141D01*
X206019Y137425D01*
X205043Y137522D01*
X197478D02*
X196503Y137425D01*
X195565Y137141D01*
X194701Y136679D01*
X193943Y136057D01*
X193321Y135299D01*
X192859Y134435D01*
X192575Y133497D01*
X192478Y132522D01*
Y82457D02*
X192575Y81481D01*
X192859Y80543D01*
X193321Y79679D01*
X193943Y78921D01*
X194701Y78299D01*
X195565Y77838D01*
X196503Y77553D01*
X197478Y77457D01*
X205043D02*
X205043D01*
X0Y0D02*
Y382008D01*
X256693D01*
X0Y0D02*
X256693D01*
X256693Y0D02*
Y382008D01*
X205000Y77457D02*
X205043D01*
X210043Y82457D02*
Y132522D01*
X197478Y137522D02*
X205043D01*
X192478Y82457D02*
Y132522D01*
X197478Y77457D02*
X205043D01*
D16*
X245500Y76890D02*
D03*
Y73390D02*
D03*
Y69890D02*
D03*
X230500D02*
D03*
Y73390D02*
D03*
Y76890D02*
D03*
Y145000D02*
D03*
Y141500D02*
D03*
Y138000D02*
D03*
X245500D02*
D03*
Y141500D02*
D03*
Y145000D02*
D03*
X232500Y121000D02*
D03*
Y117000D02*
D03*
Y113000D02*
D03*
Y109000D02*
D03*
X207500Y57500D02*
D03*
X205000Y60000D02*
D03*
X202500Y62500D02*
D03*
X200000Y65000D02*
D03*
X25000Y25850D02*
D03*
Y88350D02*
D03*
Y151350D02*
D03*
Y214350D02*
D03*
Y277350D02*
D03*
Y340350D02*
D03*
X72500Y25850D02*
D03*
Y88350D02*
D03*
Y151350D02*
D03*
Y214350D02*
D03*
Y277350D02*
D03*
Y340350D02*
D03*
X120000Y25850D02*
D03*
Y88350D02*
D03*
Y151350D02*
D03*
Y214350D02*
D03*
Y277350D02*
D03*
Y340350D02*
D03*
X167500D02*
D03*
Y277350D02*
D03*
Y214350D02*
D03*
Y151350D02*
D03*
Y88350D02*
D03*
Y25850D02*
D03*
M02*
