G04*
G04 #@! TF.GenerationSoftware,Altium Limited,CircuitStudio,1.5.2 (30)*
G04*
G04 Layer_Color=20142*
%FSLAX25Y25*%
%MOIN*%
G70*
G01*
G75*
%ADD15C,0.00300*%
%ADD20R,0.09068X0.11824*%
%ADD21R,0.03162X0.08280*%
%ADD22R,0.09100X0.06300*%
%ADD23R,0.06300X0.09100*%
D15*
X171260Y0D02*
X172279Y134D01*
X173228Y527D01*
X174044Y1153D01*
X174669Y1969D01*
X175063Y2918D01*
X175197Y3937D01*
X179134Y29528D02*
X178115Y29393D01*
X177165Y29000D01*
X176350Y28374D01*
X175724Y27559D01*
X175331Y26610D01*
X175197Y25591D01*
X253937Y29528D02*
X254992Y29737D01*
X255886Y30335D01*
X256483Y31229D01*
X256693Y32283D01*
X118Y382008D02*
X0Y381890D01*
Y0D02*
X171260D01*
X256693Y33465D02*
Y382008D01*
X175197Y3937D02*
Y25591D01*
X179134Y29528D02*
X253937D01*
X256693Y32283D02*
Y33465D01*
X0Y382008D02*
X256693D01*
X0Y0D02*
Y382008D01*
D20*
X249555Y53874D02*
D03*
X181445D02*
D03*
D21*
X237154Y63126D02*
D03*
X233217D02*
D03*
X229279D02*
D03*
X225342D02*
D03*
X221406D02*
D03*
X217469D02*
D03*
X213531D02*
D03*
X209594D02*
D03*
X205658D02*
D03*
X201720D02*
D03*
X197784D02*
D03*
X193846D02*
D03*
D22*
X187550Y86150D02*
D03*
X223450D02*
D03*
X187550Y103850D02*
D03*
X223450D02*
D03*
X127550Y86150D02*
D03*
X163450D02*
D03*
X127550Y103850D02*
D03*
X163450D02*
D03*
X67550Y86150D02*
D03*
X103450D02*
D03*
X67550Y103850D02*
D03*
X103450D02*
D03*
X7050Y86150D02*
D03*
X42950D02*
D03*
X7050Y103850D02*
D03*
X42950D02*
D03*
X187550Y136150D02*
D03*
X223450D02*
D03*
X187550Y153850D02*
D03*
X223450D02*
D03*
X127550Y136150D02*
D03*
X163450D02*
D03*
X127550Y153850D02*
D03*
X163450D02*
D03*
X67550Y136150D02*
D03*
X103450D02*
D03*
X67550Y153850D02*
D03*
X103450D02*
D03*
X7050Y136150D02*
D03*
X42950D02*
D03*
X7050Y153850D02*
D03*
X42950D02*
D03*
X187550Y186150D02*
D03*
X223450D02*
D03*
X187550Y203850D02*
D03*
X223450D02*
D03*
X127550Y186150D02*
D03*
X163450D02*
D03*
X127550Y203850D02*
D03*
X163450D02*
D03*
X67550Y186150D02*
D03*
X103450D02*
D03*
X67550Y203850D02*
D03*
X103450D02*
D03*
X7050Y186150D02*
D03*
X42950D02*
D03*
X7050Y203850D02*
D03*
X42950D02*
D03*
X187550Y236150D02*
D03*
X223450D02*
D03*
X187550Y253850D02*
D03*
X223450D02*
D03*
X127550Y236150D02*
D03*
X163450D02*
D03*
X127550Y253850D02*
D03*
X163450D02*
D03*
X67550Y236150D02*
D03*
X103450D02*
D03*
X67550Y253850D02*
D03*
X103450D02*
D03*
X7050Y236150D02*
D03*
X42950D02*
D03*
X7050Y253850D02*
D03*
X42950D02*
D03*
X187550Y286150D02*
D03*
X223450D02*
D03*
X187550Y303850D02*
D03*
X223450D02*
D03*
X127550Y286150D02*
D03*
X163450D02*
D03*
X127550Y303850D02*
D03*
X163450D02*
D03*
X67550Y286150D02*
D03*
X103450D02*
D03*
X67550Y303850D02*
D03*
X103450D02*
D03*
X7050Y286150D02*
D03*
X42950D02*
D03*
X7050Y303850D02*
D03*
X42950D02*
D03*
X187550Y336150D02*
D03*
X223450D02*
D03*
X187550Y353850D02*
D03*
X223450D02*
D03*
X127550Y336150D02*
D03*
X163450D02*
D03*
X127550Y353850D02*
D03*
X163450D02*
D03*
X67550Y336150D02*
D03*
X103450D02*
D03*
X67550Y353850D02*
D03*
X103450D02*
D03*
X7550Y336150D02*
D03*
X43450D02*
D03*
X7550Y353850D02*
D03*
X43450D02*
D03*
D23*
X251350Y339550D02*
D03*
Y375450D02*
D03*
X233650Y339550D02*
D03*
Y375450D02*
D03*
M02*
