G04*
G04 #@! TF.GenerationSoftware,Altium Limited,CircuitStudio,1.5.2 (30)*
G04*
G04 Layer_Physical_Order=2*
G04 Layer_Color=12500520*
%FSLAX25Y25*%
%MOIN*%
G70*
G01*
G75*
%ADD14C,0.01000*%
%ADD15C,0.00300*%
%ADD16C,0.02050*%
G36*
X251805Y70871D02*
X253022Y70367D01*
X254066Y69566D01*
X254868Y68522D01*
X255371Y67305D01*
X255479Y66491D01*
X255500Y66000D01*
X255500D01*
X255543Y43500D01*
X255371Y42195D01*
X254868Y40978D01*
X254066Y39934D01*
X253022Y39132D01*
X251805Y38629D01*
X250543Y38462D01*
X250500Y38500D01*
Y38500D01*
X180500Y38457D01*
X179195Y38629D01*
X177978Y39132D01*
X176934Y39934D01*
X176133Y40978D01*
X175629Y42195D01*
X175462Y43457D01*
X175500Y43500D01*
X175500D01*
X175457Y66000D01*
Y66000D01*
X175629Y67305D01*
X176133Y68522D01*
X176934Y69566D01*
X177978Y70367D01*
X179195Y70871D01*
X180009Y70978D01*
X180500Y71000D01*
Y71000D01*
X250500Y71043D01*
X250500Y71043D01*
X251805Y70871D01*
D02*
G37*
%LPC*%
G36*
X192075Y57673D02*
X185579D01*
X185119Y57483D01*
X184929Y57024D01*
Y50724D01*
X185119Y50265D01*
X185579Y50075D01*
X192075D01*
X192534Y50265D01*
X192724Y50724D01*
Y57024D01*
X192534Y57483D01*
X192075Y57673D01*
D02*
G37*
G36*
X245421Y57673D02*
X238925D01*
X238466Y57483D01*
X238276Y57024D01*
Y50724D01*
X238466Y50265D01*
X238925Y50075D01*
X245421D01*
X245881Y50265D01*
X246071Y50724D01*
Y57024D01*
X245881Y57483D01*
X245421Y57673D01*
D02*
G37*
%LPD*%
D14*
X13000Y86000D02*
X217000D01*
X12850Y136150D02*
X48750D01*
X73350D01*
X109250D01*
X133350D01*
X169250D01*
X193350D01*
X212500D01*
X12850Y186150D02*
X48750D01*
X73350D01*
X109250D01*
X133350D01*
X169250D01*
X193350D01*
X210000D01*
X12850Y236150D02*
X48750D01*
X73350D01*
X109250D01*
X133350D01*
X169250D01*
X193350D01*
X207500D01*
X12850Y286150D02*
X48750D01*
X73350D01*
X109250D01*
X133350D01*
X169250D01*
X193350D01*
X205000D01*
X12850Y336150D02*
X48750D01*
X73350D01*
X109250D01*
X133350D01*
X169250D01*
X193350D01*
X202500D01*
X200000Y304000D02*
X205000D01*
X200000Y254000D02*
X207500D01*
X200000Y204000D02*
X210000D01*
X200000Y154000D02*
X212500D01*
X200000Y104000D02*
X215000D01*
X200000Y95000D02*
X215000D01*
X197500Y92500D02*
X200000Y95000D01*
X197500Y97500D02*
X217500D01*
X195000Y95000D02*
X197500Y97500D01*
D15*
X118Y382008D02*
X0Y381890D01*
X253937Y29528D02*
X254992Y29737D01*
X255886Y30335D01*
X256483Y31229D01*
X256693Y32283D01*
X179134Y29528D02*
X178115Y29393D01*
X177165Y29000D01*
X176350Y28374D01*
X175724Y27559D01*
X175331Y26610D01*
X175197Y25591D01*
X171260Y0D02*
X172279Y134D01*
X173228Y527D01*
X174044Y1153D01*
X174669Y1969D01*
X175063Y2918D01*
X175197Y3937D01*
X0Y0D02*
Y382008D01*
X256693D01*
X256693Y32283D02*
Y33465D01*
X179134Y29528D02*
X253937D01*
X175197Y3937D02*
Y25591D01*
X256693Y33465D02*
Y382008D01*
X0Y0D02*
X171260D01*
D16*
X249500Y61500D02*
D03*
X246000D02*
D03*
X253000D02*
D03*
Y46500D02*
D03*
X246000D02*
D03*
X249500D02*
D03*
X181390D02*
D03*
X177890D02*
D03*
X184890D02*
D03*
Y61500D02*
D03*
X177890D02*
D03*
X181390D02*
D03*
X217000Y86000D02*
D03*
X13000D02*
D03*
X48900D02*
D03*
X73500D02*
D03*
X109400D02*
D03*
X133500D02*
D03*
X169400D02*
D03*
X193350Y136150D02*
D03*
X169250D02*
D03*
X133350D02*
D03*
X109250D02*
D03*
X73350D02*
D03*
X48750D02*
D03*
X12850D02*
D03*
X193350Y186150D02*
D03*
X169250D02*
D03*
X133350D02*
D03*
X109250D02*
D03*
X73350D02*
D03*
X48750D02*
D03*
X12850D02*
D03*
X193350Y236150D02*
D03*
X169250D02*
D03*
X133350D02*
D03*
X109250D02*
D03*
X73350D02*
D03*
X48750D02*
D03*
X12850D02*
D03*
X193350Y286150D02*
D03*
X169250D02*
D03*
X133350D02*
D03*
X109250D02*
D03*
X73350D02*
D03*
X48750D02*
D03*
X12850D02*
D03*
X193350Y336150D02*
D03*
X169250D02*
D03*
X133350D02*
D03*
X109250D02*
D03*
X73350D02*
D03*
X48750D02*
D03*
X12850D02*
D03*
X212500Y136000D02*
D03*
X210000Y186000D02*
D03*
X207500Y236000D02*
D03*
X205000Y286000D02*
D03*
X202500Y336000D02*
D03*
X205000Y304000D02*
D03*
X200000D02*
D03*
X207500Y254000D02*
D03*
X200000D02*
D03*
X210000Y204000D02*
D03*
X200000D02*
D03*
X212500Y154000D02*
D03*
X200000D02*
D03*
X215000Y104000D02*
D03*
X200000D02*
D03*
X215000Y95000D02*
D03*
X197500Y92500D02*
D03*
X217500Y97500D02*
D03*
X195000Y95000D02*
D03*
X181500Y86000D02*
D03*
M02*
