G04*
G04 #@! TF.GenerationSoftware,Altium Limited,CircuitStudio,1.5.2 (30)*
G04*
G04 Layer_Color=15065295*
%FSLAX25Y25*%
%MOIN*%
G70*
G01*
G75*
%ADD15C,0.00300*%
%ADD17C,0.00984*%
%ADD18C,0.00787*%
%ADD19R,0.40000X0.20000*%
D15*
X0Y0D02*
Y382008D01*
X259842D01*
Y0D02*
Y382008D01*
X0Y0D02*
X259842D01*
D17*
X253524Y129154D02*
X252785Y129580D01*
Y128727D01*
X253524Y129154D01*
X150043Y3425D02*
X149305Y3851D01*
Y2999D01*
X150043Y3425D01*
X102543D02*
X101805Y3851D01*
Y2999D01*
X102543Y3425D01*
X55043D02*
X54305Y3851D01*
Y2999D01*
X55043Y3425D01*
X7543D02*
X6805Y3851D01*
Y2999D01*
X7543Y3425D01*
X150043Y65925D02*
X149305Y66351D01*
Y65499D01*
X150043Y65925D01*
X102543D02*
X101805Y66351D01*
Y65499D01*
X102543Y65925D01*
X55043D02*
X54305Y66351D01*
Y65499D01*
X55043Y65925D01*
X7543D02*
X6805Y66351D01*
Y65499D01*
X7543Y65925D01*
X150043Y128925D02*
X149305Y129351D01*
Y128499D01*
X150043Y128925D01*
X102543D02*
X101805Y129351D01*
Y128499D01*
X102543Y128925D01*
X55043D02*
X54305Y129351D01*
Y128499D01*
X55043Y128925D01*
X7543D02*
X6805Y129351D01*
Y128499D01*
X7543Y128925D01*
X150043Y191925D02*
X149305Y192351D01*
Y191499D01*
X150043Y191925D01*
X102543D02*
X101805Y192351D01*
Y191499D01*
X102543Y191925D01*
X55043D02*
X54305Y192351D01*
Y191499D01*
X55043Y191925D01*
X7543D02*
X6805Y192351D01*
Y191499D01*
X7543Y191925D01*
X150043Y254925D02*
X149305Y255351D01*
Y254499D01*
X150043Y254925D01*
X102543D02*
X101805Y255351D01*
Y254499D01*
X102543Y254925D01*
X55043D02*
X54305Y255351D01*
Y254499D01*
X55043Y254925D01*
X7543D02*
X6805Y255351D01*
Y254499D01*
X7543Y254925D01*
X150043Y317925D02*
X149305Y318351D01*
Y317499D01*
X150043Y317925D01*
X102543D02*
X101805Y318351D01*
Y317499D01*
X102543Y317925D01*
X55043D02*
X54305Y318351D01*
Y317499D01*
X55043Y317925D01*
X7543D02*
X6805Y318351D01*
Y317499D01*
X7543Y317925D01*
X257567Y313551D02*
X256829Y313977D01*
Y313125D01*
X257567Y313551D01*
D18*
X215433Y70098D02*
Y144902D01*
X241811Y79154D02*
Y135846D01*
X215433Y70098D02*
X219764D01*
Y75807D01*
X225276D01*
Y74035D02*
Y75807D01*
Y74035D02*
X230787D01*
X215433Y144902D02*
X219764D01*
Y139193D02*
Y144902D01*
Y139193D02*
X225276D01*
Y140965D01*
X230787D01*
X155689Y5189D02*
Y28811D01*
Y5189D02*
X179311D01*
Y28811D01*
X155689D02*
X179311D01*
X108189Y5189D02*
Y28811D01*
Y5189D02*
X131811D01*
Y28811D01*
X108189D02*
X131811D01*
X60689Y5189D02*
Y28811D01*
Y5189D02*
X84311D01*
Y28811D01*
X60689D02*
X84311D01*
X13189Y5189D02*
Y28811D01*
Y5189D02*
X36811D01*
Y28811D01*
X13189D02*
X36811D01*
X155689Y67689D02*
Y91311D01*
Y67689D02*
X179311D01*
Y91311D01*
X155689D02*
X179311D01*
X108189Y67689D02*
Y91311D01*
Y67689D02*
X131811D01*
Y91311D01*
X108189D02*
X131811D01*
X60689Y67689D02*
Y91311D01*
Y67689D02*
X84311D01*
Y91311D01*
X60689D02*
X84311D01*
X13189Y67689D02*
Y91311D01*
Y67689D02*
X36811D01*
Y91311D01*
X13189D02*
X36811D01*
X155689Y130689D02*
Y154311D01*
Y130689D02*
X179311D01*
Y154311D01*
X155689D02*
X179311D01*
X108189Y130689D02*
Y154311D01*
Y130689D02*
X131811D01*
Y154311D01*
X108189D02*
X131811D01*
X60689Y130689D02*
Y154311D01*
Y130689D02*
X84311D01*
Y154311D01*
X60689D02*
X84311D01*
X13189Y130689D02*
Y154311D01*
Y130689D02*
X36811D01*
Y154311D01*
X13189D02*
X36811D01*
X155689Y193689D02*
Y217311D01*
Y193689D02*
X179311D01*
Y217311D01*
X155689D02*
X179311D01*
X108189Y193689D02*
Y217311D01*
Y193689D02*
X131811D01*
Y217311D01*
X108189D02*
X131811D01*
X60689Y193689D02*
Y217311D01*
Y193689D02*
X84311D01*
Y217311D01*
X60689D02*
X84311D01*
X13189Y193689D02*
Y217311D01*
Y193689D02*
X36811D01*
Y217311D01*
X13189D02*
X36811D01*
X155689Y256689D02*
Y280311D01*
Y256689D02*
X179311D01*
Y280311D01*
X155689D02*
X179311D01*
X108189Y256689D02*
Y280311D01*
Y256689D02*
X131811D01*
Y280311D01*
X108189D02*
X131811D01*
X60689Y256689D02*
Y280311D01*
Y256689D02*
X84311D01*
Y280311D01*
X60689D02*
X84311D01*
X13189Y256689D02*
Y280311D01*
Y256689D02*
X36811D01*
Y280311D01*
X13189D02*
X36811D01*
X155689Y319689D02*
Y343311D01*
Y319689D02*
X179311D01*
Y343311D01*
X155689D02*
X179311D01*
X108189Y319689D02*
Y343311D01*
Y319689D02*
X131811D01*
Y343311D01*
X108189D02*
X131811D01*
X60689Y319689D02*
Y343311D01*
Y319689D02*
X84311D01*
Y343311D01*
X60689D02*
X84311D01*
X13189Y319689D02*
Y343311D01*
Y319689D02*
X36811D01*
Y343311D01*
X13189D02*
X36811D01*
X231689Y319689D02*
X255311D01*
Y343311D01*
X231689D02*
X255311D01*
X231689Y319689D02*
Y343311D01*
D19*
X25000Y45000D02*
D03*
X72500D02*
D03*
X120000D02*
D03*
X167500D02*
D03*
X25500Y359500D02*
D03*
X168000D02*
D03*
X120500D02*
D03*
X73000D02*
D03*
Y296500D02*
D03*
X120500D02*
D03*
X168000D02*
D03*
X25500D02*
D03*
X73000Y233500D02*
D03*
X120500D02*
D03*
X168000D02*
D03*
X25500D02*
D03*
X73000Y170500D02*
D03*
X120500D02*
D03*
X168000D02*
D03*
X25500D02*
D03*
X73000Y107500D02*
D03*
X120500D02*
D03*
X168000D02*
D03*
X25500D02*
D03*
M02*
