G04*
G04 #@! TF.GenerationSoftware,Altium Limited,CircuitStudio,1.5.2 (30)*
G04*
G04 Layer_Physical_Order=1*
G04 Layer_Color=11767835*
%FSLAX25Y25*%
%MOIN*%
G70*
G01*
G75*
%ADD10R,0.08268X0.11024*%
%ADD11R,0.02362X0.07480*%
%ADD12R,0.08300X0.05500*%
%ADD13R,0.05500X0.08300*%
%ADD14C,0.01000*%
%ADD15C,0.00300*%
%ADD16C,0.02050*%
G36*
X185500Y63500D02*
Y63500D01*
X185529Y63524D01*
X186085Y63413D01*
X186581Y63081D01*
X186913Y62585D01*
X187029Y62000D01*
X187021Y57673D01*
X185579D01*
X185119Y57483D01*
X184929Y57024D01*
Y50724D01*
X185119Y50265D01*
X185579Y50075D01*
X186653D01*
X187006Y49721D01*
X187000Y46500D01*
X187000D01*
X187031Y46462D01*
X186884Y45720D01*
X186442Y45058D01*
X185780Y44616D01*
X185000Y44461D01*
X178000Y44500D01*
Y44500D01*
X177962Y44469D01*
X177220Y44616D01*
X176558Y45058D01*
X176116Y45720D01*
X175961Y46500D01*
X176000Y61500D01*
X176000D01*
X175969Y61538D01*
X176116Y62280D01*
X176558Y62942D01*
X177220Y63384D01*
X178000Y63539D01*
X185500Y63500D01*
D02*
G37*
G36*
X253610D02*
Y63500D01*
X253639Y63524D01*
X254195Y63413D01*
X254692Y63081D01*
X255023Y62585D01*
X255140Y62000D01*
X255110Y46500D01*
X255110D01*
X255142Y46462D01*
X254994Y45720D01*
X254552Y45058D01*
X253891Y44616D01*
X253110Y44461D01*
X246110Y44500D01*
Y44500D01*
X246072Y44469D01*
X245330Y44616D01*
X244668Y45058D01*
X244226Y45720D01*
X244071Y46500D01*
X244080Y50075D01*
X245421D01*
X245881Y50265D01*
X246071Y50724D01*
Y57024D01*
X245881Y57483D01*
X245421Y57673D01*
X244454D01*
X244101Y58027D01*
X244110Y61500D01*
X244110D01*
X244079Y61538D01*
X244226Y62280D01*
X244668Y62942D01*
X245330Y63384D01*
X246110Y63539D01*
X253610Y63500D01*
D02*
G37*
D10*
X249555Y53874D02*
D03*
X181445D02*
D03*
D11*
X237154Y63126D02*
D03*
X233217D02*
D03*
X229279D02*
D03*
X225342D02*
D03*
X221406D02*
D03*
X217469D02*
D03*
X213531D02*
D03*
X209594D02*
D03*
X205658D02*
D03*
X201720D02*
D03*
X197784D02*
D03*
X193846D02*
D03*
D12*
X187550Y86150D02*
D03*
X223450D02*
D03*
X187550Y103850D02*
D03*
X223450D02*
D03*
X127550Y86150D02*
D03*
X163450D02*
D03*
X127550Y103850D02*
D03*
X163450D02*
D03*
X67550Y86150D02*
D03*
X103450D02*
D03*
X67550Y103850D02*
D03*
X103450D02*
D03*
X7050Y86150D02*
D03*
X42950D02*
D03*
X7050Y103850D02*
D03*
X42950D02*
D03*
X187550Y136150D02*
D03*
X223450D02*
D03*
X187550Y153850D02*
D03*
X223450D02*
D03*
X127550Y136150D02*
D03*
X163450D02*
D03*
X127550Y153850D02*
D03*
X163450D02*
D03*
X67550Y136150D02*
D03*
X103450D02*
D03*
X67550Y153850D02*
D03*
X103450D02*
D03*
X7050Y136150D02*
D03*
X42950D02*
D03*
X7050Y153850D02*
D03*
X42950D02*
D03*
X187550Y186150D02*
D03*
X223450D02*
D03*
X187550Y203850D02*
D03*
X223450D02*
D03*
X127550Y186150D02*
D03*
X163450D02*
D03*
X127550Y203850D02*
D03*
X163450D02*
D03*
X67550Y186150D02*
D03*
X103450D02*
D03*
X67550Y203850D02*
D03*
X103450D02*
D03*
X7050Y186150D02*
D03*
X42950D02*
D03*
X7050Y203850D02*
D03*
X42950D02*
D03*
X187550Y236150D02*
D03*
X223450D02*
D03*
X187550Y253850D02*
D03*
X223450D02*
D03*
X127550Y236150D02*
D03*
X163450D02*
D03*
X127550Y253850D02*
D03*
X163450D02*
D03*
X67550Y236150D02*
D03*
X103450D02*
D03*
X67550Y253850D02*
D03*
X103450D02*
D03*
X7050Y236150D02*
D03*
X42950D02*
D03*
X7050Y253850D02*
D03*
X42950D02*
D03*
X187550Y286150D02*
D03*
X223450D02*
D03*
X187550Y303850D02*
D03*
X223450D02*
D03*
X127550Y286150D02*
D03*
X163450D02*
D03*
X127550Y303850D02*
D03*
X163450D02*
D03*
X67550Y286150D02*
D03*
X103450D02*
D03*
X67550Y303850D02*
D03*
X103450D02*
D03*
X7050Y286150D02*
D03*
X42950D02*
D03*
X7050Y303850D02*
D03*
X42950D02*
D03*
X187550Y336150D02*
D03*
X223450D02*
D03*
X187550Y353850D02*
D03*
X223450D02*
D03*
X127550Y336150D02*
D03*
X163450D02*
D03*
X127550Y353850D02*
D03*
X163450D02*
D03*
X67550Y336150D02*
D03*
X103450D02*
D03*
X67550Y353850D02*
D03*
X103450D02*
D03*
X7550Y336150D02*
D03*
X43450D02*
D03*
X7550Y353850D02*
D03*
X43450D02*
D03*
D13*
X251350Y339550D02*
D03*
Y375450D02*
D03*
X233650Y339550D02*
D03*
Y375450D02*
D03*
D14*
X194000Y94000D02*
X195000Y95000D01*
X194000Y63279D02*
Y94000D01*
X181500Y86000D02*
X187700D01*
X187550Y86150D02*
X187700Y86000D01*
X193846Y63126D02*
X194000Y63279D01*
X217500Y97500D02*
X231500D01*
X197500Y63410D02*
X197784Y63126D01*
X197500Y63410D02*
Y92500D01*
X215000Y95000D02*
X249000D01*
X233650Y339550D02*
Y375450D01*
Y99650D02*
Y339550D01*
X231500Y97500D02*
X233650Y99650D01*
X251350Y339550D02*
Y375450D01*
Y97350D02*
Y339550D01*
X249000Y95000D02*
X251350Y97350D01*
X200000Y104000D02*
Y154000D01*
Y72500D02*
Y104000D01*
X187550Y103850D02*
X187700Y104000D01*
X200000D01*
X215000D02*
X215150Y103850D01*
X223450D01*
X200000Y154000D02*
Y204000D01*
X187550Y153850D02*
X187700Y154000D01*
X200000D01*
X212500D02*
X212650Y153850D01*
X223450D01*
X200000Y204000D02*
Y254000D01*
X187550Y203850D02*
X187700Y204000D01*
X200000D01*
X210000D02*
X210150Y203850D01*
X223450D01*
X200000Y254000D02*
Y304000D01*
X187550Y253850D02*
X187700Y254000D01*
X200000D01*
X207500D02*
X207650Y253850D01*
X223450D01*
X200000Y304000D02*
Y353500D01*
X187550Y303850D02*
X187700Y304000D01*
X200000D01*
X205000D02*
X205150Y303850D01*
X223450D01*
X187550Y353850D02*
X223450D01*
X200000Y72500D02*
X201720Y70780D01*
Y63126D02*
Y70780D01*
X25000Y203850D02*
X42950D01*
X7050D02*
X25000D01*
Y353850D02*
X43450D01*
X7550D02*
X25000D01*
Y303850D02*
X42950D01*
X7050D02*
X25000D01*
Y253850D02*
X42950D01*
X7050D02*
X25000D01*
Y153850D02*
X42950D01*
X7050D02*
X25000D01*
Y103850D02*
X42950D01*
X7050D02*
X25000D01*
Y303850D02*
Y353850D01*
Y253850D02*
Y303850D01*
Y203850D02*
Y253850D01*
Y153850D02*
Y203850D01*
Y103850D02*
Y153850D01*
Y37500D02*
Y103850D01*
Y37500D02*
X27500Y35000D01*
X207500D01*
X213531Y41032D01*
Y63126D01*
X85500Y203850D02*
X103450D01*
X67550D02*
X85500D01*
Y353850D02*
X103450D01*
X67550D02*
X85500D01*
Y303850D02*
X103450D01*
X67550D02*
X85500D01*
Y253850D02*
X103450D01*
X67550D02*
X85500D01*
Y153850D02*
X103450D01*
X67550D02*
X85500D01*
Y103850D02*
X103450D01*
X67550D02*
X85500D01*
Y303850D02*
Y353850D01*
Y253850D02*
Y303850D01*
Y203850D02*
Y253850D01*
Y153850D02*
Y203850D01*
Y103850D02*
Y153850D01*
Y41500D02*
Y103850D01*
Y41500D02*
X88000Y39000D01*
X205500D01*
X209594Y43095D01*
Y63126D01*
X127550Y103850D02*
X163450D01*
X127550Y153850D02*
X163450D01*
X127550Y203850D02*
X163450D01*
X127550Y253850D02*
X163450D01*
X127550Y303850D02*
X163450D01*
X127550Y353850D02*
X163450D01*
X145500Y45000D02*
Y353500D01*
Y45000D02*
X148500Y42000D01*
X202000D01*
X205658Y45658D01*
Y63126D01*
X202650Y336150D02*
X223450D01*
X202500Y336000D02*
X202650Y336150D01*
X205150Y286150D02*
X223450D01*
X205000Y286000D02*
X205150Y286150D01*
X207650Y236150D02*
X223450D01*
X207500Y236000D02*
X207650Y236150D01*
X210150Y186150D02*
X223450D01*
X210000Y186000D02*
X210150Y186150D01*
X212500Y136000D02*
X212650Y136150D01*
X223450D01*
X223300Y136300D02*
X223450Y136150D01*
X6900Y336300D02*
X7050Y336150D01*
X12850D01*
X42950D02*
X48750D01*
X42800Y336300D02*
X42950Y336150D01*
X67550D02*
X73350D01*
X67400Y336300D02*
X67550Y336150D01*
X103450D02*
X109250D01*
X103300Y336300D02*
X103450Y336150D01*
X127550D02*
X133350D01*
X127400Y336300D02*
X127550Y336150D01*
X163450D02*
X169250D01*
X163300Y336300D02*
X163450Y336150D01*
X187550D02*
X193350D01*
X187400Y336300D02*
X187550Y336150D01*
X6900Y286300D02*
X7050Y286150D01*
X12850D01*
X42950D02*
X48750D01*
X42800Y286300D02*
X42950Y286150D01*
X67550D02*
X73350D01*
X67400Y286300D02*
X67550Y286150D01*
X103450D02*
X109250D01*
X103300Y286300D02*
X103450Y286150D01*
X127550D02*
X133350D01*
X127400Y286300D02*
X127550Y286150D01*
X163450D02*
X169250D01*
X163300Y286300D02*
X163450Y286150D01*
X187550D02*
X193350D01*
X187400Y286300D02*
X187550Y286150D01*
X6900Y236300D02*
X7050Y236150D01*
X12850D01*
X42950D02*
X48750D01*
X42800Y236300D02*
X42950Y236150D01*
X67550D02*
X73350D01*
X67400Y236300D02*
X67550Y236150D01*
X103450D02*
X109250D01*
X103300Y236300D02*
X103450Y236150D01*
X127550D02*
X133350D01*
X127400Y236300D02*
X127550Y236150D01*
X163450D02*
X169250D01*
X163300Y236300D02*
X163450Y236150D01*
X187550D02*
X193350D01*
X187400Y236300D02*
X187550Y236150D01*
X6900Y186300D02*
X7050Y186150D01*
X12850D01*
X42950D02*
X48750D01*
X42800Y186300D02*
X42950Y186150D01*
X67550D02*
X73350D01*
X67400Y186300D02*
X67550Y186150D01*
X103450D02*
X109250D01*
X103300Y186300D02*
X103450Y186150D01*
X127550D02*
X133350D01*
X127400Y186300D02*
X127550Y186150D01*
X163450D02*
X169250D01*
X163300Y186300D02*
X163450Y186150D01*
X187550D02*
X193350D01*
X187400Y186300D02*
X187550Y186150D01*
X7050Y136150D02*
X12850D01*
X42950D02*
X48750D01*
X67550D02*
X73350D01*
X103450D02*
X109250D01*
X127550D02*
X133350D01*
X163450D02*
X169250D01*
X187550D02*
X193350D01*
X163450Y86150D02*
X163600Y86000D01*
X169400D01*
X127550Y86150D02*
X127700Y86000D01*
X133500D01*
X103450Y86150D02*
X103600Y86000D01*
X109400D01*
X67550Y86150D02*
X67700Y86000D01*
X73500D01*
X42950Y86150D02*
X43100Y86000D01*
X48900D01*
X7200D02*
X13000D01*
X7050Y86150D02*
X7200Y86000D01*
X217000D02*
X217150Y86150D01*
X223450D01*
X202500Y74000D02*
Y336000D01*
X205000Y76500D02*
Y286000D01*
X207500Y79000D02*
Y236000D01*
X210000Y81500D02*
Y186000D01*
X212500Y84000D02*
Y136000D01*
X217469Y63126D02*
Y69532D01*
X221406Y63126D02*
Y71595D01*
X225342Y63126D02*
Y74158D01*
X229279Y63126D02*
Y76720D01*
X233217Y63126D02*
Y78784D01*
X202500Y74000D02*
X205000Y71500D01*
X215500D01*
X217469Y69532D01*
X205000Y76500D02*
X207500Y74000D01*
X219000D01*
X221406Y71595D01*
X207500Y79000D02*
X210000Y76500D01*
X223000D01*
X225342Y74158D01*
X210000Y81500D02*
X212500Y79000D01*
X227000D01*
X229279Y76720D01*
X212500Y84000D02*
X215000Y81500D01*
X230500D01*
X233217Y78784D01*
X223450Y86150D02*
X223600Y86000D01*
X233000D01*
X237154Y81846D01*
Y63126D02*
Y81846D01*
D15*
X171260Y0D02*
X172279Y134D01*
X173228Y527D01*
X174044Y1153D01*
X174669Y1969D01*
X175063Y2918D01*
X175197Y3937D01*
X179134Y29528D02*
X178115Y29393D01*
X177165Y29000D01*
X176350Y28374D01*
X175724Y27559D01*
X175331Y26610D01*
X175197Y25591D01*
X253937Y29528D02*
X254992Y29737D01*
X255886Y30335D01*
X256483Y31229D01*
X256693Y32283D01*
X118Y382008D02*
X0Y381890D01*
Y0D02*
X171260D01*
X256693Y33465D02*
Y382008D01*
X175197Y3937D02*
Y25591D01*
X179134Y29528D02*
X253937D01*
X256693Y32283D02*
Y33465D01*
X0Y382008D02*
X256693D01*
X0Y0D02*
Y382008D01*
D16*
X181500Y86000D02*
D03*
X195000Y95000D02*
D03*
X217500Y97500D02*
D03*
X197500Y92500D02*
D03*
X215000Y95000D02*
D03*
X200000Y104000D02*
D03*
X215000D02*
D03*
X200000Y154000D02*
D03*
X212500D02*
D03*
X200000Y204000D02*
D03*
X210000D02*
D03*
X200000Y254000D02*
D03*
X207500D02*
D03*
X200000Y304000D02*
D03*
X205000D02*
D03*
X202500Y336000D02*
D03*
X205000Y286000D02*
D03*
X207500Y236000D02*
D03*
X210000Y186000D02*
D03*
X212500Y136000D02*
D03*
X12850Y336150D02*
D03*
X48750D02*
D03*
X73350D02*
D03*
X109250D02*
D03*
X133350D02*
D03*
X169250D02*
D03*
X193350D02*
D03*
X12850Y286150D02*
D03*
X48750D02*
D03*
X73350D02*
D03*
X109250D02*
D03*
X133350D02*
D03*
X169250D02*
D03*
X193350D02*
D03*
X12850Y236150D02*
D03*
X48750D02*
D03*
X73350D02*
D03*
X109250D02*
D03*
X133350D02*
D03*
X169250D02*
D03*
X193350D02*
D03*
X12850Y186150D02*
D03*
X48750D02*
D03*
X73350D02*
D03*
X109250D02*
D03*
X133350D02*
D03*
X169250D02*
D03*
X193350D02*
D03*
X12850Y136150D02*
D03*
X48750D02*
D03*
X73350D02*
D03*
X109250D02*
D03*
X133350D02*
D03*
X169250D02*
D03*
X193350D02*
D03*
X169400Y86000D02*
D03*
X133500D02*
D03*
X109400D02*
D03*
X73500D02*
D03*
X48900D02*
D03*
X13000D02*
D03*
X217000D02*
D03*
X181390Y61500D02*
D03*
X177890D02*
D03*
X184890D02*
D03*
Y46500D02*
D03*
X177890D02*
D03*
X181390D02*
D03*
X249500D02*
D03*
X246000D02*
D03*
X253000D02*
D03*
Y61500D02*
D03*
X246000D02*
D03*
X249500D02*
D03*
M02*
