G04*
G04 #@! TF.GenerationSoftware,Altium Limited,CircuitStudio,1.5.2 (30)*
G04*
G04 Layer_Color=20142*
%FSLAX25Y25*%
%MOIN*%
G70*
G01*
G75*
%ADD15C,0.00300*%
%ADD20R,0.06300X0.09100*%
%ADD21R,0.09100X0.06300*%
%ADD22R,0.08280X0.03162*%
%ADD23R,0.11824X0.09068*%
D15*
X205043Y77457D02*
X206019Y77553D01*
X206957Y77838D01*
X207821Y78299D01*
X208579Y78921D01*
X209201Y79679D01*
X209663Y80543D01*
X209947Y81481D01*
X210043Y82457D01*
Y132522D02*
X209947Y133497D01*
X209663Y134435D01*
X209201Y135299D01*
X208579Y136057D01*
X207821Y136679D01*
X206957Y137141D01*
X206019Y137425D01*
X205043Y137522D01*
X197478D02*
X196503Y137425D01*
X195565Y137141D01*
X194701Y136679D01*
X193943Y136057D01*
X193321Y135299D01*
X192859Y134435D01*
X192575Y133497D01*
X192478Y132522D01*
Y82457D02*
X192575Y81481D01*
X192859Y80543D01*
X193321Y79679D01*
X193943Y78921D01*
X194701Y78299D01*
X195565Y77838D01*
X196503Y77553D01*
X197478Y77457D01*
X205043D02*
X205043D01*
X0Y0D02*
X259842D01*
Y382008D01*
X0D02*
X259842D01*
X0Y0D02*
Y382008D01*
X205000Y77457D02*
X205043D01*
X210043Y82457D02*
Y132522D01*
X197478Y137522D02*
X205043D01*
X192478Y82457D02*
Y132522D01*
X197478Y77457D02*
X205043D01*
D20*
X234650Y349450D02*
D03*
Y313550D02*
D03*
X252350Y349450D02*
D03*
Y313550D02*
D03*
D21*
X42950Y340350D02*
D03*
X7050D02*
D03*
X42950Y322650D02*
D03*
X7050D02*
D03*
X90450Y340350D02*
D03*
X54550D02*
D03*
X90450Y322650D02*
D03*
X54550D02*
D03*
X137950Y340350D02*
D03*
X102050D02*
D03*
X137950Y322650D02*
D03*
X102050D02*
D03*
X185450Y340350D02*
D03*
X149550D02*
D03*
X185450Y322650D02*
D03*
X149550D02*
D03*
X42950Y277350D02*
D03*
X7050D02*
D03*
X42950Y259650D02*
D03*
X7050D02*
D03*
X90450Y277350D02*
D03*
X54550D02*
D03*
X90450Y259650D02*
D03*
X54550D02*
D03*
X137950Y277350D02*
D03*
X102050D02*
D03*
X137950Y259650D02*
D03*
X102050D02*
D03*
X185450Y277350D02*
D03*
X149550D02*
D03*
X185450Y259650D02*
D03*
X149550D02*
D03*
X42950Y214350D02*
D03*
X7050D02*
D03*
X42950Y196650D02*
D03*
X7050D02*
D03*
X90450Y214350D02*
D03*
X54550D02*
D03*
X90450Y196650D02*
D03*
X54550D02*
D03*
X137950Y214350D02*
D03*
X102050D02*
D03*
X137950Y196650D02*
D03*
X102050D02*
D03*
X185450Y214350D02*
D03*
X149550D02*
D03*
X185450Y196650D02*
D03*
X149550D02*
D03*
X42950Y151350D02*
D03*
X7050D02*
D03*
X42950Y133650D02*
D03*
X7050D02*
D03*
X90450Y151350D02*
D03*
X54550D02*
D03*
X90450Y133650D02*
D03*
X54550D02*
D03*
X137950Y151350D02*
D03*
X102050D02*
D03*
X137950Y133650D02*
D03*
X102050D02*
D03*
X185450Y151350D02*
D03*
X149550D02*
D03*
X185450Y133650D02*
D03*
X149550D02*
D03*
X42950Y88350D02*
D03*
X7050D02*
D03*
X42950Y70650D02*
D03*
X7050D02*
D03*
X90450Y88350D02*
D03*
X54550D02*
D03*
X90450Y70650D02*
D03*
X54550D02*
D03*
X137950Y88350D02*
D03*
X102050D02*
D03*
X137950Y70650D02*
D03*
X102050D02*
D03*
X185450Y88350D02*
D03*
X149550D02*
D03*
X185450Y70650D02*
D03*
X149550D02*
D03*
X42950Y25850D02*
D03*
X7050D02*
D03*
X42950Y8150D02*
D03*
X7050D02*
D03*
X90450Y25850D02*
D03*
X54550D02*
D03*
X90450Y8150D02*
D03*
X54550D02*
D03*
X137950Y25850D02*
D03*
X102050D02*
D03*
X137950Y8150D02*
D03*
X102050D02*
D03*
X185450Y25850D02*
D03*
X149550D02*
D03*
X185450Y8150D02*
D03*
X149550D02*
D03*
D22*
X247126Y129154D02*
D03*
Y125216D02*
D03*
Y121280D02*
D03*
Y117342D02*
D03*
Y113406D02*
D03*
Y109468D02*
D03*
Y105532D02*
D03*
Y101594D02*
D03*
Y97658D02*
D03*
Y93721D02*
D03*
Y89784D02*
D03*
Y85847D02*
D03*
D23*
X237874Y141555D02*
D03*
Y73445D02*
D03*
M02*
