G04*
G04 #@! TF.GenerationSoftware,Altium Limited,CircuitStudio,1.5.2 (30)*
G04*
G04 Layer_Physical_Order=1*
G04 Layer_Color=11767835*
%FSLAX25Y25*%
%MOIN*%
G70*
G01*
G75*
%ADD10C,0.01200*%
%ADD11R,0.05500X0.08300*%
%ADD12R,0.08300X0.05500*%
%ADD13R,0.07480X0.02362*%
%ADD14R,0.11024X0.08268*%
%ADD15C,0.00300*%
%ADD16C,0.02050*%
G36*
X234075Y78920D02*
Y77579D01*
X234265Y77120D01*
X234724Y76929D01*
X241024D01*
X241483Y77120D01*
X241673Y77579D01*
Y78546D01*
X242027Y78899D01*
X245500Y78890D01*
Y78890D01*
X245538Y78921D01*
X246280Y78774D01*
X246942Y78332D01*
X247384Y77670D01*
X247539Y76890D01*
X247500Y69390D01*
X247500D01*
X247524Y69361D01*
X247413Y68805D01*
X247081Y68308D01*
X246585Y67977D01*
X246000Y67860D01*
X230500Y67890D01*
Y67890D01*
X230462Y67858D01*
X229720Y68006D01*
X229058Y68448D01*
X228616Y69109D01*
X228461Y69890D01*
X228500Y76890D01*
X228500D01*
X228468Y76928D01*
X228616Y77670D01*
X229058Y78332D01*
X229720Y78774D01*
X230500Y78929D01*
X234075Y78920D01*
D02*
G37*
G36*
X245500Y147000D02*
Y147000D01*
X245538Y147031D01*
X246280Y146884D01*
X246942Y146442D01*
X247384Y145780D01*
X247539Y145000D01*
X247500Y137500D01*
X247500D01*
X247524Y137471D01*
X247413Y136915D01*
X247081Y136419D01*
X246585Y136087D01*
X246000Y135971D01*
X241673Y135979D01*
Y137421D01*
X241483Y137881D01*
X241024Y138071D01*
X234724D01*
X234265Y137881D01*
X234075Y137421D01*
Y136347D01*
X233721Y135994D01*
X230500Y136000D01*
Y136000D01*
X230462Y135968D01*
X229720Y136116D01*
X229058Y136558D01*
X228724Y137059D01*
Y145941D01*
X229058Y146442D01*
X229720Y146884D01*
X230500Y147039D01*
X245500Y147000D01*
D02*
G37*
D10*
X207500Y57500D02*
X206524Y57404D01*
X205587Y57119D01*
X204722Y56657D01*
X203964Y56036D01*
X203343Y55278D01*
X202881Y54413D01*
X202596Y53475D01*
X202500Y52500D01*
X197500Y17000D02*
X198476Y17096D01*
X199413Y17381D01*
X200278Y17843D01*
X201035Y18464D01*
X201657Y19222D01*
X202119Y20087D01*
X202404Y21024D01*
X202500Y22000D01*
X43000D02*
X43096Y21024D01*
X43381Y20087D01*
X43843Y19222D01*
X44464Y18464D01*
X45222Y17843D01*
X46087Y17381D01*
X47025Y17096D01*
X48000Y17000D01*
X205000Y60000D02*
X204025Y59904D01*
X203087Y59619D01*
X202222Y59157D01*
X201465Y58535D01*
X200843Y57778D01*
X200381Y56913D01*
X200096Y55976D01*
X200000Y55000D01*
X195000Y19000D02*
X195975Y19096D01*
X196913Y19381D01*
X197778Y19843D01*
X198536Y20464D01*
X199157Y21222D01*
X199619Y22087D01*
X199904Y23024D01*
X200000Y24000D01*
X90000Y22000D02*
X90147Y21073D01*
X90573Y20237D01*
X91237Y19573D01*
X92073Y19147D01*
X93000Y19000D01*
X90450Y25850D02*
X90000Y25400D01*
X202500Y62500D02*
X201524Y62404D01*
X200587Y62119D01*
X199722Y61657D01*
X198965Y61036D01*
X198343Y60278D01*
X197881Y59413D01*
X197596Y58476D01*
X197500Y57500D01*
X192500Y21000D02*
X193475Y21096D01*
X194413Y21381D01*
X195278Y21843D01*
X196036Y22465D01*
X196657Y23222D01*
X197119Y24087D01*
X197404Y25025D01*
X197500Y26000D01*
X137950Y25850D02*
X137500Y25400D01*
Y22500D02*
X137939Y21439D01*
X139000Y21000D01*
X200000Y65000D02*
X199024Y64904D01*
X198087Y64619D01*
X197222Y64157D01*
X196465Y63535D01*
X195843Y62778D01*
X195381Y61913D01*
X195096Y60975D01*
X195000Y60000D01*
X190000Y26000D02*
X190975Y26096D01*
X191913Y26381D01*
X192778Y26843D01*
X193535Y27465D01*
X194157Y28222D01*
X194619Y29087D01*
X194904Y30024D01*
X195000Y31000D01*
X185600Y26000D02*
X185450Y25850D01*
X246657Y109000D02*
X247126Y109468D01*
X246721Y113000D02*
X247126Y113406D01*
X246783Y117000D02*
X247126Y117342D01*
X246847Y121000D02*
X247126Y121280D01*
X253000Y147000D02*
X252853Y147927D01*
X252427Y148763D01*
X251763Y149427D01*
X250927Y149853D01*
X250000Y150000D01*
X251153Y129154D02*
X252077Y129401D01*
X252753Y130077D01*
X253000Y131000D01*
X234500Y153000D02*
X234647Y152073D01*
X235073Y151237D01*
X235737Y150573D01*
X236573Y150147D01*
X237500Y150000D01*
X252350Y158898D02*
X252407Y157885D01*
X252577Y156884D01*
X252858Y155909D01*
X253246Y154972D01*
X253737Y154084D01*
X254324Y153256D01*
X255000Y152500D01*
X257500Y146465D02*
X257446Y147420D01*
X257286Y148364D01*
X257021Y149284D01*
X256655Y150168D01*
X256192Y151006D01*
X255638Y151786D01*
X255000Y152500D01*
X252716Y125216D02*
X253650Y125308D01*
X254547Y125581D01*
X255374Y126023D01*
X256099Y126618D01*
X256694Y127342D01*
X257136Y128170D01*
X257408Y129067D01*
X257500Y130000D01*
X212500Y8150D02*
X213475Y8246D01*
X214413Y8531D01*
X215278Y8993D01*
X216036Y9614D01*
X216657Y10372D01*
X217119Y11237D01*
X217404Y12175D01*
X217500Y13150D01*
X222847Y85847D02*
X221803Y85744D01*
X220800Y85439D01*
X219876Y84945D01*
X219066Y84281D01*
X218401Y83470D01*
X217907Y82546D01*
X217603Y81543D01*
X217500Y80500D01*
X208000Y70650D02*
X209001Y70763D01*
X209952Y71096D01*
X210806Y71632D01*
X211518Y72344D01*
X212054Y73198D01*
X212387Y74149D01*
X212500Y75150D01*
X217284Y89784D02*
X216350Y89692D01*
X215453Y89419D01*
X214626Y88977D01*
X213901Y88382D01*
X213306Y87658D01*
X212864Y86831D01*
X212592Y85933D01*
X212500Y85000D01*
X202500Y318000D02*
X202387Y319001D01*
X202054Y319953D01*
X201518Y320806D01*
X200806Y321518D01*
X199952Y322054D01*
X199001Y322387D01*
X198000Y322500D01*
X185450Y322650D02*
X185600Y322500D01*
X202500Y160000D02*
X202596Y159025D01*
X202881Y158087D01*
X203343Y157222D01*
X203964Y156465D01*
X204722Y155843D01*
X205587Y155381D01*
X206524Y155096D01*
X207500Y155000D01*
X227500Y150000D02*
X227404Y150976D01*
X227119Y151913D01*
X226657Y152778D01*
X226035Y153535D01*
X225278Y154157D01*
X224413Y154619D01*
X223476Y154904D01*
X222500Y155000D01*
X227500Y110500D02*
X227595Y109531D01*
X227878Y108599D01*
X228337Y107740D01*
X228955Y106987D01*
X229708Y106369D01*
X230567Y105910D01*
X231499Y105627D01*
X232469Y105532D01*
X197500Y255000D02*
X197387Y256001D01*
X197054Y256953D01*
X196518Y257806D01*
X195806Y258518D01*
X194952Y259054D01*
X194001Y259387D01*
X193000Y259500D01*
X185450Y259650D02*
X185600Y259500D01*
X197500Y155000D02*
X197596Y154025D01*
X197881Y153087D01*
X198343Y152222D01*
X198965Y151464D01*
X199722Y150843D01*
X200587Y150381D01*
X201524Y150096D01*
X202500Y150000D01*
X222500Y106500D02*
X222594Y105543D01*
X222873Y104623D01*
X223327Y103775D01*
X223937Y103031D01*
X224680Y102421D01*
X225528Y101968D01*
X226448Y101689D01*
X227406Y101594D01*
X222500Y145000D02*
X222404Y145975D01*
X222119Y146913D01*
X221657Y147778D01*
X221036Y148536D01*
X220278Y149157D01*
X219413Y149619D01*
X218476Y149904D01*
X217500Y150000D01*
X192500Y194000D02*
X192310Y194957D01*
X191768Y195768D01*
X190957Y196310D01*
X190000Y196500D01*
X185450Y196650D02*
X185600Y196500D01*
X192500Y150000D02*
X192596Y149024D01*
X192881Y148087D01*
X193343Y147222D01*
X193965Y146465D01*
X194722Y145843D01*
X195587Y145381D01*
X196525Y145096D01*
X197500Y145000D01*
X217500Y140000D02*
X217404Y140975D01*
X217119Y141913D01*
X216657Y142778D01*
X216036Y143535D01*
X215278Y144157D01*
X214413Y144619D01*
X213475Y144904D01*
X212500Y145000D01*
X217500Y102500D02*
X217593Y101555D01*
X217869Y100647D01*
X218316Y99810D01*
X218918Y99076D01*
X219652Y98474D01*
X220489Y98026D01*
X221398Y97751D01*
X222342Y97658D01*
X188500Y140000D02*
X187573Y139853D01*
X186737Y139427D01*
X186073Y138763D01*
X185647Y137927D01*
X185500Y137000D01*
X212500Y135500D02*
X212387Y136501D01*
X212054Y137452D01*
X211518Y138306D01*
X210806Y139018D01*
X209952Y139554D01*
X209001Y139887D01*
X208000Y140000D01*
X212500Y98500D02*
X212592Y97568D01*
X212864Y96671D01*
X213305Y95845D01*
X213900Y95120D01*
X214624Y94526D01*
X215451Y94084D01*
X216347Y93812D01*
X217280Y93721D01*
X252350Y313550D02*
Y349450D01*
Y158898D02*
Y313550D01*
X202500Y22000D02*
Y52500D01*
X48000Y17000D02*
X197500D01*
X25000Y25850D02*
X42950D01*
X7050D02*
X25000D01*
X43000Y22000D02*
Y25850D01*
X42950D02*
X43000D01*
X200000Y24000D02*
Y55000D01*
X93000Y19000D02*
X195000D01*
X72500Y25850D02*
X90450D01*
X54550D02*
X72500D01*
X90000Y22000D02*
Y25400D01*
X197500Y26000D02*
Y57500D01*
X139000Y21000D02*
X192500D01*
X120000Y25850D02*
X137950D01*
X102050D02*
X120000D01*
X137500Y22500D02*
Y25400D01*
X195000Y31000D02*
Y60000D01*
X185600Y26000D02*
X190000D01*
X167500Y25850D02*
X185450D01*
X232500Y121000D02*
X246847D01*
X232500Y117000D02*
X246783D01*
X232500Y113000D02*
X246721D01*
X232500Y109000D02*
X246657D01*
X167500Y340350D02*
X185450D01*
X149550D02*
X167500D01*
Y277350D02*
X185450D01*
X149550D02*
X167500D01*
Y214350D02*
X185450D01*
X149550D02*
X167500D01*
Y151350D02*
X185450D01*
X149550D02*
X167500D01*
Y88350D02*
X185450D01*
X149550D02*
X167500D01*
X149550Y25850D02*
X167500D01*
X102050Y340350D02*
X137950D01*
X7050D02*
X42950D01*
X54550D02*
X90450D01*
X102050Y277350D02*
X137950D01*
X7050D02*
X42950D01*
X54550D02*
X90450D01*
X102050Y214350D02*
X137950D01*
X7050D02*
X42950D01*
X54550D02*
X90450D01*
X102050Y151350D02*
X137950D01*
X7050D02*
X42950D01*
X54550D02*
X90450D01*
X102050Y88350D02*
X137950D01*
X7050D02*
X42950D01*
X54550D02*
X90450D01*
X253000Y131000D02*
Y147000D01*
X247126Y129154D02*
X251153D01*
X237500Y150000D02*
X250000D01*
X257500Y130000D02*
Y146465D01*
X247126Y125216D02*
X252716D01*
X185450Y8150D02*
X212500D01*
X217500Y13150D02*
Y80500D01*
X222847Y85847D02*
X247126D01*
X185450Y70650D02*
X208000D01*
X212500Y75150D02*
Y85000D01*
X217284Y89784D02*
X247126D01*
X149550Y322650D02*
X185450D01*
X185600Y322500D02*
X198000D01*
X232469Y105532D02*
X247126D01*
X207500Y155000D02*
X222500D01*
X202500Y160000D02*
Y318000D01*
X227500Y110500D02*
Y150000D01*
X149550Y259650D02*
X185450D01*
X185600Y259500D02*
X193000D01*
X227406Y101594D02*
X247126D01*
X202500Y150000D02*
X217500D01*
X197500Y155000D02*
Y255000D01*
X222500Y106500D02*
Y145000D01*
X185600Y196500D02*
X190000D01*
X192500Y150000D02*
Y194000D01*
X149550Y196650D02*
X185450D01*
X222342Y97658D02*
X247126D01*
X197500Y145000D02*
X212500D01*
X217500Y102500D02*
Y140000D01*
X188500D02*
X208000D01*
X185500Y133650D02*
Y137000D01*
X217280Y93721D02*
X247126D01*
X212500Y98500D02*
Y135500D01*
X137950Y322650D02*
X149550D01*
X102050D02*
X137950D01*
X90450D02*
X102050D01*
X54550D02*
X90450D01*
X42950D02*
X54550D01*
X7050D02*
X42950D01*
X137950Y259650D02*
X149550D01*
X102050D02*
X137950D01*
X90450D02*
X102050D01*
X54550D02*
X90450D01*
X42950D02*
X54550D01*
X7050D02*
X42950D01*
X137950Y196650D02*
X149550D01*
X102050D02*
X137950D01*
X90450D02*
X102050D01*
X54550D02*
X90450D01*
X42950D02*
X54550D01*
X7050D02*
X42950D01*
X149550Y133650D02*
X185450D01*
X137950D02*
X149550D01*
X102050D02*
X137950D01*
X90450D02*
X102050D01*
X54550D02*
X90450D01*
X42950D02*
X54550D01*
X7050D02*
X42950D01*
X149550Y70650D02*
X185450D01*
X137950D02*
X149550D01*
X102050D02*
X137950D01*
X90450D02*
X102050D01*
X54550D02*
X90450D01*
X42950D02*
X54550D01*
X7050D02*
X42950D01*
X149550Y8150D02*
X185450D01*
X137950D02*
X149550D01*
X102050D02*
X137950D01*
X90450D02*
X102050D01*
X54550D02*
X90450D01*
X42950D02*
X54550D01*
X7050D02*
X42950D01*
X234500Y349300D02*
X234650Y349450D01*
X234500Y153000D02*
Y349300D01*
D11*
X234650Y349450D02*
D03*
Y313550D02*
D03*
X252350Y349450D02*
D03*
Y313550D02*
D03*
D12*
X42950Y340350D02*
D03*
X7050D02*
D03*
X42950Y322650D02*
D03*
X7050D02*
D03*
X90450Y340350D02*
D03*
X54550D02*
D03*
X90450Y322650D02*
D03*
X54550D02*
D03*
X137950Y340350D02*
D03*
X102050D02*
D03*
X137950Y322650D02*
D03*
X102050D02*
D03*
X185450Y340350D02*
D03*
X149550D02*
D03*
X185450Y322650D02*
D03*
X149550D02*
D03*
X42950Y277350D02*
D03*
X7050D02*
D03*
X42950Y259650D02*
D03*
X7050D02*
D03*
X90450Y277350D02*
D03*
X54550D02*
D03*
X90450Y259650D02*
D03*
X54550D02*
D03*
X137950Y277350D02*
D03*
X102050D02*
D03*
X137950Y259650D02*
D03*
X102050D02*
D03*
X185450Y277350D02*
D03*
X149550D02*
D03*
X185450Y259650D02*
D03*
X149550D02*
D03*
X42950Y214350D02*
D03*
X7050D02*
D03*
X42950Y196650D02*
D03*
X7050D02*
D03*
X90450Y214350D02*
D03*
X54550D02*
D03*
X90450Y196650D02*
D03*
X54550D02*
D03*
X137950Y214350D02*
D03*
X102050D02*
D03*
X137950Y196650D02*
D03*
X102050D02*
D03*
X185450Y214350D02*
D03*
X149550D02*
D03*
X185450Y196650D02*
D03*
X149550D02*
D03*
X42950Y151350D02*
D03*
X7050D02*
D03*
X42950Y133650D02*
D03*
X7050D02*
D03*
X90450Y151350D02*
D03*
X54550D02*
D03*
X90450Y133650D02*
D03*
X54550D02*
D03*
X137950Y151350D02*
D03*
X102050D02*
D03*
X137950Y133650D02*
D03*
X102050D02*
D03*
X185450Y151350D02*
D03*
X149550D02*
D03*
X185450Y133650D02*
D03*
X149550D02*
D03*
X42950Y88350D02*
D03*
X7050D02*
D03*
X42950Y70650D02*
D03*
X7050D02*
D03*
X90450Y88350D02*
D03*
X54550D02*
D03*
X90450Y70650D02*
D03*
X54550D02*
D03*
X137950Y88350D02*
D03*
X102050D02*
D03*
X137950Y70650D02*
D03*
X102050D02*
D03*
X185450Y88350D02*
D03*
X149550D02*
D03*
X185450Y70650D02*
D03*
X149550D02*
D03*
X42950Y25850D02*
D03*
X7050D02*
D03*
X42950Y8150D02*
D03*
X7050D02*
D03*
X90450Y25850D02*
D03*
X54550D02*
D03*
X90450Y8150D02*
D03*
X54550D02*
D03*
X137950Y25850D02*
D03*
X102050D02*
D03*
X137950Y8150D02*
D03*
X102050D02*
D03*
X185450Y25850D02*
D03*
X149550D02*
D03*
X185450Y8150D02*
D03*
X149550D02*
D03*
D13*
X247126Y129154D02*
D03*
Y125216D02*
D03*
Y121280D02*
D03*
Y117342D02*
D03*
Y113406D02*
D03*
Y109468D02*
D03*
Y105532D02*
D03*
Y101594D02*
D03*
Y97658D02*
D03*
Y93721D02*
D03*
Y89784D02*
D03*
Y85847D02*
D03*
D14*
X237874Y141555D02*
D03*
Y73445D02*
D03*
D15*
X205043Y77457D02*
X206019Y77553D01*
X206957Y77838D01*
X207821Y78299D01*
X208579Y78921D01*
X209201Y79679D01*
X209663Y80543D01*
X209947Y81481D01*
X210043Y82457D01*
Y132522D02*
X209947Y133497D01*
X209663Y134435D01*
X209201Y135299D01*
X208579Y136057D01*
X207821Y136679D01*
X206957Y137141D01*
X206019Y137425D01*
X205043Y137522D01*
X197478D02*
X196503Y137425D01*
X195565Y137141D01*
X194701Y136679D01*
X193943Y136057D01*
X193321Y135299D01*
X192859Y134435D01*
X192575Y133497D01*
X192478Y132522D01*
Y82457D02*
X192575Y81481D01*
X192859Y80543D01*
X193321Y79679D01*
X193943Y78921D01*
X194701Y78299D01*
X195565Y77838D01*
X196503Y77553D01*
X197478Y77457D01*
X205043D02*
X205043D01*
X0Y0D02*
X259842D01*
Y382008D01*
X0D02*
X259842D01*
X0Y0D02*
Y382008D01*
X205000Y77457D02*
X205043D01*
X210043Y82457D02*
Y132522D01*
X197478Y137522D02*
X205043D01*
X192478Y82457D02*
Y132522D01*
X197478Y77457D02*
X205043D01*
D16*
X245500Y76890D02*
D03*
Y73390D02*
D03*
Y69890D02*
D03*
X230500D02*
D03*
Y73390D02*
D03*
Y76890D02*
D03*
Y145000D02*
D03*
Y141500D02*
D03*
Y138000D02*
D03*
X245500D02*
D03*
Y141500D02*
D03*
Y145000D02*
D03*
X232500Y121000D02*
D03*
Y117000D02*
D03*
Y113000D02*
D03*
Y109000D02*
D03*
X207500Y57500D02*
D03*
X205000Y60000D02*
D03*
X202500Y62500D02*
D03*
X200000Y65000D02*
D03*
X25000Y25850D02*
D03*
Y88350D02*
D03*
Y151350D02*
D03*
Y214350D02*
D03*
Y277350D02*
D03*
Y340350D02*
D03*
X72500Y25850D02*
D03*
Y88350D02*
D03*
Y151350D02*
D03*
Y214350D02*
D03*
Y277350D02*
D03*
Y340350D02*
D03*
X120000Y25850D02*
D03*
Y88350D02*
D03*
Y151350D02*
D03*
Y214350D02*
D03*
Y277350D02*
D03*
Y340350D02*
D03*
X167500D02*
D03*
Y277350D02*
D03*
Y214350D02*
D03*
Y151350D02*
D03*
Y88350D02*
D03*
Y25850D02*
D03*
M02*
