G04*
G04 #@! TF.GenerationSoftware,Altium Limited,CircuitStudio,1.5.2 (30)*
G04*
G04 Layer_Color=15065295*
%FSLAX25Y25*%
%MOIN*%
G70*
G01*
G75*
%ADD15C,0.00300*%
%ADD17C,0.00984*%
%ADD18C,0.00787*%
%ADD19R,0.40000X0.20000*%
D15*
X171260Y0D02*
X172279Y134D01*
X173228Y527D01*
X174044Y1153D01*
X174669Y1969D01*
X175063Y2918D01*
X175197Y3937D01*
X179134Y29528D02*
X178115Y29393D01*
X177165Y29000D01*
X176350Y28374D01*
X175724Y27559D01*
X175331Y26610D01*
X175197Y25591D01*
X253937Y29528D02*
X254992Y29737D01*
X255886Y30335D01*
X256483Y31229D01*
X256693Y32283D01*
X118Y382008D02*
X0Y381890D01*
Y0D02*
X171260D01*
X256693Y33465D02*
Y382008D01*
X175197Y3937D02*
Y25591D01*
X179134Y29528D02*
X253937D01*
X256693Y32283D02*
Y33465D01*
X0Y382008D02*
X256693D01*
X0Y0D02*
Y382008D01*
D17*
X194339Y69032D02*
X193600Y69458D01*
Y68605D01*
X194339Y69032D01*
X188043Y81425D02*
X187305Y81851D01*
Y80999D01*
X188043Y81425D01*
X128043D02*
X127305Y81851D01*
Y80999D01*
X128043Y81425D01*
X68043D02*
X67305Y81851D01*
Y80999D01*
X68043Y81425D01*
X7543D02*
X6805Y81851D01*
Y80999D01*
X7543Y81425D01*
X188043Y131425D02*
X187305Y131851D01*
Y130999D01*
X188043Y131425D01*
X128043D02*
X127305Y131851D01*
Y130999D01*
X128043Y131425D01*
X68043D02*
X67305Y131851D01*
Y130999D01*
X68043Y131425D01*
X7543D02*
X6805Y131851D01*
Y130999D01*
X7543Y131425D01*
X188043Y181425D02*
X187305Y181851D01*
Y180999D01*
X188043Y181425D01*
X128043D02*
X127305Y181851D01*
Y180999D01*
X128043Y181425D01*
X68043D02*
X67305Y181851D01*
Y180999D01*
X68043Y181425D01*
X7543D02*
X6805Y181851D01*
Y180999D01*
X7543Y181425D01*
X188043Y231425D02*
X187305Y231851D01*
Y230999D01*
X188043Y231425D01*
X128043D02*
X127305Y231851D01*
Y230999D01*
X128043Y231425D01*
X68043D02*
X67305Y231851D01*
Y230999D01*
X68043Y231425D01*
X7543D02*
X6805Y231851D01*
Y230999D01*
X7543Y231425D01*
X188043Y281425D02*
X187305Y281851D01*
Y280999D01*
X188043Y281425D01*
X128043D02*
X127305Y281851D01*
Y280999D01*
X128043Y281425D01*
X68043D02*
X67305Y281851D01*
Y280999D01*
X68043Y281425D01*
X7543D02*
X6805Y281851D01*
Y280999D01*
X7543Y281425D01*
X188043Y331425D02*
X187305Y331851D01*
Y330999D01*
X188043Y331425D01*
X128043D02*
X127305Y331851D01*
Y330999D01*
X128043Y331425D01*
X68043D02*
X67305Y331851D01*
Y330999D01*
X68043Y331425D01*
X8043D02*
X7305Y331851D01*
Y330999D01*
X8043Y331425D01*
X256567Y339551D02*
X255829Y339977D01*
Y339125D01*
X256567Y339551D01*
D18*
X178098Y31433D02*
X252902D01*
X187153Y57811D02*
X243847D01*
X252902Y31433D02*
Y35764D01*
X247193D02*
X252902D01*
X247193D02*
Y41276D01*
X248965D01*
Y46788D01*
X178098Y31433D02*
Y35764D01*
X183807D01*
Y41276D01*
X182035D02*
X183807D01*
X182035D02*
Y46788D01*
X193689Y83189D02*
Y106811D01*
Y83189D02*
X217311D01*
Y106811D01*
X193689D02*
X217311D01*
X133689Y83189D02*
Y106811D01*
Y83189D02*
X157311D01*
Y106811D01*
X133689D02*
X157311D01*
X73689Y83189D02*
Y106811D01*
Y83189D02*
X97311D01*
Y106811D01*
X73689D02*
X97311D01*
X13189Y83189D02*
Y106811D01*
Y83189D02*
X36811D01*
Y106811D01*
X13189D02*
X36811D01*
X193689Y133189D02*
Y156811D01*
Y133189D02*
X217311D01*
Y156811D01*
X193689D02*
X217311D01*
X133689Y133189D02*
Y156811D01*
Y133189D02*
X157311D01*
Y156811D01*
X133689D02*
X157311D01*
X73689Y133189D02*
Y156811D01*
Y133189D02*
X97311D01*
Y156811D01*
X73689D02*
X97311D01*
X13189Y133189D02*
Y156811D01*
Y133189D02*
X36811D01*
Y156811D01*
X13189D02*
X36811D01*
X193689Y183189D02*
Y206811D01*
Y183189D02*
X217311D01*
Y206811D01*
X193689D02*
X217311D01*
X133689Y183189D02*
Y206811D01*
Y183189D02*
X157311D01*
Y206811D01*
X133689D02*
X157311D01*
X73689Y183189D02*
Y206811D01*
Y183189D02*
X97311D01*
Y206811D01*
X73689D02*
X97311D01*
X13189Y183189D02*
Y206811D01*
Y183189D02*
X36811D01*
Y206811D01*
X13189D02*
X36811D01*
X193689Y233189D02*
Y256811D01*
Y233189D02*
X217311D01*
Y256811D01*
X193689D02*
X217311D01*
X133689Y233189D02*
Y256811D01*
Y233189D02*
X157311D01*
Y256811D01*
X133689D02*
X157311D01*
X73689Y233189D02*
Y256811D01*
Y233189D02*
X97311D01*
Y256811D01*
X73689D02*
X97311D01*
X13189Y233189D02*
Y256811D01*
Y233189D02*
X36811D01*
Y256811D01*
X13189D02*
X36811D01*
X193689Y283189D02*
Y306811D01*
Y283189D02*
X217311D01*
Y306811D01*
X193689D02*
X217311D01*
X133689Y283189D02*
Y306811D01*
Y283189D02*
X157311D01*
Y306811D01*
X133689D02*
X157311D01*
X73689Y283189D02*
Y306811D01*
Y283189D02*
X97311D01*
Y306811D01*
X73689D02*
X97311D01*
X13189Y283189D02*
Y306811D01*
Y283189D02*
X36811D01*
Y306811D01*
X13189D02*
X36811D01*
X193689Y333189D02*
Y356811D01*
Y333189D02*
X217311D01*
Y356811D01*
X193689D02*
X217311D01*
X133689Y333189D02*
Y356811D01*
Y333189D02*
X157311D01*
Y356811D01*
X133689D02*
X157311D01*
X73689Y333189D02*
Y356811D01*
Y333189D02*
X97311D01*
Y356811D01*
X73689D02*
X97311D01*
X13689Y333189D02*
Y356811D01*
Y333189D02*
X37311D01*
Y356811D01*
X13689D02*
X37311D01*
X230689Y345689D02*
X254311D01*
Y369311D01*
X230689D02*
X254311D01*
X230689Y345689D02*
Y369311D01*
D19*
X25000Y119500D02*
D03*
X85500D02*
D03*
X145500D02*
D03*
X205500D02*
D03*
X25500Y369500D02*
D03*
X205500D02*
D03*
X145500D02*
D03*
X85500D02*
D03*
Y319500D02*
D03*
X145500D02*
D03*
X205500D02*
D03*
X25500D02*
D03*
X85500Y269500D02*
D03*
X145500D02*
D03*
X205500D02*
D03*
X25500D02*
D03*
X85500Y219500D02*
D03*
X145500D02*
D03*
X205500D02*
D03*
X25500D02*
D03*
X85500Y169500D02*
D03*
X145500D02*
D03*
X205500D02*
D03*
X25500D02*
D03*
M02*
