G04*
G04 #@! TF.GenerationSoftware,Altium Limited,CircuitStudio,1.5.2 (30)*
G04*
G04 Layer_Color=20142*
%FSLAX25Y25*%
%MOIN*%
G70*
G01*
G75*
%ADD12C,0.00394*%
%ADD15R,0.03937X0.02756*%
%ADD16R,0.01181X0.02756*%
%ADD34R,0.02303X0.08559*%
G04:AMPARAMS|DCode=35|XSize=85.59mil|YSize=23.03mil|CornerRadius=11.51mil|HoleSize=0mil|Usage=FLASHONLY|Rotation=270.000|XOffset=0mil|YOffset=0mil|HoleType=Round|Shape=RoundedRectangle|*
%AMROUNDEDRECTD35*
21,1,0.08559,0.00000,0,0,270.0*
21,1,0.06257,0.02303,0,0,270.0*
1,1,0.02303,0.00000,-0.03128*
1,1,0.02303,0.00000,0.03128*
1,1,0.02303,0.00000,0.03128*
1,1,0.02303,0.00000,-0.03128*
%
%ADD35ROUNDEDRECTD35*%
G04:AMPARAMS|DCode=43|XSize=43.31mil|YSize=102.36mil|CornerRadius=21.65mil|HoleSize=0mil|Usage=FLASHONLY|Rotation=180.000|XOffset=0mil|YOffset=0mil|HoleType=Round|Shape=RoundedRectangle|*
%AMROUNDEDRECTD43*
21,1,0.04331,0.05906,0,0,180.0*
21,1,0.00000,0.10236,0,0,180.0*
1,1,0.04331,0.00000,0.02953*
1,1,0.04331,0.00000,0.02953*
1,1,0.04331,0.00000,-0.02953*
1,1,0.04331,0.00000,-0.02953*
%
%ADD43ROUNDEDRECTD43*%
G04:AMPARAMS|DCode=44|XSize=43.31mil|YSize=82.68mil|CornerRadius=21.65mil|HoleSize=0mil|Usage=FLASHONLY|Rotation=180.000|XOffset=0mil|YOffset=0mil|HoleType=Round|Shape=RoundedRectangle|*
%AMROUNDEDRECTD44*
21,1,0.04331,0.03937,0,0,180.0*
21,1,0.00000,0.08268,0,0,180.0*
1,1,0.04331,0.00000,0.01969*
1,1,0.04331,0.00000,0.01969*
1,1,0.04331,0.00000,-0.01969*
1,1,0.04331,0.00000,-0.01969*
%
%ADD44ROUNDEDRECTD44*%
%ADD57C,0.04737*%
%ADD58R,0.10446X0.10446*%
%ADD59O,0.04343X0.01784*%
%ADD60O,0.01784X0.04343*%
%ADD61R,0.21076X0.04737*%
%ADD62R,0.03556X0.04343*%
%ADD63R,0.04737X0.04343*%
%ADD64R,0.04343X0.04737*%
%ADD65R,0.04343X0.03556*%
%ADD66R,0.05524X0.06312*%
G04:AMPARAMS|DCode=67|XSize=29.65mil|YSize=57.21mil|CornerRadius=5.95mil|HoleSize=0mil|Usage=FLASHONLY|Rotation=90.000|XOffset=0mil|YOffset=0mil|HoleType=Round|Shape=RoundedRectangle|*
%AMROUNDEDRECTD67*
21,1,0.02965,0.04532,0,0,90.0*
21,1,0.01776,0.05721,0,0,90.0*
1,1,0.01190,0.02266,0.00888*
1,1,0.01190,0.02266,-0.00888*
1,1,0.01190,-0.02266,-0.00888*
1,1,0.01190,-0.02266,0.00888*
%
%ADD67ROUNDEDRECTD67*%
G04:AMPARAMS|DCode=68|XSize=33.59mil|YSize=72.96mil|CornerRadius=5.92mil|HoleSize=0mil|Usage=FLASHONLY|Rotation=270.000|XOffset=0mil|YOffset=0mil|HoleType=Round|Shape=RoundedRectangle|*
%AMROUNDEDRECTD68*
21,1,0.03359,0.06112,0,0,270.0*
21,1,0.02175,0.07296,0,0,270.0*
1,1,0.01184,-0.03056,-0.01088*
1,1,0.01184,-0.03056,0.01088*
1,1,0.01184,0.03056,0.01088*
1,1,0.01184,0.03056,-0.01088*
%
%ADD68ROUNDEDRECTD68*%
%ADD69O,0.02769X0.05524*%
%ADD70R,0.02769X0.05524*%
%ADD71R,0.05524X0.02769*%
%ADD72R,0.04934X0.04540*%
G04:AMPARAMS|DCode=73|XSize=47.37mil|YSize=47.37mil|CornerRadius=5.97mil|HoleSize=0mil|Usage=FLASHONLY|Rotation=0.000|XOffset=0mil|YOffset=0mil|HoleType=Round|Shape=RoundedRectangle|*
%AMROUNDEDRECTD73*
21,1,0.04737,0.03543,0,0,0.0*
21,1,0.03543,0.04737,0,0,0.0*
1,1,0.01194,0.01772,-0.01772*
1,1,0.01194,-0.01772,-0.01772*
1,1,0.01194,-0.01772,0.01772*
1,1,0.01194,0.01772,0.01772*
%
%ADD73ROUNDEDRECTD73*%
G04:AMPARAMS|DCode=74|XSize=31.62mil|YSize=47.37mil|CornerRadius=6.01mil|HoleSize=0mil|Usage=FLASHONLY|Rotation=0.000|XOffset=0mil|YOffset=0mil|HoleType=Round|Shape=RoundedRectangle|*
%AMROUNDEDRECTD74*
21,1,0.03162,0.03535,0,0,0.0*
21,1,0.01961,0.04737,0,0,0.0*
1,1,0.01202,0.00980,-0.01768*
1,1,0.01202,-0.00980,-0.01768*
1,1,0.01202,-0.00980,0.01768*
1,1,0.01202,0.00980,0.01768*
%
%ADD74ROUNDEDRECTD74*%
%ADD75R,0.11784X0.03713*%
%ADD76R,0.03162X0.08280*%
%ADD77R,0.09068X0.11824*%
%ADD78R,0.11824X0.09068*%
%ADD79R,0.08280X0.03162*%
%ADD80C,0.01194*%
%ADD81C,0.07887*%
%ADD82R,0.07887X0.07887*%
%ADD83C,0.10249*%
%ADD84R,0.08674X0.08674*%
%ADD85C,0.08674*%
%ADD86C,0.02769*%
G36*
X220573Y441046D02*
X220588Y441046D01*
X222628Y440900D01*
X222647Y440897D01*
X222666Y440895D01*
X222673Y440894D01*
X222680Y440893D01*
X222698Y440888D01*
X222717Y440883D01*
X222724Y440881D01*
X222731Y440879D01*
X222748Y440872D01*
X222766Y440865D01*
X225516Y439615D01*
X225533Y439606D01*
X225550Y439597D01*
X225556Y439593D01*
X225562Y439590D01*
X225578Y439579D01*
X225594Y439568D01*
X225599Y439564D01*
X225605Y439560D01*
X225619Y439546D01*
X225633Y439533D01*
X228183Y436983D01*
X228191Y436974D01*
X228200Y436966D01*
X228209Y436955D01*
X228218Y436944D01*
X228225Y436934D01*
X228232Y436925D01*
X228239Y436912D01*
X228247Y436900D01*
X228252Y436890D01*
X228258Y436879D01*
X229258Y434879D01*
X229268Y434857D01*
X229277Y434835D01*
X229278Y434833D01*
X229279Y434831D01*
X229285Y434808D01*
X229292Y434785D01*
X229788Y432490D01*
X229789Y432483D01*
X229790Y432477D01*
X229792Y432457D01*
X229795Y432438D01*
X229795Y432431D01*
X229796Y432424D01*
X229796Y432405D01*
X229796Y432386D01*
X229795Y432379D01*
X229795Y432372D01*
X229792Y432353D01*
X229790Y432334D01*
X229788Y432327D01*
X229787Y432320D01*
X229782Y432302D01*
X229777Y432283D01*
X229775Y432276D01*
X229773Y432270D01*
X229765Y432252D01*
X229758Y432234D01*
X229755Y432228D01*
X229752Y432222D01*
X229742Y432205D01*
X229733Y432188D01*
X229729Y432183D01*
X229725Y432177D01*
X229713Y432162D01*
X229701Y432146D01*
X229697Y432141D01*
X229692Y432136D01*
X229678Y432122D01*
X229665Y432108D01*
X229660Y432104D01*
X229655Y432099D01*
X229639Y432088D01*
X229624Y432076D01*
X229618Y432072D01*
X229612Y432068D01*
X229595Y432059D01*
X229579Y432049D01*
X229573Y432046D01*
X229567Y432043D01*
X229549Y432036D01*
X229531Y432028D01*
X229524Y432026D01*
X229518Y432023D01*
X229499Y432019D01*
X229480Y432014D01*
X229474Y432013D01*
X229467Y432011D01*
X229448Y432009D01*
X229429Y432006D01*
X229422Y432006D01*
X229415Y432005D01*
X220578Y431584D01*
X220569Y431584D01*
X220559Y431583D01*
X220542Y431585D01*
X220526Y431585D01*
X220516Y431586D01*
X220507Y431587D01*
X220490Y431590D01*
X220474Y431593D01*
X220465Y431595D01*
X220455Y431597D01*
X220440Y431602D01*
X220424Y431607D01*
X220415Y431611D01*
X220406Y431614D01*
X220391Y431621D01*
X220375Y431628D01*
X220367Y431633D01*
X220359Y431637D01*
X220345Y431646D01*
X220330Y431655D01*
X220323Y431661D01*
X220315Y431666D01*
X220303Y431677D01*
X220289Y431688D01*
X220283Y431695D01*
X220276Y431701D01*
X220265Y431713D01*
X220253Y431725D01*
X220247Y431733D01*
X220241Y431740D01*
X220232Y431754D01*
X220222Y431768D01*
X220217Y431776D01*
X220212Y431784D01*
X220205Y431799D01*
X220196Y431813D01*
X220193Y431822D01*
X220189Y431831D01*
X220183Y431847D01*
X220177Y431862D01*
X220175Y431872D01*
X220172Y431881D01*
X220169Y431897D01*
X220165Y431913D01*
X220163Y431923D01*
X220162Y431932D01*
X220161Y431949D01*
X220159Y431965D01*
X220159Y431975D01*
X220158Y431984D01*
Y440646D01*
X220159Y440660D01*
X220159Y440674D01*
X220161Y440686D01*
X220162Y440698D01*
X220164Y440712D01*
X220166Y440726D01*
X220169Y440738D01*
X220172Y440749D01*
X220177Y440763D01*
X220180Y440777D01*
X220185Y440788D01*
X220189Y440799D01*
X220195Y440812D01*
X220201Y440825D01*
X220207Y440835D01*
X220212Y440846D01*
X220220Y440858D01*
X220227Y440870D01*
X220234Y440880D01*
X220241Y440890D01*
X220251Y440901D01*
X220259Y440912D01*
X220268Y440920D01*
X220276Y440929D01*
X220286Y440939D01*
X220297Y440949D01*
X220306Y440956D01*
X220315Y440964D01*
X220327Y440972D01*
X220338Y440980D01*
X220349Y440986D01*
X220359Y440993D01*
X220371Y440999D01*
X220384Y441006D01*
X220395Y441011D01*
X220406Y441016D01*
X220419Y441021D01*
X220432Y441026D01*
X220444Y441029D01*
X220455Y441033D01*
X220469Y441036D01*
X220483Y441039D01*
X220495Y441041D01*
X220507Y441043D01*
X220521Y441044D01*
X220535Y441046D01*
X220547Y441046D01*
X220559Y441046D01*
X220573Y441046D01*
D02*
G37*
G36*
X240453Y441046D02*
X240465Y441046D01*
X240479Y441044D01*
X240493Y441043D01*
X240505Y441041D01*
X240517Y441039D01*
X240531Y441036D01*
X240545Y441033D01*
X240556Y441029D01*
X240568Y441026D01*
X240581Y441021D01*
X240594Y441016D01*
X240605Y441011D01*
X240616Y441006D01*
X240629Y440999D01*
X240641Y440993D01*
X240651Y440986D01*
X240662Y440980D01*
X240673Y440972D01*
X240685Y440964D01*
X240694Y440956D01*
X240704Y440949D01*
X240714Y440939D01*
X240724Y440929D01*
X240732Y440920D01*
X240741Y440912D01*
X240750Y440901D01*
X240759Y440890D01*
X240766Y440880D01*
X240773Y440870D01*
X240780Y440858D01*
X240788Y440846D01*
X240793Y440835D01*
X240799Y440825D01*
X240805Y440812D01*
X240811Y440799D01*
X240815Y440788D01*
X240820Y440777D01*
X240824Y440763D01*
X240828Y440749D01*
X240830Y440738D01*
X240834Y440726D01*
X240836Y440712D01*
X240838Y440698D01*
X240839Y440686D01*
X240841Y440674D01*
X240841Y440660D01*
X240842Y440646D01*
Y431984D01*
X240841Y431975D01*
X240841Y431965D01*
X240840Y431949D01*
X240838Y431932D01*
X240837Y431923D01*
X240835Y431913D01*
X240831Y431897D01*
X240828Y431881D01*
X240825Y431872D01*
X240823Y431862D01*
X240817Y431847D01*
X240811Y431831D01*
X240807Y431822D01*
X240804Y431813D01*
X240795Y431799D01*
X240788Y431784D01*
X240783Y431776D01*
X240778Y431768D01*
X240768Y431754D01*
X240759Y431740D01*
X240753Y431733D01*
X240747Y431725D01*
X240735Y431713D01*
X240724Y431701D01*
X240717Y431695D01*
X240711Y431688D01*
X240698Y431677D01*
X240685Y431666D01*
X240677Y431661D01*
X240670Y431655D01*
X240655Y431646D01*
X240641Y431637D01*
X240633Y431633D01*
X240625Y431628D01*
X240609Y431621D01*
X240594Y431614D01*
X240585Y431611D01*
X240577Y431607D01*
X240561Y431602D01*
X240545Y431597D01*
X240535Y431595D01*
X240526Y431593D01*
X240510Y431590D01*
X240493Y431587D01*
X240484Y431586D01*
X240474Y431585D01*
X240458Y431585D01*
X240441Y431583D01*
X240431Y431584D01*
X240422Y431584D01*
X231585Y432005D01*
X231578Y432006D01*
X231572Y432006D01*
X231552Y432009D01*
X231533Y432011D01*
X231526Y432013D01*
X231520Y432014D01*
X231501Y432019D01*
X231482Y432023D01*
X231476Y432026D01*
X231469Y432028D01*
X231451Y432036D01*
X231433Y432043D01*
X231427Y432046D01*
X231421Y432049D01*
X231404Y432059D01*
X231387Y432068D01*
X231382Y432072D01*
X231376Y432076D01*
X231361Y432088D01*
X231345Y432099D01*
X231340Y432104D01*
X231335Y432108D01*
X231322Y432122D01*
X231308Y432136D01*
X231303Y432141D01*
X231299Y432146D01*
X231287Y432162D01*
X231275Y432177D01*
X231271Y432183D01*
X231267Y432188D01*
X231258Y432205D01*
X231248Y432222D01*
X231245Y432228D01*
X231242Y432234D01*
X231235Y432252D01*
X231227Y432270D01*
X231225Y432276D01*
X231223Y432283D01*
X231218Y432302D01*
X231213Y432320D01*
X231211Y432327D01*
X231210Y432334D01*
X231208Y432353D01*
X231205Y432372D01*
X231205Y432379D01*
X231204Y432386D01*
X231204Y432405D01*
X231204Y432424D01*
X231205Y432431D01*
X231205Y432438D01*
X231208Y432457D01*
X231210Y432477D01*
X231211Y432483D01*
X231212Y432490D01*
X231708Y434785D01*
X231715Y434808D01*
X231721Y434831D01*
X231722Y434833D01*
X231723Y434835D01*
X231732Y434857D01*
X231741Y434879D01*
X232741Y436879D01*
X232748Y436890D01*
X232753Y436900D01*
X232761Y436912D01*
X232768Y436925D01*
X232775Y436934D01*
X232782Y436944D01*
X232791Y436955D01*
X232800Y436966D01*
X232809Y436974D01*
X232817Y436983D01*
X235367Y439533D01*
X235381Y439546D01*
X235395Y439560D01*
X235401Y439564D01*
X235406Y439568D01*
X235422Y439579D01*
X235438Y439590D01*
X235444Y439593D01*
X235450Y439597D01*
X235467Y439606D01*
X235484Y439615D01*
X238234Y440865D01*
X238252Y440872D01*
X238269Y440879D01*
X238276Y440881D01*
X238283Y440883D01*
X238301Y440888D01*
X238319Y440893D01*
X238327Y440894D01*
X238334Y440895D01*
X238353Y440897D01*
X238371Y440900D01*
X240412Y441046D01*
X240427Y441046D01*
X240441Y441046D01*
X240453Y441046D01*
D02*
G37*
G36*
X240458Y455415D02*
X240474Y455415D01*
X240484Y455414D01*
X240493Y455413D01*
X240510Y455410D01*
X240526Y455407D01*
X240535Y455405D01*
X240545Y455403D01*
X240561Y455398D01*
X240577Y455393D01*
X240585Y455389D01*
X240594Y455386D01*
X240609Y455379D01*
X240625Y455372D01*
X240633Y455367D01*
X240641Y455363D01*
X240655Y455354D01*
X240670Y455345D01*
X240677Y455339D01*
X240685Y455334D01*
X240698Y455323D01*
X240711Y455312D01*
X240717Y455305D01*
X240724Y455299D01*
X240735Y455287D01*
X240747Y455275D01*
X240753Y455267D01*
X240759Y455260D01*
X240768Y455246D01*
X240778Y455232D01*
X240783Y455224D01*
X240788Y455216D01*
X240795Y455201D01*
X240804Y455187D01*
X240807Y455178D01*
X240811Y455169D01*
X240817Y455153D01*
X240823Y455138D01*
X240825Y455128D01*
X240828Y455120D01*
X240831Y455103D01*
X240835Y455087D01*
X240837Y455077D01*
X240838Y455068D01*
X240840Y455052D01*
X240841Y455035D01*
X240841Y455025D01*
X240842Y455016D01*
Y446354D01*
X240841Y446340D01*
X240841Y446326D01*
X240839Y446314D01*
X240838Y446302D01*
X240836Y446288D01*
X240834Y446274D01*
X240830Y446262D01*
X240828Y446251D01*
X240824Y446237D01*
X240820Y446223D01*
X240815Y446212D01*
X240811Y446201D01*
X240805Y446188D01*
X240799Y446175D01*
X240793Y446165D01*
X240788Y446154D01*
X240780Y446142D01*
X240773Y446130D01*
X240766Y446120D01*
X240759Y446110D01*
X240750Y446100D01*
X240741Y446088D01*
X240732Y446080D01*
X240724Y446071D01*
X240714Y446061D01*
X240704Y446051D01*
X240694Y446044D01*
X240685Y446036D01*
X240673Y446028D01*
X240662Y446020D01*
X240651Y446014D01*
X240641Y446007D01*
X240629Y446001D01*
X240616Y445994D01*
X240605Y445989D01*
X240594Y445984D01*
X240581Y445979D01*
X240568Y445974D01*
X240556Y445971D01*
X240545Y445967D01*
X240531Y445964D01*
X240517Y445961D01*
X240505Y445959D01*
X240493Y445957D01*
X240479Y445956D01*
X240465Y445954D01*
X240453Y445954D01*
X240441Y445954D01*
X240427Y445954D01*
X240412Y445955D01*
X238371Y446100D01*
X238353Y446103D01*
X238334Y446105D01*
X238327Y446106D01*
X238319Y446107D01*
X238301Y446112D01*
X238283Y446116D01*
X238276Y446119D01*
X238269Y446121D01*
X238252Y446128D01*
X238234Y446135D01*
X235484Y447385D01*
X235467Y447394D01*
X235450Y447403D01*
X235444Y447407D01*
X235438Y447410D01*
X235422Y447421D01*
X235406Y447432D01*
X235401Y447437D01*
X235395Y447440D01*
X235381Y447454D01*
X235367Y447467D01*
X232817Y450017D01*
X232809Y450026D01*
X232800Y450034D01*
X232791Y450045D01*
X232782Y450056D01*
X232775Y450066D01*
X232768Y450075D01*
X232761Y450088D01*
X232753Y450100D01*
X232748Y450110D01*
X232741Y450121D01*
X231741Y452121D01*
X231732Y452143D01*
X231723Y452165D01*
X231722Y452167D01*
X231721Y452169D01*
X231715Y452192D01*
X231708Y452215D01*
X231212Y454510D01*
X231211Y454517D01*
X231210Y454524D01*
X231208Y454543D01*
X231205Y454562D01*
X231205Y454569D01*
X231204Y454576D01*
X231204Y454595D01*
X231204Y454614D01*
X231205Y454621D01*
X231205Y454628D01*
X231208Y454647D01*
X231210Y454666D01*
X231211Y454673D01*
X231213Y454680D01*
X231218Y454699D01*
X231223Y454717D01*
X231225Y454724D01*
X231227Y454730D01*
X231235Y454748D01*
X231242Y454766D01*
X231245Y454772D01*
X231248Y454778D01*
X231258Y454795D01*
X231267Y454812D01*
X231271Y454817D01*
X231275Y454823D01*
X231287Y454839D01*
X231299Y454854D01*
X231303Y454859D01*
X231308Y454864D01*
X231322Y454878D01*
X231335Y454892D01*
X231340Y454896D01*
X231345Y454901D01*
X231361Y454912D01*
X231376Y454924D01*
X231382Y454928D01*
X231387Y454932D01*
X231404Y454941D01*
X231421Y454951D01*
X231427Y454954D01*
X231433Y454957D01*
X231451Y454964D01*
X231469Y454972D01*
X231476Y454974D01*
X231482Y454977D01*
X231501Y454981D01*
X231520Y454986D01*
X231526Y454987D01*
X231533Y454989D01*
X231552Y454991D01*
X231572Y454994D01*
X231578Y454994D01*
X231585Y454995D01*
X240422Y455416D01*
X240431Y455416D01*
X240441Y455417D01*
X240458Y455415D01*
D02*
G37*
G36*
X220569Y455416D02*
X220578Y455416D01*
X229415Y454995D01*
X229422Y454994D01*
X229429Y454994D01*
X229448Y454991D01*
X229467Y454989D01*
X229474Y454987D01*
X229480Y454986D01*
X229499Y454981D01*
X229518Y454977D01*
X229524Y454974D01*
X229531Y454972D01*
X229549Y454964D01*
X229567Y454957D01*
X229573Y454954D01*
X229579Y454951D01*
X229595Y454941D01*
X229612Y454932D01*
X229618Y454928D01*
X229624Y454924D01*
X229639Y454912D01*
X229655Y454901D01*
X229660Y454896D01*
X229665Y454892D01*
X229678Y454878D01*
X229692Y454864D01*
X229697Y454859D01*
X229701Y454854D01*
X229713Y454839D01*
X229725Y454823D01*
X229729Y454817D01*
X229733Y454812D01*
X229742Y454795D01*
X229752Y454778D01*
X229755Y454772D01*
X229758Y454766D01*
X229765Y454748D01*
X229773Y454730D01*
X229775Y454724D01*
X229777Y454717D01*
X229782Y454699D01*
X229787Y454680D01*
X229788Y454673D01*
X229790Y454666D01*
X229792Y454647D01*
X229795Y454628D01*
X229795Y454621D01*
X229796Y454614D01*
X229796Y454595D01*
X229796Y454576D01*
X229795Y454569D01*
X229795Y454562D01*
X229792Y454543D01*
X229790Y454524D01*
X229789Y454517D01*
X229788Y454510D01*
X229292Y452215D01*
X229285Y452192D01*
X229279Y452169D01*
X229278Y452167D01*
X229277Y452165D01*
X229268Y452143D01*
X229258Y452121D01*
X228258Y450121D01*
X228252Y450110D01*
X228247Y450100D01*
X228239Y450088D01*
X228232Y450075D01*
X228225Y450066D01*
X228218Y450056D01*
X228209Y450045D01*
X228200Y450034D01*
X228191Y450026D01*
X228183Y450017D01*
X225633Y447467D01*
X225619Y447454D01*
X225605Y447440D01*
X225599Y447437D01*
X225594Y447432D01*
X225578Y447421D01*
X225562Y447410D01*
X225556Y447407D01*
X225550Y447403D01*
X225533Y447394D01*
X225516Y447385D01*
X222766Y446135D01*
X222748Y446128D01*
X222731Y446121D01*
X222724Y446119D01*
X222717Y446116D01*
X222698Y446112D01*
X222680Y446107D01*
X222673Y446106D01*
X222666Y446105D01*
X222647Y446103D01*
X222628Y446100D01*
X220588Y445955D01*
X220573Y445954D01*
X220559Y445954D01*
X220547Y445954D01*
X220535Y445954D01*
X220521Y445956D01*
X220507Y445957D01*
X220495Y445959D01*
X220483Y445961D01*
X220469Y445964D01*
X220455Y445967D01*
X220444Y445971D01*
X220432Y445974D01*
X220419Y445979D01*
X220406Y445984D01*
X220395Y445989D01*
X220384Y445994D01*
X220371Y446001D01*
X220359Y446007D01*
X220349Y446014D01*
X220338Y446020D01*
X220327Y446028D01*
X220315Y446036D01*
X220306Y446044D01*
X220297Y446051D01*
X220286Y446061D01*
X220276Y446071D01*
X220268Y446080D01*
X220259Y446088D01*
X220251Y446100D01*
X220241Y446110D01*
X220234Y446120D01*
X220227Y446130D01*
X220220Y446142D01*
X220212Y446154D01*
X220207Y446165D01*
X220201Y446175D01*
X220195Y446188D01*
X220189Y446201D01*
X220185Y446212D01*
X220180Y446223D01*
X220177Y446237D01*
X220172Y446251D01*
X220169Y446262D01*
X220166Y446274D01*
X220164Y446288D01*
X220162Y446302D01*
X220161Y446314D01*
X220159Y446326D01*
X220159Y446340D01*
X220158Y446354D01*
Y455016D01*
X220159Y455025D01*
X220159Y455035D01*
X220161Y455052D01*
X220162Y455068D01*
X220163Y455077D01*
X220165Y455087D01*
X220169Y455103D01*
X220172Y455120D01*
X220175Y455128D01*
X220177Y455138D01*
X220183Y455153D01*
X220189Y455169D01*
X220193Y455178D01*
X220196Y455187D01*
X220205Y455201D01*
X220212Y455216D01*
X220217Y455224D01*
X220222Y455232D01*
X220232Y455246D01*
X220241Y455260D01*
X220247Y455267D01*
X220253Y455275D01*
X220265Y455287D01*
X220276Y455299D01*
X220283Y455305D01*
X220289Y455312D01*
X220303Y455323D01*
X220315Y455334D01*
X220323Y455339D01*
X220330Y455345D01*
X220345Y455354D01*
X220359Y455363D01*
X220367Y455367D01*
X220375Y455372D01*
X220391Y455379D01*
X220406Y455386D01*
X220415Y455389D01*
X220424Y455393D01*
X220440Y455398D01*
X220455Y455403D01*
X220465Y455405D01*
X220474Y455407D01*
X220490Y455410D01*
X220507Y455413D01*
X220516Y455414D01*
X220526Y455415D01*
X220542Y455415D01*
X220559Y455417D01*
X220569Y455416D01*
D02*
G37*
D12*
X231741Y433453D02*
X231604Y432405D01*
X240441Y440646D02*
X239423Y440587D01*
X238419Y440412D01*
X237442Y440123D01*
X236504Y439723D01*
X235618Y439218D01*
X234797Y438615D01*
X234050Y437921D01*
X233387Y437146D01*
X232818Y436300D01*
X232350Y435395D01*
X231990Y434441D01*
X231741Y433453D01*
X229396Y432405D02*
X229266Y433419D01*
X229020Y434411D01*
X228661Y435369D01*
X228195Y436278D01*
X227626Y437128D01*
X226964Y437907D01*
X226217Y438604D01*
X225394Y439210D01*
X224506Y439718D01*
X223566Y440120D01*
X222586Y440411D01*
X221580Y440587D01*
X220559Y440646D01*
Y446354D02*
X221580Y446413D01*
X222586Y446590D01*
X223566Y446880D01*
X224506Y447282D01*
X225394Y447790D01*
X226217Y448396D01*
X226964Y449093D01*
X227626Y449872D01*
X228195Y450722D01*
X228661Y451631D01*
X229020Y452589D01*
X229266Y453581D01*
X229396Y454595D01*
X231604D02*
X231734Y453581D01*
X231980Y452589D01*
X232339Y451631D01*
X232805Y450722D01*
X233374Y449872D01*
X234036Y449093D01*
X234784Y448396D01*
X235606Y447790D01*
X236494Y447282D01*
X237434Y446880D01*
X238414Y446590D01*
X239420Y446413D01*
X240441Y446354D01*
D15*
X216795Y601776D02*
D03*
X241205D02*
D03*
D16*
X237858D02*
D03*
X235890D02*
D03*
X233921D02*
D03*
X231953D02*
D03*
X229984D02*
D03*
X228016D02*
D03*
X226047D02*
D03*
X224079D02*
D03*
X222110D02*
D03*
X220142D02*
D03*
X217189Y596658D02*
D03*
X219158D02*
D03*
X221126D02*
D03*
X223095D02*
D03*
X225063D02*
D03*
X227031D02*
D03*
X230968D02*
D03*
X232937D02*
D03*
X234906D02*
D03*
X236874D02*
D03*
X238843D02*
D03*
X240811D02*
D03*
D34*
X61500Y249315D02*
D03*
D35*
X56500D02*
D03*
X51500D02*
D03*
X46500D02*
D03*
Y230685D02*
D03*
X51500D02*
D03*
X56500D02*
D03*
X61500D02*
D03*
D43*
X211992Y619374D02*
D03*
X246008D02*
D03*
D44*
X211992Y598272D02*
D03*
X246008D02*
D03*
D57*
X237500Y375500D02*
D03*
X272500Y445500D02*
D03*
X239500Y470500D02*
D03*
X253500Y489500D02*
D03*
X297500Y487500D02*
D03*
X280000Y379500D02*
D03*
D58*
X254000Y434000D02*
D03*
D59*
X246323Y429079D02*
D03*
Y431047D02*
D03*
Y433016D02*
D03*
Y434984D02*
D03*
Y436953D02*
D03*
Y438921D02*
D03*
X261677D02*
D03*
Y436953D02*
D03*
Y434984D02*
D03*
Y433016D02*
D03*
Y431047D02*
D03*
Y429079D02*
D03*
D60*
X249079Y441677D02*
D03*
X251047D02*
D03*
X253016D02*
D03*
X254984D02*
D03*
X256953D02*
D03*
X258921D02*
D03*
Y426323D02*
D03*
X256953D02*
D03*
X254984D02*
D03*
X253016D02*
D03*
X251047D02*
D03*
X249079D02*
D03*
D61*
X230500Y433756D02*
D03*
Y453244D02*
D03*
D62*
X239244Y460000D02*
D03*
X244756D02*
D03*
X254756Y482000D02*
D03*
X249244D02*
D03*
X253244Y460000D02*
D03*
X258756D02*
D03*
X258756Y465000D02*
D03*
X253244D02*
D03*
X252256Y418000D02*
D03*
X246744D02*
D03*
X246744Y413000D02*
D03*
X252256D02*
D03*
X272256Y436000D02*
D03*
X266744D02*
D03*
X261744Y448000D02*
D03*
X267256D02*
D03*
X32744Y465000D02*
D03*
X38256D02*
D03*
X60244Y171000D02*
D03*
X65756D02*
D03*
X74256Y460000D02*
D03*
X68744D02*
D03*
X37244Y410000D02*
D03*
X42756D02*
D03*
X67256Y386500D02*
D03*
X61744D02*
D03*
X83256Y477000D02*
D03*
X77744D02*
D03*
D63*
X282500Y432272D02*
D03*
Y438571D02*
D03*
Y425571D02*
D03*
Y419272D02*
D03*
X27000Y424150D02*
D03*
Y417850D02*
D03*
X275000Y546850D02*
D03*
Y553150D02*
D03*
X268000Y546850D02*
D03*
Y553150D02*
D03*
D64*
X288650Y446500D02*
D03*
X282350D02*
D03*
X80150Y155000D02*
D03*
X73850D02*
D03*
X80150Y150000D02*
D03*
X73850D02*
D03*
X80150Y145000D02*
D03*
X73850D02*
D03*
X80150Y140000D02*
D03*
X73850D02*
D03*
D65*
X242000Y571256D02*
D03*
Y565744D02*
D03*
X34500Y176244D02*
D03*
Y181756D02*
D03*
X83000Y448756D02*
D03*
Y443244D02*
D03*
X76000Y376756D02*
D03*
Y371244D02*
D03*
X68500Y233256D02*
D03*
Y227744D02*
D03*
D66*
X70331Y368000D02*
D03*
Y378000D02*
D03*
X61669D02*
D03*
Y368000D02*
D03*
D67*
X64835Y130000D02*
D03*
Y135000D02*
D03*
Y140000D02*
D03*
Y145000D02*
D03*
Y150000D02*
D03*
Y155000D02*
D03*
Y160000D02*
D03*
Y165000D02*
D03*
X44165Y130000D02*
D03*
Y135000D02*
D03*
Y140000D02*
D03*
Y145000D02*
D03*
Y150000D02*
D03*
Y155000D02*
D03*
Y160000D02*
D03*
Y165000D02*
D03*
D68*
X43378Y216000D02*
D03*
Y211000D02*
D03*
Y206000D02*
D03*
Y201000D02*
D03*
Y196000D02*
D03*
Y191000D02*
D03*
Y186000D02*
D03*
X65622Y216000D02*
D03*
Y211000D02*
D03*
Y206000D02*
D03*
Y201000D02*
D03*
Y196000D02*
D03*
Y191000D02*
D03*
Y186000D02*
D03*
D69*
X47000Y416000D02*
D03*
D70*
X50150D02*
D03*
X53299D02*
D03*
X56449D02*
D03*
X59598D02*
D03*
X62748D02*
D03*
X65898D02*
D03*
X69047D02*
D03*
Y454189D02*
D03*
X65898D02*
D03*
X62748D02*
D03*
X59598D02*
D03*
X56449D02*
D03*
X53299D02*
D03*
X50150D02*
D03*
X47000D02*
D03*
D71*
X77118Y424071D02*
D03*
Y427220D02*
D03*
Y430370D02*
D03*
Y433520D02*
D03*
Y436669D02*
D03*
Y439819D02*
D03*
Y442969D02*
D03*
Y446118D02*
D03*
X38929D02*
D03*
Y442969D02*
D03*
Y439819D02*
D03*
Y436669D02*
D03*
Y433520D02*
D03*
Y430370D02*
D03*
Y427220D02*
D03*
Y424071D02*
D03*
D72*
X255850Y320500D02*
D03*
X262150D02*
D03*
D73*
X232453Y572224D02*
D03*
D74*
X225760D02*
D03*
Y562776D02*
D03*
X233240D02*
D03*
D75*
X36512Y491086D02*
D03*
Y486086D02*
D03*
Y481086D02*
D03*
Y476086D02*
D03*
Y471086D02*
D03*
X20488D02*
D03*
Y476086D02*
D03*
Y481086D02*
D03*
Y486086D02*
D03*
Y491086D02*
D03*
D76*
X46374Y335126D02*
D03*
X42437D02*
D03*
X38500D02*
D03*
X34563D02*
D03*
X30626D02*
D03*
D77*
X58776Y325874D02*
D03*
X18224D02*
D03*
D78*
X118626Y141555D02*
D03*
Y73445D02*
D03*
D79*
X109374Y129154D02*
D03*
Y125216D02*
D03*
Y121280D02*
D03*
Y117342D02*
D03*
Y113406D02*
D03*
Y109468D02*
D03*
Y105532D02*
D03*
Y101594D02*
D03*
Y97658D02*
D03*
Y93721D02*
D03*
Y89784D02*
D03*
Y85847D02*
D03*
D80*
X240441Y433756D02*
Y440646D01*
Y433453D02*
Y433756D01*
Y431984D02*
Y433453D01*
X220559Y431984D02*
Y440646D01*
Y446354D02*
Y455016D01*
X240441Y446354D02*
Y455016D01*
D81*
X254000Y303500D02*
D03*
D82*
X264000D02*
D03*
D83*
X275138Y363130D02*
D03*
X43799D02*
D03*
Y518169D02*
D03*
X275138D02*
D03*
D84*
X64468Y515650D02*
D03*
D85*
X74468D02*
D03*
X84469D02*
D03*
X94468D02*
D03*
X104469D02*
D03*
X114469D02*
D03*
X124469D02*
D03*
X134468D02*
D03*
X144468D02*
D03*
X154469D02*
D03*
X164469D02*
D03*
X174469D02*
D03*
X184468D02*
D03*
X194468D02*
D03*
X204468D02*
D03*
X214469D02*
D03*
X224468D02*
D03*
X234469D02*
D03*
X244468D02*
D03*
X254468D02*
D03*
D86*
X256165Y436165D02*
D03*
Y431835D02*
D03*
X251835Y436165D02*
D03*
Y431835D02*
D03*
M02*
