G04*
G04 #@! TF.GenerationSoftware,Altium Limited,CircuitStudio,1.5.2 (30)*
G04*
G04 Layer_Color=7318015*
%FSLAX25Y25*%
%MOIN*%
G70*
G01*
G75*
%ADD11C,0.00394*%
%ADD14C,0.03937*%
%ADD15R,0.09646X0.09646*%
%ADD16O,0.03543X0.00984*%
%ADD17O,0.00984X0.03543*%
%ADD18R,0.20276X0.03937*%
%ADD19R,0.02756X0.03543*%
%ADD20R,0.03937X0.03543*%
%ADD21R,0.03543X0.02756*%
%ADD22R,0.04724X0.05512*%
G04:AMPARAMS|DCode=23|XSize=21.65mil|YSize=49.21mil|CornerRadius=1.95mil|HoleSize=0mil|Usage=FLASHONLY|Rotation=90.000|XOffset=0mil|YOffset=0mil|HoleType=Round|Shape=RoundedRectangle|*
%AMROUNDEDRECTD23*
21,1,0.02165,0.04532,0,0,90.0*
21,1,0.01776,0.04921,0,0,90.0*
1,1,0.00390,0.02266,0.00888*
1,1,0.00390,0.02266,-0.00888*
1,1,0.00390,-0.02266,-0.00888*
1,1,0.00390,-0.02266,0.00888*
%
%ADD23ROUNDEDRECTD23*%
G04:AMPARAMS|DCode=24|XSize=25.59mil|YSize=64.96mil|CornerRadius=1.92mil|HoleSize=0mil|Usage=FLASHONLY|Rotation=270.000|XOffset=0mil|YOffset=0mil|HoleType=Round|Shape=RoundedRectangle|*
%AMROUNDEDRECTD24*
21,1,0.02559,0.06112,0,0,270.0*
21,1,0.02175,0.06496,0,0,270.0*
1,1,0.00384,-0.03056,-0.01088*
1,1,0.00384,-0.03056,0.01088*
1,1,0.00384,0.03056,0.01088*
1,1,0.00384,0.03056,-0.01088*
%
%ADD24ROUNDEDRECTD24*%
%ADD25O,0.01969X0.04724*%
%ADD26R,0.01969X0.04724*%
%ADD27R,0.04724X0.01969*%
%ADD28R,0.04134X0.03740*%
G04:AMPARAMS|DCode=29|XSize=39.37mil|YSize=39.37mil|CornerRadius=1.97mil|HoleSize=0mil|Usage=FLASHONLY|Rotation=0.000|XOffset=0mil|YOffset=0mil|HoleType=Round|Shape=RoundedRectangle|*
%AMROUNDEDRECTD29*
21,1,0.03937,0.03543,0,0,0.0*
21,1,0.03543,0.03937,0,0,0.0*
1,1,0.00394,0.01772,-0.01772*
1,1,0.00394,-0.01772,-0.01772*
1,1,0.00394,-0.01772,0.01772*
1,1,0.00394,0.01772,0.01772*
%
%ADD29ROUNDEDRECTD29*%
G04:AMPARAMS|DCode=30|XSize=23.62mil|YSize=39.37mil|CornerRadius=2.01mil|HoleSize=0mil|Usage=FLASHONLY|Rotation=0.000|XOffset=0mil|YOffset=0mil|HoleType=Round|Shape=RoundedRectangle|*
%AMROUNDEDRECTD30*
21,1,0.02362,0.03535,0,0,0.0*
21,1,0.01961,0.03937,0,0,0.0*
1,1,0.00402,0.00980,-0.01768*
1,1,0.00402,-0.00980,-0.01768*
1,1,0.00402,-0.00980,0.01768*
1,1,0.00402,0.00980,0.01768*
%
%ADD30ROUNDEDRECTD30*%
%ADD31R,0.02303X0.08559*%
G04:AMPARAMS|DCode=32|XSize=85.59mil|YSize=23.03mil|CornerRadius=11.51mil|HoleSize=0mil|Usage=FLASHONLY|Rotation=270.000|XOffset=0mil|YOffset=0mil|HoleType=Round|Shape=RoundedRectangle|*
%AMROUNDEDRECTD32*
21,1,0.08559,0.00000,0,0,270.0*
21,1,0.06257,0.02303,0,0,270.0*
1,1,0.02303,0.00000,-0.03128*
1,1,0.02303,0.00000,0.03128*
1,1,0.02303,0.00000,0.03128*
1,1,0.02303,0.00000,-0.03128*
%
%ADD32ROUNDEDRECTD32*%
%ADD33R,0.10984X0.02913*%
%ADD34R,0.02362X0.07480*%
%ADD35R,0.08268X0.11024*%
%ADD36R,0.03543X0.03937*%
G04:AMPARAMS|DCode=37|XSize=9.84mil|YSize=23.62mil|CornerRadius=1.97mil|HoleSize=0mil|Usage=FLASHONLY|Rotation=270.000|XOffset=0mil|YOffset=0mil|HoleType=Round|Shape=RoundedRectangle|*
%AMROUNDEDRECTD37*
21,1,0.00984,0.01969,0,0,270.0*
21,1,0.00591,0.02362,0,0,270.0*
1,1,0.00394,-0.00984,-0.00295*
1,1,0.00394,-0.00984,0.00295*
1,1,0.00394,0.00984,0.00295*
1,1,0.00394,0.00984,-0.00295*
%
%ADD37ROUNDEDRECTD37*%
%ADD38R,0.01181X0.03543*%
G36*
X240441Y431984D02*
X231604Y432405D01*
X232100Y434700D01*
X233100Y436700D01*
X235650Y439250D01*
X238400Y440500D01*
X240441Y440646D01*
Y431984D01*
D02*
G37*
G36*
X222600Y440500D02*
X225350Y439250D01*
X227900Y436700D01*
X228900Y434700D01*
X229396Y432405D01*
X220559Y431984D01*
Y440646D01*
X222600Y440500D01*
D02*
G37*
G36*
X240441Y446354D02*
X238400Y446500D01*
X235650Y447750D01*
X233100Y450300D01*
X232100Y452300D01*
X231604Y454595D01*
X240441Y455016D01*
Y446354D01*
D02*
G37*
G36*
X229396Y454595D02*
X228900Y452300D01*
X227900Y450300D01*
X225350Y447750D01*
X222600Y446500D01*
X220559Y446354D01*
Y455016D01*
X229396Y454595D01*
D02*
G37*
D11*
X231741Y433453D02*
X231604Y432405D01*
X240441Y440646D02*
X239423Y440587D01*
X238419Y440412D01*
X237442Y440123D01*
X236504Y439723D01*
X235618Y439218D01*
X234797Y438615D01*
X234050Y437921D01*
X233387Y437146D01*
X232818Y436300D01*
X232350Y435395D01*
X231990Y434441D01*
X231741Y433453D01*
X229396Y432405D02*
X229266Y433419D01*
X229020Y434411D01*
X228661Y435369D01*
X228195Y436278D01*
X227626Y437128D01*
X226964Y437907D01*
X226217Y438604D01*
X225394Y439210D01*
X224506Y439718D01*
X223566Y440120D01*
X222586Y440411D01*
X221580Y440587D01*
X220559Y440646D01*
Y446354D02*
X221580Y446413D01*
X222586Y446590D01*
X223566Y446880D01*
X224506Y447282D01*
X225394Y447790D01*
X226217Y448396D01*
X226964Y449093D01*
X227626Y449872D01*
X228195Y450722D01*
X228661Y451631D01*
X229020Y452589D01*
X229266Y453581D01*
X229396Y454595D01*
X231604D02*
X231734Y453581D01*
X231980Y452589D01*
X232339Y451631D01*
X232805Y450722D01*
X233374Y449872D01*
X234036Y449093D01*
X234784Y448396D01*
X235606Y447790D01*
X236494Y447282D01*
X237434Y446880D01*
X238414Y446590D01*
X239420Y446413D01*
X240441Y446354D01*
D14*
X237500Y375500D02*
D03*
X272500Y445500D02*
D03*
X239500Y470500D02*
D03*
X253500Y489500D02*
D03*
X297500Y487500D02*
D03*
X280000Y379500D02*
D03*
D15*
X254000Y434000D02*
D03*
D16*
X246323Y429079D02*
D03*
Y431047D02*
D03*
Y433016D02*
D03*
Y434984D02*
D03*
Y436953D02*
D03*
Y438921D02*
D03*
X261677D02*
D03*
Y436953D02*
D03*
Y434984D02*
D03*
Y433016D02*
D03*
Y431047D02*
D03*
Y429079D02*
D03*
D17*
X249079Y441677D02*
D03*
X251047D02*
D03*
X253016D02*
D03*
X254984D02*
D03*
X256953D02*
D03*
X258921D02*
D03*
Y426323D02*
D03*
X256953D02*
D03*
X254984D02*
D03*
X253016D02*
D03*
X251047D02*
D03*
X249079D02*
D03*
D18*
X230500Y433756D02*
D03*
Y453244D02*
D03*
D19*
X239244Y460000D02*
D03*
X244756D02*
D03*
X254756Y482000D02*
D03*
X249244D02*
D03*
X253244Y460000D02*
D03*
X258756D02*
D03*
X258756Y465000D02*
D03*
X253244D02*
D03*
X252256Y418000D02*
D03*
X246744D02*
D03*
X246744Y413000D02*
D03*
X252256D02*
D03*
X272256Y436000D02*
D03*
X266744D02*
D03*
X261744Y448000D02*
D03*
X267256D02*
D03*
X32744Y465000D02*
D03*
X38256D02*
D03*
X60244Y171000D02*
D03*
X65756D02*
D03*
X74256Y460000D02*
D03*
X68744D02*
D03*
X37244Y410000D02*
D03*
X42756D02*
D03*
X67256Y386500D02*
D03*
X61744D02*
D03*
X83256Y477000D02*
D03*
X77744D02*
D03*
D20*
X282500Y432272D02*
D03*
Y438571D02*
D03*
Y425571D02*
D03*
Y419272D02*
D03*
X27000Y424150D02*
D03*
Y417850D02*
D03*
X275000Y546850D02*
D03*
Y553150D02*
D03*
X268000Y546850D02*
D03*
Y553150D02*
D03*
D21*
X242000Y571256D02*
D03*
Y565744D02*
D03*
X34500Y176244D02*
D03*
Y181756D02*
D03*
X83000Y448756D02*
D03*
Y443244D02*
D03*
X76000Y376756D02*
D03*
Y371244D02*
D03*
X68500Y233256D02*
D03*
Y227744D02*
D03*
X100000Y503756D02*
D03*
Y498244D02*
D03*
D22*
X70331Y368000D02*
D03*
Y378000D02*
D03*
X61669D02*
D03*
Y368000D02*
D03*
D23*
X64835Y130000D02*
D03*
Y135000D02*
D03*
Y140000D02*
D03*
Y145000D02*
D03*
Y150000D02*
D03*
Y155000D02*
D03*
Y160000D02*
D03*
Y165000D02*
D03*
X44165Y130000D02*
D03*
Y135000D02*
D03*
Y140000D02*
D03*
Y145000D02*
D03*
Y150000D02*
D03*
Y155000D02*
D03*
Y160000D02*
D03*
Y165000D02*
D03*
D24*
X43378Y216000D02*
D03*
Y211000D02*
D03*
Y206000D02*
D03*
Y201000D02*
D03*
Y196000D02*
D03*
Y191000D02*
D03*
Y186000D02*
D03*
X65622Y216000D02*
D03*
Y211000D02*
D03*
Y206000D02*
D03*
Y201000D02*
D03*
Y196000D02*
D03*
Y191000D02*
D03*
Y186000D02*
D03*
D25*
X47000Y416000D02*
D03*
D26*
X50150D02*
D03*
X53299D02*
D03*
X56449D02*
D03*
X59598D02*
D03*
X62748D02*
D03*
X65898D02*
D03*
X69047D02*
D03*
Y454189D02*
D03*
X65898D02*
D03*
X62748D02*
D03*
X59598D02*
D03*
X56449D02*
D03*
X53299D02*
D03*
X50150D02*
D03*
X47000D02*
D03*
D27*
X77118Y424071D02*
D03*
Y427220D02*
D03*
Y430370D02*
D03*
Y433520D02*
D03*
Y436669D02*
D03*
Y439819D02*
D03*
Y442969D02*
D03*
Y446118D02*
D03*
X38929D02*
D03*
Y442969D02*
D03*
Y439819D02*
D03*
Y436669D02*
D03*
Y433520D02*
D03*
Y430370D02*
D03*
Y427220D02*
D03*
Y424071D02*
D03*
D28*
X255850Y73000D02*
D03*
X262150D02*
D03*
D29*
X232453Y572224D02*
D03*
D30*
X225760D02*
D03*
Y562776D02*
D03*
X233240D02*
D03*
D31*
X61500Y249315D02*
D03*
D32*
X56500D02*
D03*
X51500D02*
D03*
X46500D02*
D03*
Y230685D02*
D03*
X51500D02*
D03*
X56500D02*
D03*
X61500D02*
D03*
D33*
X36512Y491086D02*
D03*
Y486086D02*
D03*
Y481086D02*
D03*
Y476086D02*
D03*
Y471086D02*
D03*
X20488D02*
D03*
Y476086D02*
D03*
Y481086D02*
D03*
Y486086D02*
D03*
Y491086D02*
D03*
D34*
X46374Y335126D02*
D03*
X42437D02*
D03*
X38500D02*
D03*
X34563D02*
D03*
X30626D02*
D03*
X93654Y74626D02*
D03*
X89717D02*
D03*
X85780D02*
D03*
X81842D02*
D03*
X77905D02*
D03*
X73968D02*
D03*
X70031D02*
D03*
X66094D02*
D03*
X62157D02*
D03*
X58220D02*
D03*
X54283D02*
D03*
X50346D02*
D03*
D35*
X58776Y325874D02*
D03*
X18224D02*
D03*
X106055Y65374D02*
D03*
X37945D02*
D03*
D36*
X80150Y155000D02*
D03*
X73850D02*
D03*
X80150Y150000D02*
D03*
X73850D02*
D03*
X80150Y145000D02*
D03*
X73850D02*
D03*
X80150Y140000D02*
D03*
X73850D02*
D03*
D37*
X116905Y496547D02*
D03*
Y498516D02*
D03*
Y500484D02*
D03*
Y502453D02*
D03*
X105095Y496547D02*
D03*
Y498516D02*
D03*
Y500484D02*
D03*
Y502453D02*
D03*
D38*
X240000Y590980D02*
D03*
X238032D02*
D03*
X236063D02*
D03*
X234095D02*
D03*
X232126D02*
D03*
X230157D02*
D03*
X228189D02*
D03*
X226220D02*
D03*
X224252D02*
D03*
X222284D02*
D03*
X220315D02*
D03*
X218347D02*
D03*
M02*
