G04*
G04 #@! TF.GenerationSoftware,Altium Limited,CircuitStudio,1.5.2 (30)*
G04*
G04 Layer_Physical_Order=2*
G04 Layer_Color=12500520*
%FSLAX25Y25*%
%MOIN*%
G70*
G01*
G75*
%ADD11C,0.01000*%
%ADD13C,0.02000*%
G04:AMPARAMS|DCode=43|XSize=43.31mil|YSize=102.36mil|CornerRadius=21.65mil|HoleSize=0mil|Usage=FLASHONLY|Rotation=180.000|XOffset=0mil|YOffset=0mil|HoleType=Round|Shape=RoundedRectangle|*
%AMROUNDEDRECTD43*
21,1,0.04331,0.05906,0,0,180.0*
21,1,0.00000,0.10236,0,0,180.0*
1,1,0.04331,0.00000,0.02953*
1,1,0.04331,0.00000,0.02953*
1,1,0.04331,0.00000,-0.02953*
1,1,0.04331,0.00000,-0.02953*
%
%ADD43ROUNDEDRECTD43*%
G04:AMPARAMS|DCode=44|XSize=43.31mil|YSize=82.68mil|CornerRadius=21.65mil|HoleSize=0mil|Usage=FLASHONLY|Rotation=180.000|XOffset=0mil|YOffset=0mil|HoleType=Round|Shape=RoundedRectangle|*
%AMROUNDEDRECTD44*
21,1,0.04331,0.03937,0,0,180.0*
21,1,0.00000,0.08268,0,0,180.0*
1,1,0.04331,0.00000,0.01969*
1,1,0.04331,0.00000,0.01969*
1,1,0.04331,0.00000,-0.01969*
1,1,0.04331,0.00000,-0.01969*
%
%ADD44ROUNDEDRECTD44*%
%ADD45C,0.07087*%
%ADD46R,0.07087X0.07087*%
%ADD47C,0.09449*%
%ADD48R,0.07874X0.07874*%
%ADD49C,0.07874*%
%ADD50C,0.02050*%
%ADD51C,0.01969*%
%ADD52C,0.01825*%
G36*
X303806Y624871D02*
X305022Y624368D01*
X306066Y623566D01*
X306868Y622522D01*
X307371Y621307D01*
X307479Y620491D01*
X307500Y620000D01*
X307500D01*
X307543Y295000D01*
X307371Y293695D01*
X306868Y292478D01*
X306066Y291434D01*
X305022Y290633D01*
X303805Y290129D01*
X302543Y289963D01*
X302500Y290000D01*
Y290000D01*
X175500Y289957D01*
X175499Y289957D01*
X174194Y290129D01*
X172978Y290632D01*
X171934Y291434D01*
X171132Y292478D01*
X170629Y293694D01*
X170522Y294504D01*
X170500Y295000D01*
X170500Y295000D01*
X170500Y295000D01*
X170543Y473000D01*
X170543Y473000D01*
X170371Y474305D01*
X169868Y475521D01*
X169066Y476565D01*
X168022Y477366D01*
X166806Y477870D01*
X165987Y477978D01*
X165501Y478042D01*
X165499Y478042D01*
D01*
X165003Y478041D01*
X164947Y478049D01*
X164902Y478037D01*
X164860Y478054D01*
X157949Y478027D01*
X154067Y478041D01*
X154035Y478054D01*
X154004Y478041D01*
X153978Y478041D01*
X153951Y478049D01*
X153897Y478042D01*
X153500Y478043D01*
X153498Y478043D01*
X152194Y477871D01*
X150978Y477368D01*
X149934Y476566D01*
X149132Y475522D01*
X148629Y474306D01*
X148520Y473484D01*
X148519Y473471D01*
X148458Y473012D01*
X148457Y473001D01*
X148428Y472526D01*
X148428Y472526D01*
X148425Y472488D01*
X148422Y472441D01*
X148422Y472046D01*
X148465Y69000D01*
X148422Y68898D01*
X148439Y68856D01*
X148428Y68813D01*
X148540Y67959D01*
X148543Y41500D01*
X148543Y41499D01*
X148371Y40194D01*
X147868Y38978D01*
X147066Y37933D01*
X146022Y37132D01*
X144806Y36629D01*
X143988Y36521D01*
X143500Y36500D01*
Y36500D01*
X15500Y36457D01*
X14195Y36629D01*
X12978Y37132D01*
X11934Y37934D01*
X11133Y38978D01*
X10629Y40195D01*
X10463Y41457D01*
X10500Y41500D01*
X10500D01*
Y205488D01*
X10583Y205548D01*
X11263Y205427D01*
X11328Y205328D01*
X11866Y204969D01*
X12500Y204843D01*
X13085Y204960D01*
X13291Y204791D01*
X13460Y204586D01*
X13343Y204000D01*
X13469Y203366D01*
X13828Y202828D01*
X14366Y202469D01*
X15000Y202343D01*
X15586Y202460D01*
X15791Y202291D01*
X15960Y202085D01*
X15843Y201500D01*
X15969Y200866D01*
X16328Y200328D01*
X16866Y199969D01*
X17500Y199843D01*
X18086Y199960D01*
X18291Y199791D01*
X18460Y199585D01*
X18343Y199000D01*
X18469Y198366D01*
X18828Y197828D01*
X19366Y197469D01*
X20000Y197343D01*
X20634Y197469D01*
X21172Y197828D01*
X21531Y198366D01*
X21657Y199000D01*
X21645Y199059D01*
X22465Y199878D01*
X24183D01*
X24335Y199378D01*
X24207Y199293D01*
X24207Y199293D01*
X22559Y197645D01*
X22500Y197657D01*
X21866Y197531D01*
X21328Y197172D01*
X20969Y196634D01*
X20843Y196000D01*
X20969Y195366D01*
X21328Y194828D01*
X21866Y194469D01*
X22500Y194343D01*
X23134Y194469D01*
X23672Y194828D01*
X24031Y195366D01*
X24157Y196000D01*
X24145Y196059D01*
X25465Y197378D01*
X53914D01*
X53914Y197378D01*
X54343Y197464D01*
X54707Y197707D01*
X56879Y199878D01*
X58295D01*
X58328Y199828D01*
X58866Y199469D01*
X59500Y199343D01*
X60134Y199469D01*
X60672Y199828D01*
X61031Y200366D01*
X61157Y201000D01*
X61031Y201634D01*
X60672Y202172D01*
X60134Y202531D01*
X59500Y202657D01*
X58866Y202531D01*
X58328Y202172D01*
X58295Y202122D01*
X56414D01*
X55985Y202036D01*
X55621Y201793D01*
X55621Y201793D01*
X53450Y199622D01*
X39635D01*
X39367Y200122D01*
X39531Y200366D01*
X39657Y201000D01*
X39531Y201634D01*
X39367Y201878D01*
X39635Y202378D01*
X52414D01*
X52414Y202378D01*
X52843Y202464D01*
X53207Y202707D01*
X55379Y204878D01*
X58295D01*
X58328Y204828D01*
X58866Y204469D01*
X59500Y204343D01*
X60134Y204469D01*
X60672Y204828D01*
X61031Y205366D01*
X61157Y206000D01*
X61031Y206634D01*
X60672Y207172D01*
X60134Y207531D01*
X59500Y207657D01*
X58866Y207531D01*
X58328Y207172D01*
X58295Y207121D01*
X54914D01*
X54485Y207036D01*
X54121Y206793D01*
X54121Y206793D01*
X51950Y204622D01*
X39635D01*
X39367Y205121D01*
X39531Y205366D01*
X39657Y206000D01*
X39531Y206634D01*
X39367Y206878D01*
X39635Y207379D01*
X53621D01*
X53621Y207378D01*
X54050Y207464D01*
X54414Y207707D01*
X56586Y209878D01*
X58295D01*
X58328Y209828D01*
X58866Y209469D01*
X59500Y209343D01*
X60134Y209469D01*
X60672Y209828D01*
X61031Y210366D01*
X61157Y211000D01*
X61031Y211634D01*
X60672Y212172D01*
X60134Y212531D01*
X59500Y212657D01*
X58866Y212531D01*
X58328Y212172D01*
X58295Y212122D01*
X56121D01*
X55692Y212036D01*
X55328Y211793D01*
X55328Y211793D01*
X53157Y209622D01*
X14500D01*
X14500Y209622D01*
X14071Y209536D01*
X13707Y209293D01*
X13707Y209293D01*
X12559Y208145D01*
X12500Y208157D01*
X11866Y208031D01*
X11328Y207672D01*
X11263Y207573D01*
X10583Y207452D01*
X10500Y207512D01*
Y354000D01*
X10457Y542500D01*
X10629Y543805D01*
X11133Y545022D01*
X11934Y546066D01*
X12978Y546868D01*
X14195Y547371D01*
X15457Y547538D01*
X15500Y547500D01*
Y547500D01*
X15500Y547500D01*
X142500Y547457D01*
X143805Y547629D01*
X145022Y548133D01*
X146066Y548934D01*
X146868Y549978D01*
X147371Y551195D01*
X147543Y552500D01*
X147500D01*
X147457Y620000D01*
X147629Y621305D01*
X148133Y622522D01*
X148934Y623566D01*
X149978Y624368D01*
X151195Y624871D01*
X152457Y625037D01*
X152500Y625000D01*
Y625000D01*
X209559Y625016D01*
X209682Y624516D01*
X209227Y623923D01*
X208908Y623153D01*
X208800Y622327D01*
Y619874D01*
X211992D01*
Y619374D01*
X212492D01*
Y613294D01*
X212818Y613337D01*
X213589Y613656D01*
X214071Y614027D01*
X214571Y613797D01*
Y604098D01*
X214761Y603639D01*
X215220Y603449D01*
X242780D01*
X243239Y603639D01*
X243429Y604098D01*
Y613796D01*
X243929Y614027D01*
X244411Y613656D01*
X245182Y613337D01*
X245508Y613294D01*
Y619374D01*
X246008D01*
Y619874D01*
X249201D01*
Y622327D01*
X249092Y623153D01*
X248773Y623923D01*
X248309Y624527D01*
X248422Y625028D01*
X302500Y625043D01*
X302502Y625043D01*
X303806Y624871D01*
D02*
G37*
%LPC*%
G36*
X15000Y411657D02*
X14366Y411531D01*
X13828Y411172D01*
X13469Y410634D01*
X13343Y410000D01*
X13469Y409366D01*
X13828Y408828D01*
X13937Y408756D01*
X21347Y401346D01*
X21876Y400993D01*
X22500Y400869D01*
X37372D01*
X37500Y400843D01*
X38134Y400969D01*
X38672Y401328D01*
X39031Y401866D01*
X39157Y402500D01*
X39031Y403134D01*
X38672Y403672D01*
X38134Y404031D01*
X37500Y404157D01*
X37372Y404131D01*
X23176D01*
X16244Y411063D01*
X16172Y411172D01*
X15634Y411531D01*
X15000Y411657D01*
D02*
G37*
G36*
X51000Y419000D02*
X49500D01*
X49000Y418500D01*
Y414000D01*
X48000Y413000D01*
X46500D01*
Y395000D01*
X49000Y392500D01*
Y365794D01*
X48500Y365694D01*
X48450Y365815D01*
X47597Y366927D01*
X46484Y367781D01*
X45189Y368317D01*
X43799Y368500D01*
X42409Y368317D01*
X41114Y367781D01*
X40002Y366927D01*
X39148Y365815D01*
X38612Y364520D01*
X38429Y363130D01*
X38612Y361740D01*
X39148Y360445D01*
X40002Y359332D01*
X41114Y358479D01*
X42409Y357943D01*
X43799Y357760D01*
X45189Y357943D01*
X46484Y358479D01*
X47597Y359332D01*
X48450Y360445D01*
X48500Y360565D01*
X49000Y360466D01*
Y357500D01*
X52500Y354000D01*
X79000D01*
X85500Y360500D01*
Y386500D01*
X79000Y393000D01*
X66500D01*
X65500Y394000D01*
Y397500D01*
X62000Y401000D01*
X54500D01*
X53500Y402000D01*
Y413000D01*
X52500D01*
X51500Y414000D01*
Y418500D01*
X51000Y419000D01*
D02*
G37*
G36*
X95000Y439157D02*
X94366Y439031D01*
X93828Y438672D01*
X93469Y438134D01*
X93343Y437500D01*
X93469Y436866D01*
X93828Y436328D01*
X93878Y436295D01*
Y431465D01*
X91476Y429062D01*
X91000Y429157D01*
X90366Y429031D01*
X89828Y428672D01*
X89469Y428134D01*
X89343Y427500D01*
X89469Y426866D01*
X89828Y426328D01*
X90001Y426213D01*
X89963Y425956D01*
X89851Y425712D01*
X89295Y425602D01*
X88758Y425242D01*
X88398Y424705D01*
X88272Y424071D01*
X88398Y423437D01*
X88758Y422899D01*
X89295Y422540D01*
X89929Y422414D01*
X90563Y422540D01*
X91101Y422899D01*
X91134Y422949D01*
X91571D01*
X91571Y422949D01*
X92000Y423035D01*
X92364Y423278D01*
X100793Y431707D01*
X101036Y432071D01*
X101122Y432500D01*
X101122Y432500D01*
Y433295D01*
X101172Y433328D01*
X101531Y433866D01*
X101657Y434500D01*
X101531Y435134D01*
X101172Y435672D01*
X100634Y436031D01*
X100000Y436157D01*
X99366Y436031D01*
X98828Y435672D01*
X98469Y435134D01*
X98343Y434500D01*
X98469Y433866D01*
X98828Y433328D01*
X98761Y432847D01*
X96561Y430647D01*
X96100Y430894D01*
X96122Y431000D01*
X96122Y431000D01*
Y436295D01*
X96172Y436328D01*
X96531Y436866D01*
X96657Y437500D01*
X96531Y438134D01*
X96172Y438672D01*
X95634Y439031D01*
X95000Y439157D01*
D02*
G37*
G36*
X265500Y445622D02*
X265500Y445622D01*
X244000D01*
X243571Y445536D01*
X243207Y445293D01*
X243207Y445293D01*
X242207Y444293D01*
X241964Y443929D01*
X241926Y443736D01*
X241828Y443672D01*
X241469Y443134D01*
X241343Y442500D01*
X241469Y441866D01*
X241828Y441328D01*
X242366Y440969D01*
X243000Y440843D01*
X243634Y440969D01*
X244172Y441328D01*
X244531Y441866D01*
X244657Y442500D01*
X244582Y442878D01*
X244903Y443350D01*
X244953Y443378D01*
X265035D01*
X266261Y442153D01*
X266328Y441672D01*
X265969Y441134D01*
X265843Y440500D01*
X265969Y439866D01*
X266328Y439328D01*
X266866Y438969D01*
X267500Y438843D01*
X268134Y438969D01*
X268672Y439328D01*
X269031Y439866D01*
X269157Y440500D01*
X269031Y441134D01*
X268672Y441672D01*
X268621Y441705D01*
Y442500D01*
X268622Y442500D01*
X268536Y442929D01*
X268293Y443293D01*
X268293Y443293D01*
X266293Y445293D01*
X265929Y445536D01*
X265500Y445622D01*
D02*
G37*
G36*
X28854Y329673D02*
X22500D01*
X22041Y329483D01*
X21851Y329024D01*
Y322724D01*
X22041Y322265D01*
X22500Y322075D01*
X28854D01*
X29313Y322265D01*
X29504Y322724D01*
Y329024D01*
X29313Y329483D01*
X28854Y329673D01*
D02*
G37*
G36*
X105499Y314679D02*
X84999Y314649D01*
X84989Y314645D01*
X84908Y314670D01*
X84878Y314654D01*
X84844Y314661D01*
X84288Y314550D01*
X84181Y314478D01*
X84054Y314453D01*
X83558Y314121D01*
X83486Y314014D01*
X83379Y313942D01*
X83047Y313446D01*
X83022Y313319D01*
X82950Y313212D01*
X82834Y312627D01*
X82847Y312560D01*
X82821Y312496D01*
X82851Y307496D01*
X82854Y307487D01*
X82830Y307408D01*
X82846Y307378D01*
X82839Y307345D01*
X82950Y306788D01*
X83022Y306681D01*
X83047Y306554D01*
X83379Y306058D01*
X83486Y305986D01*
X83558Y305879D01*
X84054Y305547D01*
X84181Y305522D01*
X84288Y305450D01*
X84873Y305334D01*
X84939Y305347D01*
X85001Y305321D01*
X105501Y305351D01*
X105511Y305355D01*
X105592Y305330D01*
X105622Y305346D01*
X105656Y305339D01*
X106212Y305450D01*
X106319Y305522D01*
X106446Y305547D01*
X106942Y305879D01*
X107014Y305986D01*
X107121Y306058D01*
X107453Y306554D01*
X107478Y306681D01*
X107550Y306788D01*
X107666Y307373D01*
X107653Y307440D01*
X107679Y307504D01*
X107649Y312504D01*
X107646Y312513D01*
X107670Y312592D01*
X107654Y312622D01*
X107661Y312655D01*
X107550Y313212D01*
X107478Y313319D01*
X107453Y313446D01*
X107121Y313942D01*
X107014Y314014D01*
X106942Y314121D01*
X106446Y314453D01*
X106319Y314478D01*
X106212Y314550D01*
X105627Y314666D01*
X105561Y314653D01*
X105499Y314679D01*
D02*
G37*
G36*
X275138Y368500D02*
X273748Y368317D01*
X272453Y367781D01*
X271340Y366927D01*
X270487Y365815D01*
X269950Y364520D01*
X269767Y363130D01*
X269950Y361740D01*
X270487Y360445D01*
X271340Y359332D01*
X272453Y358479D01*
X273748Y357943D01*
X275138Y357760D01*
X276528Y357943D01*
X277823Y358479D01*
X278935Y359332D01*
X279789Y360445D01*
X280325Y361740D01*
X280508Y363130D01*
X280325Y364520D01*
X279789Y365815D01*
X278935Y366927D01*
X277823Y367781D01*
X276528Y368317D01*
X275138Y368500D01*
D02*
G37*
G36*
X54500Y329673D02*
X48146D01*
X47686Y329483D01*
X47496Y329024D01*
Y322724D01*
X47686Y322265D01*
X48146Y322075D01*
X54500D01*
X54959Y322265D01*
X55149Y322724D01*
Y329024D01*
X54959Y329483D01*
X54500Y329673D01*
D02*
G37*
G36*
X112000Y443157D02*
X111366Y443031D01*
X110828Y442672D01*
X110795Y442622D01*
X93205D01*
X93172Y442672D01*
X92634Y443031D01*
X92000Y443157D01*
X91366Y443031D01*
X90828Y442672D01*
X90469Y442134D01*
X90343Y441500D01*
X90469Y440866D01*
X90828Y440328D01*
X91366Y439969D01*
X92000Y439843D01*
X92634Y439969D01*
X93172Y440328D01*
X93205Y440378D01*
X110795D01*
X110828Y440328D01*
X111366Y439969D01*
X112000Y439843D01*
X112634Y439969D01*
X113172Y440328D01*
X113531Y440866D01*
X113657Y441500D01*
X113531Y442134D01*
X113172Y442672D01*
X112634Y443031D01*
X112000Y443157D01*
D02*
G37*
G36*
X235000Y486657D02*
X234366Y486531D01*
X233828Y486172D01*
X233469Y485634D01*
X233343Y485000D01*
X233469Y484366D01*
X233828Y483828D01*
X234366Y483469D01*
X235000Y483343D01*
X235634Y483469D01*
X236172Y483828D01*
X236531Y484366D01*
X236657Y485000D01*
X236531Y485634D01*
X236172Y486172D01*
X235634Y486531D01*
X235000Y486657D01*
D02*
G37*
G36*
X282500Y479157D02*
X282372Y479131D01*
X263128D01*
X263000Y479157D01*
X262366Y479031D01*
X261828Y478672D01*
X261469Y478134D01*
X261343Y477500D01*
X261469Y476866D01*
X261633Y476622D01*
X261365Y476122D01*
X225205D01*
X225172Y476172D01*
X224634Y476531D01*
X224000Y476657D01*
X223366Y476531D01*
X222828Y476172D01*
X222469Y475634D01*
X222343Y475000D01*
X222469Y474366D01*
X222828Y473828D01*
X223366Y473469D01*
X224000Y473343D01*
X224634Y473469D01*
X225172Y473828D01*
X225205Y473878D01*
X273035D01*
X273594Y473320D01*
X273469Y473134D01*
X273343Y472500D01*
X273469Y471866D01*
X273828Y471328D01*
X274366Y470969D01*
X275000Y470843D01*
X275634Y470969D01*
X276172Y471328D01*
X276531Y471866D01*
X276657Y472500D01*
X276531Y473134D01*
X276172Y473672D01*
X276075Y473736D01*
X276036Y473929D01*
X275793Y474293D01*
X274717Y475369D01*
X274925Y475869D01*
X282372D01*
X282500Y475843D01*
X283134Y475969D01*
X283672Y476328D01*
X284031Y476866D01*
X284157Y477500D01*
X284031Y478134D01*
X283672Y478672D01*
X283134Y479031D01*
X282500Y479157D01*
D02*
G37*
G36*
X139500Y509657D02*
X138866Y509531D01*
X138328Y509172D01*
X138295Y509122D01*
X121205D01*
X121172Y509172D01*
X120634Y509531D01*
X120000Y509657D01*
X119366Y509531D01*
X118828Y509172D01*
X118469Y508634D01*
X118343Y508000D01*
X118469Y507366D01*
X118828Y506828D01*
X119366Y506469D01*
X120000Y506343D01*
X120634Y506469D01*
X121172Y506828D01*
X121205Y506878D01*
X138295D01*
X138328Y506828D01*
X138866Y506469D01*
X139500Y506343D01*
X140134Y506469D01*
X140672Y506828D01*
X141031Y507366D01*
X141157Y508000D01*
X141031Y508634D01*
X140672Y509172D01*
X140134Y509531D01*
X139500Y509657D01*
D02*
G37*
G36*
X257500Y504157D02*
X256866Y504031D01*
X256328Y503672D01*
X256295Y503622D01*
X64000D01*
X63571Y503536D01*
X63207Y503293D01*
X63207Y503293D01*
X61559Y501645D01*
X61500Y501657D01*
X60866Y501531D01*
X60328Y501172D01*
X59969Y500634D01*
X59843Y500000D01*
X59969Y499366D01*
X60133Y499122D01*
X59865Y498622D01*
X50548D01*
X50515Y498672D01*
X49977Y499031D01*
X49343Y499157D01*
X48709Y499031D01*
X48172Y498672D01*
X47812Y498134D01*
X47686Y497500D01*
X47812Y496866D01*
X48172Y496328D01*
X48467Y496131D01*
X48315Y495631D01*
X44176D01*
X39654Y500153D01*
X39124Y500507D01*
X38500Y500631D01*
X15628D01*
X15500Y500657D01*
X14866Y500531D01*
X14328Y500172D01*
X13969Y499634D01*
X13843Y499000D01*
X13969Y498366D01*
X14328Y497828D01*
X14866Y497469D01*
X15500Y497343D01*
X15628Y497369D01*
X18869D01*
Y465128D01*
X18843Y465000D01*
X18969Y464366D01*
X19328Y463828D01*
X19866Y463469D01*
X20500Y463343D01*
X21134Y463469D01*
X21672Y463828D01*
X22031Y464366D01*
X22157Y465000D01*
X22131Y465128D01*
Y497369D01*
X37824D01*
X42347Y492846D01*
X42876Y492493D01*
X43500Y492369D01*
X87372D01*
X87500Y492343D01*
X87628Y492369D01*
X245372D01*
X245500Y492343D01*
X246134Y492469D01*
X246672Y492828D01*
X247031Y493366D01*
X247157Y494000D01*
X247031Y494634D01*
X246672Y495172D01*
X246134Y495531D01*
X245500Y495657D01*
X245372Y495631D01*
X87628D01*
X87500Y495657D01*
X87372Y495631D01*
X50570D01*
X50385Y496131D01*
X50615Y496378D01*
X256295D01*
X256328Y496328D01*
X256866Y495969D01*
X257500Y495843D01*
X258134Y495969D01*
X258672Y496328D01*
X259031Y496866D01*
X259157Y497500D01*
X259031Y498134D01*
X258672Y498672D01*
X258134Y499031D01*
X257500Y499157D01*
X256914Y499040D01*
X256709Y499209D01*
X256540Y499414D01*
X256657Y500000D01*
X256540Y500586D01*
X256709Y500791D01*
X256914Y500960D01*
X257500Y500843D01*
X258134Y500969D01*
X258672Y501328D01*
X259031Y501866D01*
X259157Y502500D01*
X259031Y503134D01*
X258672Y503672D01*
X258134Y504031D01*
X257500Y504157D01*
D02*
G37*
G36*
X48500Y469157D02*
X47866Y469031D01*
X47328Y468672D01*
X46969Y468134D01*
X46843Y467500D01*
X46969Y466866D01*
X47094Y466680D01*
X46535Y466122D01*
X42705D01*
X42672Y466172D01*
X42134Y466531D01*
X41500Y466657D01*
X40866Y466531D01*
X40328Y466172D01*
X39969Y465634D01*
X39843Y465000D01*
X39969Y464366D01*
X40328Y463828D01*
X40866Y463469D01*
X41500Y463343D01*
X42134Y463469D01*
X42672Y463828D01*
X42705Y463878D01*
X47000D01*
X47000Y463878D01*
X47429Y463964D01*
X47793Y464207D01*
X49293Y465707D01*
X49536Y466071D01*
X49575Y466264D01*
X49672Y466328D01*
X50031Y466866D01*
X50157Y467500D01*
X50031Y468134D01*
X49672Y468672D01*
X49134Y469031D01*
X48500Y469157D01*
D02*
G37*
G36*
X80000Y471657D02*
X79366Y471531D01*
X78828Y471172D01*
X78469Y470634D01*
X78343Y470000D01*
X78469Y469366D01*
X78828Y468828D01*
X79366Y468469D01*
X80000Y468343D01*
X80128Y468369D01*
X85824D01*
X90256Y463937D01*
X90328Y463828D01*
X90866Y463469D01*
X91500Y463343D01*
X92134Y463469D01*
X92672Y463828D01*
X93031Y464366D01*
X93157Y465000D01*
X93031Y465634D01*
X92672Y466172D01*
X92563Y466244D01*
X87653Y471153D01*
X87124Y471507D01*
X86500Y471631D01*
X80128D01*
X80000Y471657D01*
D02*
G37*
G36*
X240000Y481657D02*
X239366Y481531D01*
X238828Y481172D01*
X238469Y480634D01*
X238343Y480000D01*
X238469Y479366D01*
X238828Y478828D01*
X239366Y478469D01*
X240000Y478343D01*
X240634Y478469D01*
X241172Y478828D01*
X241531Y479366D01*
X241657Y480000D01*
X241531Y480634D01*
X241172Y481172D01*
X240634Y481531D01*
X240000Y481657D01*
D02*
G37*
G36*
X262501Y470169D02*
X262439Y470144D01*
X262373Y470156D01*
X261983Y470079D01*
X261876Y470007D01*
X261749Y469982D01*
X261418Y469761D01*
X261347Y469654D01*
X261239Y469582D01*
X261063Y469318D01*
X261039Y469199D01*
X260969Y469100D01*
X260866Y468643D01*
X260879Y468570D01*
X260851Y468502D01*
X260831Y461502D01*
X260857Y461439D01*
X260843Y461373D01*
X260921Y460983D01*
X260993Y460876D01*
X261018Y460749D01*
X261239Y460418D01*
X261347Y460347D01*
X261418Y460239D01*
X261682Y460063D01*
X261801Y460039D01*
X261900Y459969D01*
X262357Y459866D01*
X262431Y459879D01*
X262499Y459851D01*
X264555Y459848D01*
X264762Y459348D01*
X263120Y457706D01*
X262634Y458031D01*
X262000Y458157D01*
X261366Y458031D01*
X260828Y457672D01*
X260469Y457134D01*
X260343Y456500D01*
X260469Y455866D01*
X260828Y455328D01*
X261138Y455122D01*
X260986Y454622D01*
X256965D01*
X253293Y458293D01*
X252929Y458536D01*
X252500Y458622D01*
X252500Y458622D01*
X250205D01*
X250172Y458672D01*
X249634Y459031D01*
X249000Y459157D01*
X248366Y459031D01*
X247828Y458672D01*
X247469Y458134D01*
X247343Y457500D01*
X247469Y456866D01*
X247828Y456328D01*
X248366Y455969D01*
X249000Y455843D01*
X249634Y455969D01*
X250172Y456328D01*
X250205Y456378D01*
X252035D01*
X253300Y455114D01*
X253108Y454652D01*
X244002Y454679D01*
X243939Y454653D01*
X243873Y454666D01*
X243288Y454550D01*
X243181Y454478D01*
X243054Y454453D01*
X242558Y454121D01*
X242486Y454014D01*
X242379Y453942D01*
X242047Y453446D01*
X242022Y453319D01*
X241950Y453212D01*
X241839Y452656D01*
X241846Y452622D01*
X241830Y452592D01*
X241854Y452514D01*
X241851Y452505D01*
X241821Y449006D01*
X241847Y448941D01*
X241834Y448873D01*
X241950Y448288D01*
X242022Y448181D01*
X242047Y448054D01*
X242379Y447558D01*
X242486Y447486D01*
X242558Y447379D01*
X243054Y447047D01*
X243181Y447022D01*
X243288Y446950D01*
X243845Y446839D01*
X243878Y446846D01*
X243908Y446830D01*
X243988Y446855D01*
X243998Y446851D01*
X253998Y446821D01*
X254061Y446847D01*
X254127Y446834D01*
X254712Y446950D01*
X254819Y447022D01*
X254946Y447047D01*
X255442Y447379D01*
X255514Y447486D01*
X255621Y447558D01*
X255953Y448054D01*
X255978Y448181D01*
X256050Y448288D01*
X256161Y448844D01*
X256154Y448878D01*
X256170Y448908D01*
X256146Y448986D01*
X256149Y448994D01*
X256176Y452114D01*
X256500Y452378D01*
X263793D01*
X263793Y452378D01*
X264222Y452464D01*
X264586Y452707D01*
X265757Y453878D01*
X279795D01*
X279828Y453828D01*
X280366Y453469D01*
X281000Y453343D01*
X281634Y453469D01*
X282172Y453828D01*
X282531Y454366D01*
X282657Y455000D01*
X282531Y455634D01*
X282172Y456172D01*
X281634Y456531D01*
X281000Y456657D01*
X280366Y456531D01*
X279828Y456172D01*
X279795Y456122D01*
X265415D01*
X265236Y456416D01*
X265198Y456611D01*
X266465Y457878D01*
X293795D01*
X293828Y457828D01*
X294366Y457469D01*
X295000Y457343D01*
X295634Y457469D01*
X296172Y457828D01*
X296531Y458366D01*
X296657Y459000D01*
X296531Y459634D01*
X296172Y460172D01*
X295634Y460531D01*
X295000Y460657D01*
X294366Y460531D01*
X293828Y460172D01*
X293795Y460122D01*
X283648D01*
X283397Y460622D01*
X283437Y460682D01*
X283461Y460801D01*
X283531Y460900D01*
X283634Y461357D01*
X283621Y461431D01*
X283649Y461500D01*
Y468500D01*
X283621Y468569D01*
X283634Y468643D01*
X283531Y469100D01*
X283461Y469199D01*
X283437Y469318D01*
X283261Y469582D01*
X283154Y469654D01*
X283082Y469761D01*
X282818Y469937D01*
X282699Y469961D01*
X282600Y470031D01*
X282143Y470134D01*
X282069Y470121D01*
X282001Y470149D01*
X262501Y470169D01*
D02*
G37*
G36*
X59500Y156657D02*
X58866Y156531D01*
X58328Y156172D01*
X58295Y156122D01*
X57500D01*
X57071Y156036D01*
X56707Y155793D01*
X56707Y155793D01*
X54535Y153622D01*
X40705D01*
X40672Y153672D01*
X40134Y154031D01*
X39500Y154157D01*
X38866Y154031D01*
X38328Y153672D01*
X37969Y153134D01*
X37843Y152500D01*
X37969Y151866D01*
X38328Y151328D01*
X38866Y150969D01*
X39500Y150843D01*
X40134Y150969D01*
X40672Y151328D01*
X40705Y151378D01*
X55000D01*
X55000Y151378D01*
X55429Y151464D01*
X55793Y151707D01*
X57847Y153761D01*
X58328Y153828D01*
X58866Y153469D01*
X59500Y153343D01*
X60134Y153469D01*
X60672Y153828D01*
X61031Y154366D01*
X61157Y155000D01*
X61031Y155634D01*
X60672Y156172D01*
X60134Y156531D01*
X59500Y156657D01*
D02*
G37*
G36*
Y151657D02*
X58866Y151531D01*
X58328Y151172D01*
X58295Y151122D01*
X57500D01*
X57071Y151036D01*
X56707Y150793D01*
X56707Y150793D01*
X54535Y148622D01*
X40705D01*
X40672Y148672D01*
X40134Y149031D01*
X39500Y149157D01*
X38866Y149031D01*
X38328Y148672D01*
X37969Y148134D01*
X37843Y147500D01*
X37969Y146866D01*
X38328Y146328D01*
X38866Y145969D01*
X39500Y145843D01*
X40134Y145969D01*
X40672Y146328D01*
X40705Y146378D01*
X55000D01*
X55000Y146378D01*
X55429Y146464D01*
X55793Y146707D01*
X57847Y148761D01*
X58328Y148828D01*
X58866Y148469D01*
X59500Y148343D01*
X60134Y148469D01*
X60672Y148828D01*
X61031Y149366D01*
X61157Y150000D01*
X61031Y150634D01*
X60672Y151172D01*
X60134Y151531D01*
X59500Y151657D01*
D02*
G37*
G36*
X82500Y190157D02*
X81866Y190031D01*
X81328Y189672D01*
X80969Y189134D01*
X80843Y188500D01*
X80855Y188441D01*
X79535Y187122D01*
X72705D01*
X72672Y187172D01*
X72134Y187531D01*
X71500Y187657D01*
X70866Y187531D01*
X70328Y187172D01*
X69969Y186634D01*
X69843Y186000D01*
X69969Y185366D01*
X70328Y184828D01*
X70866Y184469D01*
X71500Y184343D01*
X72134Y184469D01*
X72672Y184828D01*
X72705Y184878D01*
X80000D01*
X80000Y184878D01*
X80429Y184964D01*
X80793Y185207D01*
X82441Y186855D01*
X82500Y186843D01*
X83134Y186969D01*
X83672Y187328D01*
X84031Y187866D01*
X84157Y188500D01*
X84031Y189134D01*
X83672Y189672D01*
X83134Y190031D01*
X82500Y190157D01*
D02*
G37*
G36*
X60000Y181657D02*
X59366Y181531D01*
X58828Y181172D01*
X58469Y180634D01*
X58343Y180000D01*
X58469Y179366D01*
X58594Y179180D01*
X58035Y178622D01*
X50000D01*
X50000Y178622D01*
X49571Y178536D01*
X49207Y178293D01*
X48559Y177645D01*
X48500Y177657D01*
X47866Y177531D01*
X47328Y177172D01*
X46969Y176634D01*
X46843Y176000D01*
X46969Y175366D01*
X47328Y174828D01*
X47866Y174469D01*
X48500Y174343D01*
X49134Y174469D01*
X49672Y174828D01*
X50031Y175366D01*
X50157Y176000D01*
X50156Y176006D01*
X50487Y176378D01*
X58500D01*
X58500Y176378D01*
X58929Y176464D01*
X59293Y176707D01*
X60793Y178207D01*
X61036Y178571D01*
X61075Y178764D01*
X61172Y178828D01*
X61531Y179366D01*
X61657Y180000D01*
X61531Y180634D01*
X61172Y181172D01*
X60634Y181531D01*
X60000Y181657D01*
D02*
G37*
G36*
X121776Y137650D02*
X115476D01*
X115017Y137459D01*
X114827Y137000D01*
Y130925D01*
X115017Y130466D01*
X115476Y130276D01*
X121776D01*
X122235Y130466D01*
X122425Y130925D01*
Y137000D01*
X122235Y137459D01*
X121776Y137650D01*
D02*
G37*
G36*
X121776Y84724D02*
X115476D01*
X115017Y84534D01*
X114827Y84075D01*
Y78000D01*
X115017Y77541D01*
X115476Y77351D01*
X121776D01*
X122235Y77541D01*
X122425Y78000D01*
Y84075D01*
X122235Y84534D01*
X121776Y84724D01*
D02*
G37*
G36*
X59500Y146657D02*
X58866Y146531D01*
X58328Y146172D01*
X58295Y146122D01*
X57500D01*
X57071Y146036D01*
X56707Y145793D01*
X56707Y145793D01*
X54535Y143622D01*
X40705D01*
X40672Y143672D01*
X40134Y144031D01*
X39500Y144157D01*
X38866Y144031D01*
X38328Y143672D01*
X37969Y143134D01*
X37843Y142500D01*
X37969Y141866D01*
X38328Y141328D01*
X38866Y140969D01*
X39500Y140843D01*
X40134Y140969D01*
X40672Y141328D01*
X40705Y141378D01*
X55000D01*
X55000Y141378D01*
X55429Y141464D01*
X55793Y141707D01*
X57847Y143761D01*
X58328Y143828D01*
X58866Y143469D01*
X59500Y143343D01*
X60134Y143469D01*
X60672Y143828D01*
X61031Y144366D01*
X61157Y145000D01*
X61031Y145634D01*
X60672Y146172D01*
X60134Y146531D01*
X59500Y146657D01*
D02*
G37*
G36*
Y141657D02*
X58866Y141531D01*
X58328Y141172D01*
X58295Y141122D01*
X57500D01*
X57071Y141036D01*
X56707Y140793D01*
X56707Y140793D01*
X54535Y138622D01*
X40705D01*
X40672Y138672D01*
X40134Y139031D01*
X39500Y139157D01*
X38866Y139031D01*
X38328Y138672D01*
X37969Y138134D01*
X37843Y137500D01*
X37969Y136866D01*
X38328Y136328D01*
X38866Y135969D01*
X39500Y135843D01*
X40134Y135969D01*
X40672Y136328D01*
X40705Y136378D01*
X55000D01*
X55000Y136378D01*
X55429Y136464D01*
X55793Y136707D01*
X57847Y138761D01*
X58328Y138828D01*
X58866Y138469D01*
X59500Y138343D01*
X60134Y138469D01*
X60672Y138828D01*
X61031Y139366D01*
X61157Y140000D01*
X61031Y140634D01*
X60672Y141172D01*
X60134Y141531D01*
X59500Y141657D01*
D02*
G37*
G36*
Y197657D02*
X58866Y197531D01*
X58328Y197172D01*
X58295Y197122D01*
X57414D01*
X56985Y197036D01*
X56621Y196793D01*
X56621Y196793D01*
X54450Y194622D01*
X27500D01*
X27071Y194536D01*
X26707Y194293D01*
X26707Y194293D01*
X25059Y192645D01*
X25000Y192657D01*
X24366Y192531D01*
X23828Y192172D01*
X23469Y191634D01*
X23343Y191000D01*
X23469Y190366D01*
X23828Y189828D01*
X24366Y189469D01*
X25000Y189343D01*
X25634Y189469D01*
X26172Y189828D01*
X26531Y190366D01*
X26657Y191000D01*
X26645Y191059D01*
X27965Y192378D01*
X54914D01*
X54914Y192378D01*
X55343Y192464D01*
X55707Y192707D01*
X57833Y194833D01*
X58328Y194828D01*
X58866Y194469D01*
X59500Y194343D01*
X60134Y194469D01*
X60672Y194828D01*
X61031Y195366D01*
X61157Y196000D01*
X61031Y196634D01*
X60672Y197172D01*
X60134Y197531D01*
X59500Y197657D01*
D02*
G37*
G36*
X268143Y307643D02*
X259857D01*
Y299357D01*
X268143D01*
Y307643D01*
D02*
G37*
G36*
X258517Y303000D02*
X254500D01*
Y298983D01*
X255186Y299074D01*
X256291Y299531D01*
X257240Y300260D01*
X257969Y301209D01*
X258426Y302314D01*
X258517Y303000D01*
D02*
G37*
G36*
X254500Y308017D02*
Y304000D01*
X258517D01*
X258426Y304686D01*
X257969Y305791D01*
X257240Y306740D01*
X256291Y307469D01*
X255186Y307926D01*
X254500Y308017D01*
D02*
G37*
G36*
X253500Y308017D02*
X252814Y307926D01*
X251709Y307469D01*
X250760Y306740D01*
X250031Y305791D01*
X249574Y304686D01*
X249483Y304000D01*
X253500D01*
Y308017D01*
D02*
G37*
G36*
X97500Y267657D02*
X96866Y267531D01*
X96328Y267172D01*
X96295Y267122D01*
X45500D01*
X45500Y267122D01*
X45071Y267036D01*
X44707Y266793D01*
X44707Y266793D01*
X42059Y264145D01*
X42000Y264157D01*
X41366Y264031D01*
X40828Y263672D01*
X40469Y263134D01*
X40343Y262500D01*
X40469Y261866D01*
X40828Y261328D01*
X41366Y260969D01*
X42000Y260843D01*
X42634Y260969D01*
X43172Y261328D01*
X43531Y261866D01*
X43657Y262500D01*
X43645Y262559D01*
X45965Y264879D01*
X96295D01*
X96328Y264828D01*
X96866Y264469D01*
X97500Y264343D01*
X98134Y264469D01*
X98672Y264828D01*
X99031Y265366D01*
X99157Y266000D01*
X99031Y266634D01*
X98672Y267172D01*
X98134Y267531D01*
X97500Y267657D01*
D02*
G37*
G36*
X49000Y225657D02*
X48366Y225531D01*
X47828Y225172D01*
X47469Y224634D01*
X47343Y224000D01*
X47469Y223366D01*
X47828Y222828D01*
X48366Y222469D01*
X49000Y222343D01*
X49634Y222469D01*
X50172Y222828D01*
X50205Y222879D01*
X53535D01*
X54855Y221559D01*
X54843Y221500D01*
X54969Y220866D01*
X55328Y220328D01*
X55866Y219969D01*
X56500Y219843D01*
X57134Y219969D01*
X57672Y220328D01*
X58031Y220866D01*
X58157Y221500D01*
X58031Y222134D01*
X57672Y222672D01*
X57134Y223031D01*
X56500Y223157D01*
X56441Y223145D01*
X54793Y224793D01*
X54429Y225036D01*
X54000Y225122D01*
X54000Y225121D01*
X50205D01*
X50172Y225172D01*
X49634Y225531D01*
X49000Y225657D01*
D02*
G37*
G36*
X253500Y303000D02*
X249483D01*
X249574Y302314D01*
X250031Y301209D01*
X250760Y300260D01*
X251709Y299531D01*
X252814Y299074D01*
X253500Y298983D01*
Y303000D01*
D02*
G37*
G36*
X97500Y284157D02*
X96866Y284031D01*
X96328Y283672D01*
X95969Y283134D01*
X95843Y282500D01*
X95855Y282441D01*
X92035Y278622D01*
X61205D01*
X61172Y278672D01*
X60634Y279031D01*
X60000Y279157D01*
X59366Y279031D01*
X58828Y278672D01*
X58469Y278134D01*
X58343Y277500D01*
X58469Y276866D01*
X58828Y276328D01*
X59366Y275969D01*
X60000Y275843D01*
X60634Y275969D01*
X61172Y276328D01*
X61205Y276378D01*
X63365D01*
X63633Y275879D01*
X63469Y275634D01*
X63343Y275000D01*
X63469Y274366D01*
X63633Y274121D01*
X63365Y273622D01*
X59500D01*
X59500Y273622D01*
X59071Y273536D01*
X58707Y273293D01*
X56559Y271145D01*
X56500Y271157D01*
X55866Y271031D01*
X55328Y270672D01*
X54969Y270134D01*
X54843Y269500D01*
X54969Y268866D01*
X55328Y268328D01*
X55866Y267969D01*
X56500Y267843D01*
X57134Y267969D01*
X57672Y268328D01*
X58031Y268866D01*
X58157Y269500D01*
X58145Y269559D01*
X59965Y271378D01*
X97500D01*
X97500Y271378D01*
X97929Y271464D01*
X98293Y271707D01*
X99941Y273355D01*
X100000Y273343D01*
X100634Y273469D01*
X101172Y273828D01*
X101531Y274366D01*
X101657Y275000D01*
X101531Y275634D01*
X101172Y276172D01*
X100634Y276531D01*
X100000Y276657D01*
X99366Y276531D01*
X98828Y276172D01*
X98469Y275634D01*
X98343Y275000D01*
X98355Y274941D01*
X97035Y273622D01*
X91635D01*
X91367Y274121D01*
X91531Y274366D01*
X91657Y275000D01*
X91531Y275634D01*
X91367Y275879D01*
X91635Y276378D01*
X92500D01*
X92500Y276378D01*
X92929Y276464D01*
X93293Y276707D01*
X97441Y280855D01*
X97500Y280843D01*
X98134Y280969D01*
X98672Y281328D01*
X99031Y281866D01*
X99157Y282500D01*
X99031Y283134D01*
X98672Y283672D01*
X98134Y284031D01*
X97500Y284157D01*
D02*
G37*
G36*
X238000Y584157D02*
X237366Y584031D01*
X236828Y583672D01*
X236795Y583622D01*
X221205D01*
X221172Y583672D01*
X220634Y584031D01*
X220000Y584157D01*
X219366Y584031D01*
X218828Y583672D01*
X218469Y583134D01*
X218343Y582500D01*
X218469Y581866D01*
X218828Y581328D01*
X219366Y580969D01*
X220000Y580843D01*
X220634Y580969D01*
X221172Y581328D01*
X221205Y581378D01*
X236795D01*
X236828Y581328D01*
X237366Y580969D01*
X238000Y580843D01*
X238634Y580969D01*
X239172Y581328D01*
X239531Y581866D01*
X239657Y582500D01*
X239531Y583134D01*
X239172Y583672D01*
X238634Y584031D01*
X238000Y584157D01*
D02*
G37*
G36*
X253969Y520563D02*
X253180Y520460D01*
X251979Y519962D01*
X250947Y519171D01*
X250156Y518139D01*
X249739Y517133D01*
X249198D01*
X248781Y518139D01*
X247990Y519171D01*
X246958Y519962D01*
X245757Y520460D01*
X244969Y520563D01*
Y515650D01*
Y510736D01*
X245757Y510840D01*
X246958Y511337D01*
X247990Y512128D01*
X248781Y513160D01*
X249198Y514166D01*
X249739D01*
X250156Y513160D01*
X250947Y512128D01*
X251979Y511337D01*
X253180Y510840D01*
X253969Y510736D01*
Y515650D01*
Y520563D01*
D02*
G37*
G36*
X245508Y597772D02*
X242815D01*
Y596303D01*
X242924Y595477D01*
X243243Y594707D01*
X243750Y594046D01*
X244411Y593538D01*
X245182Y593219D01*
X245508Y593176D01*
Y597772D01*
D02*
G37*
G36*
X227950Y601062D02*
X227360Y600945D01*
X226859Y600610D01*
X226525Y600110D01*
X226408Y599520D01*
X226525Y598930D01*
X226859Y598430D01*
X226878Y598417D01*
Y596000D01*
X226878Y596000D01*
X226964Y595571D01*
X227207Y595207D01*
X229292Y593122D01*
X229251Y592888D01*
X229033Y592622D01*
X227000D01*
X227000Y592622D01*
X226571Y592536D01*
X226207Y592293D01*
X226207Y592293D01*
X224967Y591053D01*
X224724Y590689D01*
X224675Y590442D01*
X224588Y590385D01*
X224229Y589847D01*
X224103Y589213D01*
X224229Y588579D01*
X224588Y588042D01*
X225126Y587682D01*
X225760Y587556D01*
X226394Y587682D01*
X226931Y588042D01*
X227291Y588579D01*
X227417Y589213D01*
X227291Y589847D01*
X227195Y589990D01*
X227504Y590378D01*
X230000D01*
X230000Y590378D01*
X230429Y590464D01*
X230793Y590707D01*
X231536Y591450D01*
X231634Y591469D01*
X232172Y591828D01*
X232531Y592366D01*
X232657Y593000D01*
X232531Y593634D01*
X232172Y594172D01*
X231634Y594531D01*
X231000Y594657D01*
X230941Y594645D01*
X229121Y596465D01*
Y598551D01*
X229375Y598930D01*
X229492Y599520D01*
X229375Y600110D01*
X229041Y600610D01*
X228540Y600945D01*
X227950Y601062D01*
D02*
G37*
G36*
X193968Y520563D02*
X193180Y520460D01*
X191979Y519962D01*
X190947Y519171D01*
X190156Y518139D01*
X189739Y517133D01*
X189198D01*
X188781Y518139D01*
X187990Y519171D01*
X186958Y519962D01*
X185757Y520460D01*
X184968Y520563D01*
Y515650D01*
Y510736D01*
X185757Y510840D01*
X186958Y511337D01*
X187990Y512128D01*
X188781Y513160D01*
X189198Y514166D01*
X189739D01*
X190156Y513160D01*
X190947Y512128D01*
X191979Y511337D01*
X193180Y510840D01*
X193968Y510736D01*
Y515650D01*
Y520563D01*
D02*
G37*
G36*
X163969D02*
X163180Y520460D01*
X161979Y519962D01*
X160947Y519171D01*
X160156Y518139D01*
X159739Y517133D01*
X159198D01*
X158781Y518139D01*
X157990Y519171D01*
X156958Y519962D01*
X155757Y520460D01*
X154969Y520563D01*
Y515650D01*
Y510736D01*
X155757Y510840D01*
X156958Y511337D01*
X157990Y512128D01*
X158781Y513160D01*
X159198Y514166D01*
X159739D01*
X160156Y513160D01*
X160947Y512128D01*
X161979Y511337D01*
X163180Y510840D01*
X163969Y510736D01*
Y515650D01*
Y520563D01*
D02*
G37*
G36*
X113969D02*
X113180Y520460D01*
X111979Y519962D01*
X110947Y519171D01*
X110156Y518139D01*
X109739Y517133D01*
X109198D01*
X108781Y518139D01*
X107990Y519171D01*
X106958Y519962D01*
X105757Y520460D01*
X104969Y520563D01*
Y515650D01*
Y510736D01*
X105757Y510840D01*
X106958Y511337D01*
X107990Y512128D01*
X108781Y513160D01*
X109198Y514166D01*
X109739D01*
X110156Y513160D01*
X110947Y512128D01*
X111979Y511337D01*
X113180Y510840D01*
X113969Y510736D01*
Y515650D01*
Y520563D01*
D02*
G37*
G36*
X183968D02*
X183180Y520460D01*
X181979Y519962D01*
X180947Y519171D01*
X180156Y518139D01*
X179739Y517133D01*
X179198D01*
X178781Y518139D01*
X177990Y519171D01*
X176958Y519962D01*
X175757Y520460D01*
X174969Y520563D01*
Y515650D01*
Y510736D01*
X175757Y510840D01*
X176958Y511337D01*
X177990Y512128D01*
X178781Y513160D01*
X179198Y514166D01*
X179739D01*
X180156Y513160D01*
X180947Y512128D01*
X181979Y511337D01*
X183180Y510840D01*
X183968Y510736D01*
Y515650D01*
Y520563D01*
D02*
G37*
G36*
X173969D02*
X173180Y520460D01*
X171979Y519962D01*
X170947Y519171D01*
X170156Y518139D01*
X169739Y517133D01*
X169198D01*
X168781Y518139D01*
X167990Y519171D01*
X166958Y519962D01*
X165757Y520460D01*
X164969Y520563D01*
Y515650D01*
Y510736D01*
X165757Y510840D01*
X166958Y511337D01*
X167990Y512128D01*
X168781Y513160D01*
X169198Y514166D01*
X169739D01*
X170156Y513160D01*
X170947Y512128D01*
X171979Y511337D01*
X173180Y510840D01*
X173969Y510736D01*
Y515650D01*
Y520563D01*
D02*
G37*
G36*
X246508Y603367D02*
Y598772D01*
X249201D01*
Y600240D01*
X249092Y601066D01*
X248773Y601836D01*
X248265Y602498D01*
X247604Y603005D01*
X246834Y603324D01*
X246508Y603367D01*
D02*
G37*
G36*
X212492D02*
Y598772D01*
X215185D01*
Y600240D01*
X215076Y601066D01*
X214757Y601836D01*
X214250Y602498D01*
X213589Y603005D01*
X212818Y603324D01*
X212492Y603367D01*
D02*
G37*
G36*
X249201Y618874D02*
X246508D01*
Y613294D01*
X246834Y613337D01*
X247604Y613656D01*
X248265Y614164D01*
X248773Y614825D01*
X249092Y615595D01*
X249201Y616421D01*
Y618874D01*
D02*
G37*
G36*
X211492D02*
X208800D01*
Y616421D01*
X208908Y615595D01*
X209227Y614825D01*
X209735Y614164D01*
X210396Y613656D01*
X211166Y613337D01*
X211492Y613294D01*
Y618874D01*
D02*
G37*
G36*
Y603367D02*
X211166Y603324D01*
X210396Y603005D01*
X209735Y602498D01*
X209227Y601836D01*
X208908Y601066D01*
X208800Y600240D01*
Y598772D01*
X211492D01*
Y603367D01*
D02*
G37*
G36*
X215185Y597772D02*
X212492D01*
Y593176D01*
X212818Y593219D01*
X213589Y593538D01*
X214250Y594046D01*
X214757Y594707D01*
X215076Y595477D01*
X215185Y596303D01*
Y597772D01*
D02*
G37*
G36*
X211492D02*
X208800D01*
Y596303D01*
X208908Y595477D01*
X209227Y594707D01*
X209735Y594046D01*
X210396Y593538D01*
X211166Y593219D01*
X211492Y593176D01*
Y597772D01*
D02*
G37*
G36*
X245508Y603367D02*
X245182Y603324D01*
X244411Y603005D01*
X243750Y602498D01*
X243243Y601836D01*
X242924Y601066D01*
X242815Y600240D01*
Y598772D01*
X245508D01*
Y603367D01*
D02*
G37*
G36*
X249201Y597772D02*
X246508D01*
Y593176D01*
X246834Y593219D01*
X247604Y593538D01*
X248265Y594046D01*
X248773Y594707D01*
X249092Y595477D01*
X249201Y596303D01*
Y597772D01*
D02*
G37*
G36*
X214469Y520226D02*
X213284Y520070D01*
X212180Y519613D01*
X211233Y518885D01*
X210505Y517938D01*
X210048Y516834D01*
X209892Y515650D01*
X210048Y514465D01*
X210505Y513362D01*
X211233Y512414D01*
X212180Y511687D01*
X213284Y511229D01*
X214469Y511073D01*
X215653Y511229D01*
X216757Y511687D01*
X217704Y512414D01*
X218432Y513362D01*
X218889Y514465D01*
X219045Y515650D01*
X218889Y516834D01*
X218432Y517938D01*
X217704Y518885D01*
X216757Y519613D01*
X215653Y520070D01*
X214469Y520226D01*
D02*
G37*
G36*
X194968Y520563D02*
Y515650D01*
Y510736D01*
X195757Y510840D01*
X196958Y511337D01*
X197990Y512128D01*
X198781Y513160D01*
X199278Y514361D01*
X199413Y515380D01*
X199413D01*
X199894Y515421D01*
X199910D01*
X199918D01*
X199922D01*
X199922D01*
X199928Y515380D01*
Y515380D01*
X200048Y514465D01*
X200505Y513362D01*
X201233Y512414D01*
X202180Y511687D01*
X203284Y511229D01*
X204468Y511073D01*
X205653Y511229D01*
X206757Y511687D01*
X207704Y512414D01*
X208432Y513362D01*
X208889Y514465D01*
X209045Y515650D01*
X208889Y516834D01*
X208432Y517938D01*
X207704Y518885D01*
X206757Y519613D01*
X205653Y520070D01*
X204468Y520226D01*
X203284Y520070D01*
X202180Y519613D01*
X201233Y518885D01*
X200505Y517938D01*
X200048Y516834D01*
X199928Y515919D01*
Y515919D01*
X199922Y515878D01*
X199922D01*
X199918D01*
X199910D01*
X199894D01*
X199413Y515919D01*
Y515919D01*
X199413Y515919D01*
X199278Y516938D01*
X198781Y518139D01*
X197990Y519171D01*
X196958Y519962D01*
X195757Y520460D01*
X194968Y520563D01*
D02*
G37*
G36*
X224468Y520226D02*
X223284Y520070D01*
X222180Y519613D01*
X221233Y518885D01*
X220505Y517938D01*
X220048Y516834D01*
X219892Y515650D01*
X220048Y514465D01*
X220505Y513362D01*
X221233Y512414D01*
X222180Y511687D01*
X223284Y511229D01*
X224468Y511073D01*
X225653Y511229D01*
X226757Y511687D01*
X227704Y512414D01*
X228432Y513362D01*
X228889Y514465D01*
X229045Y515650D01*
X228889Y516834D01*
X228432Y517938D01*
X227704Y518885D01*
X226757Y519613D01*
X225653Y520070D01*
X224468Y520226D01*
D02*
G37*
G36*
X259382Y515150D02*
X254969D01*
Y510736D01*
X255757Y510840D01*
X256958Y511337D01*
X257990Y512128D01*
X258781Y513160D01*
X259278Y514361D01*
X259382Y515150D01*
D02*
G37*
G36*
X114969Y520563D02*
Y515650D01*
Y510736D01*
X115757Y510840D01*
X116958Y511337D01*
X117990Y512128D01*
X118781Y513160D01*
X119278Y514361D01*
X119413Y515380D01*
X119413D01*
X119894Y515421D01*
X119910D01*
X119918D01*
X119922D01*
X119922D01*
X119928Y515380D01*
Y515380D01*
X120048Y514465D01*
X120505Y513362D01*
X121233Y512414D01*
X122180Y511687D01*
X123284Y511229D01*
X124469Y511073D01*
X125653Y511229D01*
X126757Y511687D01*
X127704Y512414D01*
X128432Y513362D01*
X128889Y514465D01*
X129045Y515650D01*
X128889Y516834D01*
X128432Y517938D01*
X127704Y518885D01*
X126757Y519613D01*
X125653Y520070D01*
X124469Y520226D01*
X123284Y520070D01*
X122180Y519613D01*
X121233Y518885D01*
X120505Y517938D01*
X120048Y516834D01*
X119928Y515919D01*
Y515919D01*
X119922Y515878D01*
X119922D01*
X119918D01*
X119910D01*
X119894D01*
X119413Y515919D01*
Y515919D01*
X119413Y515919D01*
X119278Y516938D01*
X118781Y518139D01*
X117990Y519171D01*
X116958Y519962D01*
X115757Y520460D01*
X114969Y520563D01*
D02*
G37*
G36*
X84469Y520226D02*
X83284Y520070D01*
X82180Y519613D01*
X81233Y518885D01*
X80505Y517938D01*
X80048Y516834D01*
X79892Y515650D01*
X80048Y514465D01*
X80505Y513362D01*
X81233Y512414D01*
X82180Y511687D01*
X83284Y511229D01*
X84469Y511073D01*
X85653Y511229D01*
X86757Y511687D01*
X87704Y512414D01*
X88432Y513362D01*
X88889Y514465D01*
X89045Y515650D01*
X88889Y516834D01*
X88432Y517938D01*
X87704Y518885D01*
X86757Y519613D01*
X85653Y520070D01*
X84469Y520226D01*
D02*
G37*
G36*
X69406Y520587D02*
X64969D01*
Y515650D01*
Y510713D01*
X69406D01*
Y515517D01*
X69854Y515546D01*
X69884Y515548D01*
X69902Y515549D01*
X69906Y515550D01*
X69942Y515274D01*
Y515274D01*
X70048Y514465D01*
X70505Y513362D01*
X71233Y512414D01*
X72180Y511687D01*
X73284Y511229D01*
X74468Y511073D01*
X75653Y511229D01*
X76757Y511687D01*
X77704Y512414D01*
X78432Y513362D01*
X78889Y514465D01*
X79045Y515650D01*
X78889Y516834D01*
X78432Y517938D01*
X77704Y518885D01*
X76757Y519613D01*
X75653Y520070D01*
X74468Y520226D01*
X73284Y520070D01*
X72180Y519613D01*
X71233Y518885D01*
X70505Y517938D01*
X70048Y516834D01*
X69942Y516025D01*
Y516025D01*
X69906Y515750D01*
X69902Y515750D01*
X69884Y515751D01*
X69854Y515753D01*
X69406Y515782D01*
Y520587D01*
D02*
G37*
G36*
X134468Y520226D02*
X133284Y520070D01*
X132180Y519613D01*
X131233Y518885D01*
X130505Y517938D01*
X130048Y516834D01*
X129892Y515650D01*
X130048Y514465D01*
X130505Y513362D01*
X131233Y512414D01*
X132180Y511687D01*
X133284Y511229D01*
X134468Y511073D01*
X135653Y511229D01*
X136757Y511687D01*
X137704Y512414D01*
X138432Y513362D01*
X138889Y514465D01*
X139045Y515650D01*
X138889Y516834D01*
X138432Y517938D01*
X137704Y518885D01*
X136757Y519613D01*
X135653Y520070D01*
X134468Y520226D01*
D02*
G37*
G36*
X63968Y520587D02*
X59531D01*
Y516150D01*
X63968D01*
Y520587D01*
D02*
G37*
G36*
X243969Y520563D02*
X243180Y520460D01*
X241979Y519962D01*
X240947Y519171D01*
X240156Y518139D01*
X239659Y516938D01*
X239524Y515919D01*
X239524D01*
X239043Y515878D01*
X239027D01*
X239019D01*
X239015D01*
X239015D01*
X239009Y515919D01*
Y515919D01*
X238889Y516834D01*
X238432Y517938D01*
X237704Y518885D01*
X236757Y519613D01*
X235653Y520070D01*
X234469Y520226D01*
X233284Y520070D01*
X232180Y519613D01*
X231233Y518885D01*
X230505Y517938D01*
X230048Y516834D01*
X229892Y515650D01*
X230048Y514465D01*
X230505Y513362D01*
X231233Y512414D01*
X232180Y511687D01*
X233284Y511229D01*
X234469Y511073D01*
X235653Y511229D01*
X236757Y511687D01*
X237704Y512414D01*
X238432Y513362D01*
X238889Y514465D01*
X239009Y515380D01*
Y515380D01*
X239015Y515421D01*
X239015D01*
X239019D01*
X239027D01*
X239043D01*
X239524Y515380D01*
Y515380D01*
X239524Y515380D01*
X239659Y514361D01*
X240156Y513160D01*
X240947Y512128D01*
X241979Y511337D01*
X243180Y510840D01*
X243969Y510736D01*
Y515650D01*
Y520563D01*
D02*
G37*
G36*
X254969D02*
Y516150D01*
X259382D01*
X259278Y516938D01*
X258781Y518139D01*
X257990Y519171D01*
X256958Y519962D01*
X255757Y520460D01*
X254969Y520563D01*
D02*
G37*
G36*
X63968Y515150D02*
X59531D01*
Y510713D01*
X63968D01*
Y515150D01*
D02*
G37*
G36*
X275138Y523540D02*
X273748Y523357D01*
X272453Y522820D01*
X271340Y521967D01*
X270487Y520855D01*
X269950Y519559D01*
X269767Y518169D01*
X269950Y516779D01*
X270487Y515484D01*
X271340Y514372D01*
X272453Y513518D01*
X273748Y512982D01*
X275138Y512799D01*
X276528Y512982D01*
X277823Y513518D01*
X278935Y514372D01*
X279789Y515484D01*
X280325Y516779D01*
X280508Y518169D01*
X280325Y519559D01*
X279789Y520855D01*
X278935Y521967D01*
X277823Y522820D01*
X276528Y523357D01*
X275138Y523540D01*
D02*
G37*
G36*
X43799D02*
X42409Y523357D01*
X41114Y522820D01*
X40002Y521967D01*
X39148Y520855D01*
X38612Y519559D01*
X38429Y518169D01*
X38612Y516779D01*
X39148Y515484D01*
X40002Y514372D01*
X41114Y513518D01*
X42409Y512982D01*
X43799Y512799D01*
X45189Y512982D01*
X46484Y513518D01*
X47597Y514372D01*
X48450Y515484D01*
X48987Y516779D01*
X49170Y518169D01*
X48987Y519559D01*
X48450Y520855D01*
X47597Y521967D01*
X46484Y522820D01*
X45189Y523357D01*
X43799Y523540D01*
D02*
G37*
G36*
X103969Y520563D02*
X103180Y520460D01*
X101979Y519962D01*
X100947Y519171D01*
X100156Y518139D01*
X99659Y516938D01*
X99524Y515919D01*
X99524D01*
X99043Y515878D01*
X99027D01*
X99019D01*
X99015D01*
X99015D01*
X99009Y515919D01*
Y515919D01*
X98889Y516834D01*
X98432Y517938D01*
X97704Y518885D01*
X96757Y519613D01*
X95653Y520070D01*
X94468Y520226D01*
X93284Y520070D01*
X92180Y519613D01*
X91233Y518885D01*
X90505Y517938D01*
X90048Y516834D01*
X89892Y515650D01*
X90048Y514465D01*
X90505Y513362D01*
X91233Y512414D01*
X92180Y511687D01*
X93284Y511229D01*
X94468Y511073D01*
X95653Y511229D01*
X96757Y511687D01*
X97704Y512414D01*
X98432Y513362D01*
X98889Y514465D01*
X99009Y515380D01*
Y515380D01*
X99015Y515421D01*
X99015D01*
X99019D01*
X99027D01*
X99043D01*
X99524Y515380D01*
Y515380D01*
X99524Y515380D01*
X99659Y514361D01*
X100156Y513160D01*
X100947Y512128D01*
X101979Y511337D01*
X103180Y510840D01*
X103969Y510736D01*
Y515650D01*
Y520563D01*
D02*
G37*
G36*
X153969D02*
X153180Y520460D01*
X151979Y519962D01*
X150947Y519171D01*
X150156Y518139D01*
X149659Y516938D01*
X149524Y515919D01*
X149524D01*
X149043Y515878D01*
X149027D01*
X149019D01*
X149015D01*
X149015D01*
X149009Y515919D01*
Y515919D01*
X148889Y516834D01*
X148432Y517938D01*
X147704Y518885D01*
X146757Y519613D01*
X145653Y520070D01*
X144468Y520226D01*
X143284Y520070D01*
X142180Y519613D01*
X141233Y518885D01*
X140505Y517938D01*
X140048Y516834D01*
X139892Y515650D01*
X140048Y514465D01*
X140505Y513362D01*
X141233Y512414D01*
X142180Y511687D01*
X143284Y511229D01*
X144468Y511073D01*
X145653Y511229D01*
X146757Y511687D01*
X147704Y512414D01*
X148432Y513362D01*
X148889Y514465D01*
X149009Y515380D01*
Y515380D01*
X149015Y515421D01*
X149015D01*
X149019D01*
X149027D01*
X149043D01*
X149524Y515380D01*
Y515380D01*
X149524Y515380D01*
X149659Y514361D01*
X150156Y513160D01*
X150947Y512128D01*
X151979Y511337D01*
X153180Y510840D01*
X153969Y510736D01*
Y515650D01*
Y520563D01*
D02*
G37*
%LPD*%
G36*
X106085Y313913D02*
X106581Y313581D01*
X106913Y313085D01*
X107024Y312529D01*
X107000Y312500D01*
X107000D01*
X107029Y307500D01*
X106913Y306915D01*
X106581Y306419D01*
X106085Y306087D01*
X105529Y305976D01*
X105500Y306000D01*
Y306000D01*
X85000Y305971D01*
X84415Y306087D01*
X83919Y306419D01*
X83587Y306915D01*
X83476Y307471D01*
X83500Y307500D01*
X83500D01*
X83471Y312500D01*
X83587Y313085D01*
X83919Y313581D01*
X84415Y313913D01*
X84971Y314024D01*
X85000Y314000D01*
Y314000D01*
X105500Y314029D01*
X106085Y313913D01*
D02*
G37*
G36*
X254000Y454000D02*
Y454000D01*
X254029Y454024D01*
X254480Y453934D01*
X255434Y452980D01*
X255529Y452500D01*
X255500Y449000D01*
X255500D01*
X255524Y448971D01*
X255413Y448415D01*
X255081Y447919D01*
X254585Y447587D01*
X254000Y447471D01*
X244000Y447500D01*
Y447500D01*
X243971Y447476D01*
X243415Y447587D01*
X242919Y447919D01*
X242587Y448415D01*
X242471Y449000D01*
X242500Y452500D01*
X242500D01*
X242476Y452529D01*
X242587Y453085D01*
X242919Y453581D01*
X243415Y453913D01*
X244000Y454029D01*
X254000Y454000D01*
D02*
G37*
G36*
X282000Y469500D02*
Y469500D01*
X282000D01*
X282457Y469397D01*
X282721Y469221D01*
X282897Y468957D01*
X283000Y468500D01*
X283000Y468500D01*
X283000Y468500D01*
Y461500D01*
X283000Y461500D01*
X283000D01*
X282897Y461043D01*
X282721Y460779D01*
X282390Y460558D01*
X282000Y460480D01*
X262500Y460500D01*
Y460500D01*
X262500D01*
X262043Y460603D01*
X261779Y460779D01*
X261558Y461110D01*
X261480Y461500D01*
X261500Y468500D01*
X261500D01*
Y468500D01*
X261603Y468957D01*
X261779Y469221D01*
X262110Y469442D01*
X262500Y469520D01*
X282000Y469500D01*
D02*
G37*
D11*
X49343Y497500D02*
X257500D01*
X61500Y500000D02*
X64000Y502500D01*
X257500D01*
X120000Y508000D02*
X139500D01*
X273500Y475000D02*
X275000Y473500D01*
Y472500D02*
Y473500D01*
X47000Y465000D02*
X48500Y466500D01*
X231000Y592500D02*
Y593000D01*
X228000Y596000D02*
X231000Y593000D01*
X225760Y590260D02*
X227000Y591500D01*
X230000D02*
X231000Y592500D01*
X220000Y582500D02*
X238000D01*
X256500Y453500D02*
X263793D01*
X252500Y457500D02*
X256500Y453500D01*
X249000Y457500D02*
X252500D01*
X263500Y456500D02*
X266000Y459000D01*
X295000D01*
X263793Y453500D02*
X265293Y455000D01*
X265500Y444500D02*
X267500Y442500D01*
X243000Y443500D02*
X244000Y444500D01*
X91000Y427441D02*
Y427500D01*
Y427441D02*
X91220Y427220D01*
X95000Y431000D01*
X91571Y424071D02*
X100000Y432500D01*
X97500Y272500D02*
X100000Y275000D01*
X92500Y277500D02*
X97500Y282500D01*
X59500Y272500D02*
X97500D01*
X56500Y269500D02*
X59500Y272500D01*
X60000Y277500D02*
X92500D01*
X42000Y262500D02*
X45500Y266000D01*
X49000Y224000D02*
X54000D01*
X56500Y221500D01*
X53621Y208500D02*
X56121Y211000D01*
X52414Y203500D02*
X54914Y206000D01*
X25000Y198500D02*
X53914D01*
X56414Y201000D01*
X54914Y193500D02*
X57414Y196000D01*
X14500Y208500D02*
X53621D01*
X12500Y206500D02*
X14500Y208500D01*
X17000Y206000D02*
X38000D01*
X15000Y204000D02*
X17000Y206000D01*
X19500Y203500D02*
X52414D01*
X17500Y201500D02*
X19500Y203500D01*
X22000Y201000D02*
X38000D01*
X20000Y199000D02*
X22000Y201000D01*
X22500Y196000D02*
X25000Y198500D01*
X27500Y193500D02*
X54914D01*
X25000Y191000D02*
X27500Y193500D01*
X80000Y186000D02*
X82500Y188500D01*
X50000Y177500D02*
X58500D01*
X60000Y179000D01*
X48500Y176000D02*
X50000Y177500D01*
X39500Y137500D02*
X55000D01*
X57500Y140000D02*
X59500D01*
X55000Y137500D02*
X57500Y140000D01*
X39500Y142500D02*
X55000D01*
X57500Y145000D01*
X59500D01*
X39500Y147500D02*
X55000D01*
X57500Y150000D01*
X59500D01*
X39500Y152500D02*
X55000D01*
X57500Y155000D01*
X59500D01*
X68000Y500000D02*
X255000D01*
X243000Y442500D02*
Y443500D01*
X228000Y596000D02*
Y599500D01*
X227000Y591500D02*
X230000D01*
X225760Y589213D02*
Y590260D01*
X95000Y431000D02*
Y437500D01*
X89929Y424071D02*
X91571D01*
X100000Y432500D02*
Y434500D01*
X45500Y266000D02*
X97500D01*
X65000Y275000D02*
X90000D01*
X60000Y179000D02*
Y180000D01*
X57414Y196000D02*
X59500D01*
X54914Y206000D02*
X59500D01*
X56414Y201000D02*
X59500D01*
X56121Y211000D02*
X59500D01*
X265293Y455000D02*
X281000D01*
X244000Y444500D02*
X265500D01*
X267500Y440500D02*
Y442500D01*
X48500Y466500D02*
Y467500D01*
X41500Y465000D02*
X47000D01*
X71500Y186000D02*
X80000D01*
X262000Y456500D02*
X263500D01*
X224000Y475000D02*
X273500D01*
X92000Y441500D02*
X112000D01*
D13*
X43500Y494000D02*
X87500D01*
X38500Y499000D02*
X43500Y494000D01*
X20500Y499000D02*
X38500D01*
X86500Y470000D02*
X91500Y465000D01*
X15000Y410000D02*
X22500Y402500D01*
X87500Y494000D02*
X245500D01*
X263000Y477500D02*
X282500D01*
X80000Y470000D02*
X86500D01*
X20500Y465000D02*
Y499000D01*
X15500D02*
X20500D01*
X22500Y402500D02*
X37500D01*
D43*
X211992Y619374D02*
D03*
X246008D02*
D03*
D44*
X211992Y598272D02*
D03*
X246008D02*
D03*
D45*
X254000Y303500D02*
D03*
D46*
X264000D02*
D03*
D47*
X275138Y363130D02*
D03*
X43799D02*
D03*
Y518169D02*
D03*
X275138D02*
D03*
D48*
X64468Y515650D02*
D03*
D49*
X74468D02*
D03*
X84469D02*
D03*
X94468D02*
D03*
X104469D02*
D03*
X114469D02*
D03*
X124469D02*
D03*
X134468D02*
D03*
X144468D02*
D03*
X154469D02*
D03*
X164469D02*
D03*
X174469D02*
D03*
X184468D02*
D03*
X194468D02*
D03*
X204468D02*
D03*
X214469D02*
D03*
X224468D02*
D03*
X234469D02*
D03*
X244468D02*
D03*
X254468D02*
D03*
D50*
X56500Y511500D02*
D03*
Y519000D02*
D03*
Y526500D02*
D03*
X49343Y497500D02*
D03*
X59000Y490000D02*
D03*
Y460000D02*
D03*
Y467500D02*
D03*
Y475000D02*
D03*
Y482500D02*
D03*
X61500Y500000D02*
D03*
X52000Y460000D02*
D03*
Y467500D02*
D03*
Y475000D02*
D03*
Y482500D02*
D03*
Y490000D02*
D03*
X57500Y503500D02*
D03*
X49500Y506000D02*
D03*
Y513500D02*
D03*
Y526000D02*
D03*
Y536000D02*
D03*
X54500Y541500D02*
D03*
X60000Y536500D02*
D03*
X80000D02*
D03*
X70000D02*
D03*
X100000D02*
D03*
X90000D02*
D03*
X120000D02*
D03*
X110000D02*
D03*
X140000D02*
D03*
X130000D02*
D03*
X160000D02*
D03*
X150000D02*
D03*
X180000D02*
D03*
X170000D02*
D03*
X200000D02*
D03*
X190000D02*
D03*
X210000D02*
D03*
X221500Y540500D02*
D03*
X70000Y544500D02*
D03*
X60000D02*
D03*
X90000D02*
D03*
X80000D02*
D03*
X110000D02*
D03*
X100000D02*
D03*
X130000D02*
D03*
X120000D02*
D03*
X150000D02*
D03*
X140000D02*
D03*
X170000D02*
D03*
X160000D02*
D03*
X180000D02*
D03*
X190000D02*
D03*
X200000D02*
D03*
X210000D02*
D03*
X216000Y547500D02*
D03*
X218500Y557500D02*
D03*
X228500Y547500D02*
D03*
Y557500D02*
D03*
X139500Y508000D02*
D03*
X238000Y582500D02*
D03*
X220000D02*
D03*
X295000Y459000D02*
D03*
X91000Y427500D02*
D03*
X22500Y196000D02*
D03*
X232000Y577500D02*
D03*
Y587500D02*
D03*
X245000Y582500D02*
D03*
X255000Y572500D02*
D03*
X250000Y577500D02*
D03*
X255000Y582500D02*
D03*
Y622500D02*
D03*
Y612500D02*
D03*
Y602500D02*
D03*
Y592500D02*
D03*
X250000Y587500D02*
D03*
X220000Y577500D02*
D03*
X210000Y587500D02*
D03*
X214500Y592500D02*
D03*
Y582500D02*
D03*
X210000Y577500D02*
D03*
X214500Y572500D02*
D03*
X265000Y602500D02*
D03*
Y622500D02*
D03*
X275000D02*
D03*
X260000Y617500D02*
D03*
Y607500D02*
D03*
X265000Y612500D02*
D03*
X270000Y607500D02*
D03*
Y617500D02*
D03*
X274500Y612500D02*
D03*
Y602500D02*
D03*
X284500D02*
D03*
Y612500D02*
D03*
X280000Y617500D02*
D03*
Y607500D02*
D03*
X285000Y622500D02*
D03*
X294500Y602500D02*
D03*
Y612500D02*
D03*
X290000Y617500D02*
D03*
Y607500D02*
D03*
X295000Y622500D02*
D03*
X304500Y602500D02*
D03*
Y612500D02*
D03*
X300000Y617500D02*
D03*
Y607500D02*
D03*
X305000Y622500D02*
D03*
X300000Y587500D02*
D03*
Y597500D02*
D03*
X304500Y592500D02*
D03*
Y582500D02*
D03*
X290000Y587500D02*
D03*
Y597500D02*
D03*
X294500Y592500D02*
D03*
Y582500D02*
D03*
X280000Y587500D02*
D03*
Y597500D02*
D03*
X284500Y592500D02*
D03*
Y582500D02*
D03*
X274500D02*
D03*
Y592500D02*
D03*
X270000Y597500D02*
D03*
Y587500D02*
D03*
X265000Y592500D02*
D03*
X260000Y587500D02*
D03*
Y597500D02*
D03*
X265000Y582500D02*
D03*
X260000Y577500D02*
D03*
X270000D02*
D03*
X280000D02*
D03*
X290000D02*
D03*
X300000D02*
D03*
X265000Y572500D02*
D03*
X274500D02*
D03*
X284500D02*
D03*
X294500D02*
D03*
X304500D02*
D03*
X150000Y617500D02*
D03*
Y607500D02*
D03*
Y587500D02*
D03*
Y597500D02*
D03*
Y577500D02*
D03*
X204500Y572500D02*
D03*
X194500D02*
D03*
X184500D02*
D03*
X174500D02*
D03*
X165000D02*
D03*
X155000D02*
D03*
X200000Y577500D02*
D03*
X190000D02*
D03*
X180000D02*
D03*
X170000D02*
D03*
X160000D02*
D03*
X155000Y582500D02*
D03*
X165000D02*
D03*
X155000Y592500D02*
D03*
X160000Y597500D02*
D03*
Y587500D02*
D03*
X165000Y592500D02*
D03*
X170000Y587500D02*
D03*
Y597500D02*
D03*
X174500Y592500D02*
D03*
Y582500D02*
D03*
X184500D02*
D03*
Y592500D02*
D03*
X180000Y597500D02*
D03*
Y587500D02*
D03*
X194500Y582500D02*
D03*
Y592500D02*
D03*
X190000Y597500D02*
D03*
Y587500D02*
D03*
X204500Y582500D02*
D03*
Y592500D02*
D03*
X200000Y597500D02*
D03*
Y587500D02*
D03*
X205000Y622500D02*
D03*
X200000Y607500D02*
D03*
Y617500D02*
D03*
X204500Y612500D02*
D03*
Y602500D02*
D03*
X195000Y622500D02*
D03*
X190000Y607500D02*
D03*
Y617500D02*
D03*
X194500Y612500D02*
D03*
Y602500D02*
D03*
X185000Y622500D02*
D03*
X180000Y607500D02*
D03*
Y617500D02*
D03*
X184500Y612500D02*
D03*
Y602500D02*
D03*
X174500D02*
D03*
Y612500D02*
D03*
X170000Y617500D02*
D03*
Y607500D02*
D03*
X165000Y612500D02*
D03*
X160000Y607500D02*
D03*
Y617500D02*
D03*
X175000Y622500D02*
D03*
X165000D02*
D03*
X155000D02*
D03*
Y612500D02*
D03*
X165000Y602500D02*
D03*
X155000D02*
D03*
X245000Y358500D02*
D03*
X175000Y371000D02*
D03*
X181000D02*
D03*
X175000Y380500D02*
D03*
X181000D02*
D03*
X175000Y390000D02*
D03*
X181000D02*
D03*
X175000Y399500D02*
D03*
X181000D02*
D03*
X237000Y365000D02*
D03*
X245000D02*
D03*
X217500D02*
D03*
X227000D02*
D03*
X252500Y292500D02*
D03*
X177500Y352500D02*
D03*
Y322500D02*
D03*
Y337500D02*
D03*
Y292500D02*
D03*
Y307500D02*
D03*
X192500D02*
D03*
Y292500D02*
D03*
X207500Y307500D02*
D03*
Y292500D02*
D03*
X200000Y300000D02*
D03*
X185000D02*
D03*
X200000Y315000D02*
D03*
X185000D02*
D03*
X192500Y337500D02*
D03*
Y322500D02*
D03*
X207500Y337500D02*
D03*
Y322500D02*
D03*
X200000Y330000D02*
D03*
X185000D02*
D03*
X200000Y345000D02*
D03*
X185000D02*
D03*
X207500Y352500D02*
D03*
X192500D02*
D03*
X242500Y370500D02*
D03*
X232500D02*
D03*
Y380500D02*
D03*
X242500D02*
D03*
X272500Y441000D02*
D03*
Y450500D02*
D03*
X295000Y405000D02*
D03*
X305500D02*
D03*
X285000D02*
D03*
X275000D02*
D03*
X265000D02*
D03*
X244500D02*
D03*
X215000D02*
D03*
X225000D02*
D03*
X215000Y415000D02*
D03*
Y425000D02*
D03*
Y435000D02*
D03*
Y445000D02*
D03*
Y455000D02*
D03*
Y465000D02*
D03*
X255000Y495000D02*
D03*
X265000Y485000D02*
D03*
X275000D02*
D03*
X285000D02*
D03*
X280000Y490000D02*
D03*
X260000D02*
D03*
X235000Y505000D02*
D03*
X245000D02*
D03*
X255000D02*
D03*
X265000D02*
D03*
X280000Y500000D02*
D03*
X275000Y495000D02*
D03*
Y505000D02*
D03*
X285000D02*
D03*
Y495000D02*
D03*
X235000Y465000D02*
D03*
X220000Y460000D02*
D03*
X230000Y470000D02*
D03*
Y460000D02*
D03*
X225000Y465000D02*
D03*
X220000Y470000D02*
D03*
X225000Y425000D02*
D03*
X235000D02*
D03*
X220000Y420000D02*
D03*
Y410000D02*
D03*
X225000Y415000D02*
D03*
X230000Y410000D02*
D03*
Y420000D02*
D03*
X240000Y410000D02*
D03*
Y420000D02*
D03*
X234500Y415000D02*
D03*
X285000D02*
D03*
X265000D02*
D03*
X275000D02*
D03*
X265000Y425000D02*
D03*
X270000Y420000D02*
D03*
X275000Y425000D02*
D03*
X290000Y420000D02*
D03*
Y430000D02*
D03*
Y440000D02*
D03*
X295000Y450000D02*
D03*
X305500Y415000D02*
D03*
Y425000D02*
D03*
Y435000D02*
D03*
Y445000D02*
D03*
Y455000D02*
D03*
X285000Y475000D02*
D03*
X290000Y470000D02*
D03*
X300000D02*
D03*
X305000Y465000D02*
D03*
X300000Y480000D02*
D03*
X305000Y475000D02*
D03*
X295000D02*
D03*
X305000Y485000D02*
D03*
X295000Y495000D02*
D03*
Y505000D02*
D03*
X305000Y495000D02*
D03*
X300000Y500000D02*
D03*
X305000Y505000D02*
D03*
X245000Y300000D02*
D03*
Y315000D02*
D03*
X252500Y337500D02*
D03*
X245000Y330000D02*
D03*
Y345000D02*
D03*
X252500Y352500D02*
D03*
X222500D02*
D03*
X237500D02*
D03*
X215000Y345000D02*
D03*
X230000D02*
D03*
X215000Y330000D02*
D03*
X230000D02*
D03*
X237500Y322500D02*
D03*
Y337500D02*
D03*
X222500Y322500D02*
D03*
Y337500D02*
D03*
X215000Y315000D02*
D03*
X230000D02*
D03*
X215000Y300000D02*
D03*
X230000D02*
D03*
X237500Y292500D02*
D03*
Y307500D02*
D03*
X222500Y292500D02*
D03*
Y307500D02*
D03*
X55000Y335248D02*
D03*
X63000D02*
D03*
Y315248D02*
D03*
X55000D02*
D03*
X22000Y336500D02*
D03*
X14000D02*
D03*
Y316500D02*
D03*
X22000D02*
D03*
X101252Y69500D02*
D03*
Y77500D02*
D03*
X108252D02*
D03*
Y69500D02*
D03*
X128252D02*
D03*
Y77500D02*
D03*
X135752Y69500D02*
D03*
Y77500D02*
D03*
X101500Y137500D02*
D03*
Y145500D02*
D03*
X109000Y137500D02*
D03*
Y145500D02*
D03*
X129000D02*
D03*
Y137500D02*
D03*
X136000D02*
D03*
Y145500D02*
D03*
X257500Y497500D02*
D03*
Y502500D02*
D03*
X255000Y500000D02*
D03*
X249000Y457500D02*
D03*
X243000Y442500D02*
D03*
X263000Y477500D02*
D03*
X282500D02*
D03*
X275000Y472500D02*
D03*
X262000Y456500D02*
D03*
X244000Y449000D02*
D03*
Y452500D02*
D03*
X254000D02*
D03*
Y449000D02*
D03*
X231000Y593000D02*
D03*
X225760Y589213D02*
D03*
X95000Y437500D02*
D03*
X100000Y434500D02*
D03*
X89929Y424071D02*
D03*
X56500Y269500D02*
D03*
X42000Y262500D02*
D03*
X97500Y266000D02*
D03*
X100000Y275000D02*
D03*
X65000D02*
D03*
X90000D02*
D03*
X97500Y282500D02*
D03*
X60000Y277500D02*
D03*
X82000Y382000D02*
D03*
X49000Y224000D02*
D03*
X56500Y221500D02*
D03*
X48500Y176000D02*
D03*
X60000Y180000D02*
D03*
X59500Y150000D02*
D03*
Y140000D02*
D03*
Y155000D02*
D03*
Y145000D02*
D03*
X39500Y142500D02*
D03*
Y147500D02*
D03*
Y137500D02*
D03*
Y152500D02*
D03*
X59500Y196000D02*
D03*
Y206000D02*
D03*
Y201000D02*
D03*
Y211000D02*
D03*
X281000Y455000D02*
D03*
X267500Y440500D02*
D03*
X245500Y494000D02*
D03*
X87500D02*
D03*
X68000Y500000D02*
D03*
X41500Y465000D02*
D03*
X48500Y467500D02*
D03*
X13000Y486000D02*
D03*
Y481000D02*
D03*
Y471000D02*
D03*
X102847Y129154D02*
D03*
X39000Y130000D02*
D03*
X70500Y160000D02*
D03*
X57000Y171000D02*
D03*
X34500Y172000D02*
D03*
X72500Y216000D02*
D03*
X46500Y256500D02*
D03*
X34563Y342000D02*
D03*
X27000Y413500D02*
D03*
X33500Y410000D02*
D03*
X33571Y424071D02*
D03*
X32744Y460256D02*
D03*
X15500Y499000D02*
D03*
X74000Y477000D02*
D03*
X74256Y464256D02*
D03*
X91500Y465000D02*
D03*
X80000Y470000D02*
D03*
X77118Y449618D02*
D03*
X83000Y452500D02*
D03*
X82181Y439819D02*
D03*
X20500Y465000D02*
D03*
X15000Y410000D02*
D03*
X37500Y402500D02*
D03*
X68500Y224000D02*
D03*
X25000Y191000D02*
D03*
X38000Y201000D02*
D03*
Y206000D02*
D03*
X20000Y199000D02*
D03*
X17500Y201500D02*
D03*
X15000Y204000D02*
D03*
X12500Y206500D02*
D03*
X82500Y188500D02*
D03*
X71500Y186000D02*
D03*
X85000Y312500D02*
D03*
Y307500D02*
D03*
X105500D02*
D03*
Y312500D02*
D03*
X275000Y557000D02*
D03*
X281000Y467500D02*
D03*
Y462500D02*
D03*
X263500D02*
D03*
Y467500D02*
D03*
X93500Y140000D02*
D03*
Y145000D02*
D03*
Y150000D02*
D03*
Y155000D02*
D03*
X235000Y485000D02*
D03*
X240000Y480000D02*
D03*
X224000Y475000D02*
D03*
X92000Y441500D02*
D03*
X112000D02*
D03*
X234500Y405000D02*
D03*
X207500Y365000D02*
D03*
X198000D02*
D03*
X188000D02*
D03*
Y358500D02*
D03*
X198000D02*
D03*
X207500D02*
D03*
X227000D02*
D03*
X217500D02*
D03*
X237000D02*
D03*
X181000Y428500D02*
D03*
Y418500D02*
D03*
Y409000D02*
D03*
X175000Y428500D02*
D03*
Y418500D02*
D03*
Y409000D02*
D03*
Y438000D02*
D03*
Y448000D02*
D03*
X181000Y438000D02*
D03*
Y448000D02*
D03*
X175000Y457500D02*
D03*
Y467500D02*
D03*
X181000Y457500D02*
D03*
Y467500D02*
D03*
X175000Y477000D02*
D03*
X181000D02*
D03*
X169500Y480500D02*
D03*
X159500D02*
D03*
Y487000D02*
D03*
X169500D02*
D03*
X149500D02*
D03*
Y480500D02*
D03*
X146500Y477500D02*
D03*
Y467500D02*
D03*
X140500Y477500D02*
D03*
Y467500D02*
D03*
X146500Y458000D02*
D03*
Y448000D02*
D03*
X140500Y458000D02*
D03*
Y448000D02*
D03*
X115500Y438000D02*
D03*
Y444500D02*
D03*
X135500D02*
D03*
X125500D02*
D03*
Y438000D02*
D03*
X135500D02*
D03*
X175000Y363000D02*
D03*
X178500Y358500D02*
D03*
X179000Y485500D02*
D03*
X89500Y382000D02*
D03*
X120000Y508000D02*
D03*
X142500Y485000D02*
D03*
X143500Y441000D02*
D03*
D51*
X256165Y436165D02*
D03*
Y431835D02*
D03*
X251835Y436165D02*
D03*
Y431835D02*
D03*
D52*
X227950Y599520D02*
D03*
M02*
