G04*
G04 #@! TF.GenerationSoftware,Altium Limited,CircuitStudio,1.5.2 (30)*
G04*
G04 Layer_Color=8150272*
%FSLAX25Y25*%
%MOIN*%
G70*
G01*
G75*
%ADD78C,0.03162*%
%ADD79O,0.04737X0.07099*%
%ADD80C,0.08674*%
%ADD81R,0.08674X0.08674*%
%ADD82C,0.10249*%
%ADD83R,0.07887X0.07887*%
%ADD84C,0.07887*%
%ADD85C,0.02769*%
D78*
X239016Y597280D02*
D03*
X237441Y600075D02*
D03*
X234291D02*
D03*
X232717Y597280D02*
D03*
X231142Y600075D02*
D03*
X229567Y597280D02*
D03*
X226417D02*
D03*
X224843Y600075D02*
D03*
X223268Y597280D02*
D03*
X221693Y600075D02*
D03*
X218543D02*
D03*
X216969Y597280D02*
D03*
X220118D02*
D03*
X235866D02*
D03*
D79*
X244803Y601807D02*
D03*
X211181D02*
D03*
Y620429D02*
D03*
X244803D02*
D03*
D80*
X254468Y515650D02*
D03*
X244468D02*
D03*
X234469D02*
D03*
X224468D02*
D03*
X214469D02*
D03*
X204468D02*
D03*
X194468D02*
D03*
X184468D02*
D03*
X174469D02*
D03*
X164469D02*
D03*
X154469D02*
D03*
X144468D02*
D03*
X134468D02*
D03*
X124469D02*
D03*
X114469D02*
D03*
X104469D02*
D03*
X94468D02*
D03*
X84469D02*
D03*
X74468D02*
D03*
D81*
X64468D02*
D03*
D82*
X275138Y518169D02*
D03*
X43799D02*
D03*
Y363130D02*
D03*
X275138D02*
D03*
D83*
X262819Y57378D02*
D03*
D84*
X252819D02*
D03*
D85*
X250654Y433213D02*
D03*
Y437543D02*
D03*
X254984Y433213D02*
D03*
Y437543D02*
D03*
M02*
