G04*
G04 #@! TF.GenerationSoftware,Altium Limited,CircuitStudio,1.5.2 (30)*
G04*
G04 Layer_Color=8150272*
%FSLAX25Y25*%
%MOIN*%
G70*
G01*
G75*
G04:AMPARAMS|DCode=43|XSize=43.31mil|YSize=102.36mil|CornerRadius=21.65mil|HoleSize=0mil|Usage=FLASHONLY|Rotation=180.000|XOffset=0mil|YOffset=0mil|HoleType=Round|Shape=RoundedRectangle|*
%AMROUNDEDRECTD43*
21,1,0.04331,0.05906,0,0,180.0*
21,1,0.00000,0.10236,0,0,180.0*
1,1,0.04331,0.00000,0.02953*
1,1,0.04331,0.00000,0.02953*
1,1,0.04331,0.00000,-0.02953*
1,1,0.04331,0.00000,-0.02953*
%
%ADD43ROUNDEDRECTD43*%
G04:AMPARAMS|DCode=44|XSize=43.31mil|YSize=82.68mil|CornerRadius=21.65mil|HoleSize=0mil|Usage=FLASHONLY|Rotation=180.000|XOffset=0mil|YOffset=0mil|HoleType=Round|Shape=RoundedRectangle|*
%AMROUNDEDRECTD44*
21,1,0.04331,0.03937,0,0,180.0*
21,1,0.00000,0.08268,0,0,180.0*
1,1,0.04331,0.00000,0.01969*
1,1,0.04331,0.00000,0.01969*
1,1,0.04331,0.00000,-0.01969*
1,1,0.04331,0.00000,-0.01969*
%
%ADD44ROUNDEDRECTD44*%
%ADD81C,0.07887*%
%ADD82R,0.07887X0.07887*%
%ADD83C,0.10249*%
%ADD84R,0.08674X0.08674*%
%ADD85C,0.08674*%
%ADD86C,0.02769*%
D43*
X211992Y619374D02*
D03*
X246008D02*
D03*
D44*
X211992Y598272D02*
D03*
X246008D02*
D03*
D81*
X254000Y303500D02*
D03*
D82*
X264000D02*
D03*
D83*
X275138Y363130D02*
D03*
X43799D02*
D03*
Y518169D02*
D03*
X275138D02*
D03*
D84*
X64468Y515650D02*
D03*
D85*
X74468D02*
D03*
X84469D02*
D03*
X94468D02*
D03*
X104469D02*
D03*
X114469D02*
D03*
X124469D02*
D03*
X134468D02*
D03*
X144468D02*
D03*
X154469D02*
D03*
X164469D02*
D03*
X174469D02*
D03*
X184468D02*
D03*
X194468D02*
D03*
X204468D02*
D03*
X214469D02*
D03*
X224468D02*
D03*
X234469D02*
D03*
X244468D02*
D03*
X254468D02*
D03*
D86*
X256165Y436165D02*
D03*
Y431835D02*
D03*
X251835Y436165D02*
D03*
Y431835D02*
D03*
M02*
