G04*
G04 #@! TF.GenerationSoftware,Altium Limited,CircuitStudio,1.5.2 (30)*
G04*
G04 Layer_Physical_Order=1*
G04 Layer_Color=11767835*
%FSLAX25Y25*%
%MOIN*%
G70*
G01*
G75*
%ADD10C,0.00800*%
%ADD11C,0.01000*%
%ADD12C,0.00394*%
%ADD13C,0.02000*%
%ADD14C,0.03937*%
%ADD15R,0.03937X0.02756*%
%ADD16R,0.01181X0.02756*%
%ADD17R,0.09646X0.09646*%
%ADD18O,0.03543X0.00984*%
%ADD19O,0.00984X0.03543*%
%ADD20R,0.20276X0.03937*%
%ADD21R,0.02756X0.03543*%
%ADD22R,0.03937X0.03543*%
%ADD23R,0.03543X0.03937*%
%ADD24R,0.03543X0.02756*%
%ADD25R,0.04724X0.05512*%
G04:AMPARAMS|DCode=26|XSize=21.65mil|YSize=49.21mil|CornerRadius=1.95mil|HoleSize=0mil|Usage=FLASHONLY|Rotation=90.000|XOffset=0mil|YOffset=0mil|HoleType=Round|Shape=RoundedRectangle|*
%AMROUNDEDRECTD26*
21,1,0.02165,0.04532,0,0,90.0*
21,1,0.01776,0.04921,0,0,90.0*
1,1,0.00390,0.02266,0.00888*
1,1,0.00390,0.02266,-0.00888*
1,1,0.00390,-0.02266,-0.00888*
1,1,0.00390,-0.02266,0.00888*
%
%ADD26ROUNDEDRECTD26*%
G04:AMPARAMS|DCode=27|XSize=25.59mil|YSize=64.96mil|CornerRadius=1.92mil|HoleSize=0mil|Usage=FLASHONLY|Rotation=270.000|XOffset=0mil|YOffset=0mil|HoleType=Round|Shape=RoundedRectangle|*
%AMROUNDEDRECTD27*
21,1,0.02559,0.06112,0,0,270.0*
21,1,0.02175,0.06496,0,0,270.0*
1,1,0.00384,-0.03056,-0.01088*
1,1,0.00384,-0.03056,0.01088*
1,1,0.00384,0.03056,0.01088*
1,1,0.00384,0.03056,-0.01088*
%
%ADD27ROUNDEDRECTD27*%
%ADD28O,0.01969X0.04724*%
%ADD29R,0.01969X0.04724*%
%ADD30R,0.04724X0.01969*%
%ADD31R,0.04134X0.03740*%
G04:AMPARAMS|DCode=32|XSize=39.37mil|YSize=39.37mil|CornerRadius=1.97mil|HoleSize=0mil|Usage=FLASHONLY|Rotation=0.000|XOffset=0mil|YOffset=0mil|HoleType=Round|Shape=RoundedRectangle|*
%AMROUNDEDRECTD32*
21,1,0.03937,0.03543,0,0,0.0*
21,1,0.03543,0.03937,0,0,0.0*
1,1,0.00394,0.01772,-0.01772*
1,1,0.00394,-0.01772,-0.01772*
1,1,0.00394,-0.01772,0.01772*
1,1,0.00394,0.01772,0.01772*
%
%ADD32ROUNDEDRECTD32*%
G04:AMPARAMS|DCode=33|XSize=23.62mil|YSize=39.37mil|CornerRadius=2.01mil|HoleSize=0mil|Usage=FLASHONLY|Rotation=0.000|XOffset=0mil|YOffset=0mil|HoleType=Round|Shape=RoundedRectangle|*
%AMROUNDEDRECTD33*
21,1,0.02362,0.03535,0,0,0.0*
21,1,0.01961,0.03937,0,0,0.0*
1,1,0.00402,0.00980,-0.01768*
1,1,0.00402,-0.00980,-0.01768*
1,1,0.00402,-0.00980,0.01768*
1,1,0.00402,0.00980,0.01768*
%
%ADD33ROUNDEDRECTD33*%
%ADD34R,0.02303X0.08559*%
G04:AMPARAMS|DCode=35|XSize=85.59mil|YSize=23.03mil|CornerRadius=11.51mil|HoleSize=0mil|Usage=FLASHONLY|Rotation=270.000|XOffset=0mil|YOffset=0mil|HoleType=Round|Shape=RoundedRectangle|*
%AMROUNDEDRECTD35*
21,1,0.08559,0.00000,0,0,270.0*
21,1,0.06257,0.02303,0,0,270.0*
1,1,0.02303,0.00000,-0.03128*
1,1,0.02303,0.00000,0.03128*
1,1,0.02303,0.00000,0.03128*
1,1,0.02303,0.00000,-0.03128*
%
%ADD35ROUNDEDRECTD35*%
%ADD36R,0.10984X0.02913*%
%ADD37R,0.02362X0.07480*%
%ADD38R,0.08268X0.11024*%
%ADD39R,0.11024X0.08268*%
%ADD40R,0.07480X0.02362*%
%ADD41C,0.00500*%
%ADD42C,0.01600*%
G04:AMPARAMS|DCode=43|XSize=43.31mil|YSize=102.36mil|CornerRadius=21.65mil|HoleSize=0mil|Usage=FLASHONLY|Rotation=180.000|XOffset=0mil|YOffset=0mil|HoleType=Round|Shape=RoundedRectangle|*
%AMROUNDEDRECTD43*
21,1,0.04331,0.05906,0,0,180.0*
21,1,0.00000,0.10236,0,0,180.0*
1,1,0.04331,0.00000,0.02953*
1,1,0.04331,0.00000,0.02953*
1,1,0.04331,0.00000,-0.02953*
1,1,0.04331,0.00000,-0.02953*
%
%ADD43ROUNDEDRECTD43*%
G04:AMPARAMS|DCode=44|XSize=43.31mil|YSize=82.68mil|CornerRadius=21.65mil|HoleSize=0mil|Usage=FLASHONLY|Rotation=180.000|XOffset=0mil|YOffset=0mil|HoleType=Round|Shape=RoundedRectangle|*
%AMROUNDEDRECTD44*
21,1,0.04331,0.03937,0,0,180.0*
21,1,0.00000,0.08268,0,0,180.0*
1,1,0.04331,0.00000,0.01969*
1,1,0.04331,0.00000,0.01969*
1,1,0.04331,0.00000,-0.01969*
1,1,0.04331,0.00000,-0.01969*
%
%ADD44ROUNDEDRECTD44*%
%ADD45C,0.07087*%
%ADD46R,0.07087X0.07087*%
%ADD47C,0.09449*%
%ADD48R,0.07874X0.07874*%
%ADD49C,0.07874*%
%ADD50C,0.02050*%
%ADD51C,0.01969*%
%ADD52C,0.01825*%
G36*
X275378Y444431D02*
Y436053D01*
X275125Y435851D01*
X274634Y436070D01*
Y438772D01*
X272756D01*
Y436000D01*
X272256D01*
Y435500D01*
X269878D01*
Y434137D01*
X268722D01*
Y438372D01*
X268538D01*
X268120Y438872D01*
X268134Y438969D01*
X268672Y439328D01*
X269031Y439866D01*
X269157Y440500D01*
X269145Y440559D01*
X271656Y443070D01*
X271830Y442998D01*
X272500Y442909D01*
X273170Y442998D01*
X273795Y443256D01*
X274332Y443668D01*
X274744Y444205D01*
X274879Y444530D01*
X275378Y444431D01*
D02*
G37*
G36*
X229396Y454595D02*
X228900Y452300D01*
X227900Y450300D01*
X225350Y447750D01*
X222600Y446500D01*
X220559Y446354D01*
Y455016D01*
X229396Y454595D01*
D02*
G37*
G36*
X240441Y431984D02*
X231604Y432405D01*
X232100Y434700D01*
X233100Y436700D01*
X235650Y439250D01*
X238400Y440500D01*
X240441Y440646D01*
Y431984D01*
D02*
G37*
G36*
X287528Y455386D02*
Y449068D01*
X286278D01*
Y443931D01*
X291021D01*
Y444686D01*
X291521Y444893D01*
X293879Y442535D01*
Y417965D01*
X289535Y413622D01*
X264465D01*
X260043Y418043D01*
Y426323D01*
X260035Y426363D01*
Y427528D01*
X260187Y427755D01*
X260245Y427813D01*
X260472Y427965D01*
X261637D01*
X261677Y427957D01*
X279438D01*
X279931Y427943D01*
Y423199D01*
X285068D01*
Y427943D01*
X283622D01*
Y429000D01*
Y429900D01*
X285068D01*
Y434643D01*
X279931D01*
X279622Y435015D01*
Y435828D01*
X279931Y436199D01*
X285068D01*
Y440942D01*
X283622D01*
Y443931D01*
X284722D01*
Y449068D01*
X283622D01*
Y454000D01*
X283641D01*
X283478Y454819D01*
X283014Y455514D01*
X282319Y455978D01*
X282298Y455982D01*
X282172Y456172D01*
X281862Y456378D01*
X282014Y456878D01*
X286035D01*
X287528Y455386D01*
D02*
G37*
G36*
X222600Y440500D02*
X225350Y439250D01*
X227900Y436700D01*
X228900Y434700D01*
X229396Y432405D01*
X220559Y431984D01*
Y440646D01*
X222600Y440500D01*
D02*
G37*
G36*
X271378Y492035D02*
Y457500D01*
X271378Y457500D01*
X271464Y457071D01*
X271707Y456707D01*
X275378Y453035D01*
Y446569D01*
X274879Y446470D01*
X274744Y446795D01*
X274332Y447332D01*
X273795Y447744D01*
X273170Y448002D01*
X272500Y448091D01*
X271830Y448002D01*
X271205Y447744D01*
X270668Y447332D01*
X270256Y446795D01*
X270134Y446499D01*
X269634Y446599D01*
Y447500D01*
X267256D01*
Y448500D01*
X269634D01*
Y450772D01*
X267011D01*
X266820Y451234D01*
X268293Y452707D01*
X268293Y452707D01*
X268536Y453071D01*
X268622Y453500D01*
X268621Y453500D01*
Y492500D01*
X268622Y492500D01*
X268536Y492929D01*
X268293Y493293D01*
X268293Y493293D01*
X263293Y498293D01*
X263165Y498378D01*
X263317Y498878D01*
X264535D01*
X271378Y492035D01*
D02*
G37*
G36*
X264500Y469500D02*
Y469500D01*
X264500D01*
X264957Y469397D01*
X265221Y469221D01*
X265442Y468890D01*
X265520Y468500D01*
X265500Y460500D01*
Y459500D01*
X264520D01*
X264442Y459890D01*
X264221Y460221D01*
X263890Y460442D01*
X263500Y460520D01*
X262500Y460500D01*
X262500Y460500D01*
Y460500D01*
X262043Y460603D01*
X261779Y460779D01*
X261558Y461110D01*
X261480Y461500D01*
X261500Y468500D01*
X261500D01*
Y468500D01*
X261603Y468957D01*
X261779Y469221D01*
X262110Y469442D01*
X262500Y469520D01*
X264500Y469500D01*
D02*
G37*
G36*
X282000D02*
Y469500D01*
X282000D01*
X282457Y469397D01*
X282721Y469221D01*
X282942Y468890D01*
X283020Y468500D01*
X283000Y467000D01*
X282980D01*
X283058Y466610D01*
X283103Y466543D01*
X283279Y466279D01*
X283610Y466058D01*
X284000Y465980D01*
X284643Y465993D01*
X285000Y465643D01*
Y464000D01*
X284000D01*
Y464020D01*
X283610Y463942D01*
X283543Y463897D01*
X283279Y463721D01*
X283058Y463390D01*
X282980Y463000D01*
X283000Y461500D01*
X283000Y461500D01*
X283000D01*
X282897Y461043D01*
X282721Y460779D01*
X282390Y460558D01*
X282000Y460480D01*
X280000Y460500D01*
Y460500D01*
X280000D01*
X279543Y460603D01*
X279363Y460723D01*
X279223Y460863D01*
X279058Y461110D01*
X278980Y461500D01*
X279000Y468500D01*
X279000D01*
Y468500D01*
X279103Y468957D01*
X279279Y469221D01*
X279610Y469442D01*
X280000Y469520D01*
X282000Y469500D01*
D02*
G37*
G36*
X221879Y549465D02*
X214535Y542122D01*
X58500D01*
X58071Y542036D01*
X57707Y541793D01*
X57707Y541793D01*
X51207Y535293D01*
X50964Y534929D01*
X50878Y534500D01*
X50878Y534500D01*
Y500998D01*
X50878Y500998D01*
X50964Y500569D01*
X51207Y500205D01*
X53378Y498033D01*
Y458519D01*
X53201Y458092D01*
Y458092D01*
X52747Y457500D01*
X51241D01*
X51186Y457780D01*
X50943Y458144D01*
X50943Y458144D01*
X47500Y461586D01*
Y465658D01*
X48000Y465943D01*
X48500Y465843D01*
X49134Y465969D01*
X49672Y466328D01*
X50031Y466866D01*
X50157Y467500D01*
X50031Y468134D01*
X49672Y468672D01*
X49622Y468705D01*
Y495898D01*
X49977Y495969D01*
X50515Y496328D01*
X50874Y496866D01*
X51000Y497500D01*
X50874Y498134D01*
X50515Y498672D01*
X49977Y499031D01*
X49343Y499157D01*
X48709Y499031D01*
X48172Y498672D01*
X48000Y498415D01*
X47500Y498566D01*
Y514298D01*
X47597Y514372D01*
X48450Y515484D01*
X48987Y516779D01*
X49170Y518169D01*
X48987Y519559D01*
X48450Y520855D01*
X47597Y521967D01*
X47500Y522041D01*
Y535000D01*
Y537500D01*
X57500Y547500D01*
X210000D01*
X215000Y552500D01*
Y557500D01*
X217500Y560000D01*
X221879D01*
Y549465D01*
D02*
G37*
G36*
X254585Y453913D02*
X255081Y453581D01*
X255413Y453085D01*
X255529Y452500D01*
X255500Y447000D01*
X254541D01*
X254383Y447383D01*
X254000Y447541D01*
Y447471D01*
X253415Y447587D01*
X252919Y447919D01*
X252587Y448415D01*
X252471Y449000D01*
X252500Y452500D01*
X252471D01*
X252587Y453085D01*
X252919Y453581D01*
X253415Y453913D01*
X254000Y454029D01*
X254585Y453913D01*
D02*
G37*
G36*
X240441Y454000D02*
X244000Y454029D01*
X244585Y453913D01*
X245081Y453581D01*
X245413Y453085D01*
X245524Y452529D01*
X245500Y452500D01*
X245500D01*
X245529Y449000D01*
X245413Y448415D01*
X245081Y447919D01*
X244585Y447587D01*
X244029Y447476D01*
X244000Y447500D01*
Y447500D01*
X240441D01*
Y446354D01*
X238400Y446500D01*
X235650Y447750D01*
X233100Y450300D01*
X232100Y452300D01*
X231604Y454595D01*
X240441Y455016D01*
Y454000D01*
D02*
G37*
G36*
X85585Y313913D02*
X86081Y313581D01*
X86413Y313085D01*
X86524Y312529D01*
X86500Y312500D01*
X86500D01*
X86529Y307500D01*
X86413Y306915D01*
X86081Y306419D01*
X85585Y306087D01*
X85000Y305971D01*
X84415Y306087D01*
X83919Y306419D01*
X83587Y306915D01*
X83567Y307014D01*
X83500Y307500D01*
X83500D01*
X83500Y307500D01*
X83520Y308000D01*
X83442Y308390D01*
X83221Y308721D01*
X82957Y308897D01*
X82890Y308942D01*
X82500Y309020D01*
Y309000D01*
X81500D01*
Y310643D01*
X81857Y310993D01*
X82500Y310980D01*
X82890Y311058D01*
X83221Y311279D01*
X83397Y311543D01*
X83442Y311610D01*
X83520Y312000D01*
X83500D01*
X83471Y312500D01*
X83587Y313085D01*
X83919Y313581D01*
X84415Y313913D01*
X84538Y313937D01*
X85000Y314029D01*
X85000Y314029D01*
X85000Y314029D01*
X85585Y313913D01*
D02*
G37*
G36*
X63976Y337603D02*
X64802Y337050D01*
X65355Y336224D01*
X65539Y335296D01*
X65500Y335248D01*
X65500D01*
X65549Y315248D01*
X65355Y314273D01*
X64802Y313446D01*
X63976Y312893D01*
X63048Y312709D01*
X63000Y312748D01*
Y312748D01*
X55000Y312699D01*
X54025Y312893D01*
X53198Y313446D01*
X52645Y314273D01*
X52461Y315200D01*
X52500Y315248D01*
X52500D01*
X52484Y321721D01*
X52837Y322075D01*
X53642D01*
Y319362D01*
X58276D01*
Y325874D01*
Y332386D01*
X53642D01*
Y329673D01*
X52465D01*
X52451Y335248D01*
X52645Y336224D01*
X53198Y337050D01*
X54025Y337603D01*
X54952Y337788D01*
X55000Y337748D01*
Y337748D01*
X63000Y337797D01*
X63976Y337603D01*
D02*
G37*
G36*
X107029Y307500D02*
X106913Y306915D01*
X106581Y306419D01*
X106085Y306087D01*
X105500Y305971D01*
X104915Y306087D01*
X104419Y306419D01*
X104087Y306915D01*
X103976Y307471D01*
X104000Y307500D01*
X104000D01*
X103959Y314500D01*
X104074Y314779D01*
X104500Y314959D01*
X104500Y314959D01*
X104800Y315083D01*
X104800D01*
X104883Y315117D01*
X105041Y315500D01*
X105000Y315500D01*
Y316000D01*
X107000D01*
X107029Y307500D01*
D02*
G37*
G36*
X136727Y79855D02*
X137554Y79302D01*
X138107Y78475D01*
X138291Y77548D01*
X138252Y77500D01*
X138252D01*
X138301Y69500D01*
X138107Y68524D01*
X137554Y67698D01*
X136727Y67145D01*
X135800Y66961D01*
X135752Y67000D01*
Y67000D01*
X101252Y66951D01*
X100277Y67145D01*
X99450Y67698D01*
X98897Y68524D01*
X98712Y69452D01*
X98752Y69500D01*
X98752D01*
X98703Y77500D01*
X98897Y78475D01*
X99450Y79302D01*
X100277Y79855D01*
X101204Y80039D01*
X101252Y80000D01*
Y80000D01*
X114473Y80019D01*
X114827Y79665D01*
Y78579D01*
X112114D01*
Y73945D01*
X118626D01*
X125138D01*
Y78579D01*
X122425D01*
Y80030D01*
X135752Y80049D01*
X136727Y79855D01*
D02*
G37*
G36*
X136976Y147855D02*
X137802Y147302D01*
X138355Y146476D01*
X138539Y145548D01*
X138500Y145500D01*
X138500D01*
X138549Y137500D01*
X138355Y136524D01*
X137802Y135698D01*
X136976Y135145D01*
X136048Y134961D01*
X136000Y135000D01*
Y135000D01*
X122779Y134981D01*
X122425Y135335D01*
Y136421D01*
X125138D01*
Y141055D01*
X118626D01*
X112114D01*
Y136421D01*
X114827D01*
Y134970D01*
X101500Y134951D01*
X100524Y135145D01*
X99698Y135698D01*
X99145Y136524D01*
X98961Y137452D01*
X99000Y137500D01*
X99000D01*
X98951Y145500D01*
X99145Y146476D01*
X99698Y147302D01*
X100524Y147855D01*
X101452Y148039D01*
X101500Y148000D01*
Y148000D01*
X136000Y148049D01*
X136976Y147855D01*
D02*
G37*
G36*
X22975Y338855D02*
X23802Y338302D01*
X24355Y337475D01*
X24539Y336548D01*
X24500Y336500D01*
X24500D01*
X24516Y330027D01*
X24163Y329673D01*
X23358D01*
Y332386D01*
X18724D01*
Y325874D01*
Y319362D01*
X23358D01*
Y322075D01*
X24535D01*
X24549Y316500D01*
X24355Y315525D01*
X23802Y314698D01*
X22975Y314145D01*
X22048Y313961D01*
X22000Y314000D01*
Y314000D01*
X14000Y313951D01*
X13025Y314145D01*
X12198Y314698D01*
X11645Y315525D01*
X11461Y316452D01*
X11500Y316500D01*
X11500D01*
X11451Y336500D01*
X11645Y337475D01*
X12198Y338302D01*
X13025Y338855D01*
X13952Y339039D01*
X14000Y339000D01*
Y339000D01*
X22000Y339049D01*
X22975Y338855D01*
D02*
G37*
G36*
X243476Y382855D02*
X244302Y382302D01*
X244855Y381475D01*
X245039Y380548D01*
X245000Y380500D01*
X245000D01*
X245049Y370500D01*
X244855Y369525D01*
X244302Y368698D01*
X243476Y368145D01*
X242548Y367961D01*
X242500Y368000D01*
Y368000D01*
X232500Y367951D01*
X231524Y368145D01*
X230698Y368698D01*
X230145Y369525D01*
X229961Y370452D01*
X230000Y370500D01*
X230000D01*
X229951Y380500D01*
X230145Y381475D01*
X230698Y382302D01*
X231524Y382855D01*
X232452Y383039D01*
X232500Y383000D01*
Y383000D01*
X242500Y383049D01*
X243476Y382855D01*
D02*
G37*
G36*
X300869Y459324D02*
Y400676D01*
X300691Y400498D01*
X254241Y400473D01*
X253887Y400827D01*
Y410628D01*
X254234D01*
Y413527D01*
X254696Y413718D01*
X259207Y409207D01*
X259207Y409207D01*
X259571Y408964D01*
X260000Y408878D01*
X260000Y408879D01*
X292500D01*
X292500Y408878D01*
X292929Y408964D01*
X293293Y409207D01*
X298293Y414207D01*
X298293Y414207D01*
X298536Y414571D01*
X298622Y415000D01*
X298622Y415000D01*
Y456500D01*
X298536Y456929D01*
X298293Y457293D01*
X298293Y457293D01*
X296645Y458941D01*
X296657Y459000D01*
X296531Y459634D01*
X296172Y460172D01*
X295634Y460531D01*
X295000Y460657D01*
X294366Y460531D01*
X293828Y460172D01*
X293469Y459634D01*
X293343Y459000D01*
X293469Y458366D01*
X293828Y457828D01*
X294366Y457469D01*
X295000Y457343D01*
X295059Y457355D01*
X296378Y456035D01*
Y443817D01*
X295879Y443665D01*
X295793Y443793D01*
X295793Y443793D01*
X292293Y447293D01*
X291929Y447536D01*
X291500Y447622D01*
X291500Y447622D01*
X291021D01*
Y449068D01*
X289771D01*
Y455850D01*
X289771Y455850D01*
X289686Y456280D01*
X289443Y456643D01*
X289443Y456643D01*
X287293Y458793D01*
X286929Y459036D01*
X286500Y459122D01*
X286500Y459122D01*
X281100D01*
X280929Y459341D01*
X281176Y459839D01*
X281994Y459831D01*
X282058Y459857D01*
X282127Y459843D01*
X282517Y459921D01*
X282624Y459993D01*
X282751Y460018D01*
X283082Y460239D01*
X283154Y460347D01*
X283261Y460418D01*
X283437Y460682D01*
X283461Y460801D01*
X283531Y460900D01*
X283634Y461357D01*
X283621Y461431D01*
X283649Y461500D01*
X283648Y461504D01*
X283649Y461509D01*
X283631Y462940D01*
X283651Y463040D01*
X284000Y463351D01*
X285000D01*
X285044Y463369D01*
X296824D01*
X300869Y459324D01*
D02*
G37*
G36*
X267975Y382355D02*
X268802Y381802D01*
X269355Y380976D01*
X269453Y380481D01*
X269500Y380000D01*
X269500Y380000D01*
X269500Y380000D01*
X269457Y362500D01*
X269629Y361195D01*
X270132Y359978D01*
X270934Y358934D01*
X271978Y358133D01*
X273195Y357629D01*
X274500Y357457D01*
Y357457D01*
X274586Y357532D01*
X275805Y357371D01*
X277022Y356868D01*
X278066Y356066D01*
X278868Y355022D01*
X279371Y353805D01*
X279538Y352543D01*
X279500Y352500D01*
X279500D01*
X279543Y295000D01*
X279371Y293695D01*
X278868Y292478D01*
X278066Y291434D01*
X277022Y290633D01*
X275805Y290129D01*
X274543Y289963D01*
X274500Y290000D01*
Y290000D01*
X265500Y289957D01*
X264195Y290129D01*
X262978Y290633D01*
X261934Y291434D01*
X261133Y292478D01*
X260629Y293695D01*
X260462Y294957D01*
X260500Y295000D01*
X260500D01*
X260500Y295000D01*
X260503Y298957D01*
X263500D01*
Y303500D01*
Y308043D01*
X260864D01*
X260510Y308397D01*
X260517Y317630D01*
X261650D01*
Y320500D01*
Y323370D01*
X260876D01*
X260522Y323724D01*
X260543Y351000D01*
X260371Y352305D01*
X259868Y353522D01*
X259066Y354566D01*
X258022Y355367D01*
X256805Y355871D01*
X255500Y356043D01*
Y356000D01*
X251500Y355965D01*
X250456Y356103D01*
X249483Y356506D01*
X248647Y357147D01*
X248006Y357983D01*
X247603Y358956D01*
X247470Y359966D01*
X247500Y360000D01*
X247500D01*
X247451Y380000D01*
X247645Y380976D01*
X248198Y381802D01*
X249025Y382355D01*
X249952Y382539D01*
X250000Y382500D01*
Y382500D01*
X267000Y382549D01*
X267000D01*
X267975Y382355D01*
D02*
G37*
G36*
X253805Y354871D02*
X255022Y354367D01*
X256066Y353566D01*
X256868Y352522D01*
X257371Y351305D01*
X257538Y350043D01*
X257500Y350000D01*
X257500D01*
X257521Y323724D01*
X257167Y323370D01*
X256350D01*
Y320500D01*
Y317630D01*
X257525D01*
X257534Y307146D01*
X257034Y306899D01*
X256291Y307469D01*
X255186Y307926D01*
X254500Y308017D01*
Y303500D01*
Y298983D01*
X255186Y299074D01*
X256291Y299531D01*
X257039Y300105D01*
X257539Y299859D01*
X257543Y295000D01*
X257371Y293695D01*
X256868Y292478D01*
X256066Y291434D01*
X255022Y290633D01*
X253805Y290129D01*
X252543Y289963D01*
X252500Y290000D01*
Y290000D01*
X175500Y289957D01*
X175500Y289957D01*
X174195Y290129D01*
X172978Y290633D01*
X171934Y291434D01*
X171133Y292478D01*
X170629Y293695D01*
X170463Y294957D01*
X170500Y295000D01*
X170500D01*
X170500Y295000D01*
X170457Y350000D01*
X170629Y351305D01*
X171133Y352522D01*
X171934Y353566D01*
X172978Y354367D01*
X174195Y354871D01*
X175457Y355037D01*
X175500Y355000D01*
Y355000D01*
X252500Y355043D01*
X253805Y354871D01*
D02*
G37*
G36*
X176878Y479035D02*
Y367000D01*
X176878Y367000D01*
X176964Y366571D01*
X177207Y366207D01*
X182207Y361207D01*
X182207Y361207D01*
X182571Y360964D01*
X183000Y360878D01*
X183000Y360878D01*
X246500D01*
Y356000D01*
X177500Y355957D01*
X177500Y355957D01*
X176195Y356129D01*
X174978Y356632D01*
X173934Y357434D01*
X173133Y358478D01*
X172629Y359695D01*
X172462Y360957D01*
X172500Y361000D01*
X172500D01*
X172500Y361000D01*
X172543Y473500D01*
X172371Y474805D01*
X171868Y476022D01*
X171066Y477066D01*
X170022Y477868D01*
X168805Y478371D01*
X167500Y478543D01*
Y478543D01*
X167457Y478500D01*
X153500Y478547D01*
X153500Y478547D01*
X152064Y478358D01*
X150726Y477804D01*
X149577Y476923D01*
X148696Y475774D01*
X148142Y474436D01*
X148017Y473492D01*
X148017D01*
X148017Y473492D01*
X148015Y473474D01*
X147952Y473000D01*
X147953Y473000D01*
X148001Y472519D01*
X148048Y446500D01*
X147855Y444540D01*
X147283Y442655D01*
X146355Y440917D01*
X145105Y439395D01*
X143583Y438145D01*
X141845Y437217D01*
X139960Y436645D01*
X138048Y436456D01*
X138000Y436500D01*
Y436500D01*
X110000D01*
Y440488D01*
X110083Y440548D01*
X110763Y440427D01*
X110828Y440328D01*
X111366Y439969D01*
X112000Y439843D01*
X112634Y439969D01*
X113172Y440328D01*
X113205Y440378D01*
X139000D01*
X139000Y440378D01*
X139429Y440464D01*
X139793Y440707D01*
X144793Y445707D01*
X144793Y445707D01*
X145036Y446071D01*
X145122Y446500D01*
X145122Y446500D01*
Y479535D01*
X148465Y482878D01*
X173035D01*
X176878Y479035D01*
D02*
G37*
G36*
X305976Y507355D02*
X306802Y506802D01*
X307355Y505975D01*
X307539Y505048D01*
X307500Y505000D01*
X307500D01*
X307549Y403000D01*
X307549Y403000D01*
X307355Y402025D01*
X306802Y401198D01*
X305976Y400645D01*
X305481Y400547D01*
X305000Y400500D01*
Y400500D01*
X304485Y400500D01*
X304131Y400853D01*
Y460000D01*
X304007Y460624D01*
X303654Y461154D01*
X298654Y466153D01*
X298124Y466507D01*
X297500Y466631D01*
X285000D01*
X284775Y466587D01*
X284637Y466642D01*
X284633Y466641D01*
X284630Y466642D01*
X284058Y466631D01*
X283965Y466649D01*
X283649Y466992D01*
X283669Y468492D01*
X283643Y468557D01*
X283657Y468627D01*
X283579Y469017D01*
X283507Y469124D01*
X283482Y469251D01*
X283261Y469582D01*
X283154Y469654D01*
X283082Y469761D01*
X282818Y469937D01*
X282699Y469961D01*
X282600Y470031D01*
X282143Y470134D01*
X282072Y470121D01*
X282006Y470149D01*
X280006Y470169D01*
X279942Y470143D01*
X279873Y470156D01*
X279483Y470079D01*
X279376Y470007D01*
X279249Y469982D01*
X279121Y469897D01*
X278622Y470148D01*
Y496500D01*
X278622Y496500D01*
X278536Y496929D01*
X278293Y497293D01*
X278293Y497293D01*
X272293Y503293D01*
X271929Y503536D01*
X271500Y503622D01*
X271500Y503622D01*
X258705D01*
X258672Y503672D01*
X258134Y504031D01*
X257500Y504157D01*
X256866Y504031D01*
X256328Y503672D01*
X255969Y503134D01*
X255843Y502500D01*
X255960Y501915D01*
X255791Y501709D01*
X255586Y501540D01*
X255000Y501657D01*
X254366Y501531D01*
X253828Y501172D01*
X253469Y500634D01*
X253343Y500000D01*
X253469Y499366D01*
X253828Y498828D01*
X254366Y498469D01*
X255000Y498343D01*
X255586Y498460D01*
X255791Y498291D01*
X255960Y498085D01*
X255843Y497500D01*
X255969Y496866D01*
X256328Y496328D01*
X256866Y495969D01*
X257500Y495843D01*
X258134Y495969D01*
X258672Y496328D01*
X258705Y496378D01*
X262035D01*
X266378Y492035D01*
Y469558D01*
X265879Y469406D01*
X265761Y469582D01*
X265653Y469654D01*
X265582Y469761D01*
X265318Y469937D01*
X265199Y469961D01*
X265100Y470031D01*
X264643Y470134D01*
X264572Y470121D01*
X264506Y470149D01*
X262506Y470169D01*
X262442Y470143D01*
X262373Y470156D01*
X261983Y470079D01*
X261876Y470007D01*
X261749Y469982D01*
X261418Y469761D01*
X261347Y469654D01*
X261239Y469582D01*
X261063Y469318D01*
X261039Y469199D01*
X260969Y469100D01*
X260866Y468643D01*
X260879Y468570D01*
X260851Y468502D01*
X260848Y467772D01*
X259256D01*
Y465000D01*
X258756D01*
Y464500D01*
X256378D01*
Y462228D01*
X256378D01*
Y460500D01*
X258756D01*
Y459500D01*
X256378D01*
Y457622D01*
X255719D01*
X255222Y457628D01*
Y462372D01*
X255222D01*
X255222Y462628D01*
X255222D01*
Y467372D01*
X255131D01*
Y468324D01*
X262676Y475869D01*
X262872D01*
X263000Y475843D01*
X263634Y475969D01*
X264172Y476328D01*
X264531Y476866D01*
X264657Y477500D01*
X264531Y478134D01*
X264172Y478672D01*
X263634Y479031D01*
X263000Y479157D01*
X262872Y479131D01*
X262000D01*
X262000Y479131D01*
X261376Y479007D01*
X260846Y478653D01*
X252346Y470154D01*
X251993Y469624D01*
X251869Y469000D01*
Y467372D01*
X251266D01*
Y462628D01*
X251266D01*
X251266Y462372D01*
X251266D01*
Y457689D01*
X251141Y457565D01*
X250947Y457588D01*
X250599Y457789D01*
X250531Y458134D01*
X250172Y458672D01*
X250121Y458705D01*
Y479628D01*
X251222D01*
Y484372D01*
X250875D01*
Y487880D01*
X251375Y488050D01*
X251668Y487668D01*
X252205Y487256D01*
X252830Y486998D01*
X253500Y486909D01*
X254170Y486998D01*
X254795Y487256D01*
X255332Y487668D01*
X255744Y488205D01*
X256002Y488830D01*
X256091Y489500D01*
X256002Y490170D01*
X255744Y490795D01*
X255332Y491332D01*
X254795Y491744D01*
X254170Y492002D01*
X253500Y492091D01*
X252830Y492002D01*
X252205Y491744D01*
X251668Y491332D01*
X251353Y490920D01*
X250898Y490978D01*
X250824Y491016D01*
X250751Y491380D01*
X250398Y491910D01*
X247153Y495154D01*
X246624Y495507D01*
X246000Y495631D01*
X245628D01*
X245500Y495657D01*
X244866Y495531D01*
X244328Y495172D01*
X243969Y494634D01*
X243843Y494000D01*
X243969Y493366D01*
X244328Y492828D01*
X244866Y492469D01*
X245312Y492381D01*
X247613Y490080D01*
Y489500D01*
Y484372D01*
X247266D01*
Y479628D01*
X247879D01*
Y458705D01*
X247828Y458672D01*
X247469Y458134D01*
X247343Y457500D01*
X247469Y456866D01*
X247828Y456328D01*
X247879Y456295D01*
Y454915D01*
X247378Y454708D01*
X246122Y455965D01*
Y457628D01*
X246734D01*
Y462372D01*
X246631D01*
Y470500D01*
Y484000D01*
X246631Y484000D01*
X246507Y484624D01*
X246153Y485153D01*
X236154Y495154D01*
X235624Y495507D01*
X235000Y495631D01*
X229966D01*
X229951Y505000D01*
X230145Y505975D01*
X230698Y506802D01*
X231524Y507355D01*
X232452Y507539D01*
X232500Y507500D01*
Y507500D01*
X288015Y507538D01*
X288369Y507184D01*
Y487500D01*
Y485676D01*
X281437Y478744D01*
X281328Y478672D01*
X280969Y478134D01*
X280843Y477500D01*
X280969Y476866D01*
X281328Y476328D01*
X281866Y475969D01*
X282500Y475843D01*
X283134Y475969D01*
X283672Y476328D01*
X283744Y476437D01*
X291154Y483847D01*
X291507Y484376D01*
X291631Y485000D01*
Y486378D01*
X295184D01*
X295256Y486205D01*
X295668Y485668D01*
X296205Y485256D01*
X296830Y484998D01*
X297500Y484909D01*
X298170Y484998D01*
X298795Y485256D01*
X299332Y485668D01*
X299744Y486205D01*
X300002Y486830D01*
X300091Y487500D01*
X300002Y488170D01*
X299744Y488795D01*
X299332Y489332D01*
X298795Y489744D01*
X298170Y490002D01*
X297500Y490091D01*
X296830Y490002D01*
X296205Y489744D01*
X295668Y489332D01*
X295256Y488795D01*
X295184Y488622D01*
X291631D01*
Y507540D01*
X305000Y507549D01*
X305976Y507355D01*
D02*
G37*
G36*
X152500Y625000D02*
Y625000D01*
X209559Y625016D01*
X209682Y624516D01*
X209227Y623923D01*
X208908Y623153D01*
X208800Y622327D01*
Y619874D01*
X211992D01*
Y619374D01*
X212492D01*
Y613294D01*
X212818Y613337D01*
X213589Y613656D01*
X214071Y614027D01*
X214571Y613797D01*
Y604153D01*
X213827D01*
Y603420D01*
X213327Y603114D01*
X212818Y603324D01*
X212492Y603367D01*
Y598272D01*
Y593176D01*
X212818Y593219D01*
X213589Y593538D01*
X214250Y594046D01*
X214757Y594707D01*
X215076Y595477D01*
X215098Y595647D01*
X215598Y595614D01*
Y594279D01*
X216689D01*
Y596658D01*
X217689D01*
Y594279D01*
X218779D01*
Y594679D01*
X221386D01*
X221593Y594179D01*
X219207Y591793D01*
X218964Y591429D01*
X218878Y591000D01*
X218879Y591000D01*
Y583705D01*
X218828Y583672D01*
X218469Y583134D01*
X218343Y582500D01*
X218469Y581866D01*
X218828Y581328D01*
X219366Y580969D01*
X220000Y580843D01*
X220634Y580969D01*
X221172Y581328D01*
X221531Y581866D01*
X221657Y582500D01*
X221531Y583134D01*
X221172Y583672D01*
X221122Y583705D01*
Y590535D01*
X223888Y593301D01*
X224131Y593665D01*
X224216Y594095D01*
X224216Y594095D01*
Y594679D01*
X225910D01*
Y593488D01*
X225910Y593488D01*
X225995Y593059D01*
X226238Y592695D01*
X227398Y591535D01*
Y590586D01*
X227072Y590445D01*
X226898Y590407D01*
X226394Y590744D01*
X225760Y590870D01*
X225126Y590744D01*
X224588Y590385D01*
X224229Y589847D01*
X224103Y589213D01*
X224229Y588579D01*
X224588Y588042D01*
X224638Y588008D01*
Y574781D01*
X224467Y574747D01*
X224202Y574570D01*
X224025Y574305D01*
X223963Y573992D01*
Y570457D01*
X223581Y569977D01*
X152500Y569957D01*
X151195Y570129D01*
X149978Y570633D01*
X148934Y571434D01*
X148133Y572478D01*
X147629Y573695D01*
X147462Y574957D01*
X147500Y575000D01*
X147500D01*
X147457Y620000D01*
X147629Y621305D01*
X148133Y622522D01*
X148934Y623566D01*
X149978Y624368D01*
X151195Y624871D01*
X152457Y625037D01*
X152500Y625000D01*
D02*
G37*
G36*
X303805Y624871D02*
X305022Y624368D01*
X306066Y623566D01*
X306868Y622522D01*
X307371Y621305D01*
X307538Y620043D01*
X307500Y620000D01*
X307500D01*
X307543Y575000D01*
X307371Y573695D01*
X306868Y572478D01*
X306066Y571434D01*
X305022Y570633D01*
X303805Y570129D01*
X302543Y569963D01*
X302500Y570000D01*
Y570000D01*
X245125Y569983D01*
X244772Y570337D01*
Y570756D01*
X242000D01*
Y571256D01*
X241500D01*
Y573634D01*
X239631D01*
Y582000D01*
X239594Y582186D01*
X239657Y582500D01*
X239531Y583134D01*
X239172Y583672D01*
X238634Y584031D01*
X238000Y584157D01*
X237524Y584062D01*
X236027Y585559D01*
Y594679D01*
X239220D01*
Y594279D01*
X240311D01*
Y596658D01*
X241311D01*
Y594279D01*
X242402D01*
Y595614D01*
X242902Y595647D01*
X242924Y595477D01*
X243243Y594707D01*
X243750Y594046D01*
X244411Y593538D01*
X245182Y593219D01*
X245508Y593176D01*
Y598272D01*
Y603367D01*
X245182Y603324D01*
X244673Y603114D01*
X244173Y603420D01*
Y604153D01*
X243429D01*
Y613796D01*
X243929Y614027D01*
X244411Y613656D01*
X245182Y613337D01*
X245508Y613294D01*
Y619374D01*
X246008D01*
Y619874D01*
X249201D01*
Y622327D01*
X249092Y623153D01*
X248773Y623923D01*
X248309Y624528D01*
X248422Y625028D01*
X302500Y625043D01*
X303805Y624871D01*
D02*
G37*
G36*
X233784Y585094D02*
X233784Y585094D01*
X233869Y584665D01*
X234112Y584301D01*
X236376Y582038D01*
X236369Y582000D01*
Y569981D01*
X235861Y569981D01*
X235449Y570448D01*
X235445Y570481D01*
Y571724D01*
X232453D01*
Y572224D01*
X231953D01*
Y575216D01*
X230681D01*
X230214Y575124D01*
X230141Y575075D01*
X229641Y575342D01*
Y591352D01*
X230141Y591619D01*
X230366Y591469D01*
X231000Y591343D01*
X231634Y591469D01*
X232172Y591828D01*
X232531Y592366D01*
X232657Y593000D01*
X232531Y593634D01*
X232172Y594172D01*
X232160Y594179D01*
X232178Y594679D01*
X233784D01*
Y585094D01*
D02*
G37*
G36*
X232500Y557500D02*
Y547500D01*
X220000Y535000D01*
X62500D01*
X57500Y530000D01*
Y521500D01*
Y507000D01*
X60000Y504500D01*
Y500680D01*
X59969Y500634D01*
X59843Y500000D01*
X59969Y499366D01*
X60000Y499320D01*
Y460000D01*
X58032Y458032D01*
X57570Y458224D01*
Y499551D01*
X57570Y499551D01*
X57485Y499980D01*
X57242Y500344D01*
X57242Y500344D01*
X55122Y502465D01*
Y533535D01*
X59465Y537879D01*
X215760D01*
X215760Y537878D01*
X216189Y537964D01*
X216553Y538207D01*
X225793Y547447D01*
X225793Y547447D01*
X226036Y547811D01*
X226122Y548240D01*
X226121Y548240D01*
Y559035D01*
X226553Y559467D01*
X226796Y559831D01*
X226830Y560000D01*
X230000D01*
X232500Y557500D01*
D02*
G37*
G36*
X175460Y489355D02*
X177345Y488784D01*
X179083Y487855D01*
X180605Y486605D01*
X181855Y485083D01*
X182783Y483345D01*
X183355Y481460D01*
X183544Y479548D01*
X183500Y479500D01*
X183500D01*
Y472500D01*
X183497Y372500D01*
X183535Y372113D01*
X183867Y371020D01*
X184405Y370013D01*
X185130Y369130D01*
X186013Y368405D01*
X187020Y367867D01*
X188113Y367535D01*
X189250Y367423D01*
X190000Y367497D01*
Y367497D01*
X190003Y367500D01*
X246500D01*
Y363122D01*
X183465D01*
X179122Y367465D01*
Y479500D01*
X179122Y479500D01*
X179036Y479929D01*
X178793Y480293D01*
X178793Y480293D01*
X174293Y484793D01*
X173929Y485036D01*
X173500Y485122D01*
X173500Y485122D01*
X148000D01*
X147571Y485036D01*
X147207Y484793D01*
X147207Y484793D01*
X143207Y480793D01*
X142964Y480429D01*
X142878Y480000D01*
X142878Y480000D01*
Y446965D01*
X138535Y442622D01*
X113205D01*
X113172Y442672D01*
X112634Y443031D01*
X112000Y443157D01*
X111366Y443031D01*
X110828Y442672D01*
X110763Y442573D01*
X110083Y442452D01*
X110000Y442512D01*
Y446646D01*
X110354Y446999D01*
X133000Y446952D01*
X133000D01*
X134436Y447142D01*
X135774Y447696D01*
X136923Y448577D01*
X137804Y449726D01*
X138358Y451064D01*
X138482Y452006D01*
X138482D01*
X138482Y452007D01*
X138482D01*
D01*
X138547Y452500D01*
X138547Y452500D01*
X138500Y452500D01*
X138452Y479500D01*
X138645Y481460D01*
X139216Y483345D01*
X140145Y485083D01*
X141395Y486605D01*
X142917Y487855D01*
X144655Y488784D01*
X146540Y489355D01*
X148452Y489544D01*
X148500Y489500D01*
Y489500D01*
X152500D01*
X173500Y489548D01*
X175460Y489355D01*
D02*
G37*
G36*
X276378Y496035D02*
Y474135D01*
X275879Y473867D01*
X275634Y474031D01*
X275000Y474157D01*
X274366Y474031D01*
X274121Y473867D01*
X273622Y474135D01*
Y492500D01*
X273536Y492929D01*
X273293Y493293D01*
X273293Y493293D01*
X265793Y500793D01*
X265665Y500878D01*
X265817Y501378D01*
X271035D01*
X276378Y496035D01*
D02*
G37*
G36*
X243369Y483324D02*
Y471622D01*
X241816D01*
X241744Y471795D01*
X241332Y472332D01*
X240795Y472744D01*
X240171Y473002D01*
X239500Y473091D01*
X238829Y473002D01*
X238205Y472744D01*
X237668Y472332D01*
X237256Y471795D01*
X236998Y471171D01*
X236909Y470500D01*
X236998Y469830D01*
X237256Y469205D01*
X237668Y468668D01*
X238205Y468256D01*
X238829Y467998D01*
X239500Y467909D01*
X240171Y467998D01*
X240795Y468256D01*
X241332Y468668D01*
X241744Y469205D01*
X241816Y469378D01*
X243369D01*
Y462372D01*
X242778D01*
Y457628D01*
X243879D01*
Y455500D01*
X243878Y455500D01*
X243942Y455178D01*
X243749Y454819D01*
X243626Y454676D01*
X241608Y454659D01*
X241293Y454972D01*
X241238Y455151D01*
Y455813D01*
X240519D01*
X240441Y455828D01*
X240362Y455813D01*
X220638D01*
X220559Y455828D01*
X220480Y455813D01*
X219762D01*
Y455094D01*
X219747Y455016D01*
Y446354D01*
X219808Y446043D01*
X219985Y445780D01*
X220248Y445604D01*
X220559Y445542D01*
Y445511D01*
X222452Y445697D01*
X224272Y446249D01*
X225949Y447146D01*
X227419Y448352D01*
X228626Y449823D01*
X229082Y450676D01*
X231918D01*
X232374Y449823D01*
X233581Y448352D01*
X235051Y447146D01*
X236728Y446249D01*
X238548Y445697D01*
X240441Y445511D01*
Y445542D01*
X240752Y445604D01*
X241015Y445780D01*
X241192Y446043D01*
X241253Y446354D01*
Y446851D01*
X244000D01*
X244010Y446855D01*
X244092Y446830D01*
X244122Y446846D01*
X244156Y446839D01*
X244712Y446950D01*
X244819Y447022D01*
X244946Y447047D01*
X245378Y447336D01*
X245646Y447263D01*
X245871Y447136D01*
X245879Y447128D01*
Y447000D01*
X245878Y447000D01*
X245964Y446571D01*
X246207Y446207D01*
X247957Y444457D01*
Y441677D01*
X247965Y441637D01*
Y440472D01*
X247813Y440245D01*
X247755Y440187D01*
X247528Y440035D01*
X246363D01*
X246323Y440043D01*
X244543D01*
X244122Y440465D01*
Y441295D01*
X244172Y441328D01*
X244531Y441866D01*
X244657Y442500D01*
X244531Y443134D01*
X244172Y443672D01*
X243634Y444031D01*
X243000Y444157D01*
X242366Y444031D01*
X241828Y443672D01*
X241469Y443134D01*
X241343Y442500D01*
X241469Y441866D01*
X241828Y441328D01*
X241879Y441295D01*
Y440000D01*
X241878Y440000D01*
X241964Y439571D01*
X242207Y439207D01*
X242840Y438574D01*
X242633Y438074D01*
X241253D01*
Y440646D01*
X241192Y440957D01*
X241015Y441220D01*
X240752Y441396D01*
X240441Y441458D01*
Y441489D01*
X238548Y441303D01*
X236728Y440751D01*
X235051Y439854D01*
X233581Y438648D01*
X232374Y437178D01*
X231918Y436324D01*
X229082D01*
X228626Y437178D01*
X227419Y438648D01*
X225949Y439854D01*
X224272Y440751D01*
X222452Y441303D01*
X220559Y441489D01*
Y441458D01*
X220248Y441396D01*
X219985Y441220D01*
X219808Y440957D01*
X219747Y440646D01*
Y431984D01*
X219762Y431906D01*
Y431187D01*
X220480D01*
X220559Y431172D01*
X220638Y431187D01*
X240362D01*
X240441Y431172D01*
X240519Y431187D01*
X241238D01*
Y431906D01*
X241253Y431984D01*
Y433453D01*
Y433756D01*
Y435831D01*
X243259D01*
X243489Y435484D01*
X246323D01*
Y434484D01*
X243621D01*
X243638Y434402D01*
X243968Y433909D01*
X244050Y433495D01*
X244015Y433442D01*
X243930Y433016D01*
X244015Y432590D01*
X244256Y432228D01*
Y431835D01*
X244015Y431473D01*
X243930Y431047D01*
X244015Y430621D01*
X244050Y430568D01*
X243968Y430155D01*
X243638Y429661D01*
X243621Y429579D01*
X246323D01*
Y429079D01*
X246823D01*
Y427557D01*
X247557D01*
Y426823D01*
X249079D01*
Y426323D01*
X249579D01*
Y423621D01*
X249661Y423638D01*
X250154Y423968D01*
X250568Y424050D01*
X250621Y424015D01*
X251047Y423930D01*
X251394Y423999D01*
X251658Y423874D01*
X251894Y423694D01*
Y420372D01*
X250278D01*
Y415628D01*
X250278D01*
X250278Y415372D01*
X250278D01*
Y410628D01*
X250625D01*
Y400471D01*
X212500Y400451D01*
X211525Y400645D01*
X210698Y401198D01*
X210145Y402025D01*
X209961Y402952D01*
X210000Y403000D01*
X210000D01*
X209951Y470000D01*
X210145Y470975D01*
X210698Y471802D01*
X211525Y472355D01*
X212452Y472539D01*
X212500Y472500D01*
Y472500D01*
X212500Y472500D01*
X227500Y472451D01*
X228475Y472645D01*
X229302Y473198D01*
X229855Y474024D01*
X230049Y475000D01*
X230000D01*
X229972Y492015D01*
X230326Y492369D01*
X234324D01*
X243369Y483324D01*
D02*
G37*
%LPC*%
G36*
X17724Y332386D02*
X13091D01*
Y326374D01*
X17724D01*
Y332386D01*
D02*
G37*
G36*
X63910D02*
X59276D01*
Y326374D01*
X63910D01*
Y332386D01*
D02*
G37*
G36*
X246508Y603367D02*
Y598772D01*
X249201D01*
Y600240D01*
X249092Y601066D01*
X248773Y601836D01*
X248265Y602498D01*
X247604Y603005D01*
X246834Y603324D01*
X246508Y603367D01*
D02*
G37*
G36*
X63910Y325374D02*
X59276D01*
Y319362D01*
X63910D01*
Y325374D01*
D02*
G37*
G36*
X265216Y323370D02*
X262650D01*
Y321000D01*
X265216D01*
Y323370D01*
D02*
G37*
G36*
X255350D02*
X252783D01*
Y321000D01*
X255350D01*
Y323370D01*
D02*
G37*
G36*
X237000Y375000D02*
X234572D01*
X234608Y374725D01*
X234907Y374003D01*
X235383Y373383D01*
X236003Y372907D01*
X236725Y372608D01*
X237000Y372572D01*
Y375000D01*
D02*
G37*
G36*
X125138Y146689D02*
X119126D01*
Y142055D01*
X125138D01*
Y146689D01*
D02*
G37*
G36*
X240428Y375000D02*
X238000D01*
Y372572D01*
X238275Y372608D01*
X238997Y372907D01*
X239617Y373383D01*
X240093Y374003D01*
X240392Y374725D01*
X240428Y375000D01*
D02*
G37*
G36*
X211492Y603367D02*
X211166Y603324D01*
X210396Y603005D01*
X209735Y602498D01*
X209227Y601836D01*
X208908Y601066D01*
X208800Y600240D01*
Y598772D01*
X211492D01*
Y603367D01*
D02*
G37*
G36*
X249201Y597772D02*
X246508D01*
Y593176D01*
X246834Y593219D01*
X247604Y593538D01*
X248265Y594046D01*
X248773Y594707D01*
X249092Y595477D01*
X249201Y596303D01*
Y597772D01*
D02*
G37*
G36*
X211492D02*
X208800D01*
Y596303D01*
X208908Y595477D01*
X209227Y594707D01*
X209735Y594046D01*
X210396Y593538D01*
X211166Y593219D01*
X211492Y593176D01*
Y597772D01*
D02*
G37*
G36*
X268543Y308043D02*
X264500D01*
Y304000D01*
X268543D01*
Y308043D01*
D02*
G37*
G36*
X118126Y146689D02*
X112114D01*
Y142055D01*
X118126D01*
Y146689D01*
D02*
G37*
G36*
X249201Y618874D02*
X246508D01*
Y613294D01*
X246834Y613337D01*
X247604Y613656D01*
X248265Y614164D01*
X248773Y614825D01*
X249092Y615595D01*
X249201Y616421D01*
Y618874D01*
D02*
G37*
G36*
X268543Y303000D02*
X264500D01*
Y298957D01*
X268543D01*
Y303000D01*
D02*
G37*
G36*
X253500D02*
X249483D01*
X249574Y302314D01*
X250031Y301209D01*
X250760Y300260D01*
X251709Y299531D01*
X252814Y299074D01*
X253500Y298983D01*
Y303000D01*
D02*
G37*
G36*
Y308017D02*
X252814Y307926D01*
X251709Y307469D01*
X250760Y306740D01*
X250031Y305791D01*
X249574Y304686D01*
X249483Y304000D01*
X253500D01*
Y308017D01*
D02*
G37*
G36*
X265216Y320000D02*
X262650D01*
Y317630D01*
X265216D01*
Y320000D01*
D02*
G37*
G36*
X211492Y618874D02*
X208800D01*
Y616421D01*
X208908Y615595D01*
X209227Y614825D01*
X209735Y614164D01*
X210396Y613656D01*
X211166Y613337D01*
X211492Y613294D01*
Y618874D01*
D02*
G37*
G36*
X17724Y325374D02*
X13091D01*
Y319362D01*
X17724D01*
Y325374D01*
D02*
G37*
G36*
X125138Y72945D02*
X119126D01*
Y68311D01*
X125138D01*
Y72945D01*
D02*
G37*
G36*
X118126D02*
X112114D01*
Y68311D01*
X118126D01*
Y72945D01*
D02*
G37*
G36*
X255350Y320000D02*
X252783D01*
Y317630D01*
X255350D01*
Y320000D01*
D02*
G37*
G36*
X237000Y378428D02*
X236725Y378392D01*
X236003Y378093D01*
X235383Y377617D01*
X234907Y376997D01*
X234608Y376275D01*
X234572Y376000D01*
X237000D01*
Y378428D01*
D02*
G37*
G36*
X257134Y484772D02*
X255256D01*
Y482500D01*
X257134D01*
Y484772D01*
D02*
G37*
G36*
X254256D02*
X252378D01*
Y482500D01*
X254256D01*
Y484772D01*
D02*
G37*
G36*
X257134Y481500D02*
X255256D01*
Y479228D01*
X257134D01*
Y481500D01*
D02*
G37*
G36*
X245823Y428579D02*
X243621D01*
X243638Y428497D01*
X243968Y428003D01*
X244461Y427673D01*
X245043Y427557D01*
X245823D01*
Y428579D01*
D02*
G37*
G36*
X271756Y438772D02*
X269878D01*
Y436500D01*
X271756D01*
Y438772D01*
D02*
G37*
G36*
X235000Y486657D02*
X234366Y486531D01*
X233828Y486172D01*
X233469Y485634D01*
X233343Y485000D01*
X233469Y484366D01*
X233828Y483828D01*
X234366Y483469D01*
X235000Y483343D01*
X235634Y483469D01*
X236172Y483828D01*
X236531Y484366D01*
X236657Y485000D01*
X236531Y485634D01*
X236172Y486172D01*
X235634Y486531D01*
X235000Y486657D01*
D02*
G37*
G36*
X254256Y481500D02*
X252378D01*
Y479228D01*
X254256D01*
Y481500D01*
D02*
G37*
G36*
X241622Y462772D02*
X239744D01*
Y460500D01*
X241622D01*
Y462772D01*
D02*
G37*
G36*
X258256Y467772D02*
X256378D01*
Y465500D01*
X258256D01*
Y467772D01*
D02*
G37*
G36*
X240000Y481657D02*
X239366Y481531D01*
X238828Y481172D01*
X238469Y480634D01*
X238343Y480000D01*
X238469Y479366D01*
X238828Y478828D01*
X239366Y478469D01*
X240000Y478343D01*
X240634Y478469D01*
X241172Y478828D01*
X241531Y479366D01*
X241657Y480000D01*
X241531Y480634D01*
X241172Y481172D01*
X240634Y481531D01*
X240000Y481657D01*
D02*
G37*
G36*
X238744Y459500D02*
X236866D01*
Y457228D01*
X238744D01*
Y459500D01*
D02*
G37*
G36*
X241622D02*
X239744D01*
Y457228D01*
X241622D01*
Y459500D01*
D02*
G37*
G36*
X238744Y462772D02*
X236866D01*
Y460500D01*
X238744D01*
Y462772D01*
D02*
G37*
G36*
X246244Y412500D02*
X244366D01*
Y410228D01*
X246244D01*
Y412500D01*
D02*
G37*
G36*
X249122D02*
X247244D01*
Y410228D01*
X249122D01*
Y412500D01*
D02*
G37*
G36*
X249122Y417500D02*
X246744D01*
X244366D01*
Y415228D01*
X244366D01*
Y413500D01*
X246744D01*
X249122D01*
Y415772D01*
X249122D01*
Y417500D01*
D02*
G37*
G36*
X238000Y378428D02*
Y376000D01*
X240428D01*
X240392Y376275D01*
X240093Y376997D01*
X239617Y377617D01*
X238997Y378093D01*
X238275Y378392D01*
X238000Y378428D01*
D02*
G37*
G36*
X234224Y575216D02*
X232953D01*
Y572724D01*
X235445D01*
Y573996D01*
X235352Y574463D01*
X235087Y574859D01*
X234691Y575124D01*
X234224Y575216D01*
D02*
G37*
G36*
X244772Y573634D02*
X242500D01*
Y571756D01*
X244772D01*
Y573634D01*
D02*
G37*
G36*
X282000Y418772D02*
X279532D01*
Y416500D01*
X282000D01*
Y418772D01*
D02*
G37*
G36*
Y422043D02*
X279532D01*
Y419772D01*
X282000D01*
Y422043D01*
D02*
G37*
G36*
X285469D02*
X283000D01*
Y419772D01*
X285469D01*
Y422043D01*
D02*
G37*
G36*
X248579Y425823D02*
X247557D01*
Y425043D01*
X247673Y424461D01*
X248003Y423968D01*
X248497Y423638D01*
X248579Y423621D01*
Y425823D01*
D02*
G37*
G36*
X285469Y418772D02*
X283000D01*
Y416500D01*
X285469D01*
Y418772D01*
D02*
G37*
G36*
X246244Y420772D02*
X244366D01*
Y418500D01*
X246244D01*
Y420772D01*
D02*
G37*
G36*
X249122D02*
X247244D01*
Y418500D01*
X249122D01*
Y420772D01*
D02*
G37*
%LPD*%
D10*
X84500Y383000D02*
X84387Y384004D01*
X84163Y384990D01*
X83830Y385944D01*
X83392Y386855D01*
X82854Y387712D01*
X82225Y388502D01*
X81511Y389217D01*
X80721Y389848D01*
X79865Y390387D01*
X78955Y390826D01*
X78001Y391160D01*
X77015Y391386D01*
X76011Y391499D01*
X75000Y391500D01*
X64000Y393500D02*
X64268Y392500D01*
X65000Y391768D01*
X66000Y391500D01*
X77061Y367940D02*
X77494Y368866D01*
X77061Y367939D02*
X77494Y368866D01*
X74500Y366000D02*
X75560Y366439D01*
X75000Y355000D02*
X75993Y355052D01*
X76975Y355208D01*
X77936Y355465D01*
X78864Y355821D01*
X79750Y356273D01*
X80584Y356814D01*
X81357Y357440D01*
X82060Y358143D01*
X82686Y358916D01*
X83227Y359750D01*
X83679Y360636D01*
X84035Y361564D01*
X84292Y362525D01*
X84448Y363507D01*
X84500Y364500D01*
X74500Y366000D02*
X75561Y366439D01*
X64000Y393500D02*
X63909Y394542D01*
X63638Y395552D01*
X63196Y396500D01*
X62596Y397357D01*
X61857Y398096D01*
X61000Y398696D01*
X60052Y399138D01*
X59042Y399409D01*
X58000Y399500D01*
X52000Y402500D02*
X52147Y401573D01*
X52573Y400737D01*
X53237Y400073D01*
X54073Y399647D01*
X55000Y399500D01*
X63088Y389272D02*
X62805Y389667D01*
X63088Y389272D02*
X62805Y389666D01*
X48500Y400350D02*
X48939Y399289D01*
X48500Y400350D02*
X48939Y399290D01*
X50500Y391379D02*
X50402Y392378D01*
X50110Y393338D01*
X49637Y394224D01*
X49000Y395000D01*
X48000Y397414D02*
X48116Y396531D01*
X48457Y395707D01*
X49000Y395000D01*
X52228Y366586D02*
X52877Y366152D01*
X53642Y366000D01*
X52225Y366589D02*
X52875Y366153D01*
X53642Y366000D01*
X50500Y359000D02*
X50636Y357965D01*
X51036Y357000D01*
X51672Y356172D01*
X52500Y355536D01*
X53465Y355136D01*
X54500Y355000D01*
X70034Y386000D02*
X83807D01*
X74000Y382156D02*
Y391500D01*
X70034Y383328D02*
Y389672D01*
X76000Y379534D02*
Y391500D01*
X78000Y379534D02*
Y391160D01*
X72000Y382156D02*
Y391500D01*
X66000D02*
X75000D01*
X70034Y388000D02*
X82641D01*
X64478Y389672D02*
X70034D01*
Y384000D02*
X84388D01*
X64478Y383328D02*
X70034D01*
X70000Y382156D02*
Y383328D01*
X74093Y380000D02*
X84500D01*
X79172Y378000D02*
X84500D01*
X74093Y379534D02*
Y382156D01*
X79172Y376000D02*
X84500D01*
X74093Y382000D02*
X84500D01*
X74093Y379534D02*
X79172D01*
X66568Y382156D02*
X74093D01*
X68000Y389672D02*
Y391500D01*
X70000Y389672D02*
Y391500D01*
X66000Y389672D02*
Y391500D01*
X63088Y389272D02*
X64122D01*
X64000D02*
Y393486D01*
X64478Y383328D02*
Y389672D01*
X64122Y388000D02*
X64478D01*
X64122Y383728D02*
Y389272D01*
X68000Y382156D02*
Y383328D01*
X65031Y380000D02*
X66568D01*
X64122Y384000D02*
X64478D01*
X65031Y378000D02*
X66568D01*
X65031Y376000D02*
X66568D01*
X65031Y374244D02*
Y381756D01*
X64122Y386000D02*
X64478D01*
X63169Y382000D02*
X66568D01*
X63169Y383728D02*
X64122D01*
X64000Y381756D02*
Y383728D01*
X63169Y381756D02*
X65031D01*
X63169D02*
Y383728D01*
X84500Y383000D02*
X84500Y365000D01*
X79172Y374000D02*
X84500D01*
X79172Y373978D02*
Y379534D01*
X78772Y368866D02*
Y373622D01*
X82000Y358077D02*
Y388745D01*
X84000Y361459D02*
Y385500D01*
X80000Y356422D02*
Y390310D01*
X78000Y373622D02*
Y373978D01*
X74093D02*
X79172D01*
X76000Y373622D02*
Y373978D01*
X78772Y372000D02*
X84500D01*
X78772Y370000D02*
X84500D01*
X73228Y373622D02*
X78772D01*
X77494Y368866D02*
X78772D01*
X77118Y368000D02*
X84500D01*
X78000Y355486D02*
Y368866D01*
X84500Y364500D02*
Y365000D01*
X75561Y366440D02*
X77060Y367939D01*
X74512Y366000D02*
X84500D01*
X76000Y355053D02*
Y366879D01*
X66568Y373844D02*
X74093D01*
X73228Y371756D02*
Y373622D01*
X70000Y371756D02*
Y373844D01*
X72000Y371756D02*
Y373844D01*
X68000Y371756D02*
Y373844D01*
X66969Y371756D02*
X73228D01*
X66969Y369000D02*
Y371756D01*
X66568Y373844D02*
Y382156D01*
X65031Y370000D02*
X66969D01*
X64000Y371756D02*
Y374244D01*
X66000Y369000D02*
Y383328D01*
X65031Y369000D02*
X66969D01*
X65031D02*
Y371756D01*
X73693Y364244D02*
Y366000D01*
X74500D01*
X68000Y355000D02*
Y364244D01*
X74000Y355000D02*
Y366000D01*
X72000Y355000D02*
Y364244D01*
X70000Y355000D02*
Y364244D01*
X65031Y366000D02*
X66969D01*
Y364244D02*
X73693D01*
X66969D02*
Y366000D01*
X65031Y364244D02*
Y366000D01*
X66000Y355000D02*
Y366000D01*
X64000Y355000D02*
Y364244D01*
X56000Y396472D02*
Y399500D01*
X55000D02*
X58000D01*
X52472Y400000D02*
X53342D01*
X54000Y398471D02*
Y399672D01*
X60000Y392472D02*
Y399157D01*
X58000Y394472D02*
Y399500D01*
X52000Y400471D02*
Y402483D01*
X51500Y402000D02*
X52042D01*
X52000Y402500D02*
Y412500D01*
X51500Y400972D02*
X62804Y389667D01*
X48940Y399289D02*
X59366Y388863D01*
X58472Y394000D02*
X63979D01*
X60471Y392000D02*
X64677D01*
X62000Y390472D02*
Y397972D01*
X62471Y390000D02*
X80500D01*
X54471Y398000D02*
X61968D01*
X56472Y396000D02*
X63454D01*
X48307D02*
X52229D01*
X50462Y392000D02*
X56229D01*
X50500Y390000D02*
X58229D01*
X49778Y394000D02*
X54229D01*
X51500Y410000D02*
X52000D01*
X51500Y408000D02*
X52000D01*
X51500Y412500D02*
X52000D01*
X51500Y412000D02*
X52000D01*
X51500Y400972D02*
Y412500D01*
Y406000D02*
X52000D01*
X48500Y400350D02*
Y412500D01*
X48000Y412000D02*
X48500D01*
X48000Y410000D02*
X48500D01*
X48000Y412500D02*
X48500D01*
X48000Y397396D02*
Y412500D01*
X48000Y408000D02*
X48500D01*
X48000Y402000D02*
Y412500D01*
X51500Y404000D02*
X52000D01*
X50000Y393586D02*
Y398229D01*
X48000Y404000D02*
X48500D01*
X48000Y402000D02*
X48500D01*
X48000Y406000D02*
X48500D01*
X48000Y400000D02*
X48541D01*
X48000Y398000D02*
X50229D01*
X48000Y397414D02*
Y402000D01*
X60169Y381756D02*
Y383728D01*
X59366D02*
X60169D01*
X59366D02*
Y388863D01*
X60000Y381756D02*
Y383728D01*
X58307Y381756D02*
X60169D01*
X62000Y371756D02*
Y374244D01*
X60000Y371756D02*
Y374244D01*
X50500Y386000D02*
X59366D01*
X50500Y384000D02*
X59366D01*
X50500Y388000D02*
X59366D01*
X50500Y382000D02*
X60169D01*
X58307Y374244D02*
X65031D01*
X50500Y378000D02*
X58307D01*
X52470Y372000D02*
X73228D01*
X58307Y371756D02*
X65031D01*
X58307Y364244D02*
X65031D01*
X62000Y355000D02*
Y364244D01*
X54500Y355000D02*
X75000D01*
X60000D02*
Y364244D01*
X50500Y364000D02*
X84487D01*
X50500Y362000D02*
X84165D01*
X50500Y374000D02*
X66568D01*
X50500Y360000D02*
X83367D01*
X50627Y358000D02*
X81928D01*
X51854Y356000D02*
X79243D01*
X58307Y374244D02*
Y381756D01*
X54470Y370000D02*
X58307D01*
X54000Y370470D02*
Y394229D01*
X58307Y370000D02*
Y371756D01*
X58000Y370000D02*
Y390229D01*
X54471Y370000D02*
X58307D01*
X56000D02*
Y392229D01*
X50500Y380000D02*
X58307D01*
X50500Y376000D02*
X58307D01*
X50500Y373971D02*
Y391379D01*
Y373971D02*
X54471Y370000D01*
X50500Y368314D02*
X52225Y366589D01*
X52000Y372470D02*
Y396229D01*
X58307Y364244D02*
Y366000D01*
X53642D02*
X58307D01*
X56000Y355000D02*
Y366000D01*
X58000Y355000D02*
Y366000D01*
X54000Y355031D02*
Y366000D01*
X50500Y366000D02*
X53628D01*
X50500Y368000D02*
X50814D01*
X52000Y355877D02*
Y366814D01*
X50500Y359000D02*
Y368314D01*
D11*
X61744Y386500D02*
X61669Y386425D01*
X42500Y409744D02*
X43000Y410244D01*
X34256Y182000D02*
X34500Y182244D01*
X249244Y482500D02*
X249000Y482256D01*
X54000Y457293D02*
X54500Y458500D01*
X54000Y457293D02*
X53481Y456517D01*
X53299Y455601D01*
X50150Y416000D02*
X50000Y415850D01*
X252256Y413000D02*
X252516Y413260D01*
X282500Y454000D02*
X282207Y454707D01*
X281500Y455000D01*
X261744Y448000D02*
X261500Y447756D01*
X266744Y436000D02*
X265791Y436953D01*
X36426Y471000D02*
X36512Y471086D01*
Y486086D02*
X36598Y486000D01*
X39512Y486086D02*
X39598Y486000D01*
X36512Y491086D02*
X36598Y491000D01*
X268500Y562744D02*
X268000Y562244D01*
X35414Y481000D02*
X35500Y481086D01*
X69047Y459697D02*
X68744Y460000D01*
X61669Y368000D02*
X62169Y367500D01*
X76000Y376756D02*
Y379134D01*
Y376756D02*
X78772D01*
X76000Y374378D02*
Y376756D01*
X70331Y378000D02*
Y381756D01*
Y374244D02*
Y378000D01*
X66969D02*
X70331D01*
X67256Y386500D02*
Y389272D01*
X64878Y386500D02*
X67256D01*
X69634D01*
X67256Y383728D02*
Y386500D01*
X48500Y496657D02*
X49343Y497500D01*
X48500Y467500D02*
Y496657D01*
X59598Y457500D02*
X61500Y459402D01*
Y500000D01*
X59598Y454189D02*
Y457500D01*
X59000Y509828D02*
X64000Y504828D01*
X62748Y454189D02*
Y457000D01*
X64000Y458252D02*
Y504828D01*
X62748Y457000D02*
X64000Y458252D01*
X139500Y508000D02*
X211000D01*
X234906Y596658D02*
Y598595D01*
X233921Y599579D02*
Y601776D01*
Y599579D02*
X234906Y598595D01*
X230968Y593000D02*
Y596658D01*
X227031Y593488D02*
X228520Y592000D01*
X227031Y593488D02*
Y596658D01*
X223095Y594095D02*
Y596658D01*
X220000Y591000D02*
X223095Y594095D01*
X220000Y582500D02*
Y591000D01*
X234906Y585094D02*
X237750Y582250D01*
X224079Y599579D02*
Y601776D01*
X223095Y598595D02*
X224079Y599579D01*
X223095Y596658D02*
Y598595D01*
X228520Y568020D02*
Y592000D01*
X225760Y565260D02*
X228520Y568020D01*
X225760Y562776D02*
Y565260D01*
Y568260D02*
Y572224D01*
X223000Y565500D02*
X225760Y568260D01*
X223000Y549000D02*
Y565500D01*
X225760Y560260D02*
Y562776D01*
X225000Y559500D02*
X225760Y560260D01*
X215000Y541000D02*
X223000Y549000D01*
X215760Y539000D02*
X225000Y548240D01*
X271500Y546500D02*
X274650D01*
X268350D02*
X271500D01*
Y538500D02*
Y546500D01*
X265500Y532500D02*
X271500Y538500D01*
X65000Y532500D02*
X265500D01*
X211000Y508000D02*
X214469Y511469D01*
X221000Y505000D02*
X224468Y508468D01*
X255000Y415000D02*
Y426323D01*
Y415000D02*
X260000Y410000D01*
X258921Y417579D02*
X264000Y412500D01*
X292500Y410000D02*
X297500Y415000D01*
X290000Y412500D02*
X295000Y417500D01*
X251000Y455512D02*
X253244Y457756D01*
X251000Y448000D02*
Y455512D01*
X253244Y457756D02*
Y460000D01*
Y457756D02*
X254500Y456500D01*
X295000Y459000D02*
X297500Y456500D01*
Y415000D02*
Y456500D01*
X267500Y453500D02*
Y492500D01*
X265500Y451500D02*
X267500Y453500D01*
X260000Y451500D02*
X265500D01*
X258921Y450421D02*
X260000Y451500D01*
X258921Y441677D02*
Y450421D01*
X262500Y453500D02*
X265000Y456000D01*
X259000Y453500D02*
X262500D01*
X256953Y451453D02*
X259000Y453500D01*
X261500Y445000D02*
Y447756D01*
Y445000D02*
X262500Y444000D01*
X263500D02*
X264500Y443000D01*
X263421Y438921D02*
X264500Y440000D01*
X266744Y439244D02*
X267500Y440000D01*
X266744Y436000D02*
Y439244D01*
X274016Y433016D02*
X276500Y435500D01*
X277547Y431047D02*
X278500Y432000D01*
X272500Y457500D02*
X276500Y453500D01*
X275000Y458500D02*
X278500Y455000D01*
X277500Y461000D02*
X280500Y458000D01*
X286500D02*
X288650Y455850D01*
X291500Y446500D02*
X295000Y443000D01*
X251047Y441677D02*
Y445453D01*
X249000Y447500D02*
X251047Y445453D01*
X249000Y447500D02*
Y457500D01*
X251000Y448000D02*
X253016Y445984D01*
Y441677D02*
Y445984D01*
X244079Y438921D02*
X246323D01*
X243000Y440000D02*
Y442500D01*
Y440000D02*
X244079Y438921D01*
X249079Y441677D02*
Y444921D01*
X247000Y447000D02*
X249079Y444921D01*
X245000Y455500D02*
Y459756D01*
Y455500D02*
X247000Y453500D01*
X277500Y461000D02*
Y496500D01*
X271500Y502500D02*
X277500Y496500D01*
X257500Y502500D02*
X271500D01*
X255000Y500000D02*
X265000D01*
X272500Y492500D01*
Y457500D02*
Y492500D01*
X257500Y497500D02*
X262500D01*
X267500Y492500D01*
X249244Y489500D02*
X253500D01*
X205642Y491000D02*
X221642Y475000D01*
X141500Y491000D02*
X205642D01*
X173500Y484000D02*
X178000Y479500D01*
Y367000D02*
X183000Y362000D01*
X132000Y509000D02*
X134468Y511469D01*
X126500Y506500D02*
X129000Y509000D01*
X132000Y505000D02*
X221000D01*
X129000Y502000D02*
X132000Y505000D01*
X135500Y485000D02*
X141500Y491000D01*
X135500Y465000D02*
Y485000D01*
X148000Y484000D02*
X173500D01*
X144000Y480000D02*
X148000Y484000D01*
X122000Y487500D02*
X124500Y490000D01*
X123500Y484000D02*
X126500Y487000D01*
Y482000D02*
X129000Y484500D01*
X95000Y482531D02*
X99968Y487500D01*
X97500Y480031D02*
X101469Y484000D01*
X100000Y477500D02*
X104500Y482000D01*
X90000Y511181D02*
X94468Y515650D01*
X90000Y470000D02*
Y511181D01*
X92500Y498000D02*
X102500Y508000D01*
X59000Y526500D02*
X65000Y532500D01*
X59000Y539000D02*
X215760D01*
X54000Y534000D02*
X59000Y539000D01*
X54000Y502000D02*
Y534000D01*
X58500Y541000D02*
X215000D01*
X52000Y534500D02*
X58500Y541000D01*
X65898Y497898D02*
X68000Y500000D01*
X56449Y454189D02*
Y499551D01*
X54000Y502000D02*
X56449Y499551D01*
X52000Y500998D02*
X54500Y498498D01*
X36598Y491000D02*
X43500D01*
X46000Y488500D01*
X39598Y486000D02*
X42500D01*
X44000Y484500D01*
X29500Y481000D02*
X35414D01*
X27500Y479000D02*
X29500Y481000D01*
Y470000D02*
X30586Y471086D01*
X29500Y459000D02*
X31000Y457500D01*
X38756D01*
Y465086D01*
Y453244D02*
Y457500D01*
Y453244D02*
X44000Y448000D01*
X46000Y461500D02*
Y488500D01*
Y461500D02*
X50150Y457350D01*
Y454189D02*
Y457350D01*
X47000Y454189D02*
Y457000D01*
X44000Y460000D02*
X47000Y457000D01*
X69047Y416000D02*
Y446547D01*
X65898Y416000D02*
Y445898D01*
X90000Y470000D01*
X69047Y446547D02*
X92500Y470000D01*
X139000Y441500D02*
X144000Y446500D01*
X133000Y462500D02*
X135500Y465000D01*
X111500Y462500D02*
X133000D01*
X108500Y459500D02*
X111500Y462500D01*
X27500Y446500D02*
Y479000D01*
Y446500D02*
X31032Y442969D01*
X95020Y433520D02*
X102500Y426039D01*
Y271000D02*
Y426039D01*
X91000Y427500D02*
X97500Y421000D01*
X77398Y427500D02*
X91000D01*
X77118Y427220D02*
X77398Y427500D01*
X97500Y282500D02*
Y421000D01*
X100000Y275000D02*
Y424000D01*
X93630Y430370D02*
X100000Y424000D01*
X77118Y430370D02*
X93630D01*
X97500Y436000D02*
Y480031D01*
X77118Y433520D02*
X95020D01*
X97500Y436000D01*
X87169Y436669D02*
X92000Y441500D01*
X77118Y436669D02*
X87169D01*
X44000Y425000D02*
Y448000D01*
Y425000D02*
X46500Y422500D01*
X54000D02*
X56449Y420051D01*
X18500Y348000D02*
Y433500D01*
X21669Y436669D01*
X20500Y429000D02*
X25020Y433520D01*
X22500Y427500D02*
X25370Y430370D01*
X27000Y426000D02*
X28220Y427220D01*
X43000Y413500D02*
X45500Y416000D01*
X62748Y412641D02*
X65390Y410000D01*
X62748Y412641D02*
Y416000D01*
X65390Y410000D02*
X90000D01*
X62500Y407500D02*
X87500D01*
X59598Y410402D02*
Y416000D01*
Y410402D02*
X62500Y407500D01*
X90000Y410000D02*
X95000Y405000D01*
X87500Y407500D02*
X92500Y402500D01*
X61744Y386500D02*
Y388606D01*
X50000Y400350D02*
X61744Y388606D01*
X61669Y378000D02*
Y386425D01*
X50000Y400350D02*
Y415850D01*
X43000Y410244D02*
Y413500D01*
X62169Y367500D02*
X74500D01*
X76000Y369000D01*
Y371244D01*
X22500Y352000D02*
Y427500D01*
Y352000D02*
X25000Y349500D01*
X20500Y350000D02*
Y429000D01*
Y350000D02*
X23000Y347500D01*
X18500Y348000D02*
X21000Y345500D01*
X36000D01*
X38500Y343000D01*
Y335126D02*
Y343000D01*
X23000Y347500D02*
X40000D01*
X42437Y345063D01*
Y335126D02*
Y345063D01*
X25000Y349500D02*
X44000D01*
X46374Y347126D01*
Y335126D02*
Y347126D01*
X97500Y266000D02*
X102500Y271000D01*
X95000Y278000D02*
Y405000D01*
X92000Y275000D02*
X95000Y278000D01*
X90000Y275000D02*
X92000D01*
X92500Y294000D02*
Y402500D01*
X82500Y284000D02*
X92500Y294000D01*
X82500Y188500D02*
Y284000D01*
X61500Y271500D02*
X65000Y275000D01*
X54000Y271500D02*
X60000Y277500D01*
X42000Y243500D02*
Y262500D01*
Y243500D02*
X46500Y239000D01*
X54000Y244000D02*
Y271500D01*
X51500Y241500D02*
X54000Y244000D01*
X51500Y230685D02*
Y241500D01*
X54000Y240414D02*
X56500Y242914D01*
X54000Y132500D02*
Y240414D01*
X56500Y230685D02*
Y236000D01*
X58000Y237500D01*
X61500D02*
X67000D01*
X58000D02*
X61500D01*
X67000D02*
X68500Y236000D01*
Y233256D02*
Y236000D01*
X46500Y226500D02*
X49000Y224000D01*
X47500Y216000D02*
X51500Y220000D01*
X47500Y216000D02*
X51000Y212500D01*
X56500Y194000D02*
X59500Y191000D01*
X22500Y104000D02*
Y196000D01*
X36500Y186000D02*
X43378D01*
X34500Y182244D02*
Y184000D01*
X36500Y186000D01*
X60000Y180000D02*
Y184500D01*
X61500Y186000D02*
X65622D01*
X60000Y184500D02*
X61500Y186000D01*
X64835Y165000D02*
X68000D01*
X70000Y167000D01*
X47000Y165000D02*
X48500Y166500D01*
X51000Y162500D02*
Y212500D01*
X44165Y160000D02*
X48500D01*
X51000Y162500D01*
X54000Y132500D02*
X56500Y130000D01*
X37500Y137500D02*
X39500D01*
X35000Y135000D02*
X37500Y137500D01*
X35000Y124000D02*
Y135000D01*
X32500Y140000D02*
X35000Y142500D01*
X32500Y120000D02*
Y140000D01*
Y147500D02*
X39500D01*
X30000Y145000D02*
X32500Y147500D01*
X30000Y116000D02*
Y145000D01*
X27500Y112000D02*
Y150000D01*
X30000Y152500D01*
X35000Y142500D02*
X39500D01*
X113500Y165000D02*
X138500D01*
X108500Y170000D02*
Y459500D01*
Y170000D02*
X113500Y165000D01*
X143500Y130217D02*
Y160000D01*
X138500Y165000D02*
X143500Y160000D01*
X109374Y125216D02*
X138500D01*
X143500Y130217D01*
X37721Y121280D02*
X109374D01*
X35000Y124000D02*
X37721Y121280D01*
X35157Y117342D02*
X109374D01*
X32500Y120000D02*
X35157Y117342D01*
X32594Y113406D02*
X109374D01*
X30000Y116000D02*
X32594Y113406D01*
X30031Y109468D02*
X109374D01*
X27500Y112000D02*
X30031Y109468D01*
X27468Y105532D02*
X109374D01*
X25000Y108000D02*
X27468Y105532D01*
X25000Y108000D02*
Y191000D01*
X24905Y101594D02*
X109374D01*
X22500Y104000D02*
X24905Y101594D01*
X22343Y97658D02*
X109374D01*
X20000Y100000D02*
X22343Y97658D01*
X20000Y100000D02*
Y199000D01*
X20279Y93721D02*
X109374D01*
X17500Y96500D02*
X20279Y93721D01*
X17500Y96500D02*
Y201500D01*
X17717Y89784D02*
X109374D01*
X15000Y92500D02*
X17717Y89784D01*
X15000Y92500D02*
Y204000D01*
X15154Y85847D02*
X109374D01*
X12500Y88500D02*
X15154Y85847D01*
X12500Y88500D02*
Y206500D01*
X268500Y379500D02*
X280000D01*
X178000Y367000D02*
Y479500D01*
X183000Y362000D02*
X248000D01*
X249000Y457500D02*
Y482256D01*
X288650Y446500D02*
X291500D01*
X256953Y441677D02*
Y451453D01*
X254984Y441677D02*
Y447016D01*
X295000Y417500D02*
Y443000D01*
X264000Y412500D02*
X290000D01*
X258921Y417579D02*
Y426323D01*
X260000Y410000D02*
X292500D01*
X247000Y447000D02*
Y453500D01*
X282500Y431772D02*
Y432772D01*
Y429000D02*
Y431772D01*
Y426071D02*
Y429000D01*
X261677Y429079D02*
X282500D01*
X239500Y436953D02*
X246323D01*
X253016Y418000D02*
Y426323D01*
X234906Y585094D02*
Y596658D01*
X229984Y601776D02*
X230000Y601760D01*
X230968Y593000D02*
X231000D01*
X77118Y424071D02*
X89929D01*
X52000Y500998D02*
Y534500D01*
X54500Y458500D02*
Y498498D01*
X59000Y509828D02*
Y526500D01*
X225000Y548240D02*
Y559500D01*
X225760Y572224D02*
Y589213D01*
X56449Y416000D02*
Y420051D01*
X46500Y422500D02*
X54000D01*
X56500Y249315D02*
Y269500D01*
X61500Y249315D02*
Y271500D01*
X46500Y226500D02*
Y230685D01*
Y239000D01*
X21669Y436669D02*
X38929D01*
X25020Y433520D02*
X38929D01*
X25370Y430370D02*
X38929D01*
X59500Y191000D02*
X65622D01*
X56500Y194000D02*
Y221500D01*
X43378Y216000D02*
X47500D01*
X51500Y220000D02*
Y230685D01*
X56500Y130000D02*
X64835D01*
X56500Y242914D02*
Y249315D01*
X48500Y166500D02*
Y176000D01*
X44165Y165000D02*
X47000D01*
X59500Y150000D02*
X64835D01*
X59500Y140000D02*
X64835D01*
X59500Y155000D02*
X64835D01*
X59500Y145000D02*
X64835D01*
X30000Y152500D02*
X39500D01*
X59500Y196000D02*
X65622D01*
X59500Y206000D02*
X65622D01*
X59500Y201000D02*
X65622D01*
X59500Y211000D02*
X65622D01*
X239500Y470500D02*
X245000D01*
X290000Y487500D02*
X297500D01*
X261677Y431047D02*
X277547D01*
X261677Y433016D02*
X274016D01*
X276500Y435500D02*
Y453500D01*
X265000Y456000D02*
Y460500D01*
X288650Y446500D02*
Y455850D01*
X280500Y458000D02*
X286500D01*
X278500Y432000D02*
Y455000D01*
X275000Y458500D02*
Y472500D01*
X282500Y438571D02*
Y454000D01*
X281000Y455000D02*
X281500D01*
X261677Y438921D02*
X263421D01*
X264500Y440000D02*
Y443000D01*
X262500Y444000D02*
X263500D01*
X267500Y440000D02*
Y440500D01*
X261677Y436953D02*
X265791D01*
X267500Y440500D02*
X272500Y445500D01*
X65898Y454189D02*
Y497898D01*
X36598Y486000D02*
X39598D01*
X44000Y460000D02*
Y484500D01*
X38756Y465086D02*
X38842Y465000D01*
X41500D01*
X268000Y553150D02*
Y562244D01*
X64835Y160000D02*
X70500D01*
X57000Y171000D02*
X60244D01*
X34500Y172000D02*
Y176244D01*
X65622Y216000D02*
X72500D01*
X46500Y249315D02*
Y256500D01*
X27000Y424150D02*
Y426000D01*
X28220Y427220D02*
X38929D01*
X31032Y442969D02*
X38929D01*
X33000Y481086D02*
X36512D01*
X39512D01*
X29500Y459000D02*
Y470000D01*
X30586Y471086D02*
X36512D01*
X69047Y454189D02*
Y459697D01*
X77118Y442969D02*
X82724D01*
X77118Y446118D02*
Y449618D01*
X83000Y448756D02*
Y452500D01*
X77118Y439819D02*
X82181D01*
X45500Y416000D02*
X47000D01*
X61500Y230685D02*
Y237500D01*
X38000Y201000D02*
X43378D01*
X38000Y206000D02*
X43378D01*
X65622Y186000D02*
X71500D01*
X70000Y167000D02*
Y171000D01*
X240811Y596658D02*
X244394D01*
X213606D02*
X217189D01*
X254500Y456500D02*
X262000D01*
X64835Y155000D02*
X73850D01*
X64835Y150000D02*
X73850D01*
X64835Y145000D02*
X73850D01*
X64835Y140000D02*
X73850D01*
X80150D02*
X93500D01*
X80150Y145000D02*
X93500D01*
X80150Y150000D02*
X93500D01*
X80150Y155000D02*
X93500D01*
X221642Y475000D02*
X224000D01*
X112000Y441500D02*
X139000D01*
X144000Y446500D02*
Y480000D01*
X124500Y490000D02*
Y502500D01*
X124469D02*
Y515650D01*
X134468Y511469D02*
Y515650D01*
X104500Y482000D02*
X126500D01*
X100000Y434500D02*
Y477500D01*
X101469Y484000D02*
X123500D01*
X126500Y487000D02*
Y506500D01*
X129000Y509000D02*
X132000D01*
X95000Y437500D02*
Y482531D01*
X99968Y487500D02*
X122000D01*
X214469Y511469D02*
Y515650D01*
X102500Y508000D02*
X120000D01*
X92500Y470000D02*
Y498000D01*
X224468Y508468D02*
Y515650D01*
X129000Y484500D02*
Y502000D01*
D12*
X231741Y433453D02*
X231604Y432405D01*
X240441Y440646D02*
X239423Y440587D01*
X238419Y440412D01*
X237442Y440123D01*
X236504Y439723D01*
X235618Y439218D01*
X234797Y438615D01*
X234050Y437921D01*
X233387Y437146D01*
X232818Y436300D01*
X232350Y435395D01*
X231990Y434441D01*
X231741Y433453D01*
X229396Y432405D02*
X229266Y433419D01*
X229020Y434411D01*
X228661Y435369D01*
X228195Y436278D01*
X227626Y437128D01*
X226964Y437907D01*
X226217Y438604D01*
X225394Y439210D01*
X224506Y439718D01*
X223566Y440120D01*
X222586Y440411D01*
X221580Y440587D01*
X220559Y440646D01*
Y446354D02*
X221580Y446413D01*
X222586Y446590D01*
X223566Y446880D01*
X224506Y447282D01*
X225394Y447790D01*
X226217Y448396D01*
X226964Y449093D01*
X227626Y449872D01*
X228195Y450722D01*
X228661Y451631D01*
X229020Y452589D01*
X229266Y453581D01*
X229396Y454595D01*
X231604D02*
X231734Y453581D01*
X231980Y452589D01*
X232339Y451631D01*
X232805Y450722D01*
X233374Y449872D01*
X234036Y449093D01*
X234784Y448396D01*
X235606Y447790D01*
X236494Y447282D01*
X237434Y446880D01*
X238414Y446590D01*
X239420Y446413D01*
X240441Y446354D01*
Y433756D02*
Y440646D01*
Y433453D02*
Y433756D01*
Y431984D02*
Y433453D01*
X220559Y431984D02*
Y440646D01*
Y446354D02*
Y455016D01*
X240441Y446354D02*
Y455016D01*
D13*
X253244Y465000D02*
X253500Y465256D01*
X68744Y460000D02*
X69000Y460256D01*
X83000Y443244D02*
X82724Y442969D01*
X20402Y491000D02*
X20488Y491086D01*
X238000Y562744D02*
Y582000D01*
X268500Y562744D02*
X282256D01*
X290000Y555000D01*
X295000Y392500D02*
X302500Y400000D01*
X261500Y387500D02*
X266500Y392500D01*
X282500Y477500D02*
X290000Y485000D01*
X297500Y465000D02*
X302500Y460000D01*
X245000D02*
Y470500D01*
X253500Y469000D02*
X262000Y477500D01*
X249244Y482500D02*
Y489500D01*
X246000Y494000D02*
X249244Y490756D01*
X235000Y494000D02*
X245000Y484000D01*
X137500Y494000D02*
X235000D01*
X131500Y488000D02*
X137500Y494000D01*
X125500Y468500D02*
X131500Y474500D01*
X74468Y498032D02*
X78500Y494000D01*
X14500Y491000D02*
X20402D01*
X14000Y499000D02*
X15500D01*
X12500Y497500D02*
X14000Y499000D01*
X12500Y493000D02*
Y497500D01*
Y493000D02*
X14500Y491000D01*
X83256Y472000D02*
Y477000D01*
Y477000D01*
X85000Y477000D02*
X87500Y479500D01*
X81256Y470000D02*
X83256Y472000D01*
X80000Y470000D02*
X81256D01*
X73000D02*
X80000D01*
X69000Y466000D02*
X73000Y470000D01*
X106000Y464500D02*
X110000Y468500D01*
X106000Y314500D02*
Y464500D01*
X83000Y443244D02*
X87244D01*
X91500Y447500D01*
X15000Y441642D02*
X20500Y447142D01*
X15000Y410000D02*
Y441642D01*
X42500Y407500D02*
Y409744D01*
X37500Y402500D02*
X42500Y407500D01*
X32500Y356500D02*
Y379142D01*
X37500Y384142D01*
X53642Y368000D02*
X61669D01*
X37500Y384142D02*
X53642Y368000D01*
X32500Y356500D02*
X36500Y352500D01*
X90000Y302500D02*
Y347500D01*
X85000Y352500D02*
X90000Y347500D01*
X36500Y352500D02*
X85000D01*
X30626Y320000D02*
X40626Y310000D01*
X51500Y282500D02*
X61500Y292500D01*
X80000D02*
X90000Y302500D01*
X40000Y272500D02*
X51500D01*
X35000Y267500D02*
X40000Y272500D01*
X35000Y214000D02*
Y267500D01*
X73256Y233256D02*
X77500Y237500D01*
X68500Y233256D02*
X73256D01*
X77500Y237500D02*
Y292500D01*
X79500Y175500D02*
Y235500D01*
X77500Y237500D02*
X79500Y235500D01*
X38000Y211000D02*
X43378D01*
X30000Y209000D02*
X35000Y214000D01*
X38000Y211000D01*
X30000Y184000D02*
Y209000D01*
X32000Y182000D02*
X34256D01*
X30000Y184000D02*
X32000Y182000D01*
X70000Y171000D02*
X75000D01*
X79500Y175500D01*
X261500Y382000D02*
Y387500D01*
X252256Y382000D02*
Y413000D01*
X249244Y489500D02*
Y490756D01*
X252256Y413000D02*
Y418000D01*
X30626Y320000D02*
Y335126D01*
X40626Y310000D02*
X81500D01*
X285000Y465000D02*
X297500D01*
X302500Y400000D02*
Y460000D01*
X266500Y392500D02*
X295000D01*
X245500Y494000D02*
X246000D01*
X74468Y498032D02*
Y515650D01*
X13000Y486000D02*
X21488D01*
X13000Y481000D02*
X21488D01*
X13000Y471000D02*
X21488D01*
X233272Y562744D02*
X238000D01*
X242000D01*
X290000Y485000D02*
Y487500D01*
Y555000D01*
X253500Y465256D02*
Y469000D01*
X262000Y477500D02*
X263000D01*
X102847Y129154D02*
X109374D01*
X39000Y130000D02*
X44165D01*
X34563Y335126D02*
Y342000D01*
X27000Y413500D02*
Y417850D01*
X33500Y410000D02*
X37244D01*
X33571Y424071D02*
X38929D01*
X32744Y460256D02*
Y465000D01*
X87500Y479500D02*
Y494000D01*
X78500D02*
X87500D01*
X74000Y477000D02*
X77744D01*
X83256Y477000D02*
X85000D01*
X69000Y460256D02*
Y466000D01*
X74256Y460000D02*
Y464256D01*
X91500Y447500D02*
Y465000D01*
X20500Y447142D02*
Y465000D01*
X37500Y384142D02*
Y402500D01*
X51500Y249315D02*
Y272500D01*
Y282500D01*
X61500Y292500D02*
X77500D01*
X80000D01*
X68500Y224000D02*
Y227744D01*
X65756Y171000D02*
X70000D01*
X275000Y553150D02*
Y557000D01*
X241205Y601776D02*
X243724D01*
X246008Y599492D01*
X214276Y601776D02*
X216795D01*
X211992Y599492D02*
X214276Y601776D01*
X245000Y470500D02*
Y484000D01*
X110000Y468500D02*
X125500D01*
X131500Y474500D02*
Y488000D01*
X82000Y382000D02*
X89500D01*
X242000Y562744D02*
Y565744D01*
Y562744D02*
X268500D01*
D14*
X237500Y375500D02*
D03*
X272500Y445500D02*
D03*
X239500Y470500D02*
D03*
X253500Y489500D02*
D03*
X297500Y487500D02*
D03*
X280000Y379500D02*
D03*
D15*
X216795Y601776D02*
D03*
X241205D02*
D03*
D16*
X237858D02*
D03*
X235890D02*
D03*
X233921D02*
D03*
X231953D02*
D03*
X229984D02*
D03*
X228016D02*
D03*
X226047D02*
D03*
X224079D02*
D03*
X222110D02*
D03*
X220142D02*
D03*
X217189Y596658D02*
D03*
X219158D02*
D03*
X221126D02*
D03*
X223095D02*
D03*
X225063D02*
D03*
X227031D02*
D03*
X230968D02*
D03*
X232937D02*
D03*
X234906D02*
D03*
X236874D02*
D03*
X238843D02*
D03*
X240811D02*
D03*
D17*
X254000Y434000D02*
D03*
D18*
X246323Y429079D02*
D03*
Y431047D02*
D03*
Y433016D02*
D03*
Y434984D02*
D03*
Y436953D02*
D03*
Y438921D02*
D03*
X261677D02*
D03*
Y436953D02*
D03*
Y434984D02*
D03*
Y433016D02*
D03*
Y431047D02*
D03*
Y429079D02*
D03*
D19*
X249079Y441677D02*
D03*
X251047D02*
D03*
X253016D02*
D03*
X254984D02*
D03*
X256953D02*
D03*
X258921D02*
D03*
Y426323D02*
D03*
X256953D02*
D03*
X254984D02*
D03*
X253016D02*
D03*
X251047D02*
D03*
X249079D02*
D03*
D20*
X230500Y433756D02*
D03*
Y453244D02*
D03*
D21*
X239244Y460000D02*
D03*
X244756D02*
D03*
X254756Y482000D02*
D03*
X249244D02*
D03*
X253244Y460000D02*
D03*
X258756D02*
D03*
X258756Y465000D02*
D03*
X253244D02*
D03*
X252256Y418000D02*
D03*
X246744D02*
D03*
X246744Y413000D02*
D03*
X252256D02*
D03*
X272256Y436000D02*
D03*
X266744D02*
D03*
X261744Y448000D02*
D03*
X267256D02*
D03*
X32744Y465000D02*
D03*
X38256D02*
D03*
X60244Y171000D02*
D03*
X65756D02*
D03*
X74256Y460000D02*
D03*
X68744D02*
D03*
X37244Y410000D02*
D03*
X42756D02*
D03*
X67256Y386500D02*
D03*
X61744D02*
D03*
X83256Y477000D02*
D03*
X77744D02*
D03*
D22*
X282500Y432272D02*
D03*
Y438571D02*
D03*
Y425571D02*
D03*
Y419272D02*
D03*
X27000Y424150D02*
D03*
Y417850D02*
D03*
X275000Y546850D02*
D03*
Y553150D02*
D03*
X268000Y546850D02*
D03*
Y553150D02*
D03*
D23*
X288650Y446500D02*
D03*
X282350D02*
D03*
X80150Y155000D02*
D03*
X73850D02*
D03*
X80150Y150000D02*
D03*
X73850D02*
D03*
X80150Y145000D02*
D03*
X73850D02*
D03*
X80150Y140000D02*
D03*
X73850D02*
D03*
D24*
X242000Y571256D02*
D03*
Y565744D02*
D03*
X34500Y176244D02*
D03*
Y181756D02*
D03*
X83000Y448756D02*
D03*
Y443244D02*
D03*
X76000Y376756D02*
D03*
Y371244D02*
D03*
X68500Y233256D02*
D03*
Y227744D02*
D03*
D25*
X70331Y368000D02*
D03*
Y378000D02*
D03*
X61669D02*
D03*
Y368000D02*
D03*
D26*
X64835Y130000D02*
D03*
Y135000D02*
D03*
Y140000D02*
D03*
Y145000D02*
D03*
Y150000D02*
D03*
Y155000D02*
D03*
Y160000D02*
D03*
Y165000D02*
D03*
X44165Y130000D02*
D03*
Y135000D02*
D03*
Y140000D02*
D03*
Y145000D02*
D03*
Y150000D02*
D03*
Y155000D02*
D03*
Y160000D02*
D03*
Y165000D02*
D03*
D27*
X43378Y216000D02*
D03*
Y211000D02*
D03*
Y206000D02*
D03*
Y201000D02*
D03*
Y196000D02*
D03*
Y191000D02*
D03*
Y186000D02*
D03*
X65622Y216000D02*
D03*
Y211000D02*
D03*
Y206000D02*
D03*
Y201000D02*
D03*
Y196000D02*
D03*
Y191000D02*
D03*
Y186000D02*
D03*
D28*
X47000Y416000D02*
D03*
D29*
X50150D02*
D03*
X53299D02*
D03*
X56449D02*
D03*
X59598D02*
D03*
X62748D02*
D03*
X65898D02*
D03*
X69047D02*
D03*
Y454189D02*
D03*
X65898D02*
D03*
X62748D02*
D03*
X59598D02*
D03*
X56449D02*
D03*
X53299D02*
D03*
X50150D02*
D03*
X47000D02*
D03*
D30*
X77118Y424071D02*
D03*
Y427220D02*
D03*
Y430370D02*
D03*
Y433520D02*
D03*
Y436669D02*
D03*
Y439819D02*
D03*
Y442969D02*
D03*
Y446118D02*
D03*
X38929D02*
D03*
Y442969D02*
D03*
Y439819D02*
D03*
Y436669D02*
D03*
Y433520D02*
D03*
Y430370D02*
D03*
Y427220D02*
D03*
Y424071D02*
D03*
D31*
X255850Y320500D02*
D03*
X262150D02*
D03*
D32*
X232453Y572224D02*
D03*
D33*
X225760D02*
D03*
Y562776D02*
D03*
X233240D02*
D03*
D34*
X61500Y249315D02*
D03*
D35*
X56500D02*
D03*
X51500D02*
D03*
X46500D02*
D03*
Y230685D02*
D03*
X51500D02*
D03*
X56500D02*
D03*
X61500D02*
D03*
D36*
X36512Y491086D02*
D03*
Y486086D02*
D03*
Y481086D02*
D03*
Y476086D02*
D03*
Y471086D02*
D03*
X20488D02*
D03*
Y476086D02*
D03*
Y481086D02*
D03*
Y486086D02*
D03*
Y491086D02*
D03*
D37*
X46374Y335126D02*
D03*
X42437D02*
D03*
X38500D02*
D03*
X34563D02*
D03*
X30626D02*
D03*
D38*
X58776Y325874D02*
D03*
X18224D02*
D03*
D39*
X118626Y141555D02*
D03*
Y73445D02*
D03*
D40*
X109374Y129154D02*
D03*
Y125216D02*
D03*
Y121280D02*
D03*
Y117342D02*
D03*
Y113406D02*
D03*
Y109468D02*
D03*
Y105532D02*
D03*
Y101594D02*
D03*
Y97658D02*
D03*
Y93721D02*
D03*
Y89784D02*
D03*
Y85847D02*
D03*
D41*
X227031Y597500D02*
X228500D01*
X229984Y598984D02*
Y601776D01*
X228500Y597500D02*
X229984Y598984D01*
X227031Y596658D02*
Y597500D01*
D42*
X253244Y460000D02*
Y465000D01*
D43*
X211992Y619374D02*
D03*
X246008D02*
D03*
D44*
X211992Y598272D02*
D03*
X246008D02*
D03*
D45*
X254000Y303500D02*
D03*
D46*
X264000D02*
D03*
D47*
X275138Y363130D02*
D03*
X43799D02*
D03*
Y518169D02*
D03*
X275138D02*
D03*
D48*
X64468Y515650D02*
D03*
D49*
X74468D02*
D03*
X84469D02*
D03*
X94468D02*
D03*
X104469D02*
D03*
X114469D02*
D03*
X124469D02*
D03*
X134468D02*
D03*
X144468D02*
D03*
X154469D02*
D03*
X164469D02*
D03*
X174469D02*
D03*
X184468D02*
D03*
X194468D02*
D03*
X204468D02*
D03*
X214469D02*
D03*
X224468D02*
D03*
X234469D02*
D03*
X244468D02*
D03*
X254468D02*
D03*
D50*
X56500Y511500D02*
D03*
Y519000D02*
D03*
Y526500D02*
D03*
X49343Y497500D02*
D03*
X59000Y490000D02*
D03*
Y460000D02*
D03*
Y467500D02*
D03*
Y475000D02*
D03*
Y482500D02*
D03*
X61500Y500000D02*
D03*
X52000Y460000D02*
D03*
Y467500D02*
D03*
Y475000D02*
D03*
Y482500D02*
D03*
Y490000D02*
D03*
X57500Y503500D02*
D03*
X49500Y506000D02*
D03*
Y513500D02*
D03*
Y526000D02*
D03*
Y536000D02*
D03*
X54500Y541500D02*
D03*
X60000Y536500D02*
D03*
X80000D02*
D03*
X70000D02*
D03*
X100000D02*
D03*
X90000D02*
D03*
X120000D02*
D03*
X110000D02*
D03*
X140000D02*
D03*
X130000D02*
D03*
X160000D02*
D03*
X150000D02*
D03*
X180000D02*
D03*
X170000D02*
D03*
X200000D02*
D03*
X190000D02*
D03*
X210000D02*
D03*
X221500Y540500D02*
D03*
X70000Y544500D02*
D03*
X60000D02*
D03*
X90000D02*
D03*
X80000D02*
D03*
X110000D02*
D03*
X100000D02*
D03*
X130000D02*
D03*
X120000D02*
D03*
X150000D02*
D03*
X140000D02*
D03*
X170000D02*
D03*
X160000D02*
D03*
X180000D02*
D03*
X190000D02*
D03*
X200000D02*
D03*
X210000D02*
D03*
X216000Y547500D02*
D03*
X218500Y557500D02*
D03*
X228500Y547500D02*
D03*
Y557500D02*
D03*
X139500Y508000D02*
D03*
X238000Y582500D02*
D03*
X220000D02*
D03*
X295000Y459000D02*
D03*
X91000Y427500D02*
D03*
X22500Y196000D02*
D03*
X232000Y577500D02*
D03*
Y587500D02*
D03*
X245000Y582500D02*
D03*
X255000Y572500D02*
D03*
X250000Y577500D02*
D03*
X255000Y582500D02*
D03*
Y622500D02*
D03*
Y612500D02*
D03*
Y602500D02*
D03*
Y592500D02*
D03*
X250000Y587500D02*
D03*
X220000Y577500D02*
D03*
X210000Y587500D02*
D03*
X214500Y592500D02*
D03*
Y582500D02*
D03*
X210000Y577500D02*
D03*
X214500Y572500D02*
D03*
X265000Y602500D02*
D03*
Y622500D02*
D03*
X275000D02*
D03*
X260000Y617500D02*
D03*
Y607500D02*
D03*
X265000Y612500D02*
D03*
X270000Y607500D02*
D03*
Y617500D02*
D03*
X274500Y612500D02*
D03*
Y602500D02*
D03*
X284500D02*
D03*
Y612500D02*
D03*
X280000Y617500D02*
D03*
Y607500D02*
D03*
X285000Y622500D02*
D03*
X294500Y602500D02*
D03*
Y612500D02*
D03*
X290000Y617500D02*
D03*
Y607500D02*
D03*
X295000Y622500D02*
D03*
X304500Y602500D02*
D03*
Y612500D02*
D03*
X300000Y617500D02*
D03*
Y607500D02*
D03*
X305000Y622500D02*
D03*
X300000Y587500D02*
D03*
Y597500D02*
D03*
X304500Y592500D02*
D03*
Y582500D02*
D03*
X290000Y587500D02*
D03*
Y597500D02*
D03*
X294500Y592500D02*
D03*
Y582500D02*
D03*
X280000Y587500D02*
D03*
Y597500D02*
D03*
X284500Y592500D02*
D03*
Y582500D02*
D03*
X274500D02*
D03*
Y592500D02*
D03*
X270000Y597500D02*
D03*
Y587500D02*
D03*
X265000Y592500D02*
D03*
X260000Y587500D02*
D03*
Y597500D02*
D03*
X265000Y582500D02*
D03*
X260000Y577500D02*
D03*
X270000D02*
D03*
X280000D02*
D03*
X290000D02*
D03*
X300000D02*
D03*
X265000Y572500D02*
D03*
X274500D02*
D03*
X284500D02*
D03*
X294500D02*
D03*
X304500D02*
D03*
X150000Y617500D02*
D03*
Y607500D02*
D03*
Y587500D02*
D03*
Y597500D02*
D03*
Y577500D02*
D03*
X204500Y572500D02*
D03*
X194500D02*
D03*
X184500D02*
D03*
X174500D02*
D03*
X165000D02*
D03*
X155000D02*
D03*
X200000Y577500D02*
D03*
X190000D02*
D03*
X180000D02*
D03*
X170000D02*
D03*
X160000D02*
D03*
X155000Y582500D02*
D03*
X165000D02*
D03*
X155000Y592500D02*
D03*
X160000Y597500D02*
D03*
Y587500D02*
D03*
X165000Y592500D02*
D03*
X170000Y587500D02*
D03*
Y597500D02*
D03*
X174500Y592500D02*
D03*
Y582500D02*
D03*
X184500D02*
D03*
Y592500D02*
D03*
X180000Y597500D02*
D03*
Y587500D02*
D03*
X194500Y582500D02*
D03*
Y592500D02*
D03*
X190000Y597500D02*
D03*
Y587500D02*
D03*
X204500Y582500D02*
D03*
Y592500D02*
D03*
X200000Y597500D02*
D03*
Y587500D02*
D03*
X205000Y622500D02*
D03*
X200000Y607500D02*
D03*
Y617500D02*
D03*
X204500Y612500D02*
D03*
Y602500D02*
D03*
X195000Y622500D02*
D03*
X190000Y607500D02*
D03*
Y617500D02*
D03*
X194500Y612500D02*
D03*
Y602500D02*
D03*
X185000Y622500D02*
D03*
X180000Y607500D02*
D03*
Y617500D02*
D03*
X184500Y612500D02*
D03*
Y602500D02*
D03*
X174500D02*
D03*
Y612500D02*
D03*
X170000Y617500D02*
D03*
Y607500D02*
D03*
X165000Y612500D02*
D03*
X160000Y607500D02*
D03*
Y617500D02*
D03*
X175000Y622500D02*
D03*
X165000D02*
D03*
X155000D02*
D03*
Y612500D02*
D03*
X165000Y602500D02*
D03*
X155000D02*
D03*
X245000Y358500D02*
D03*
X175000Y371000D02*
D03*
X181000D02*
D03*
X175000Y380500D02*
D03*
X181000D02*
D03*
X175000Y390000D02*
D03*
X181000D02*
D03*
X175000Y399500D02*
D03*
X181000D02*
D03*
X237000Y365000D02*
D03*
X245000D02*
D03*
X217500D02*
D03*
X227000D02*
D03*
X252500Y292500D02*
D03*
X177500Y352500D02*
D03*
Y322500D02*
D03*
Y337500D02*
D03*
Y292500D02*
D03*
Y307500D02*
D03*
X192500D02*
D03*
Y292500D02*
D03*
X207500Y307500D02*
D03*
Y292500D02*
D03*
X200000Y300000D02*
D03*
X185000D02*
D03*
X200000Y315000D02*
D03*
X185000D02*
D03*
X192500Y337500D02*
D03*
Y322500D02*
D03*
X207500Y337500D02*
D03*
Y322500D02*
D03*
X200000Y330000D02*
D03*
X185000D02*
D03*
X200000Y345000D02*
D03*
X185000D02*
D03*
X207500Y352500D02*
D03*
X192500D02*
D03*
X242500Y370500D02*
D03*
X232500D02*
D03*
Y380500D02*
D03*
X242500D02*
D03*
X272500Y441000D02*
D03*
Y450500D02*
D03*
X295000Y405000D02*
D03*
X305500D02*
D03*
X285000D02*
D03*
X275000D02*
D03*
X265000D02*
D03*
X244500D02*
D03*
X215000D02*
D03*
X225000D02*
D03*
X215000Y415000D02*
D03*
Y425000D02*
D03*
Y435000D02*
D03*
Y445000D02*
D03*
Y455000D02*
D03*
Y465000D02*
D03*
X255000Y495000D02*
D03*
X265000Y485000D02*
D03*
X275000D02*
D03*
X285000D02*
D03*
X280000Y490000D02*
D03*
X260000D02*
D03*
X235000Y505000D02*
D03*
X245000D02*
D03*
X255000D02*
D03*
X265000D02*
D03*
X280000Y500000D02*
D03*
X275000Y495000D02*
D03*
Y505000D02*
D03*
X285000D02*
D03*
Y495000D02*
D03*
X235000Y465000D02*
D03*
X220000Y460000D02*
D03*
X230000Y470000D02*
D03*
Y460000D02*
D03*
X225000Y465000D02*
D03*
X220000Y470000D02*
D03*
X225000Y425000D02*
D03*
X235000D02*
D03*
X220000Y420000D02*
D03*
Y410000D02*
D03*
X225000Y415000D02*
D03*
X230000Y410000D02*
D03*
Y420000D02*
D03*
X240000Y410000D02*
D03*
Y420000D02*
D03*
X234500Y415000D02*
D03*
X285000D02*
D03*
X265000D02*
D03*
X275000D02*
D03*
X265000Y425000D02*
D03*
X270000Y420000D02*
D03*
X275000Y425000D02*
D03*
X290000Y420000D02*
D03*
Y430000D02*
D03*
Y440000D02*
D03*
X295000Y450000D02*
D03*
X305500Y415000D02*
D03*
Y425000D02*
D03*
Y435000D02*
D03*
Y445000D02*
D03*
Y455000D02*
D03*
X285000Y475000D02*
D03*
X290000Y470000D02*
D03*
X300000D02*
D03*
X305000Y465000D02*
D03*
X300000Y480000D02*
D03*
X305000Y475000D02*
D03*
X295000D02*
D03*
X305000Y485000D02*
D03*
X295000Y495000D02*
D03*
Y505000D02*
D03*
X305000Y495000D02*
D03*
X300000Y500000D02*
D03*
X305000Y505000D02*
D03*
X245000Y300000D02*
D03*
Y315000D02*
D03*
X252500Y337500D02*
D03*
X245000Y330000D02*
D03*
Y345000D02*
D03*
X252500Y352500D02*
D03*
X222500D02*
D03*
X237500D02*
D03*
X215000Y345000D02*
D03*
X230000D02*
D03*
X215000Y330000D02*
D03*
X230000D02*
D03*
X237500Y322500D02*
D03*
Y337500D02*
D03*
X222500Y322500D02*
D03*
Y337500D02*
D03*
X215000Y315000D02*
D03*
X230000D02*
D03*
X215000Y300000D02*
D03*
X230000D02*
D03*
X237500Y292500D02*
D03*
Y307500D02*
D03*
X222500Y292500D02*
D03*
Y307500D02*
D03*
X55000Y335248D02*
D03*
X63000D02*
D03*
Y315248D02*
D03*
X55000D02*
D03*
X22000Y336500D02*
D03*
X14000D02*
D03*
Y316500D02*
D03*
X22000D02*
D03*
X101252Y69500D02*
D03*
Y77500D02*
D03*
X108252D02*
D03*
Y69500D02*
D03*
X128252D02*
D03*
Y77500D02*
D03*
X135752Y69500D02*
D03*
Y77500D02*
D03*
X101500Y137500D02*
D03*
Y145500D02*
D03*
X109000Y137500D02*
D03*
Y145500D02*
D03*
X129000D02*
D03*
Y137500D02*
D03*
X136000D02*
D03*
Y145500D02*
D03*
X257500Y497500D02*
D03*
Y502500D02*
D03*
X255000Y500000D02*
D03*
X249000Y457500D02*
D03*
X243000Y442500D02*
D03*
X263000Y477500D02*
D03*
X282500D02*
D03*
X275000Y472500D02*
D03*
X262000Y456500D02*
D03*
X244000Y449000D02*
D03*
Y452500D02*
D03*
X254000D02*
D03*
Y449000D02*
D03*
X231000Y593000D02*
D03*
X225760Y589213D02*
D03*
X95000Y437500D02*
D03*
X100000Y434500D02*
D03*
X89929Y424071D02*
D03*
X56500Y269500D02*
D03*
X42000Y262500D02*
D03*
X97500Y266000D02*
D03*
X100000Y275000D02*
D03*
X65000D02*
D03*
X90000D02*
D03*
X97500Y282500D02*
D03*
X60000Y277500D02*
D03*
X82000Y382000D02*
D03*
X49000Y224000D02*
D03*
X56500Y221500D02*
D03*
X48500Y176000D02*
D03*
X60000Y180000D02*
D03*
X59500Y150000D02*
D03*
Y140000D02*
D03*
Y155000D02*
D03*
Y145000D02*
D03*
X39500Y142500D02*
D03*
Y147500D02*
D03*
Y137500D02*
D03*
Y152500D02*
D03*
X59500Y196000D02*
D03*
Y206000D02*
D03*
Y201000D02*
D03*
Y211000D02*
D03*
X281000Y455000D02*
D03*
X267500Y440500D02*
D03*
X245500Y494000D02*
D03*
X87500D02*
D03*
X68000Y500000D02*
D03*
X41500Y465000D02*
D03*
X48500Y467500D02*
D03*
X13000Y486000D02*
D03*
Y481000D02*
D03*
Y471000D02*
D03*
X102847Y129154D02*
D03*
X39000Y130000D02*
D03*
X70500Y160000D02*
D03*
X57000Y171000D02*
D03*
X34500Y172000D02*
D03*
X72500Y216000D02*
D03*
X46500Y256500D02*
D03*
X34563Y342000D02*
D03*
X27000Y413500D02*
D03*
X33500Y410000D02*
D03*
X33571Y424071D02*
D03*
X32744Y460256D02*
D03*
X15500Y499000D02*
D03*
X74000Y477000D02*
D03*
X74256Y464256D02*
D03*
X91500Y465000D02*
D03*
X80000Y470000D02*
D03*
X77118Y449618D02*
D03*
X83000Y452500D02*
D03*
X82181Y439819D02*
D03*
X20500Y465000D02*
D03*
X15000Y410000D02*
D03*
X37500Y402500D02*
D03*
X68500Y224000D02*
D03*
X25000Y191000D02*
D03*
X38000Y201000D02*
D03*
Y206000D02*
D03*
X20000Y199000D02*
D03*
X17500Y201500D02*
D03*
X15000Y204000D02*
D03*
X12500Y206500D02*
D03*
X82500Y188500D02*
D03*
X71500Y186000D02*
D03*
X85000Y312500D02*
D03*
Y307500D02*
D03*
X105500D02*
D03*
Y312500D02*
D03*
X275000Y557000D02*
D03*
X281000Y467500D02*
D03*
Y462500D02*
D03*
X263500D02*
D03*
Y467500D02*
D03*
X93500Y140000D02*
D03*
Y145000D02*
D03*
Y150000D02*
D03*
Y155000D02*
D03*
X235000Y485000D02*
D03*
X240000Y480000D02*
D03*
X224000Y475000D02*
D03*
X92000Y441500D02*
D03*
X112000D02*
D03*
X234500Y405000D02*
D03*
X207500Y365000D02*
D03*
X198000D02*
D03*
X188000D02*
D03*
Y358500D02*
D03*
X198000D02*
D03*
X207500D02*
D03*
X227000D02*
D03*
X217500D02*
D03*
X237000D02*
D03*
X181000Y428500D02*
D03*
Y418500D02*
D03*
Y409000D02*
D03*
X175000Y428500D02*
D03*
Y418500D02*
D03*
Y409000D02*
D03*
Y438000D02*
D03*
Y448000D02*
D03*
X181000Y438000D02*
D03*
Y448000D02*
D03*
X175000Y457500D02*
D03*
Y467500D02*
D03*
X181000Y457500D02*
D03*
Y467500D02*
D03*
X175000Y477000D02*
D03*
X181000D02*
D03*
X169500Y480500D02*
D03*
X159500D02*
D03*
Y487000D02*
D03*
X169500D02*
D03*
X149500D02*
D03*
Y480500D02*
D03*
X146500Y477500D02*
D03*
Y467500D02*
D03*
X140500Y477500D02*
D03*
Y467500D02*
D03*
X146500Y458000D02*
D03*
Y448000D02*
D03*
X140500Y458000D02*
D03*
Y448000D02*
D03*
X115500Y438000D02*
D03*
Y444500D02*
D03*
X135500D02*
D03*
X125500D02*
D03*
Y438000D02*
D03*
X135500D02*
D03*
X175000Y363000D02*
D03*
X178500Y358500D02*
D03*
X179000Y485500D02*
D03*
X89500Y382000D02*
D03*
X120000Y508000D02*
D03*
X142500Y485000D02*
D03*
X143500Y441000D02*
D03*
D51*
X256165Y436165D02*
D03*
Y431835D02*
D03*
X251835Y436165D02*
D03*
Y431835D02*
D03*
D52*
X227950Y599520D02*
D03*
M02*
