G04*
G04 #@! TF.GenerationSoftware,Altium Limited,CircuitStudio,1.5.2 (30)*
G04*
G04 Layer_Color=20142*
%FSLAX25Y25*%
%MOIN*%
G70*
G01*
G75*
%ADD12C,0.00394*%
G04:AMPARAMS|DCode=22|XSize=85.59mil|YSize=23.03mil|CornerRadius=11.51mil|HoleSize=0mil|Usage=FLASHONLY|Rotation=270.000|XOffset=0mil|YOffset=0mil|HoleType=Round|Shape=RoundedRectangle|*
%AMROUNDEDRECTD22*
21,1,0.08559,0.00000,0,0,270.0*
21,1,0.06257,0.02303,0,0,270.0*
1,1,0.02303,0.00000,-0.03128*
1,1,0.02303,0.00000,0.03128*
1,1,0.02303,0.00000,0.03128*
1,1,0.02303,0.00000,-0.03128*
%
%ADD22ROUNDEDRECTD22*%
%ADD23R,0.02303X0.08559*%
%ADD54R,0.01981X0.04343*%
G04:AMPARAMS|DCode=55|XSize=17.84mil|YSize=31.62mil|CornerRadius=5.97mil|HoleSize=0mil|Usage=FLASHONLY|Rotation=270.000|XOffset=0mil|YOffset=0mil|HoleType=Round|Shape=RoundedRectangle|*
%AMROUNDEDRECTD55*
21,1,0.01784,0.01969,0,0,270.0*
21,1,0.00591,0.03162,0,0,270.0*
1,1,0.01194,-0.00984,-0.00295*
1,1,0.01194,-0.00984,0.00295*
1,1,0.01194,0.00984,0.00295*
1,1,0.01194,0.00984,-0.00295*
%
%ADD55ROUNDEDRECTD55*%
%ADD56R,0.04343X0.03556*%
%ADD57R,0.04343X0.04737*%
%ADD58R,0.03162X0.08280*%
%ADD59R,0.09068X0.11824*%
%ADD60R,0.03556X0.04343*%
%ADD61R,0.11784X0.03713*%
G04:AMPARAMS|DCode=62|XSize=31.62mil|YSize=47.37mil|CornerRadius=6.01mil|HoleSize=0mil|Usage=FLASHONLY|Rotation=0.000|XOffset=0mil|YOffset=0mil|HoleType=Round|Shape=RoundedRectangle|*
%AMROUNDEDRECTD62*
21,1,0.03162,0.03535,0,0,0.0*
21,1,0.01961,0.04737,0,0,0.0*
1,1,0.01202,0.00980,-0.01768*
1,1,0.01202,-0.00980,-0.01768*
1,1,0.01202,-0.00980,0.01768*
1,1,0.01202,0.00980,0.01768*
%
%ADD62ROUNDEDRECTD62*%
G04:AMPARAMS|DCode=63|XSize=47.37mil|YSize=47.37mil|CornerRadius=5.97mil|HoleSize=0mil|Usage=FLASHONLY|Rotation=0.000|XOffset=0mil|YOffset=0mil|HoleType=Round|Shape=RoundedRectangle|*
%AMROUNDEDRECTD63*
21,1,0.04737,0.03543,0,0,0.0*
21,1,0.03543,0.04737,0,0,0.0*
1,1,0.01194,0.01772,-0.01772*
1,1,0.01194,-0.01772,-0.01772*
1,1,0.01194,-0.01772,0.01772*
1,1,0.01194,0.01772,0.01772*
%
%ADD63ROUNDEDRECTD63*%
%ADD64R,0.04934X0.04540*%
%ADD65R,0.04737X0.04343*%
%ADD66C,0.04737*%
%ADD67R,0.05524X0.02769*%
%ADD68R,0.02769X0.05524*%
%ADD69O,0.02769X0.05524*%
G04:AMPARAMS|DCode=70|XSize=33.59mil|YSize=72.96mil|CornerRadius=5.92mil|HoleSize=0mil|Usage=FLASHONLY|Rotation=270.000|XOffset=0mil|YOffset=0mil|HoleType=Round|Shape=RoundedRectangle|*
%AMROUNDEDRECTD70*
21,1,0.03359,0.06112,0,0,270.0*
21,1,0.02175,0.07296,0,0,270.0*
1,1,0.01184,-0.03056,-0.01088*
1,1,0.01184,-0.03056,0.01088*
1,1,0.01184,0.03056,0.01088*
1,1,0.01184,0.03056,-0.01088*
%
%ADD70ROUNDEDRECTD70*%
G04:AMPARAMS|DCode=71|XSize=29.65mil|YSize=57.21mil|CornerRadius=5.95mil|HoleSize=0mil|Usage=FLASHONLY|Rotation=90.000|XOffset=0mil|YOffset=0mil|HoleType=Round|Shape=RoundedRectangle|*
%AMROUNDEDRECTD71*
21,1,0.02965,0.04532,0,0,90.0*
21,1,0.01776,0.05721,0,0,90.0*
1,1,0.01190,0.02266,0.00888*
1,1,0.01190,0.02266,-0.00888*
1,1,0.01190,-0.02266,-0.00888*
1,1,0.01190,-0.02266,0.00888*
%
%ADD71ROUNDEDRECTD71*%
%ADD72R,0.05524X0.06312*%
%ADD73R,0.21076X0.04737*%
%ADD74O,0.01784X0.04343*%
%ADD75O,0.04343X0.01784*%
%ADD76R,0.10446X0.10446*%
%ADD77C,0.01194*%
%ADD78C,0.03162*%
%ADD79O,0.04737X0.07099*%
%ADD80C,0.08674*%
%ADD81R,0.08674X0.08674*%
%ADD82C,0.10249*%
%ADD83R,0.07887X0.07887*%
%ADD84C,0.07887*%
%ADD85C,0.02769*%
G36*
X219392Y442423D02*
X219407Y442423D01*
X221447Y442278D01*
X221466Y442275D01*
X221485Y442273D01*
X221492Y442272D01*
X221499Y442271D01*
X221517Y442266D01*
X221536Y442261D01*
X221543Y442259D01*
X221550Y442257D01*
X221567Y442249D01*
X221585Y442243D01*
X224335Y440993D01*
X224352Y440984D01*
X224369Y440975D01*
X224375Y440971D01*
X224381Y440968D01*
X224397Y440957D01*
X224413Y440946D01*
X224418Y440941D01*
X224424Y440938D01*
X224438Y440924D01*
X224452Y440911D01*
X227002Y438361D01*
X227010Y438352D01*
X227019Y438344D01*
X227028Y438333D01*
X227037Y438322D01*
X227044Y438312D01*
X227051Y438302D01*
X227058Y438290D01*
X227066Y438278D01*
X227071Y438268D01*
X227078Y438257D01*
X228078Y436257D01*
X228087Y436235D01*
X228096Y436213D01*
X228097Y436211D01*
X228098Y436209D01*
X228104Y436186D01*
X228111Y436163D01*
X228607Y433868D01*
X228608Y433861D01*
X228609Y433854D01*
X228611Y433835D01*
X228614Y433816D01*
X228614Y433809D01*
X228615Y433802D01*
X228615Y433783D01*
X228615Y433764D01*
X228614Y433757D01*
X228614Y433750D01*
X228611Y433731D01*
X228609Y433711D01*
X228607Y433705D01*
X228606Y433698D01*
X228601Y433679D01*
X228596Y433661D01*
X228594Y433654D01*
X228592Y433648D01*
X228584Y433630D01*
X228577Y433612D01*
X228574Y433606D01*
X228571Y433600D01*
X228561Y433583D01*
X228552Y433566D01*
X228548Y433561D01*
X228544Y433555D01*
X228532Y433539D01*
X228520Y433524D01*
X228516Y433519D01*
X228511Y433514D01*
X228497Y433500D01*
X228484Y433486D01*
X228479Y433482D01*
X228474Y433477D01*
X228458Y433466D01*
X228443Y433454D01*
X228437Y433450D01*
X228431Y433446D01*
X228415Y433437D01*
X228398Y433427D01*
X228392Y433424D01*
X228386Y433421D01*
X228368Y433414D01*
X228350Y433406D01*
X228343Y433404D01*
X228337Y433401D01*
X228318Y433397D01*
X228299Y433391D01*
X228292Y433390D01*
X228286Y433389D01*
X228267Y433387D01*
X228247Y433384D01*
X228241Y433384D01*
X228234Y433383D01*
X219397Y432962D01*
X219388Y432962D01*
X219378Y432961D01*
X219361Y432962D01*
X219345Y432963D01*
X219335Y432964D01*
X219326Y432965D01*
X219309Y432968D01*
X219293Y432971D01*
X219284Y432973D01*
X219274Y432975D01*
X219258Y432980D01*
X219242Y432985D01*
X219234Y432989D01*
X219225Y432992D01*
X219210Y432999D01*
X219194Y433006D01*
X219186Y433011D01*
X219178Y433015D01*
X219164Y433024D01*
X219149Y433033D01*
X219142Y433039D01*
X219134Y433044D01*
X219121Y433055D01*
X219108Y433066D01*
X219102Y433072D01*
X219095Y433079D01*
X219084Y433091D01*
X219072Y433103D01*
X219066Y433111D01*
X219060Y433118D01*
X219051Y433132D01*
X219041Y433145D01*
X219036Y433154D01*
X219031Y433162D01*
X219023Y433177D01*
X219015Y433191D01*
X219012Y433200D01*
X219008Y433209D01*
X219002Y433224D01*
X218996Y433240D01*
X218994Y433249D01*
X218991Y433258D01*
X218988Y433275D01*
X218984Y433291D01*
X218982Y433300D01*
X218981Y433310D01*
X218980Y433326D01*
X218978Y433343D01*
X218978Y433353D01*
X218977Y433362D01*
Y442024D01*
X218978Y442038D01*
X218978Y442052D01*
X218980Y442064D01*
X218981Y442076D01*
X218983Y442090D01*
X218985Y442104D01*
X218988Y442116D01*
X218991Y442127D01*
X218995Y442141D01*
X218999Y442155D01*
X219004Y442166D01*
X219008Y442177D01*
X219014Y442190D01*
X219020Y442203D01*
X219026Y442213D01*
X219031Y442224D01*
X219039Y442236D01*
X219046Y442248D01*
X219053Y442258D01*
X219060Y442268D01*
X219069Y442278D01*
X219078Y442290D01*
X219087Y442298D01*
X219095Y442307D01*
X219105Y442316D01*
X219115Y442326D01*
X219125Y442334D01*
X219134Y442342D01*
X219146Y442349D01*
X219157Y442358D01*
X219168Y442364D01*
X219178Y442371D01*
X219190Y442377D01*
X219203Y442384D01*
X219214Y442389D01*
X219225Y442394D01*
X219238Y442399D01*
X219251Y442404D01*
X219263Y442407D01*
X219274Y442411D01*
X219288Y442414D01*
X219302Y442417D01*
X219314Y442419D01*
X219326Y442421D01*
X219340Y442422D01*
X219354Y442424D01*
X219366Y442424D01*
X219378Y442424D01*
X219392Y442423D01*
D02*
G37*
G36*
X239272Y442424D02*
X239284Y442424D01*
X239298Y442422D01*
X239312Y442421D01*
X239324Y442419D01*
X239336Y442417D01*
X239350Y442414D01*
X239364Y442411D01*
X239375Y442407D01*
X239387Y442404D01*
X239400Y442399D01*
X239413Y442394D01*
X239424Y442389D01*
X239435Y442384D01*
X239447Y442377D01*
X239460Y442371D01*
X239470Y442364D01*
X239481Y442358D01*
X239492Y442349D01*
X239504Y442342D01*
X239513Y442334D01*
X239522Y442326D01*
X239533Y442316D01*
X239543Y442307D01*
X239551Y442298D01*
X239560Y442290D01*
X239568Y442278D01*
X239578Y442268D01*
X239584Y442258D01*
X239592Y442248D01*
X239599Y442236D01*
X239607Y442224D01*
X239612Y442213D01*
X239618Y442203D01*
X239624Y442190D01*
X239630Y442177D01*
X239634Y442166D01*
X239639Y442155D01*
X239643Y442141D01*
X239647Y442127D01*
X239649Y442116D01*
X239653Y442104D01*
X239654Y442090D01*
X239657Y442076D01*
X239658Y442064D01*
X239660Y442052D01*
X239660Y442038D01*
X239661Y442024D01*
Y433362D01*
X239660Y433353D01*
X239660Y433343D01*
X239658Y433326D01*
X239657Y433310D01*
X239655Y433300D01*
X239654Y433291D01*
X239650Y433275D01*
X239647Y433258D01*
X239644Y433249D01*
X239642Y433240D01*
X239636Y433224D01*
X239630Y433209D01*
X239626Y433200D01*
X239622Y433191D01*
X239614Y433177D01*
X239607Y433162D01*
X239602Y433154D01*
X239597Y433145D01*
X239587Y433132D01*
X239578Y433118D01*
X239572Y433111D01*
X239566Y433103D01*
X239554Y433091D01*
X239543Y433079D01*
X239536Y433072D01*
X239529Y433066D01*
X239516Y433055D01*
X239504Y433044D01*
X239496Y433039D01*
X239489Y433033D01*
X239474Y433024D01*
X239460Y433015D01*
X239452Y433011D01*
X239444Y433006D01*
X239428Y432999D01*
X239413Y432992D01*
X239404Y432989D01*
X239395Y432985D01*
X239379Y432980D01*
X239364Y432975D01*
X239354Y432973D01*
X239345Y432971D01*
X239329Y432968D01*
X239312Y432965D01*
X239303Y432964D01*
X239293Y432963D01*
X239277Y432962D01*
X239260Y432961D01*
X239250Y432962D01*
X239241Y432962D01*
X230404Y433383D01*
X230397Y433384D01*
X230390Y433384D01*
X230371Y433387D01*
X230352Y433389D01*
X230345Y433390D01*
X230339Y433391D01*
X230320Y433397D01*
X230301Y433401D01*
X230295Y433404D01*
X230288Y433406D01*
X230270Y433414D01*
X230252Y433421D01*
X230246Y433424D01*
X230240Y433427D01*
X230223Y433437D01*
X230206Y433446D01*
X230201Y433450D01*
X230195Y433454D01*
X230180Y433466D01*
X230164Y433477D01*
X230159Y433482D01*
X230154Y433486D01*
X230140Y433500D01*
X230127Y433514D01*
X230122Y433519D01*
X230118Y433524D01*
X230106Y433539D01*
X230094Y433555D01*
X230090Y433561D01*
X230086Y433566D01*
X230077Y433583D01*
X230067Y433600D01*
X230064Y433606D01*
X230061Y433612D01*
X230054Y433630D01*
X230046Y433648D01*
X230044Y433654D01*
X230042Y433661D01*
X230037Y433679D01*
X230031Y433698D01*
X230030Y433705D01*
X230029Y433711D01*
X230027Y433731D01*
X230024Y433750D01*
X230024Y433757D01*
X230023Y433764D01*
X230023Y433783D01*
X230023Y433802D01*
X230024Y433809D01*
X230024Y433816D01*
X230027Y433835D01*
X230029Y433854D01*
X230030Y433861D01*
X230031Y433868D01*
X230527Y436163D01*
X230534Y436186D01*
X230540Y436209D01*
X230541Y436211D01*
X230541Y436213D01*
X230551Y436235D01*
X230560Y436257D01*
X231560Y438257D01*
X231567Y438268D01*
X231572Y438278D01*
X231580Y438290D01*
X231587Y438302D01*
X231594Y438312D01*
X231601Y438322D01*
X231610Y438333D01*
X231619Y438344D01*
X231628Y438352D01*
X231635Y438361D01*
X234186Y440911D01*
X234200Y440924D01*
X234214Y440938D01*
X234220Y440941D01*
X234225Y440946D01*
X234241Y440957D01*
X234257Y440968D01*
X234263Y440971D01*
X234268Y440975D01*
X234286Y440984D01*
X234303Y440993D01*
X237053Y442243D01*
X237071Y442249D01*
X237088Y442257D01*
X237095Y442259D01*
X237102Y442261D01*
X237120Y442266D01*
X237139Y442271D01*
X237146Y442272D01*
X237153Y442273D01*
X237172Y442275D01*
X237190Y442278D01*
X239231Y442423D01*
X239246Y442423D01*
X239260Y442424D01*
X239272Y442424D01*
D02*
G37*
G36*
X239277Y456793D02*
X239293Y456793D01*
X239303Y456792D01*
X239312Y456791D01*
X239329Y456788D01*
X239345Y456785D01*
X239354Y456783D01*
X239364Y456781D01*
X239379Y456776D01*
X239395Y456771D01*
X239404Y456767D01*
X239413Y456764D01*
X239428Y456757D01*
X239444Y456750D01*
X239452Y456745D01*
X239460Y456741D01*
X239474Y456732D01*
X239489Y456723D01*
X239496Y456717D01*
X239504Y456712D01*
X239516Y456701D01*
X239529Y456690D01*
X239536Y456683D01*
X239543Y456677D01*
X239554Y456665D01*
X239566Y456652D01*
X239572Y456645D01*
X239578Y456638D01*
X239587Y456624D01*
X239597Y456610D01*
X239602Y456602D01*
X239607Y456594D01*
X239614Y456579D01*
X239622Y456565D01*
X239626Y456556D01*
X239630Y456547D01*
X239636Y456531D01*
X239642Y456516D01*
X239644Y456506D01*
X239647Y456497D01*
X239650Y456481D01*
X239654Y456465D01*
X239655Y456455D01*
X239657Y456446D01*
X239658Y456429D01*
X239660Y456413D01*
X239660Y456403D01*
X239661Y456394D01*
Y447732D01*
X239660Y447718D01*
X239660Y447704D01*
X239658Y447692D01*
X239657Y447680D01*
X239654Y447666D01*
X239653Y447652D01*
X239649Y447640D01*
X239647Y447628D01*
X239643Y447615D01*
X239639Y447601D01*
X239634Y447590D01*
X239630Y447579D01*
X239624Y447566D01*
X239618Y447553D01*
X239612Y447542D01*
X239607Y447532D01*
X239599Y447520D01*
X239592Y447508D01*
X239584Y447498D01*
X239578Y447488D01*
X239568Y447477D01*
X239560Y447466D01*
X239551Y447458D01*
X239543Y447449D01*
X239533Y447439D01*
X239522Y447429D01*
X239513Y447422D01*
X239504Y447414D01*
X239492Y447406D01*
X239481Y447398D01*
X239470Y447392D01*
X239460Y447385D01*
X239447Y447379D01*
X239435Y447372D01*
X239424Y447367D01*
X239413Y447362D01*
X239400Y447357D01*
X239387Y447352D01*
X239375Y447349D01*
X239364Y447345D01*
X239350Y447342D01*
X239336Y447339D01*
X239324Y447337D01*
X239312Y447335D01*
X239298Y447334D01*
X239284Y447332D01*
X239272Y447332D01*
X239260Y447331D01*
X239246Y447332D01*
X239231Y447332D01*
X237190Y447478D01*
X237172Y447481D01*
X237153Y447482D01*
X237146Y447484D01*
X237139Y447485D01*
X237120Y447490D01*
X237102Y447494D01*
X237095Y447497D01*
X237088Y447499D01*
X237071Y447506D01*
X237053Y447513D01*
X234303Y448763D01*
X234286Y448772D01*
X234268Y448781D01*
X234263Y448784D01*
X234257Y448788D01*
X234241Y448799D01*
X234225Y448810D01*
X234220Y448814D01*
X234214Y448818D01*
X234200Y448832D01*
X234186Y448844D01*
X231635Y451395D01*
X231628Y451404D01*
X231619Y451412D01*
X231610Y451423D01*
X231601Y451434D01*
X231594Y451444D01*
X231587Y451453D01*
X231580Y451466D01*
X231572Y451477D01*
X231567Y451488D01*
X231560Y451499D01*
X230560Y453499D01*
X230551Y453521D01*
X230541Y453543D01*
X230541Y453545D01*
X230540Y453547D01*
X230534Y453570D01*
X230527Y453593D01*
X230031Y455888D01*
X230030Y455895D01*
X230029Y455901D01*
X230027Y455921D01*
X230024Y455940D01*
X230024Y455947D01*
X230023Y455954D01*
X230023Y455973D01*
X230023Y455992D01*
X230024Y455999D01*
X230024Y456006D01*
X230027Y456025D01*
X230029Y456044D01*
X230030Y456051D01*
X230031Y456058D01*
X230037Y456076D01*
X230042Y456095D01*
X230044Y456102D01*
X230046Y456108D01*
X230054Y456126D01*
X230061Y456144D01*
X230064Y456150D01*
X230067Y456156D01*
X230077Y456173D01*
X230086Y456190D01*
X230090Y456195D01*
X230094Y456201D01*
X230106Y456216D01*
X230118Y456232D01*
X230122Y456237D01*
X230127Y456242D01*
X230140Y456256D01*
X230154Y456270D01*
X230159Y456274D01*
X230164Y456279D01*
X230180Y456290D01*
X230195Y456302D01*
X230201Y456306D01*
X230206Y456310D01*
X230223Y456319D01*
X230240Y456329D01*
X230246Y456332D01*
X230252Y456335D01*
X230270Y456342D01*
X230288Y456350D01*
X230295Y456352D01*
X230301Y456354D01*
X230320Y456359D01*
X230339Y456364D01*
X230345Y456365D01*
X230352Y456367D01*
X230371Y456369D01*
X230390Y456372D01*
X230397Y456372D01*
X230404Y456373D01*
X239241Y456794D01*
X239250Y456794D01*
X239260Y456795D01*
X239277Y456793D01*
D02*
G37*
G36*
X219388Y456794D02*
X219397Y456794D01*
X228234Y456373D01*
X228241Y456372D01*
X228247Y456372D01*
X228267Y456369D01*
X228286Y456367D01*
X228292Y456365D01*
X228299Y456364D01*
X228318Y456359D01*
X228337Y456354D01*
X228343Y456352D01*
X228350Y456350D01*
X228368Y456342D01*
X228386Y456335D01*
X228392Y456332D01*
X228398Y456329D01*
X228415Y456319D01*
X228431Y456310D01*
X228437Y456306D01*
X228443Y456302D01*
X228458Y456290D01*
X228474Y456279D01*
X228479Y456274D01*
X228484Y456270D01*
X228497Y456256D01*
X228511Y456242D01*
X228516Y456237D01*
X228520Y456232D01*
X228532Y456216D01*
X228544Y456201D01*
X228548Y456195D01*
X228552Y456190D01*
X228561Y456173D01*
X228571Y456156D01*
X228574Y456150D01*
X228577Y456144D01*
X228584Y456126D01*
X228592Y456108D01*
X228594Y456102D01*
X228596Y456095D01*
X228601Y456076D01*
X228606Y456058D01*
X228607Y456051D01*
X228609Y456044D01*
X228611Y456025D01*
X228614Y456006D01*
X228614Y455999D01*
X228615Y455992D01*
X228615Y455973D01*
X228615Y455954D01*
X228614Y455947D01*
X228614Y455940D01*
X228611Y455921D01*
X228609Y455901D01*
X228608Y455895D01*
X228607Y455888D01*
X228111Y453593D01*
X228104Y453570D01*
X228098Y453547D01*
X228097Y453545D01*
X228096Y453543D01*
X228087Y453521D01*
X228078Y453499D01*
X227078Y451499D01*
X227071Y451488D01*
X227066Y451477D01*
X227058Y451466D01*
X227051Y451453D01*
X227044Y451444D01*
X227037Y451434D01*
X227028Y451423D01*
X227019Y451412D01*
X227010Y451404D01*
X227002Y451395D01*
X224452Y448844D01*
X224438Y448832D01*
X224424Y448818D01*
X224418Y448814D01*
X224413Y448810D01*
X224397Y448799D01*
X224381Y448788D01*
X224375Y448784D01*
X224369Y448781D01*
X224352Y448772D01*
X224335Y448763D01*
X221585Y447513D01*
X221567Y447506D01*
X221550Y447499D01*
X221543Y447497D01*
X221536Y447494D01*
X221517Y447490D01*
X221499Y447485D01*
X221492Y447484D01*
X221485Y447482D01*
X221466Y447481D01*
X221447Y447478D01*
X219407Y447332D01*
X219392Y447332D01*
X219378Y447331D01*
X219366Y447332D01*
X219354Y447332D01*
X219340Y447334D01*
X219326Y447335D01*
X219314Y447337D01*
X219302Y447339D01*
X219288Y447342D01*
X219274Y447345D01*
X219263Y447349D01*
X219251Y447352D01*
X219238Y447357D01*
X219225Y447362D01*
X219214Y447367D01*
X219203Y447372D01*
X219190Y447379D01*
X219178Y447385D01*
X219168Y447392D01*
X219157Y447398D01*
X219146Y447406D01*
X219134Y447414D01*
X219125Y447422D01*
X219115Y447429D01*
X219105Y447439D01*
X219095Y447449D01*
X219087Y447458D01*
X219078Y447466D01*
X219069Y447477D01*
X219060Y447488D01*
X219053Y447498D01*
X219046Y447508D01*
X219039Y447520D01*
X219031Y447532D01*
X219026Y447542D01*
X219020Y447553D01*
X219014Y447566D01*
X219008Y447579D01*
X219004Y447590D01*
X218999Y447601D01*
X218995Y447615D01*
X218991Y447628D01*
X218988Y447640D01*
X218985Y447652D01*
X218983Y447666D01*
X218981Y447680D01*
X218980Y447692D01*
X218978Y447704D01*
X218978Y447718D01*
X218977Y447732D01*
Y456394D01*
X218978Y456403D01*
X218978Y456413D01*
X218980Y456429D01*
X218981Y456446D01*
X218982Y456455D01*
X218984Y456465D01*
X218988Y456481D01*
X218991Y456497D01*
X218994Y456506D01*
X218996Y456516D01*
X219002Y456531D01*
X219008Y456547D01*
X219012Y456556D01*
X219015Y456565D01*
X219023Y456579D01*
X219031Y456594D01*
X219036Y456602D01*
X219041Y456610D01*
X219051Y456624D01*
X219060Y456638D01*
X219066Y456645D01*
X219072Y456652D01*
X219084Y456665D01*
X219095Y456677D01*
X219102Y456683D01*
X219108Y456690D01*
X219121Y456701D01*
X219134Y456712D01*
X219142Y456717D01*
X219149Y456723D01*
X219164Y456732D01*
X219178Y456741D01*
X219186Y456745D01*
X219194Y456750D01*
X219210Y456757D01*
X219225Y456764D01*
X219234Y456767D01*
X219242Y456771D01*
X219258Y456776D01*
X219274Y456781D01*
X219284Y456783D01*
X219293Y456785D01*
X219309Y456788D01*
X219326Y456791D01*
X219335Y456792D01*
X219345Y456793D01*
X219361Y456793D01*
X219378Y456795D01*
X219388Y456794D01*
D02*
G37*
D12*
X230423Y455973D02*
X230553Y454959D01*
X230799Y453967D01*
X231158Y453009D01*
X231624Y452100D01*
X232192Y451250D01*
X232855Y450471D01*
X233602Y449774D01*
X234425Y449168D01*
X235313Y448660D01*
X236253Y448258D01*
X237232Y447967D01*
X238239Y447791D01*
X239260Y447732D01*
X219378D02*
X220398Y447791D01*
X221405Y447967D01*
X222385Y448258D01*
X223325Y448660D01*
X224213Y449168D01*
X225036Y449774D01*
X225783Y450471D01*
X226445Y451250D01*
X227014Y452100D01*
X227480Y453009D01*
X227839Y453967D01*
X228085Y454959D01*
X228215Y455973D01*
Y433783D02*
X228085Y434797D01*
X227839Y435789D01*
X227480Y436747D01*
X227014Y437656D01*
X226445Y438506D01*
X225783Y439285D01*
X225036Y439982D01*
X224213Y440588D01*
X223325Y441095D01*
X222385Y441498D01*
X221405Y441788D01*
X220398Y441965D01*
X219378Y442024D01*
X239260D02*
X238242Y441965D01*
X237238Y441790D01*
X236261Y441500D01*
X235323Y441101D01*
X234437Y440596D01*
X233616Y439993D01*
X232869Y439299D01*
X232206Y438524D01*
X231637Y437678D01*
X231169Y436772D01*
X230808Y435819D01*
X230560Y434831D01*
X230423Y433783D01*
D22*
X60319Y232063D02*
D03*
X55319D02*
D03*
X50319D02*
D03*
X45319D02*
D03*
Y250693D02*
D03*
X50319D02*
D03*
X55319D02*
D03*
D23*
X60319D02*
D03*
D54*
X217165Y592358D02*
D03*
X219134D02*
D03*
X221102D02*
D03*
X223071D02*
D03*
X225039D02*
D03*
X227008D02*
D03*
X228976D02*
D03*
X230945D02*
D03*
X232913D02*
D03*
X234882D02*
D03*
X236850D02*
D03*
X238819D02*
D03*
D55*
X103913Y503831D02*
D03*
Y501862D02*
D03*
Y499894D02*
D03*
Y497925D02*
D03*
X115725Y503831D02*
D03*
Y501862D02*
D03*
Y499894D02*
D03*
Y497925D02*
D03*
D56*
X98819Y499622D02*
D03*
Y505134D02*
D03*
X67319Y229122D02*
D03*
Y234634D02*
D03*
X74819Y372622D02*
D03*
Y378134D02*
D03*
X81819Y444622D02*
D03*
Y450134D02*
D03*
X33319Y183134D02*
D03*
Y177622D02*
D03*
X240819Y567122D02*
D03*
Y572634D02*
D03*
D57*
X72669Y141378D02*
D03*
X78969D02*
D03*
X72669Y146378D02*
D03*
X78969D02*
D03*
X72669Y151378D02*
D03*
X78969D02*
D03*
X72669Y156378D02*
D03*
X78969D02*
D03*
D58*
X49165Y76004D02*
D03*
X53102D02*
D03*
X57039D02*
D03*
X60976D02*
D03*
X64913D02*
D03*
X68850D02*
D03*
X72787D02*
D03*
X76724D02*
D03*
X80661D02*
D03*
X84598D02*
D03*
X88535D02*
D03*
X92472D02*
D03*
X29445Y336504D02*
D03*
X33382D02*
D03*
X37319D02*
D03*
X41256D02*
D03*
X45193D02*
D03*
D59*
X36764Y66752D02*
D03*
X104874D02*
D03*
X17043Y327252D02*
D03*
X57595D02*
D03*
D60*
X76563Y478378D02*
D03*
X82075D02*
D03*
X60563Y387878D02*
D03*
X66075D02*
D03*
X41575Y411378D02*
D03*
X36063D02*
D03*
X67563Y461378D02*
D03*
X73075D02*
D03*
X64575Y172378D02*
D03*
X59063D02*
D03*
X37075Y466378D02*
D03*
X31563D02*
D03*
X266075Y449378D02*
D03*
X260563D02*
D03*
X265563Y437378D02*
D03*
X271075D02*
D03*
X251075Y414378D02*
D03*
X245563D02*
D03*
X245563Y419378D02*
D03*
X251075D02*
D03*
X252063Y466378D02*
D03*
X257575D02*
D03*
X257575Y461378D02*
D03*
X252063D02*
D03*
X248063Y483378D02*
D03*
X253575D02*
D03*
X243575Y461378D02*
D03*
X238063D02*
D03*
D61*
X19307Y492464D02*
D03*
Y487464D02*
D03*
Y482464D02*
D03*
Y477464D02*
D03*
Y472464D02*
D03*
X35331D02*
D03*
Y477464D02*
D03*
Y482464D02*
D03*
Y487464D02*
D03*
Y492464D02*
D03*
D62*
X232059Y564153D02*
D03*
X224579D02*
D03*
Y573602D02*
D03*
D63*
X231272D02*
D03*
D64*
X260969Y74378D02*
D03*
X254669D02*
D03*
D65*
X266819Y554528D02*
D03*
Y548228D02*
D03*
X273819Y554528D02*
D03*
Y548228D02*
D03*
X25819Y419228D02*
D03*
Y425527D02*
D03*
X281319Y420650D02*
D03*
Y426949D02*
D03*
Y439949D02*
D03*
Y433650D02*
D03*
D66*
X278819Y380878D02*
D03*
X296319Y488878D02*
D03*
X252319Y490878D02*
D03*
X238319Y471878D02*
D03*
X271319Y446878D02*
D03*
X236319Y376878D02*
D03*
D67*
X37748Y425449D02*
D03*
Y428598D02*
D03*
Y431748D02*
D03*
Y434898D02*
D03*
Y438047D02*
D03*
Y441197D02*
D03*
Y444346D02*
D03*
Y447496D02*
D03*
X75937D02*
D03*
Y444346D02*
D03*
Y441197D02*
D03*
Y438047D02*
D03*
Y434898D02*
D03*
Y431748D02*
D03*
Y428598D02*
D03*
Y425449D02*
D03*
D68*
X45819Y455567D02*
D03*
X48969D02*
D03*
X52118D02*
D03*
X55268D02*
D03*
X58417D02*
D03*
X61567D02*
D03*
X64717D02*
D03*
X67866D02*
D03*
Y417378D02*
D03*
X64717D02*
D03*
X61567D02*
D03*
X58417D02*
D03*
X55268D02*
D03*
X52118D02*
D03*
X48969D02*
D03*
D69*
X45819D02*
D03*
D70*
X64441Y187378D02*
D03*
Y192378D02*
D03*
Y197378D02*
D03*
Y202378D02*
D03*
Y207378D02*
D03*
Y212378D02*
D03*
Y217378D02*
D03*
X42197Y187378D02*
D03*
Y192378D02*
D03*
Y197378D02*
D03*
Y202378D02*
D03*
Y207378D02*
D03*
Y212378D02*
D03*
Y217378D02*
D03*
D71*
X42984Y166378D02*
D03*
Y161378D02*
D03*
Y156378D02*
D03*
Y151378D02*
D03*
Y146378D02*
D03*
Y141378D02*
D03*
Y136378D02*
D03*
Y131378D02*
D03*
X63654Y166378D02*
D03*
Y161378D02*
D03*
Y156378D02*
D03*
Y151378D02*
D03*
Y146378D02*
D03*
Y141378D02*
D03*
Y136378D02*
D03*
Y131378D02*
D03*
D72*
X60488Y369378D02*
D03*
Y379378D02*
D03*
X69150D02*
D03*
Y369378D02*
D03*
D73*
X229319Y454622D02*
D03*
Y435134D02*
D03*
D74*
X247898Y427701D02*
D03*
X249866D02*
D03*
X251835D02*
D03*
X253803D02*
D03*
X255772D02*
D03*
X257740D02*
D03*
Y443055D02*
D03*
X255772D02*
D03*
X253803D02*
D03*
X251835D02*
D03*
X249866D02*
D03*
X247898D02*
D03*
D75*
X260496Y430457D02*
D03*
Y432425D02*
D03*
Y434394D02*
D03*
Y436362D02*
D03*
Y438331D02*
D03*
Y440299D02*
D03*
X245142D02*
D03*
Y438331D02*
D03*
Y436362D02*
D03*
Y434394D02*
D03*
Y432425D02*
D03*
Y430457D02*
D03*
D76*
X252819Y435378D02*
D03*
D77*
X239260Y447732D02*
Y456394D01*
X219378Y447732D02*
Y456394D01*
Y433362D02*
Y442024D01*
X239260Y433362D02*
Y434831D01*
Y435134D01*
Y442024D01*
D78*
X239016Y597280D02*
D03*
X237441Y600075D02*
D03*
X234291D02*
D03*
X232717Y597280D02*
D03*
X231142Y600075D02*
D03*
X229567Y597280D02*
D03*
X226417D02*
D03*
X224843Y600075D02*
D03*
X223268Y597280D02*
D03*
X221693Y600075D02*
D03*
X218543D02*
D03*
X216969Y597280D02*
D03*
X220118D02*
D03*
X235866D02*
D03*
D79*
X244803Y601807D02*
D03*
X211181D02*
D03*
Y620429D02*
D03*
X244803D02*
D03*
D80*
X254468Y515650D02*
D03*
X244468D02*
D03*
X234469D02*
D03*
X224468D02*
D03*
X214469D02*
D03*
X204468D02*
D03*
X194468D02*
D03*
X184468D02*
D03*
X174469D02*
D03*
X164469D02*
D03*
X154469D02*
D03*
X144468D02*
D03*
X134468D02*
D03*
X124469D02*
D03*
X114469D02*
D03*
X104469D02*
D03*
X94468D02*
D03*
X84469D02*
D03*
X74468D02*
D03*
D81*
X64468D02*
D03*
D82*
X275138Y518169D02*
D03*
X43799D02*
D03*
Y363130D02*
D03*
X275138D02*
D03*
D83*
X262819Y57378D02*
D03*
D84*
X252819D02*
D03*
D85*
X250654Y433213D02*
D03*
Y437543D02*
D03*
X254984Y433213D02*
D03*
Y437543D02*
D03*
M02*
