G04*
G04 #@! TF.GenerationSoftware,Altium Limited,CircuitStudio,1.5.2 (30)*
G04*
G04 Layer_Physical_Order=1*
G04 Layer_Color=11767835*
%FSLAX25Y25*%
%MOIN*%
G70*
G01*
G75*
%ADD10C,0.01000*%
%ADD11C,0.00394*%
%ADD12C,0.02000*%
%ADD13C,0.00800*%
%ADD14C,0.03937*%
%ADD15R,0.09646X0.09646*%
%ADD16O,0.03543X0.00984*%
%ADD17O,0.00984X0.03543*%
%ADD18R,0.20276X0.03937*%
%ADD19R,0.02756X0.03543*%
%ADD20R,0.03937X0.03543*%
%ADD21R,0.03543X0.02756*%
%ADD22R,0.04724X0.05512*%
G04:AMPARAMS|DCode=23|XSize=21.65mil|YSize=49.21mil|CornerRadius=1.95mil|HoleSize=0mil|Usage=FLASHONLY|Rotation=90.000|XOffset=0mil|YOffset=0mil|HoleType=Round|Shape=RoundedRectangle|*
%AMROUNDEDRECTD23*
21,1,0.02165,0.04532,0,0,90.0*
21,1,0.01776,0.04921,0,0,90.0*
1,1,0.00390,0.02266,0.00888*
1,1,0.00390,0.02266,-0.00888*
1,1,0.00390,-0.02266,-0.00888*
1,1,0.00390,-0.02266,0.00888*
%
%ADD23ROUNDEDRECTD23*%
G04:AMPARAMS|DCode=24|XSize=25.59mil|YSize=64.96mil|CornerRadius=1.92mil|HoleSize=0mil|Usage=FLASHONLY|Rotation=270.000|XOffset=0mil|YOffset=0mil|HoleType=Round|Shape=RoundedRectangle|*
%AMROUNDEDRECTD24*
21,1,0.02559,0.06112,0,0,270.0*
21,1,0.02175,0.06496,0,0,270.0*
1,1,0.00384,-0.03056,-0.01088*
1,1,0.00384,-0.03056,0.01088*
1,1,0.00384,0.03056,0.01088*
1,1,0.00384,0.03056,-0.01088*
%
%ADD24ROUNDEDRECTD24*%
%ADD25O,0.01969X0.04724*%
%ADD26R,0.01969X0.04724*%
%ADD27R,0.04724X0.01969*%
%ADD28R,0.04134X0.03740*%
G04:AMPARAMS|DCode=29|XSize=39.37mil|YSize=39.37mil|CornerRadius=1.97mil|HoleSize=0mil|Usage=FLASHONLY|Rotation=0.000|XOffset=0mil|YOffset=0mil|HoleType=Round|Shape=RoundedRectangle|*
%AMROUNDEDRECTD29*
21,1,0.03937,0.03543,0,0,0.0*
21,1,0.03543,0.03937,0,0,0.0*
1,1,0.00394,0.01772,-0.01772*
1,1,0.00394,-0.01772,-0.01772*
1,1,0.00394,-0.01772,0.01772*
1,1,0.00394,0.01772,0.01772*
%
%ADD29ROUNDEDRECTD29*%
G04:AMPARAMS|DCode=30|XSize=23.62mil|YSize=39.37mil|CornerRadius=2.01mil|HoleSize=0mil|Usage=FLASHONLY|Rotation=0.000|XOffset=0mil|YOffset=0mil|HoleType=Round|Shape=RoundedRectangle|*
%AMROUNDEDRECTD30*
21,1,0.02362,0.03535,0,0,0.0*
21,1,0.01961,0.03937,0,0,0.0*
1,1,0.00402,0.00980,-0.01768*
1,1,0.00402,-0.00980,-0.01768*
1,1,0.00402,-0.00980,0.01768*
1,1,0.00402,0.00980,0.01768*
%
%ADD30ROUNDEDRECTD30*%
%ADD31R,0.02303X0.08559*%
G04:AMPARAMS|DCode=32|XSize=85.59mil|YSize=23.03mil|CornerRadius=11.51mil|HoleSize=0mil|Usage=FLASHONLY|Rotation=270.000|XOffset=0mil|YOffset=0mil|HoleType=Round|Shape=RoundedRectangle|*
%AMROUNDEDRECTD32*
21,1,0.08559,0.00000,0,0,270.0*
21,1,0.06257,0.02303,0,0,270.0*
1,1,0.02303,0.00000,-0.03128*
1,1,0.02303,0.00000,0.03128*
1,1,0.02303,0.00000,0.03128*
1,1,0.02303,0.00000,-0.03128*
%
%ADD32ROUNDEDRECTD32*%
%ADD33R,0.10984X0.02913*%
%ADD34R,0.02362X0.07480*%
%ADD35R,0.08268X0.11024*%
%ADD36R,0.03543X0.03937*%
G04:AMPARAMS|DCode=37|XSize=9.84mil|YSize=23.62mil|CornerRadius=1.97mil|HoleSize=0mil|Usage=FLASHONLY|Rotation=270.000|XOffset=0mil|YOffset=0mil|HoleType=Round|Shape=RoundedRectangle|*
%AMROUNDEDRECTD37*
21,1,0.00984,0.01969,0,0,270.0*
21,1,0.00591,0.02362,0,0,270.0*
1,1,0.00394,-0.00984,-0.00295*
1,1,0.00394,-0.00984,0.00295*
1,1,0.00394,0.00984,0.00295*
1,1,0.00394,0.00984,-0.00295*
%
%ADD37ROUNDEDRECTD37*%
%ADD38R,0.01181X0.03543*%
%ADD39C,0.01600*%
%ADD40C,0.07087*%
%ADD41R,0.07087X0.07087*%
%ADD42C,0.09449*%
%ADD43R,0.07874X0.07874*%
%ADD44C,0.07874*%
%ADD45O,0.03937X0.06299*%
%ADD46C,0.02362*%
%ADD47C,0.02050*%
%ADD48C,0.01969*%
%ADD49C,0.02000*%
G36*
X282000Y469500D02*
Y469500D01*
X282000D01*
X282457Y469397D01*
X282721Y469221D01*
X282942Y468890D01*
X283020Y468500D01*
X283000Y467000D01*
X282980D01*
X283058Y466610D01*
X283103Y466543D01*
X283279Y466279D01*
X283610Y466058D01*
X284000Y465980D01*
X284643Y465993D01*
X285000Y465643D01*
Y464000D01*
X284000D01*
Y464020D01*
X283610Y463942D01*
X283543Y463897D01*
X283279Y463721D01*
X283058Y463390D01*
X282980Y463000D01*
X283000Y461500D01*
X283000Y461500D01*
X283000D01*
X282897Y461043D01*
X282721Y460779D01*
X282390Y460558D01*
X282000Y460480D01*
X280000Y460500D01*
Y460500D01*
X280000D01*
X279543Y460603D01*
X279363Y460723D01*
X279223Y460863D01*
X279058Y461110D01*
X278980Y461500D01*
X279000Y468500D01*
X279000D01*
Y468500D01*
X279103Y468957D01*
X279279Y469221D01*
X279610Y469442D01*
X280000Y469520D01*
X282000Y469500D01*
D02*
G37*
G36*
X243369Y483324D02*
Y471622D01*
X241816D01*
X241744Y471795D01*
X241332Y472332D01*
X240795Y472744D01*
X240171Y473002D01*
X239500Y473091D01*
X238829Y473002D01*
X238205Y472744D01*
X237668Y472332D01*
X237256Y471795D01*
X236998Y471171D01*
X236909Y470500D01*
X236998Y469830D01*
X237256Y469205D01*
X237668Y468668D01*
X238205Y468256D01*
X238829Y467998D01*
X239500Y467909D01*
X240171Y467998D01*
X240795Y468256D01*
X241332Y468668D01*
X241744Y469205D01*
X241816Y469378D01*
X243369D01*
Y462372D01*
X242778D01*
Y457628D01*
X243879D01*
Y455500D01*
X243878Y455500D01*
X243942Y455178D01*
X243749Y454819D01*
X243626Y454676D01*
X241608Y454659D01*
X241293Y454972D01*
X241238Y455151D01*
Y455813D01*
X240519D01*
X240441Y455828D01*
X240362Y455813D01*
X220638D01*
X220559Y455828D01*
X220480Y455813D01*
X219762D01*
Y455094D01*
X219747Y455016D01*
Y446354D01*
X219808Y446043D01*
X219985Y445780D01*
X220248Y445604D01*
X220559Y445542D01*
Y445511D01*
X222452Y445697D01*
X224272Y446249D01*
X225949Y447146D01*
X227419Y448352D01*
X228626Y449823D01*
X229082Y450676D01*
X231918D01*
X232374Y449823D01*
X233581Y448352D01*
X235051Y447146D01*
X236728Y446249D01*
X238548Y445697D01*
X240441Y445511D01*
Y445542D01*
X240752Y445604D01*
X241015Y445780D01*
X241192Y446043D01*
X241253Y446354D01*
Y446851D01*
X244000D01*
X244010Y446855D01*
X244092Y446830D01*
X244122Y446846D01*
X244156Y446839D01*
X244712Y446950D01*
X244819Y447022D01*
X244946Y447047D01*
X245378Y447336D01*
X245646Y447263D01*
X245871Y447136D01*
X245879Y447128D01*
Y447000D01*
X245878Y447000D01*
X245964Y446571D01*
X246207Y446207D01*
X247957Y444457D01*
Y441677D01*
X247965Y441637D01*
Y440472D01*
X247813Y440245D01*
X247755Y440187D01*
X247528Y440035D01*
X246363D01*
X246323Y440043D01*
X244543D01*
X244122Y440465D01*
Y441295D01*
X244172Y441328D01*
X244531Y441866D01*
X244657Y442500D01*
X244531Y443134D01*
X244172Y443672D01*
X243634Y444031D01*
X243000Y444157D01*
X242366Y444031D01*
X241828Y443672D01*
X241469Y443134D01*
X241343Y442500D01*
X241469Y441866D01*
X241828Y441328D01*
X241879Y441295D01*
Y440000D01*
X241878Y440000D01*
X241964Y439571D01*
X242207Y439207D01*
X242840Y438574D01*
X242633Y438074D01*
X241253D01*
Y440646D01*
X241192Y440957D01*
X241015Y441220D01*
X240752Y441396D01*
X240441Y441458D01*
Y441489D01*
X238548Y441303D01*
X236728Y440751D01*
X235051Y439854D01*
X233581Y438648D01*
X232374Y437178D01*
X231918Y436324D01*
X229082D01*
X228626Y437178D01*
X227419Y438648D01*
X225949Y439854D01*
X224272Y440751D01*
X222452Y441303D01*
X220559Y441489D01*
Y441458D01*
X220248Y441396D01*
X219985Y441220D01*
X219808Y440957D01*
X219747Y440646D01*
Y431984D01*
X219762Y431906D01*
Y431187D01*
X220480D01*
X220559Y431172D01*
X220638Y431187D01*
X240362D01*
X240441Y431172D01*
X240519Y431187D01*
X241238D01*
Y431906D01*
X241253Y431984D01*
Y433453D01*
Y433756D01*
Y435831D01*
X243259D01*
X243489Y435484D01*
X246323D01*
Y434484D01*
X243621D01*
X243638Y434402D01*
X243968Y433909D01*
X244050Y433495D01*
X244015Y433442D01*
X243930Y433016D01*
X244015Y432590D01*
X244256Y432228D01*
Y431835D01*
X244015Y431473D01*
X243930Y431047D01*
X244015Y430621D01*
X244050Y430568D01*
X243968Y430155D01*
X243638Y429661D01*
X243621Y429579D01*
X246323D01*
Y429079D01*
X246823D01*
Y427557D01*
X247602D01*
X247965Y427120D01*
Y426363D01*
X247957Y426323D01*
Y425508D01*
X247571Y425122D01*
X245675D01*
X245654Y425153D01*
X245124Y425507D01*
X244500Y425631D01*
X243876Y425507D01*
X243347Y425153D01*
X242993Y424624D01*
X242869Y424000D01*
X242993Y423376D01*
X243347Y422847D01*
X243876Y422493D01*
X244500Y422369D01*
X245124Y422493D01*
X245654Y422847D01*
X245675Y422878D01*
X248035D01*
X248035Y422878D01*
X248465Y422964D01*
X248829Y423207D01*
X249746Y424125D01*
X250089Y424212D01*
X250410Y424156D01*
X250621Y424015D01*
X251047Y423930D01*
X251394Y423999D01*
X251658Y423874D01*
X251894Y423694D01*
Y420372D01*
X250278D01*
Y415628D01*
X250278D01*
X250278Y415372D01*
X250278D01*
Y410628D01*
X250625D01*
Y400471D01*
X212500Y400451D01*
X211525Y400645D01*
X210698Y401198D01*
X210145Y402025D01*
X209961Y402952D01*
X210000Y403000D01*
X210000D01*
X209951Y470000D01*
X210145Y470975D01*
X210698Y471802D01*
X211525Y472355D01*
X212452Y472539D01*
X212500Y472500D01*
Y472500D01*
X212500Y472500D01*
X227500Y472451D01*
X228475Y472645D01*
X229302Y473198D01*
X229855Y474024D01*
X230049Y475000D01*
X230000D01*
X229972Y492015D01*
X230326Y492369D01*
X234324D01*
X243369Y483324D01*
D02*
G37*
G36*
X264500Y469500D02*
Y469500D01*
X264500D01*
X264957Y469397D01*
X265221Y469221D01*
X265442Y468890D01*
X265520Y468500D01*
X265500Y460500D01*
Y459500D01*
X264520D01*
X264442Y459890D01*
X264221Y460221D01*
X263890Y460442D01*
X263500Y460520D01*
X262500Y460500D01*
X262500Y460500D01*
Y460500D01*
X262043Y460603D01*
X261779Y460779D01*
X261558Y461110D01*
X261480Y461500D01*
X261500Y468500D01*
X261500D01*
Y468500D01*
X261603Y468957D01*
X261779Y469221D01*
X262110Y469442D01*
X262500Y469520D01*
X264500Y469500D01*
D02*
G37*
G36*
X267476Y382355D02*
X268302Y381802D01*
X268855Y380976D01*
X269039Y380048D01*
X269000Y380000D01*
X269000D01*
X269000Y380000D01*
X268971Y362500D01*
X269087Y361324D01*
X269430Y360193D01*
X269987Y359151D01*
X270737Y358237D01*
X271651Y357487D01*
X272693Y356930D01*
X273824Y356587D01*
X275000Y356471D01*
Y356500D01*
X302500Y356543D01*
X303805Y356371D01*
X305022Y355868D01*
X306066Y355066D01*
X306868Y354022D01*
X307371Y352805D01*
X307538Y351543D01*
X307500Y351500D01*
X307500D01*
X307543Y47500D01*
X307371Y46195D01*
X306868Y44978D01*
X306066Y43934D01*
X305022Y43132D01*
X303805Y42629D01*
X302543Y42463D01*
X302500Y42500D01*
Y42500D01*
X265500Y42457D01*
X264195Y42629D01*
X262978Y43132D01*
X261934Y43934D01*
X261133Y44978D01*
X260629Y46195D01*
X260462Y47457D01*
X260500Y47500D01*
X260500D01*
X260500Y47500D01*
X260503Y51457D01*
X263500D01*
Y56000D01*
Y60543D01*
X260863D01*
X260509Y60897D01*
X260516Y70130D01*
X261650D01*
Y73000D01*
Y75870D01*
X260874D01*
X260520Y76224D01*
X260539Y102000D01*
X260384Y103568D01*
X259927Y105076D01*
X259184Y106466D01*
X258184Y107684D01*
X256966Y108684D01*
X255576Y109427D01*
X254068Y109884D01*
X252500Y110039D01*
Y110039D01*
X252419Y109968D01*
X251195Y110129D01*
X249978Y110633D01*
X248934Y111434D01*
X248132Y112478D01*
X247629Y113695D01*
X247463Y114957D01*
X247500Y115000D01*
X247500D01*
X247451Y380000D01*
X247645Y380976D01*
X248198Y381802D01*
X249025Y382355D01*
X249952Y382539D01*
X250000Y382500D01*
Y382500D01*
X266500Y382549D01*
X267476Y382355D01*
D02*
G37*
G36*
X221879Y549465D02*
X214535Y542122D01*
X58500D01*
X58071Y542036D01*
X57707Y541793D01*
X57707Y541793D01*
X51207Y535293D01*
X50964Y534929D01*
X50878Y534500D01*
X50878Y534500D01*
Y500998D01*
X50878Y500998D01*
X50964Y500569D01*
X51207Y500205D01*
X53378Y498033D01*
Y458519D01*
X53201Y458092D01*
Y458092D01*
X52747Y457500D01*
X51241D01*
X51186Y457780D01*
X50943Y458144D01*
X50943Y458144D01*
X47500Y461586D01*
Y465658D01*
X48000Y465943D01*
X48500Y465843D01*
X49134Y465969D01*
X49672Y466328D01*
X50031Y466866D01*
X50157Y467500D01*
X50031Y468134D01*
X49672Y468672D01*
X49622Y468705D01*
Y495898D01*
X49977Y495969D01*
X50515Y496328D01*
X50874Y496866D01*
X51000Y497500D01*
X50874Y498134D01*
X50515Y498672D01*
X49977Y499031D01*
X49343Y499157D01*
X48709Y499031D01*
X48172Y498672D01*
X48000Y498415D01*
X47500Y498566D01*
Y514298D01*
X47597Y514372D01*
X48450Y515484D01*
X48987Y516779D01*
X49170Y518169D01*
X48987Y519559D01*
X48450Y520855D01*
X47597Y521967D01*
X47500Y522041D01*
Y535000D01*
Y537500D01*
X57500Y547500D01*
X210000D01*
X215000Y552500D01*
Y557500D01*
X217500Y560000D01*
X221879D01*
Y549465D01*
D02*
G37*
G36*
X63976Y337603D02*
X64802Y337050D01*
X65355Y336224D01*
X65539Y335296D01*
X65500Y335248D01*
X65500D01*
X65549Y315248D01*
X65355Y314273D01*
X64802Y313446D01*
X63976Y312893D01*
X63048Y312709D01*
X63000Y312748D01*
Y312748D01*
X55000Y312699D01*
X54025Y312893D01*
X53198Y313446D01*
X52645Y314273D01*
X52461Y315200D01*
X52500Y315248D01*
X52500D01*
X52484Y321721D01*
X52837Y322075D01*
X53642D01*
Y319362D01*
X58276D01*
Y325874D01*
Y332386D01*
X53642D01*
Y329673D01*
X52465D01*
X52451Y335248D01*
X52645Y336224D01*
X53198Y337050D01*
X54025Y337603D01*
X54952Y337788D01*
X55000Y337748D01*
Y337748D01*
X63000Y337797D01*
X63976Y337603D01*
D02*
G37*
G36*
X305976Y507355D02*
X306802Y506802D01*
X307355Y505975D01*
X307539Y505048D01*
X307500Y505000D01*
X307500D01*
X307549Y403000D01*
X307549Y403000D01*
X307355Y402025D01*
X306802Y401198D01*
X305976Y400645D01*
X305481Y400547D01*
X305000Y400500D01*
Y400500D01*
X304485Y400500D01*
X304131Y400853D01*
Y460000D01*
X304007Y460624D01*
X303654Y461154D01*
X298654Y466153D01*
X298124Y466507D01*
X297500Y466631D01*
X285000D01*
X284775Y466587D01*
X284637Y466642D01*
X284633Y466641D01*
X284630Y466642D01*
X284058Y466631D01*
X283965Y466649D01*
X283649Y466992D01*
X283669Y468492D01*
X283643Y468557D01*
X283657Y468627D01*
X283579Y469017D01*
X283507Y469124D01*
X283482Y469251D01*
X283261Y469582D01*
X283154Y469654D01*
X283082Y469761D01*
X282818Y469937D01*
X282699Y469961D01*
X282600Y470031D01*
X282143Y470134D01*
X282072Y470121D01*
X282006Y470149D01*
X280006Y470169D01*
X279942Y470143D01*
X279873Y470156D01*
X279483Y470079D01*
X279376Y470007D01*
X279249Y469982D01*
X279121Y469897D01*
X278622Y470148D01*
Y496500D01*
X278622Y496500D01*
X278536Y496929D01*
X278293Y497293D01*
X278293Y497293D01*
X272293Y503293D01*
X271929Y503536D01*
X271500Y503622D01*
X271500Y503622D01*
X258705D01*
X258672Y503672D01*
X258134Y504031D01*
X257500Y504157D01*
X256866Y504031D01*
X256328Y503672D01*
X255969Y503134D01*
X255843Y502500D01*
X255960Y501915D01*
X255791Y501709D01*
X255586Y501540D01*
X255000Y501657D01*
X254366Y501531D01*
X253828Y501172D01*
X253469Y500634D01*
X253343Y500000D01*
X253469Y499366D01*
X253828Y498828D01*
X254366Y498469D01*
X255000Y498343D01*
X255586Y498460D01*
X255791Y498291D01*
X255960Y498085D01*
X255843Y497500D01*
X255969Y496866D01*
X256328Y496328D01*
X256866Y495969D01*
X257500Y495843D01*
X258134Y495969D01*
X258672Y496328D01*
X258705Y496378D01*
X262035D01*
X266378Y492035D01*
Y469558D01*
X265879Y469406D01*
X265761Y469582D01*
X265653Y469654D01*
X265582Y469761D01*
X265318Y469937D01*
X265199Y469961D01*
X265100Y470031D01*
X264643Y470134D01*
X264572Y470121D01*
X264506Y470149D01*
X262506Y470169D01*
X262442Y470143D01*
X262373Y470156D01*
X261983Y470079D01*
X261876Y470007D01*
X261749Y469982D01*
X261418Y469761D01*
X261347Y469654D01*
X261239Y469582D01*
X261063Y469318D01*
X261039Y469199D01*
X260969Y469100D01*
X260866Y468643D01*
X260879Y468570D01*
X260851Y468502D01*
X260848Y467772D01*
X259256D01*
Y465000D01*
X258756D01*
Y464500D01*
X256378D01*
Y462228D01*
X256378D01*
Y460500D01*
X258756D01*
Y459500D01*
X256378D01*
Y457622D01*
X255719D01*
X255222Y457628D01*
Y462372D01*
X255222D01*
X255222Y462628D01*
X255222D01*
Y467372D01*
X255131D01*
Y468324D01*
X262676Y475869D01*
X262872D01*
X263000Y475843D01*
X263634Y475969D01*
X264172Y476328D01*
X264531Y476866D01*
X264657Y477500D01*
X264531Y478134D01*
X264172Y478672D01*
X263634Y479031D01*
X263000Y479157D01*
X262872Y479131D01*
X262000D01*
X262000Y479131D01*
X261376Y479007D01*
X260846Y478653D01*
X252346Y470154D01*
X251993Y469624D01*
X251869Y469000D01*
Y467372D01*
X251266D01*
Y462628D01*
X251266D01*
X251266Y462372D01*
X251266D01*
Y457689D01*
X251141Y457565D01*
X250947Y457588D01*
X250599Y457789D01*
X250531Y458134D01*
X250172Y458672D01*
X250121Y458705D01*
Y479628D01*
X251222D01*
Y484372D01*
X250875D01*
Y487880D01*
X251375Y488050D01*
X251668Y487668D01*
X252205Y487256D01*
X252830Y486998D01*
X253500Y486909D01*
X254170Y486998D01*
X254795Y487256D01*
X255332Y487668D01*
X255744Y488205D01*
X256002Y488830D01*
X256091Y489500D01*
X256002Y490170D01*
X255744Y490795D01*
X255332Y491332D01*
X254795Y491744D01*
X254170Y492002D01*
X253500Y492091D01*
X252830Y492002D01*
X252205Y491744D01*
X251668Y491332D01*
X251353Y490920D01*
X250898Y490978D01*
X250824Y491016D01*
X250751Y491380D01*
X250398Y491910D01*
X247153Y495154D01*
X246624Y495507D01*
X246000Y495631D01*
X245628D01*
X245500Y495657D01*
X244866Y495531D01*
X244328Y495172D01*
X243969Y494634D01*
X243843Y494000D01*
X243969Y493366D01*
X244328Y492828D01*
X244866Y492469D01*
X245312Y492381D01*
X247613Y490080D01*
Y489500D01*
Y484372D01*
X247266D01*
Y479628D01*
X247879D01*
Y458705D01*
X247828Y458672D01*
X247469Y458134D01*
X247343Y457500D01*
X247469Y456866D01*
X247828Y456328D01*
X247879Y456295D01*
Y454915D01*
X247378Y454708D01*
X246122Y455965D01*
Y457628D01*
X246734D01*
Y462372D01*
X246631D01*
Y470500D01*
Y484000D01*
X246631Y484000D01*
X246507Y484624D01*
X246153Y485153D01*
X236154Y495154D01*
X235624Y495507D01*
X235000Y495631D01*
X229966D01*
X229951Y505000D01*
X230145Y505975D01*
X230698Y506802D01*
X231524Y507355D01*
X232452Y507539D01*
X232500Y507500D01*
Y507500D01*
X288015Y507538D01*
X288369Y507184D01*
Y487500D01*
Y485676D01*
X281437Y478744D01*
X281328Y478672D01*
X280969Y478134D01*
X280843Y477500D01*
X280969Y476866D01*
X281328Y476328D01*
X281866Y475969D01*
X282500Y475843D01*
X283134Y475969D01*
X283672Y476328D01*
X283744Y476437D01*
X291154Y483847D01*
X291507Y484376D01*
X291631Y485000D01*
Y486378D01*
X295184D01*
X295256Y486205D01*
X295668Y485668D01*
X296205Y485256D01*
X296830Y484998D01*
X297500Y484909D01*
X298170Y484998D01*
X298795Y485256D01*
X299332Y485668D01*
X299744Y486205D01*
X300002Y486830D01*
X300091Y487500D01*
X300002Y488170D01*
X299744Y488795D01*
X299332Y489332D01*
X298795Y489744D01*
X298170Y490002D01*
X297500Y490091D01*
X296830Y490002D01*
X296205Y489744D01*
X295668Y489332D01*
X295256Y488795D01*
X295184Y488622D01*
X291631D01*
Y507540D01*
X305000Y507549D01*
X305976Y507355D01*
D02*
G37*
G36*
X22975Y338855D02*
X23802Y338302D01*
X24355Y337475D01*
X24539Y336548D01*
X24500Y336500D01*
X24500D01*
X24516Y330027D01*
X24163Y329673D01*
X23358D01*
Y332386D01*
X18724D01*
Y325874D01*
Y319362D01*
X23358D01*
Y322075D01*
X24535D01*
X24549Y316500D01*
X24355Y315525D01*
X23802Y314698D01*
X22975Y314145D01*
X22048Y313961D01*
X22000Y314000D01*
Y314000D01*
X14000Y313951D01*
X13025Y314145D01*
X12198Y314698D01*
X11645Y315525D01*
X11461Y316452D01*
X11500Y316500D01*
X11500D01*
X11451Y336500D01*
X11645Y337475D01*
X12198Y338302D01*
X13025Y338855D01*
X13952Y339039D01*
X14000Y339000D01*
Y339000D01*
X22000Y339049D01*
X22975Y338855D01*
D02*
G37*
G36*
X276378Y496035D02*
Y474135D01*
X275879Y473867D01*
X275634Y474031D01*
X275000Y474157D01*
X274366Y474031D01*
X274121Y473867D01*
X273622Y474135D01*
Y492500D01*
X273536Y492929D01*
X273293Y493293D01*
X273293Y493293D01*
X265793Y500793D01*
X265665Y500878D01*
X265817Y501378D01*
X271035D01*
X276378Y496035D01*
D02*
G37*
G36*
X176878Y479035D02*
Y367000D01*
X176878Y367000D01*
X176964Y366571D01*
X177207Y366207D01*
X182207Y361207D01*
X182207Y361207D01*
X182571Y360964D01*
X183000Y360878D01*
X183000Y360878D01*
X246500D01*
Y356000D01*
X177500Y355957D01*
X177500Y355957D01*
X176195Y356129D01*
X174978Y356632D01*
X173934Y357434D01*
X173133Y358478D01*
X172629Y359695D01*
X172462Y360957D01*
X172500Y361000D01*
X172500D01*
X172500Y361000D01*
X172543Y473500D01*
X172371Y474805D01*
X171868Y476022D01*
X171066Y477066D01*
X170022Y477868D01*
X168805Y478371D01*
X167500Y478543D01*
Y478543D01*
X167457Y478500D01*
X153500Y478547D01*
X153500Y478547D01*
X152064Y478358D01*
X150726Y477804D01*
X149577Y476923D01*
X148696Y475774D01*
X148142Y474436D01*
X148017Y473492D01*
X148017D01*
X148017Y473492D01*
X148015Y473474D01*
X147952Y473000D01*
X147953Y473000D01*
X148001Y472519D01*
X148048Y446500D01*
X147855Y444540D01*
X147283Y442655D01*
X146355Y440917D01*
X145105Y439395D01*
X143583Y438145D01*
X141845Y437217D01*
X139960Y436645D01*
X138048Y436456D01*
X138000Y436500D01*
Y436500D01*
X110000D01*
Y440488D01*
X110083Y440548D01*
X110763Y440427D01*
X110828Y440328D01*
X111366Y439969D01*
X112000Y439843D01*
X112634Y439969D01*
X113172Y440328D01*
X113205Y440378D01*
X139000D01*
X139000Y440378D01*
X139429Y440464D01*
X139793Y440707D01*
X144793Y445707D01*
X144793Y445707D01*
X145036Y446071D01*
X145122Y446500D01*
X145122Y446500D01*
Y479535D01*
X148465Y482878D01*
X173035D01*
X176878Y479035D01*
D02*
G37*
G36*
X240441Y431984D02*
X231604Y432405D01*
X232100Y434700D01*
X233100Y436700D01*
X235650Y439250D01*
X238400Y440500D01*
X240441Y440646D01*
Y431984D01*
D02*
G37*
G36*
X243476Y382855D02*
X244302Y382302D01*
X244855Y381475D01*
X245039Y380548D01*
X245000Y380500D01*
X245000D01*
X245049Y370500D01*
X244855Y369525D01*
X244302Y368698D01*
X243476Y368145D01*
X242548Y367961D01*
X242500Y368000D01*
Y368000D01*
X232500Y367951D01*
X231524Y368145D01*
X230698Y368698D01*
X230145Y369525D01*
X229961Y370452D01*
X230000Y370500D01*
X230000D01*
X229951Y380500D01*
X230145Y381475D01*
X230698Y382302D01*
X231524Y382855D01*
X232452Y383039D01*
X232500Y383000D01*
Y383000D01*
X242500Y383049D01*
X243476Y382855D01*
D02*
G37*
G36*
X222600Y440500D02*
X225350Y439250D01*
X227900Y436700D01*
X228900Y434700D01*
X229396Y432405D01*
X220559Y431984D01*
Y440646D01*
X222600Y440500D01*
D02*
G37*
G36*
X287528Y455386D02*
Y449350D01*
X287528Y449350D01*
X287613Y448921D01*
X287857Y448557D01*
X293879Y442535D01*
Y417965D01*
X289535Y413622D01*
X264465D01*
X260043Y418043D01*
Y426323D01*
X260035Y426363D01*
Y427528D01*
X260187Y427755D01*
X260245Y427813D01*
X260472Y427965D01*
X261637D01*
X261677Y427957D01*
X279438D01*
X279931Y427943D01*
Y423199D01*
X285068D01*
Y427943D01*
X283622D01*
Y429000D01*
Y429900D01*
X285068D01*
Y434643D01*
X279931D01*
X279622Y435015D01*
Y435828D01*
X279931Y436199D01*
X285068D01*
Y440942D01*
X283622D01*
Y454000D01*
X283641D01*
X283478Y454819D01*
X283014Y455514D01*
X282319Y455978D01*
X282298Y455982D01*
X282172Y456172D01*
X281862Y456378D01*
X282014Y456878D01*
X286035D01*
X287528Y455386D01*
D02*
G37*
G36*
X300869Y459324D02*
Y400676D01*
X300691Y400498D01*
X254241Y400473D01*
X253887Y400827D01*
Y410628D01*
X254234D01*
Y413527D01*
X254696Y413718D01*
X259207Y409207D01*
X259207Y409207D01*
X259571Y408964D01*
X260000Y408878D01*
X260000Y408879D01*
X292500D01*
X292500Y408878D01*
X292929Y408964D01*
X293293Y409207D01*
X298293Y414207D01*
X298293Y414207D01*
X298536Y414571D01*
X298622Y415000D01*
X298622Y415000D01*
Y456500D01*
X298536Y456929D01*
X298293Y457293D01*
X298293Y457293D01*
X296645Y458941D01*
X296657Y459000D01*
X296531Y459634D01*
X296172Y460172D01*
X295634Y460531D01*
X295000Y460657D01*
X294366Y460531D01*
X293828Y460172D01*
X293469Y459634D01*
X293343Y459000D01*
X293469Y458366D01*
X293828Y457828D01*
X294366Y457469D01*
X295000Y457343D01*
X295059Y457355D01*
X296378Y456035D01*
Y443817D01*
X295879Y443665D01*
X295793Y443793D01*
X295793Y443793D01*
X289771Y449815D01*
Y455850D01*
X289771Y455850D01*
X289686Y456280D01*
X289443Y456643D01*
X289443Y456643D01*
X287293Y458793D01*
X286929Y459036D01*
X286500Y459122D01*
X286500Y459122D01*
X281100D01*
X280929Y459341D01*
X281176Y459839D01*
X281994Y459831D01*
X282058Y459857D01*
X282127Y459843D01*
X282517Y459921D01*
X282624Y459993D01*
X282751Y460018D01*
X283082Y460239D01*
X283154Y460347D01*
X283261Y460418D01*
X283437Y460682D01*
X283461Y460801D01*
X283531Y460900D01*
X283634Y461357D01*
X283621Y461431D01*
X283649Y461500D01*
X283648Y461504D01*
X283649Y461509D01*
X283631Y462940D01*
X283651Y463040D01*
X284000Y463351D01*
X285000D01*
X285044Y463369D01*
X296824D01*
X300869Y459324D01*
D02*
G37*
G36*
X254585Y453913D02*
X255081Y453581D01*
X255413Y453085D01*
X255529Y452500D01*
X255500Y447000D01*
X254541D01*
X254383Y447383D01*
X254000Y447541D01*
Y447471D01*
X253415Y447587D01*
X252919Y447919D01*
X252587Y448415D01*
X252471Y449000D01*
X252500Y452500D01*
X252471D01*
X252587Y453085D01*
X252919Y453581D01*
X253415Y453913D01*
X254000Y454029D01*
X254585Y453913D01*
D02*
G37*
G36*
X240441Y454000D02*
X244000Y454029D01*
X244585Y453913D01*
X245081Y453581D01*
X245413Y453085D01*
X245524Y452529D01*
X245500Y452500D01*
X245500D01*
X245529Y449000D01*
X245413Y448415D01*
X245081Y447919D01*
X244585Y447587D01*
X244029Y447476D01*
X244000Y447500D01*
Y447500D01*
X240441D01*
Y446354D01*
X238400Y446500D01*
X235650Y447750D01*
X233100Y450300D01*
X232100Y452300D01*
X231604Y454595D01*
X240441Y455016D01*
Y454000D01*
D02*
G37*
G36*
X271378Y492035D02*
Y457500D01*
X271378Y457500D01*
X271464Y457071D01*
X271707Y456707D01*
X275378Y453035D01*
Y446569D01*
X274879Y446470D01*
X274744Y446795D01*
X274332Y447332D01*
X273795Y447744D01*
X273170Y448002D01*
X272500Y448091D01*
X271830Y448002D01*
X271205Y447744D01*
X270668Y447332D01*
X270256Y446795D01*
X270134Y446499D01*
X269634Y446599D01*
Y447500D01*
X267256D01*
Y448500D01*
X269634D01*
Y450772D01*
X267011D01*
X266820Y451234D01*
X268293Y452707D01*
X268293Y452707D01*
X268536Y453071D01*
X268622Y453500D01*
X268621Y453500D01*
Y492500D01*
X268622Y492500D01*
X268536Y492929D01*
X268293Y493293D01*
X268293Y493293D01*
X263293Y498293D01*
X263165Y498378D01*
X263317Y498878D01*
X264535D01*
X271378Y492035D01*
D02*
G37*
G36*
X275378Y444431D02*
Y436053D01*
X275125Y435851D01*
X274634Y436070D01*
Y438772D01*
X272756D01*
Y436000D01*
X272256D01*
Y435500D01*
X269878D01*
Y434137D01*
X268722D01*
Y438372D01*
X268538D01*
X268120Y438872D01*
X268134Y438969D01*
X268672Y439328D01*
X269031Y439866D01*
X269157Y440500D01*
X269145Y440559D01*
X271656Y443070D01*
X271830Y442998D01*
X272500Y442909D01*
X273170Y442998D01*
X273795Y443256D01*
X274332Y443668D01*
X274744Y444205D01*
X274879Y444530D01*
X275378Y444431D01*
D02*
G37*
G36*
X229396Y454595D02*
X228900Y452300D01*
X227900Y450300D01*
X225350Y447750D01*
X222600Y446500D01*
X220559Y446354D01*
Y455016D01*
X229396Y454595D01*
D02*
G37*
G36*
X175460Y489355D02*
X177345Y488784D01*
X179083Y487855D01*
X180605Y486605D01*
X181855Y485083D01*
X182783Y483345D01*
X183355Y481460D01*
X183544Y479548D01*
X183500Y479500D01*
X183500D01*
Y472500D01*
X183497Y372500D01*
X183535Y372113D01*
X183867Y371020D01*
X184405Y370013D01*
X185130Y369130D01*
X186013Y368405D01*
X187020Y367867D01*
X188113Y367535D01*
X189250Y367423D01*
X190000Y367497D01*
Y367497D01*
X190003Y367500D01*
X246500D01*
Y363122D01*
X183465D01*
X179122Y367465D01*
Y479500D01*
X179122Y479500D01*
X179036Y479929D01*
X178793Y480293D01*
X178793Y480293D01*
X174293Y484793D01*
X173929Y485036D01*
X173500Y485122D01*
X173500Y485122D01*
X148000D01*
X147571Y485036D01*
X147207Y484793D01*
X147207Y484793D01*
X143207Y480793D01*
X142964Y480429D01*
X142878Y480000D01*
X142878Y480000D01*
Y446965D01*
X138535Y442622D01*
X113205D01*
X113172Y442672D01*
X112634Y443031D01*
X112000Y443157D01*
X111366Y443031D01*
X110828Y442672D01*
X110763Y442573D01*
X110083Y442452D01*
X110000Y442512D01*
Y446646D01*
X110354Y446999D01*
X133000Y446952D01*
X133000D01*
X134436Y447142D01*
X135774Y447696D01*
X136923Y448577D01*
X137804Y449726D01*
X138358Y451064D01*
X138482Y452006D01*
X138482D01*
X138482Y452007D01*
X138482D01*
D01*
X138547Y452500D01*
X138547Y452500D01*
X138500Y452500D01*
X138452Y479500D01*
X138645Y481460D01*
X139216Y483345D01*
X140145Y485083D01*
X141395Y486605D01*
X142917Y487855D01*
X144655Y488784D01*
X146540Y489355D01*
X148452Y489544D01*
X148500Y489500D01*
Y489500D01*
X152500D01*
X173500Y489548D01*
X175460Y489355D01*
D02*
G37*
G36*
X253805Y107371D02*
X255022Y106868D01*
X256066Y106066D01*
X256868Y105022D01*
X257371Y103805D01*
X257538Y102543D01*
X257500Y102500D01*
X257500D01*
X257521Y76224D01*
X257167Y75870D01*
X256350D01*
Y73000D01*
Y70130D01*
X257525D01*
X257534Y59645D01*
X257034Y59399D01*
X256291Y59969D01*
X255186Y60426D01*
X254500Y60517D01*
Y56000D01*
Y51483D01*
X255186Y51574D01*
X256291Y52031D01*
X257039Y52605D01*
X257539Y52359D01*
X257543Y47500D01*
X257371Y46195D01*
X256868Y44978D01*
X256066Y43934D01*
X255022Y43132D01*
X253805Y42629D01*
X252543Y42463D01*
X252500Y42500D01*
Y42500D01*
X175500Y42457D01*
X175500Y42457D01*
X174195Y42629D01*
X172978Y43132D01*
X171934Y43934D01*
X171133Y44978D01*
X170629Y46195D01*
X170463Y47457D01*
X170500Y47500D01*
X170500D01*
X170500Y47500D01*
X170474Y80452D01*
X170472Y102614D01*
X170629Y103805D01*
X171133Y105022D01*
X171934Y106066D01*
X172978Y106868D01*
X174195Y107371D01*
X175457Y107537D01*
X175500Y107500D01*
Y107500D01*
X252500Y107543D01*
X253805Y107371D01*
D02*
G37*
G36*
X107029Y307500D02*
X106913Y306915D01*
X106581Y306419D01*
X106085Y306087D01*
X105500Y305971D01*
X104915Y306087D01*
X104419Y306419D01*
X104087Y306915D01*
X103976Y307471D01*
X104000Y307500D01*
X104000D01*
X103959Y314500D01*
X104074Y314779D01*
X104500Y314959D01*
X104500Y314959D01*
X104800Y315083D01*
X104800D01*
X104883Y315117D01*
X105041Y315500D01*
X105000Y315500D01*
Y316000D01*
X107000D01*
X107029Y307500D01*
D02*
G37*
G36*
X42976Y85103D02*
X43802Y84550D01*
X44355Y83723D01*
X44539Y82796D01*
X44500Y82748D01*
X44500D01*
X44519Y69527D01*
X44166Y69173D01*
X43079D01*
Y71886D01*
X38445D01*
Y65374D01*
Y58862D01*
X43079D01*
Y61575D01*
X44530D01*
X44549Y48248D01*
X44355Y47273D01*
X43802Y46446D01*
X42976Y45893D01*
X42048Y45709D01*
X42000Y45748D01*
Y45748D01*
X34000Y45699D01*
X33024Y45893D01*
X32198Y46446D01*
X31645Y47273D01*
X31461Y48200D01*
X31500Y48248D01*
X31500D01*
X31451Y82748D01*
X31645Y83723D01*
X32198Y84550D01*
X33024Y85103D01*
X33952Y85287D01*
X34000Y85248D01*
Y85248D01*
X42000Y85297D01*
X42976Y85103D01*
D02*
G37*
G36*
X303805Y624871D02*
X305022Y624368D01*
X306066Y623566D01*
X306868Y622522D01*
X307371Y621305D01*
X307538Y620043D01*
X307500Y620000D01*
X307500D01*
X307543Y587500D01*
Y587500D01*
X307371Y586195D01*
X306868Y584978D01*
X306066Y583934D01*
X305022Y583133D01*
X303805Y582629D01*
X302991Y582521D01*
X302500Y582500D01*
Y582500D01*
X239475Y582482D01*
X239122Y582835D01*
Y585000D01*
X239122Y585000D01*
X239036Y585429D01*
X238793Y585793D01*
X236439Y588147D01*
X236631Y588609D01*
X238409D01*
Y588209D01*
X239500D01*
Y590980D01*
X240000D01*
Y591480D01*
X241590D01*
Y593752D01*
X241591Y593752D01*
X241590D01*
X241630Y594236D01*
X241769Y594329D01*
X242251Y595051D01*
X242321Y595402D01*
X240197D01*
Y596402D01*
X242321D01*
X242251Y596753D01*
X241769Y597474D01*
X241048Y597956D01*
X240319Y598101D01*
X240438Y598697D01*
X240300Y599392D01*
X239906Y599981D01*
X239317Y600375D01*
X238622Y600513D01*
X237927Y600375D01*
X237338Y599981D01*
X237297Y599920D01*
X236797D01*
X236756Y599981D01*
X236167Y600375D01*
X235472Y600513D01*
X234777Y600375D01*
X234188Y599981D01*
X234148Y599920D01*
X233648D01*
X233607Y599981D01*
X233018Y600375D01*
X232323Y600513D01*
X231628Y600375D01*
X231039Y599981D01*
X230645Y599392D01*
X230507Y598697D01*
X230645Y598002D01*
X230294Y597627D01*
X230053Y597579D01*
X229464Y597186D01*
X229423Y597125D01*
X228923D01*
X228883Y597186D01*
X228293Y597579D01*
X228052Y597627D01*
X227701Y598002D01*
X227840Y598697D01*
X227701Y599392D01*
X227308Y599981D01*
X226719Y600375D01*
X226024Y600513D01*
X225329Y600375D01*
X224753Y599990D01*
X224628Y599920D01*
X224270D01*
X224144Y599990D01*
X223569Y600375D01*
X222874Y600513D01*
X222179Y600375D01*
X221604Y599990D01*
X221478Y599920D01*
X221120D01*
X220995Y599990D01*
X220419Y600375D01*
X219724Y600513D01*
X219029Y600375D01*
X218440Y599981D01*
X218047Y599392D01*
X217908Y598697D01*
X218027Y598101D01*
X217299Y597956D01*
X216577Y597474D01*
X216095Y596753D01*
X216025Y596402D01*
X218150D01*
Y595402D01*
X216025D01*
X216095Y595051D01*
X216577Y594329D01*
X216717Y594236D01*
X216756Y593752D01*
X216756Y593752D01*
X216756Y593752D01*
Y591480D01*
X218347D01*
Y590980D01*
X218847D01*
Y588209D01*
X219937D01*
Y588609D01*
X221869D01*
X222061Y588147D01*
X219207Y585293D01*
X218964Y584929D01*
X218878Y584500D01*
X218879Y584500D01*
Y582476D01*
X152500Y582457D01*
X152500D01*
X151195Y582629D01*
X149978Y583133D01*
X148934Y583934D01*
X148133Y584978D01*
X147629Y586195D01*
X147462Y587457D01*
X147500Y587500D01*
X147500D01*
X147457Y620000D01*
X147629Y621305D01*
X148133Y622522D01*
X148934Y623566D01*
X149978Y624368D01*
X151195Y624871D01*
X152457Y625037D01*
X152500Y625000D01*
Y625000D01*
X302500Y625043D01*
X303805Y624871D01*
D02*
G37*
G36*
X110976Y84855D02*
X111802Y84302D01*
X112355Y83476D01*
X112539Y82548D01*
X112500Y82500D01*
X112500D01*
X112549Y48000D01*
X112355Y47025D01*
X111802Y46198D01*
X110976Y45645D01*
X110048Y45461D01*
X110000Y45500D01*
Y45500D01*
X102000Y45451D01*
X101024Y45645D01*
X100198Y46198D01*
X99645Y47025D01*
X99461Y47952D01*
X99500Y48000D01*
X99500D01*
X99481Y61221D01*
X99835Y61575D01*
X100921D01*
Y58862D01*
X105555D01*
Y65374D01*
Y71886D01*
X100921D01*
Y69173D01*
X99470D01*
X99451Y82500D01*
X99645Y83476D01*
X100198Y84302D01*
X101024Y84855D01*
X101952Y85039D01*
X102000Y85000D01*
Y85000D01*
X110000Y85049D01*
X110976Y84855D01*
D02*
G37*
G36*
X85585Y313913D02*
X86081Y313581D01*
X86413Y313085D01*
X86524Y312529D01*
X86500Y312500D01*
X86500D01*
X86529Y307500D01*
X86413Y306915D01*
X86081Y306419D01*
X85585Y306087D01*
X85000Y305971D01*
X84415Y306087D01*
X83919Y306419D01*
X83587Y306915D01*
X83567Y307014D01*
X83500Y307500D01*
X83500D01*
X83500Y307500D01*
X83520Y308000D01*
X83442Y308390D01*
X83221Y308721D01*
X82957Y308897D01*
X82890Y308942D01*
X82500Y309020D01*
Y309000D01*
X81500D01*
Y310643D01*
X81857Y310993D01*
X82500Y310980D01*
X82890Y311058D01*
X83221Y311279D01*
X83397Y311543D01*
X83442Y311610D01*
X83520Y312000D01*
X83500D01*
X83471Y312500D01*
X83587Y313085D01*
X83919Y313581D01*
X84415Y313913D01*
X84538Y313937D01*
X85000Y314029D01*
X85000Y314029D01*
X85000Y314029D01*
X85585Y313913D01*
D02*
G37*
G36*
X232500Y557500D02*
Y547500D01*
X220000Y535000D01*
X62500D01*
X57500Y530000D01*
Y521500D01*
Y507000D01*
X60000Y504500D01*
Y489180D01*
X59969Y489134D01*
X59843Y488500D01*
X59969Y487866D01*
X60000Y487820D01*
Y460000D01*
X58032Y458032D01*
X57570Y458224D01*
Y499551D01*
X57570Y499551D01*
X57485Y499980D01*
X57242Y500344D01*
X57242Y500344D01*
X55122Y502465D01*
Y533535D01*
X59465Y537879D01*
X215760D01*
X215760Y537878D01*
X216189Y537964D01*
X216553Y538207D01*
X225793Y547447D01*
X225793Y547447D01*
X226036Y547811D01*
X226122Y548240D01*
X226121Y548240D01*
Y559035D01*
X226553Y559467D01*
X226796Y559831D01*
X226830Y560000D01*
X230000D01*
X232500Y557500D01*
D02*
G37*
%LPC*%
G36*
X268543Y60543D02*
X264500D01*
Y56500D01*
X268543D01*
Y60543D01*
D02*
G37*
G36*
X253500Y60517D02*
X252814Y60426D01*
X251709Y59969D01*
X250760Y59240D01*
X250031Y58291D01*
X249574Y57186D01*
X249483Y56500D01*
X253500D01*
Y60517D01*
D02*
G37*
G36*
X37445Y71886D02*
X32811D01*
Y65874D01*
X37445D01*
Y71886D01*
D02*
G37*
G36*
X111189Y64874D02*
X106555D01*
Y58862D01*
X111189D01*
Y64874D01*
D02*
G37*
G36*
X37445D02*
X32811D01*
Y58862D01*
X37445D01*
Y64874D01*
D02*
G37*
G36*
X253500Y55500D02*
X249483D01*
X249574Y54814D01*
X250031Y53709D01*
X250760Y52760D01*
X251709Y52031D01*
X252814Y51574D01*
X253500Y51483D01*
Y55500D01*
D02*
G37*
G36*
X249122Y412500D02*
X247244D01*
Y410228D01*
X249122D01*
Y412500D01*
D02*
G37*
G36*
X246244D02*
X244366D01*
Y410228D01*
X246244D01*
Y412500D01*
D02*
G37*
G36*
X249122Y417500D02*
X246744D01*
X244366D01*
Y415228D01*
X244366D01*
Y413500D01*
X246744D01*
X249122D01*
Y415772D01*
X249122D01*
Y417500D01*
D02*
G37*
G36*
X268543Y55500D02*
X264500D01*
Y51457D01*
X268543D01*
Y55500D01*
D02*
G37*
G36*
X282000Y418772D02*
X279532D01*
Y416500D01*
X282000D01*
Y418772D01*
D02*
G37*
G36*
X111189Y71886D02*
X106555D01*
Y65874D01*
X111189D01*
Y71886D01*
D02*
G37*
G36*
X17724Y325374D02*
X13091D01*
Y319362D01*
X17724D01*
Y325374D01*
D02*
G37*
G36*
X255350Y75870D02*
X252783D01*
Y73500D01*
X255350D01*
Y75870D01*
D02*
G37*
G36*
X265216D02*
X262650D01*
Y73500D01*
X265216D01*
Y75870D01*
D02*
G37*
G36*
X63910Y325374D02*
X59276D01*
Y319362D01*
X63910D01*
Y325374D01*
D02*
G37*
G36*
X17724Y332386D02*
X13091D01*
Y326374D01*
X17724D01*
Y332386D01*
D02*
G37*
G36*
X63910D02*
X59276D01*
Y326374D01*
X63910D01*
Y332386D01*
D02*
G37*
G36*
X238000Y378428D02*
Y376000D01*
X240428D01*
X240392Y376275D01*
X240093Y376997D01*
X239617Y377617D01*
X238997Y378093D01*
X238275Y378392D01*
X238000Y378428D01*
D02*
G37*
G36*
X265216Y72500D02*
X262650D01*
Y70130D01*
X265216D01*
Y72500D01*
D02*
G37*
G36*
X255350Y72500D02*
X252783D01*
Y70130D01*
X255350D01*
Y72500D01*
D02*
G37*
G36*
X237000Y375000D02*
X234572D01*
X234608Y374725D01*
X234907Y374003D01*
X235383Y373383D01*
X236003Y372907D01*
X236725Y372608D01*
X237000Y372572D01*
Y375000D01*
D02*
G37*
G36*
X240428D02*
X238000D01*
Y372572D01*
X238275Y372608D01*
X238997Y372907D01*
X239617Y373383D01*
X240093Y374003D01*
X240392Y374725D01*
X240428Y375000D01*
D02*
G37*
G36*
X237000Y378428D02*
X236725Y378392D01*
X236003Y378093D01*
X235383Y377617D01*
X234907Y376997D01*
X234608Y376275D01*
X234572Y376000D01*
X237000D01*
Y378428D01*
D02*
G37*
G36*
X285469Y418772D02*
X283000D01*
Y416500D01*
X285469D01*
Y418772D01*
D02*
G37*
G36*
X211862Y604538D02*
X211587Y604502D01*
X210865Y604203D01*
X210245Y603727D01*
X209769Y603107D01*
X209470Y602385D01*
X209368Y601610D01*
Y600929D01*
X211862D01*
Y604538D01*
D02*
G37*
G36*
X248978Y599929D02*
X246484D01*
Y596320D01*
X246759Y596356D01*
X247481Y596655D01*
X248101Y597131D01*
X248577Y597751D01*
X248876Y598473D01*
X248978Y599248D01*
Y599929D01*
D02*
G37*
G36*
X212862Y604538D02*
Y600929D01*
X215356D01*
Y601610D01*
X215254Y602385D01*
X214955Y603107D01*
X214479Y603727D01*
X213859Y604203D01*
X213137Y604502D01*
X212862Y604538D01*
D02*
G37*
G36*
X245484Y604538D02*
X245209Y604502D01*
X244487Y604203D01*
X243867Y603727D01*
X243391Y603107D01*
X243092Y602385D01*
X242990Y601610D01*
Y600929D01*
X245484D01*
Y604538D01*
D02*
G37*
G36*
X211862Y599929D02*
X209368D01*
Y599248D01*
X209470Y598473D01*
X209769Y597751D01*
X210245Y597131D01*
X210865Y596655D01*
X211587Y596356D01*
X211862Y596320D01*
Y599929D01*
D02*
G37*
G36*
X241590Y590480D02*
X240500D01*
Y588209D01*
X241590D01*
Y590480D01*
D02*
G37*
G36*
X215356Y599929D02*
X212862D01*
Y596320D01*
X213137Y596356D01*
X213859Y596655D01*
X214479Y597131D01*
X214955Y597751D01*
X215254Y598473D01*
X215356Y599248D01*
Y599929D01*
D02*
G37*
G36*
X245484D02*
X242990D01*
Y599248D01*
X243092Y598473D01*
X243391Y597751D01*
X243867Y597131D01*
X244487Y596655D01*
X245209Y596356D01*
X245484Y596320D01*
Y599929D01*
D02*
G37*
G36*
X246484Y604538D02*
Y600929D01*
X248978D01*
Y601610D01*
X248876Y602385D01*
X248577Y603107D01*
X248101Y603727D01*
X247481Y604203D01*
X246759Y604502D01*
X246484Y604538D01*
D02*
G37*
G36*
X245484Y623161D02*
X245209Y623124D01*
X244487Y622825D01*
X243867Y622349D01*
X243391Y621729D01*
X243092Y621007D01*
X242990Y620232D01*
Y619551D01*
X245484D01*
Y623161D01*
D02*
G37*
G36*
X211862D02*
X211587Y623124D01*
X210865Y622825D01*
X210245Y622349D01*
X209769Y621729D01*
X209470Y621007D01*
X209368Y620232D01*
Y619551D01*
X211862D01*
Y623161D01*
D02*
G37*
G36*
X246484Y623161D02*
Y619551D01*
X248978D01*
Y620232D01*
X248876Y621007D01*
X248577Y621729D01*
X248101Y622349D01*
X247481Y622825D01*
X246759Y623124D01*
X246484Y623161D01*
D02*
G37*
G36*
X212862D02*
Y619551D01*
X215356D01*
Y620232D01*
X215254Y621007D01*
X214955Y621729D01*
X214479Y622349D01*
X213859Y622825D01*
X213137Y623124D01*
X212862Y623161D01*
D02*
G37*
G36*
X248978Y618551D02*
X246484D01*
Y614942D01*
X246759Y614978D01*
X247481Y615277D01*
X248101Y615753D01*
X248577Y616373D01*
X248876Y617095D01*
X248978Y617870D01*
Y618551D01*
D02*
G37*
G36*
X215356D02*
X212862D01*
Y614942D01*
X213137Y614978D01*
X213859Y615277D01*
X214479Y615753D01*
X214955Y616373D01*
X215254Y617095D01*
X215356Y617870D01*
Y618551D01*
D02*
G37*
G36*
X245484D02*
X242990D01*
Y617870D01*
X243092Y617095D01*
X243391Y616373D01*
X243867Y615753D01*
X244487Y615277D01*
X245209Y614978D01*
X245484Y614942D01*
Y618551D01*
D02*
G37*
G36*
X211862D02*
X209368D01*
Y617870D01*
X209470Y617095D01*
X209769Y616373D01*
X210245Y615753D01*
X210865Y615277D01*
X211587Y614978D01*
X211862Y614942D01*
Y618551D01*
D02*
G37*
G36*
X217846Y590480D02*
X216756D01*
Y588209D01*
X217846D01*
Y590480D01*
D02*
G37*
G36*
X271756Y438772D02*
X269878D01*
Y436500D01*
X271756D01*
Y438772D01*
D02*
G37*
G36*
X245823Y428579D02*
X243621D01*
X243638Y428497D01*
X243968Y428003D01*
X244461Y427673D01*
X245043Y427557D01*
X245823D01*
Y428579D01*
D02*
G37*
G36*
X241622Y459500D02*
X239744D01*
Y457228D01*
X241622D01*
Y459500D01*
D02*
G37*
G36*
X238744D02*
X236866D01*
Y457228D01*
X238744D01*
Y459500D01*
D02*
G37*
G36*
X249122Y420772D02*
X247244D01*
Y418500D01*
X249122D01*
Y420772D01*
D02*
G37*
G36*
X246244D02*
X244366D01*
Y418500D01*
X246244D01*
Y420772D01*
D02*
G37*
G36*
X285469Y422043D02*
X283000D01*
Y419772D01*
X285469D01*
Y422043D01*
D02*
G37*
G36*
X282000D02*
X279532D01*
Y419772D01*
X282000D01*
Y422043D01*
D02*
G37*
G36*
X238744Y462772D02*
X236866D01*
Y460500D01*
X238744D01*
Y462772D01*
D02*
G37*
G36*
X254256Y484772D02*
X252378D01*
Y482500D01*
X254256D01*
Y484772D01*
D02*
G37*
G36*
X257134Y481500D02*
X255256D01*
Y479228D01*
X257134D01*
Y481500D01*
D02*
G37*
G36*
X235000Y486657D02*
X234366Y486531D01*
X233828Y486172D01*
X233469Y485634D01*
X233343Y485000D01*
X233469Y484366D01*
X233828Y483828D01*
X234366Y483469D01*
X235000Y483343D01*
X235634Y483469D01*
X236172Y483828D01*
X236531Y484366D01*
X236657Y485000D01*
X236531Y485634D01*
X236172Y486172D01*
X235634Y486531D01*
X235000Y486657D01*
D02*
G37*
G36*
X257134Y484772D02*
X255256D01*
Y482500D01*
X257134D01*
Y484772D01*
D02*
G37*
G36*
X258256Y467772D02*
X256378D01*
Y465500D01*
X258256D01*
Y467772D01*
D02*
G37*
G36*
X241622Y462772D02*
X239744D01*
Y460500D01*
X241622D01*
Y462772D01*
D02*
G37*
G36*
X254256Y481500D02*
X252378D01*
Y479228D01*
X254256D01*
Y481500D01*
D02*
G37*
G36*
X240000Y481657D02*
X239366Y481531D01*
X238828Y481172D01*
X238469Y480634D01*
X238343Y480000D01*
X238469Y479366D01*
X238828Y478828D01*
X239366Y478469D01*
X240000Y478343D01*
X240634Y478469D01*
X241172Y478828D01*
X241531Y479366D01*
X241657Y480000D01*
X241531Y480634D01*
X241172Y481172D01*
X240634Y481531D01*
X240000Y481657D01*
D02*
G37*
%LPD*%
D10*
X61744Y386500D02*
X61669Y386425D01*
X42500Y409744D02*
X43000Y410244D01*
X34256Y182000D02*
X34500Y182244D01*
X249244Y482500D02*
X249000Y482256D01*
X54000Y457293D02*
X54500Y458500D01*
X54000Y457293D02*
X53481Y456517D01*
X53299Y455601D01*
X50150Y416000D02*
X50000Y415850D01*
X252256Y413000D02*
X252516Y413260D01*
X282500Y454000D02*
X282207Y454707D01*
X281500Y455000D01*
X261744Y448000D02*
X261500Y447756D01*
X266744Y436000D02*
X265791Y436953D01*
X36426Y471000D02*
X36512Y471086D01*
Y486086D02*
X36598Y486000D01*
X39512Y486086D02*
X39598Y486000D01*
X36512Y491086D02*
X36598Y491000D01*
X268500Y562744D02*
X268000Y562244D01*
X35414Y481000D02*
X35500Y481086D01*
X69047Y459697D02*
X68744Y460000D01*
X61669Y368000D02*
X62169Y367500D01*
X237047Y595902D02*
X237244Y595705D01*
X218347D02*
X218150Y595902D01*
X48500Y496657D02*
X49343Y497500D01*
X48500Y467500D02*
Y496657D01*
X59598Y454189D02*
Y457500D01*
X59000Y509828D02*
X64000Y504828D01*
X62748Y454189D02*
Y457000D01*
X64000Y458252D02*
Y504828D01*
X62748Y457000D02*
X64000Y458252D01*
X139500Y508000D02*
X211000D01*
X225760Y562776D02*
Y565260D01*
Y568260D02*
Y572224D01*
X223000Y565500D02*
X225760Y568260D01*
X223000Y549000D02*
Y565500D01*
X225760Y560260D02*
Y562776D01*
X225000Y559500D02*
X225760Y560260D01*
X215000Y541000D02*
X223000Y549000D01*
X215760Y539000D02*
X225000Y548240D01*
X271500Y546500D02*
X274650D01*
X268350D02*
X271500D01*
Y538500D02*
Y546500D01*
X265500Y532500D02*
X271500Y538500D01*
X65000Y532500D02*
X265500D01*
X211000Y508000D02*
X214469Y511469D01*
X221000Y505000D02*
X224468Y508468D01*
X255000Y415000D02*
Y426323D01*
Y415000D02*
X260000Y410000D01*
X258921Y417579D02*
X264000Y412500D01*
X292500Y410000D02*
X297500Y415000D01*
X290000Y412500D02*
X295000Y417500D01*
X251000Y455512D02*
X253244Y457756D01*
X251000Y448000D02*
Y455512D01*
X253244Y457756D02*
Y460000D01*
Y457756D02*
X254500Y456500D01*
X295000Y459000D02*
X297500Y456500D01*
Y415000D02*
Y456500D01*
X267500Y453500D02*
Y492500D01*
X265500Y451500D02*
X267500Y453500D01*
X260000Y451500D02*
X265500D01*
X258921Y450421D02*
X260000Y451500D01*
X258921Y441677D02*
Y450421D01*
X262500Y453500D02*
X265000Y456000D01*
X259000Y453500D02*
X262500D01*
X256953Y451453D02*
X259000Y453500D01*
X261500Y445000D02*
Y447756D01*
Y445000D02*
X262500Y444000D01*
X263500D02*
X264500Y443000D01*
X263421Y438921D02*
X264500Y440000D01*
X266744Y439244D02*
X267500Y440000D01*
X266744Y436000D02*
Y439244D01*
X274016Y433016D02*
X276500Y435500D01*
X277547Y431047D02*
X278500Y432000D01*
X272500Y457500D02*
X276500Y453500D01*
X275000Y458500D02*
X278500Y455000D01*
X277500Y461000D02*
X280500Y458000D01*
X286500D02*
X288650Y455850D01*
Y449350D02*
X295000Y443000D01*
X251047Y441677D02*
Y445453D01*
X249000Y447500D02*
X251047Y445453D01*
X249000Y447500D02*
Y457500D01*
X251000Y448000D02*
X253016Y445984D01*
Y441677D02*
Y445984D01*
X244079Y438921D02*
X246323D01*
X243000Y440000D02*
Y442500D01*
Y440000D02*
X244079Y438921D01*
X249079Y441677D02*
Y444921D01*
X247000Y447000D02*
X249079Y444921D01*
X245000Y455500D02*
Y459756D01*
Y455500D02*
X247000Y453500D01*
X277500Y461000D02*
Y496500D01*
X271500Y502500D02*
X277500Y496500D01*
X257500Y502500D02*
X271500D01*
X255000Y500000D02*
X265000D01*
X272500Y492500D01*
Y457500D02*
Y492500D01*
X257500Y497500D02*
X262500D01*
X267500Y492500D01*
X249244Y489500D02*
X253500D01*
X205642Y491000D02*
X221642Y475000D01*
X141500Y491000D02*
X205642D01*
X173500Y484000D02*
X178000Y479500D01*
Y367000D02*
X183000Y362000D01*
X132000Y509000D02*
X134468Y511469D01*
X126500Y506500D02*
X129000Y509000D01*
X132000Y505000D02*
X221000D01*
X129000Y502000D02*
X132000Y505000D01*
X135500Y485000D02*
X141500Y491000D01*
X135500Y465000D02*
Y485000D01*
X148000Y484000D02*
X173500D01*
X144000Y480000D02*
X148000Y484000D01*
X123500D02*
X126500Y487000D01*
Y482000D02*
X129000Y484500D01*
X97500Y480031D02*
X101469Y484000D01*
X100000Y477500D02*
X104500Y482000D01*
X90000Y511181D02*
X94468Y515650D01*
X90000Y470000D02*
Y511181D01*
X59000Y526500D02*
X65000Y532500D01*
X59000Y539000D02*
X215760D01*
X54000Y534000D02*
X59000Y539000D01*
X54000Y502000D02*
Y534000D01*
X58500Y541000D02*
X215000D01*
X52000Y534500D02*
X58500Y541000D01*
X65898Y497898D02*
X68000Y500000D01*
X56449Y454189D02*
Y499551D01*
X54000Y502000D02*
X56449Y499551D01*
X52000Y500998D02*
X54500Y498498D01*
X36598Y491000D02*
X43500D01*
X46000Y488500D01*
X39598Y486000D02*
X42500D01*
X44000Y484500D01*
X29500Y481000D02*
X35414D01*
X27500Y479000D02*
X29500Y481000D01*
Y470000D02*
X30586Y471086D01*
X29500Y459000D02*
X31000Y457500D01*
X38756D01*
Y465086D01*
Y453244D02*
Y457500D01*
Y453244D02*
X44000Y448000D01*
X46000Y461500D02*
Y488500D01*
Y461500D02*
X50150Y457350D01*
Y454189D02*
Y457350D01*
X47000Y454189D02*
Y457000D01*
X44000Y460000D02*
X47000Y457000D01*
X69047Y416000D02*
Y446547D01*
X65898Y416000D02*
Y445898D01*
X90000Y470000D01*
X69047Y446547D02*
X92500Y470000D01*
X139000Y441500D02*
X144000Y446500D01*
X133000Y462500D02*
X135500Y465000D01*
X111500Y462500D02*
X133000D01*
X108500Y459500D02*
X111500Y462500D01*
X27500Y446500D02*
Y479000D01*
Y446500D02*
X31032Y442969D01*
X95020Y433520D02*
X102500Y426039D01*
Y271000D02*
Y426039D01*
X91000Y427500D02*
X97500Y421000D01*
X77398Y427500D02*
X91000D01*
X77118Y427220D02*
X77398Y427500D01*
X97500Y282500D02*
Y421000D01*
X100000Y275000D02*
Y424000D01*
X93630Y430370D02*
X100000Y424000D01*
X77118Y430370D02*
X93630D01*
X97500Y436000D02*
Y480031D01*
X77118Y433520D02*
X95020D01*
X97500Y436000D01*
X87169Y436669D02*
X92000Y441500D01*
X77118Y436669D02*
X87169D01*
X44000Y425000D02*
Y448000D01*
Y425000D02*
X46500Y422500D01*
X54000D02*
X56449Y420051D01*
X18500Y348000D02*
Y433500D01*
X21669Y436669D01*
X20500Y429000D02*
X25020Y433520D01*
X22500Y427500D02*
X25370Y430370D01*
X27000Y426000D02*
X28220Y427220D01*
X43000Y413500D02*
X45500Y416000D01*
X62748Y412641D02*
X65390Y410000D01*
X62748Y412641D02*
Y416000D01*
X65390Y410000D02*
X90000D01*
X62500Y407500D02*
X87500D01*
X59598Y410402D02*
Y416000D01*
Y410402D02*
X62500Y407500D01*
X90000Y410000D02*
X95000Y405000D01*
X87500Y407500D02*
X92500Y402500D01*
X61744Y386500D02*
Y388606D01*
X50000Y400350D02*
X61744Y388606D01*
X61669Y378000D02*
Y386425D01*
X50000Y400350D02*
Y415850D01*
X43000Y410244D02*
Y413500D01*
X62169Y367500D02*
X74500D01*
X76000Y369000D01*
Y371244D01*
X22500Y352000D02*
Y427500D01*
Y352000D02*
X25000Y349500D01*
X20500Y350000D02*
Y429000D01*
Y350000D02*
X23000Y347500D01*
X18500Y348000D02*
X21000Y345500D01*
X36000D01*
X38500Y343000D01*
Y335126D02*
Y343000D01*
X23000Y347500D02*
X40000D01*
X42437Y345063D01*
Y335126D02*
Y345063D01*
X25000Y349500D02*
X44000D01*
X46374Y347126D01*
Y335126D02*
Y347126D01*
X97500Y266000D02*
X102500Y271000D01*
X95000Y278000D02*
Y405000D01*
X92000Y275000D02*
X95000Y278000D01*
X90000Y275000D02*
X92000D01*
X92500Y294000D02*
Y402500D01*
X82500Y284000D02*
X92500Y294000D01*
X82500Y188500D02*
Y284000D01*
X61500Y271500D02*
X65000Y275000D01*
X54000Y271500D02*
X60000Y277500D01*
X42000Y243500D02*
Y262500D01*
Y243500D02*
X46500Y239000D01*
X54000Y244000D02*
Y271500D01*
X51500Y241500D02*
X54000Y244000D01*
X51500Y230685D02*
Y241500D01*
X54000Y240414D02*
X56500Y242914D01*
X54000Y132500D02*
Y240414D01*
X56500Y230685D02*
Y236000D01*
X58000Y237500D01*
X61500D02*
X67000D01*
X58000D02*
X61500D01*
X67000D02*
X68500Y236000D01*
Y233256D02*
Y236000D01*
X46500Y226500D02*
X49000Y224000D01*
X47500Y216000D02*
X51500Y220000D01*
X47500Y216000D02*
X51000Y212500D01*
X56500Y194000D02*
X59500Y191000D01*
X22500Y115000D02*
Y196000D01*
X36500Y186000D02*
X43378D01*
X34500Y182244D02*
Y184000D01*
X36500Y186000D01*
X60000Y180000D02*
Y184500D01*
X61500Y186000D02*
X65622D01*
X60000Y184500D02*
X61500Y186000D01*
X64835Y165000D02*
X68000D01*
X70000Y167000D01*
X47000Y165000D02*
X48500Y166500D01*
X51000Y162500D02*
Y212500D01*
X44165Y160000D02*
X48500D01*
X51000Y162500D01*
X54000Y132500D02*
X56500Y130000D01*
X37500Y137500D02*
X39500D01*
X35000Y135000D02*
X37500Y137500D01*
X32500Y140000D02*
X35000Y142500D01*
X32500Y147500D02*
X39500D01*
X30000Y145000D02*
X32500Y147500D01*
X30000Y122500D02*
Y145000D01*
X27500Y120000D02*
Y150000D01*
X30000Y152500D01*
X35000Y142500D02*
X39500D01*
X25000Y117500D02*
Y191000D01*
X20000Y112500D02*
Y199000D01*
X17500Y110000D02*
Y201500D01*
X15000Y107500D02*
Y204000D01*
X12500Y105000D02*
Y206500D01*
X268500Y379500D02*
X280000D01*
X178000Y367000D02*
Y479500D01*
X183000Y362000D02*
X248000D01*
X249000Y457500D02*
Y482256D01*
X256953Y441677D02*
Y451453D01*
X254984Y441677D02*
Y447016D01*
X295000Y417500D02*
Y443000D01*
X264000Y412500D02*
X290000D01*
X258921Y417579D02*
Y426323D01*
X260000Y410000D02*
X292500D01*
X247000Y447000D02*
Y453500D01*
X282500Y431772D02*
Y432772D01*
Y429000D02*
Y431772D01*
Y426071D02*
Y429000D01*
X261677Y429079D02*
X282500D01*
X239500Y436953D02*
X246323D01*
X253016Y418000D02*
Y426323D01*
X77118Y424071D02*
X89929D01*
X52000Y500998D02*
Y534500D01*
X54500Y458500D02*
Y498498D01*
X59000Y509828D02*
Y526500D01*
X225000Y548240D02*
Y559500D01*
X56449Y416000D02*
Y420051D01*
X46500Y422500D02*
X54000D01*
X56500Y249315D02*
Y269500D01*
X61500Y249315D02*
Y271500D01*
X46500Y226500D02*
Y230685D01*
Y239000D01*
X21669Y436669D02*
X38929D01*
X25020Y433520D02*
X38929D01*
X25370Y430370D02*
X38929D01*
X59500Y191000D02*
X65622D01*
X56500Y194000D02*
Y221500D01*
X43378Y216000D02*
X47500D01*
X51500Y220000D02*
Y230685D01*
X56500Y130000D02*
X64835D01*
X56500Y242914D02*
Y249315D01*
X48500Y166500D02*
Y176000D01*
X44165Y165000D02*
X47000D01*
X59500Y150000D02*
X64835D01*
X59500Y140000D02*
X64835D01*
X59500Y155000D02*
X64835D01*
X59500Y145000D02*
X64835D01*
X30000Y152500D02*
X39500D01*
X59500Y196000D02*
X65622D01*
X59500Y206000D02*
X65622D01*
X59500Y201000D02*
X65622D01*
X59500Y211000D02*
X65622D01*
X239500Y470500D02*
X245000D01*
X290000Y487500D02*
X297500D01*
X261677Y431047D02*
X277547D01*
X261677Y433016D02*
X274016D01*
X276500Y435500D02*
Y453500D01*
X265000Y456000D02*
Y460500D01*
X280500Y458000D02*
X286500D01*
X278500Y432000D02*
Y455000D01*
X275000Y458500D02*
Y472500D01*
X282500Y438571D02*
Y454000D01*
X281000Y455000D02*
X281500D01*
X261677Y438921D02*
X263421D01*
X264500Y440000D02*
Y443000D01*
X262500Y444000D02*
X263500D01*
X267500Y440000D02*
Y440500D01*
X261677Y436953D02*
X265791D01*
X267500Y440500D02*
X272500Y445500D01*
X65898Y454189D02*
Y497898D01*
X36598Y486000D02*
X39598D01*
X44000Y460000D02*
Y484500D01*
X38756Y465086D02*
X38842Y465000D01*
X41500D01*
X268000Y553150D02*
Y562244D01*
X64835Y160000D02*
X70500D01*
X57000Y171000D02*
X60244D01*
X34500Y172000D02*
Y176244D01*
X65622Y216000D02*
X72500D01*
X46500Y249315D02*
Y256500D01*
X27000Y424150D02*
Y426000D01*
X28220Y427220D02*
X38929D01*
X31032Y442969D02*
X38929D01*
X33000Y481086D02*
X36512D01*
X39512D01*
X29500Y459000D02*
Y470000D01*
X30586Y471086D02*
X36512D01*
X69047Y454189D02*
Y459697D01*
X77118Y442969D02*
X82724D01*
X77118Y446118D02*
Y449618D01*
X83000Y448756D02*
Y452500D01*
X77118Y439819D02*
X82181D01*
X45500Y416000D02*
X47000D01*
X61500Y230685D02*
Y237500D01*
X38000Y201000D02*
X43378D01*
X38000Y206000D02*
X43378D01*
X65622Y186000D02*
X71500D01*
X70000Y167000D02*
Y171000D01*
X254500Y456500D02*
X262000D01*
X64835Y155000D02*
X73850D01*
X64835Y150000D02*
X73850D01*
X64835Y145000D02*
X73850D01*
X64835Y140000D02*
X73850D01*
X80150D02*
X93500D01*
X80150Y145000D02*
X93500D01*
X80150Y150000D02*
X93500D01*
X80150Y155000D02*
X93500D01*
X221642Y475000D02*
X224000D01*
X112000Y441500D02*
X139000D01*
X144000Y446500D02*
Y480000D01*
X124500Y490000D02*
Y502500D01*
X124469D02*
Y515650D01*
X134468Y511469D02*
Y515650D01*
X104500Y482000D02*
X126500D01*
X100000Y434500D02*
Y477500D01*
X101469Y484000D02*
X123500D01*
X126500Y487000D02*
Y506500D01*
X129000Y509000D02*
X132000D01*
X95000Y437500D02*
Y482531D01*
X214469Y511469D02*
Y515650D01*
X224468Y508468D02*
Y515650D01*
X129000Y484500D02*
Y502000D01*
X288650Y449350D02*
Y455850D01*
X92500Y470000D02*
Y503000D01*
X97500Y508000D01*
X120000D01*
X95000Y482531D02*
X98968Y486500D01*
X121000D01*
X124500Y490000D01*
X116905Y498516D02*
X119016D01*
X119500Y499000D01*
X116905Y500484D02*
X119016D01*
X119500Y500000D01*
Y499000D02*
Y500000D01*
X105095Y502453D02*
X109453D01*
X109500Y502500D01*
X109000Y497500D02*
Y499000D01*
X107500Y500500D02*
X109000Y499000D01*
X107484Y500484D02*
X107500Y500500D01*
X105095Y500484D02*
X107484D01*
X105095Y496547D02*
Y498516D01*
X116905Y496547D02*
X118953D01*
X120000Y491500D02*
Y495500D01*
X118953Y496547D02*
X120000Y495500D01*
X59598Y457500D02*
X61500Y459402D01*
Y488500D01*
X100272Y498516D02*
X105095D01*
X100000Y498244D02*
X100272Y498516D01*
X99000Y497244D02*
X100000Y498244D01*
X99000Y494000D02*
Y497244D01*
X116905Y502453D02*
Y504595D01*
X116000Y505500D02*
X116905Y504595D01*
X100000Y503756D02*
X102756D01*
X104000Y505000D01*
X118500Y490000D02*
X120000Y491500D01*
X118000Y490000D02*
X118500D01*
X85780Y74626D02*
Y122721D01*
X83500Y125000D02*
X85780Y122721D01*
X35000Y127500D02*
X37500Y125000D01*
X35000Y127500D02*
Y135000D01*
X32500Y125000D02*
X35000Y122500D01*
X27500Y120000D02*
X30000Y117500D01*
X22500Y115000D02*
X25000Y112500D01*
X17500Y110000D02*
X20000Y107500D01*
X32500Y125000D02*
Y140000D01*
X12500Y105000D02*
X15000Y102500D01*
Y107500D02*
X17500Y105000D01*
X20000Y112500D02*
X22500Y110000D01*
X25000Y117500D02*
X27500Y115000D01*
X30000Y122500D02*
X32500Y120000D01*
X37500Y125000D02*
X83500D01*
X32500Y120000D02*
X75500D01*
X20000Y107500D02*
X56000D01*
X17500Y105000D02*
X52000D01*
X15000Y102500D02*
X48000D01*
X50346Y100154D01*
Y74626D02*
Y100154D01*
X54347Y77126D02*
Y102654D01*
X52000Y105000D02*
X54347Y102654D01*
X58346Y74752D02*
Y105154D01*
X56000Y107500D02*
X58346Y105154D01*
X35000Y122500D02*
X79500D01*
X81846Y120153D01*
X75500Y120000D02*
X77846Y117654D01*
X30000Y117500D02*
X71500D01*
X77846Y74685D02*
Y117654D01*
Y74685D02*
X77905Y74626D01*
X81846Y74630D02*
Y120153D01*
X81842Y74626D02*
X81846Y74630D01*
X73968Y74626D02*
Y115032D01*
X71500Y117500D02*
X73968Y115032D01*
X70031Y74626D02*
Y112469D01*
X67500Y115000D02*
X70031Y112469D01*
X66094Y74626D02*
Y109906D01*
X63500Y112500D02*
X66094Y109906D01*
X25000Y112500D02*
X63500D01*
X27500Y115000D02*
X67500D01*
X62157Y74626D02*
Y107343D01*
X59500Y110000D02*
X62157Y107343D01*
X22500Y110000D02*
X59500D01*
X58220Y74626D02*
X58346Y74752D01*
X89717Y74626D02*
Y122716D01*
X108500Y141500D01*
Y459500D01*
X240000Y595705D02*
X240197Y595902D01*
X224252Y590980D02*
Y595705D01*
X224449Y595902D01*
X234095Y590980D02*
Y595705D01*
X233898Y595902D02*
X234095Y595705D01*
X228189Y567689D02*
Y590980D01*
X225760Y565260D02*
X228189Y567689D01*
X230748Y595748D02*
Y595902D01*
X228189Y593189D02*
X230748Y595748D01*
X228189Y590980D02*
Y593189D01*
X220000Y575500D02*
Y584500D01*
X224252Y588752D01*
Y590980D01*
X234095Y588905D02*
Y590980D01*
X238000Y575500D02*
Y585000D01*
X234095Y588905D02*
X238000Y585000D01*
X225760Y572224D02*
X226000Y572465D01*
X230157Y587343D02*
Y590980D01*
Y587343D02*
X230500Y587000D01*
X226000Y572465D02*
Y582500D01*
X242000Y571256D02*
Y575000D01*
X242000Y575000D02*
X242000Y575000D01*
X232453Y568547D02*
Y572224D01*
Y568547D02*
X232500Y568500D01*
X67256Y383728D02*
Y386500D01*
X69634D01*
X64878D02*
X67256D01*
Y389272D01*
X66969Y378000D02*
X70331D01*
Y374244D02*
Y378000D01*
Y381756D01*
X76000Y374378D02*
Y376756D01*
X78772D01*
X76000D02*
Y379134D01*
X240000Y590980D02*
Y595705D01*
X237244D02*
X240000D01*
X218150Y595902D02*
X221299D01*
X218347Y590980D02*
Y595705D01*
X249079Y425043D02*
Y426323D01*
X248035Y424000D02*
X249079Y425043D01*
X244500Y424000D02*
X248035D01*
D11*
X231741Y433453D02*
X231604Y432405D01*
X240441Y440646D02*
X239423Y440587D01*
X238419Y440412D01*
X237442Y440123D01*
X236504Y439723D01*
X235618Y439218D01*
X234797Y438615D01*
X234050Y437921D01*
X233387Y437146D01*
X232818Y436300D01*
X232350Y435395D01*
X231990Y434441D01*
X231741Y433453D01*
X229396Y432405D02*
X229266Y433419D01*
X229020Y434411D01*
X228661Y435369D01*
X228195Y436278D01*
X227626Y437128D01*
X226964Y437907D01*
X226217Y438604D01*
X225394Y439210D01*
X224506Y439718D01*
X223566Y440120D01*
X222586Y440411D01*
X221580Y440587D01*
X220559Y440646D01*
Y446354D02*
X221580Y446413D01*
X222586Y446590D01*
X223566Y446880D01*
X224506Y447282D01*
X225394Y447790D01*
X226217Y448396D01*
X226964Y449093D01*
X227626Y449872D01*
X228195Y450722D01*
X228661Y451631D01*
X229020Y452589D01*
X229266Y453581D01*
X229396Y454595D01*
X231604D02*
X231734Y453581D01*
X231980Y452589D01*
X232339Y451631D01*
X232805Y450722D01*
X233374Y449872D01*
X234036Y449093D01*
X234784Y448396D01*
X235606Y447790D01*
X236494Y447282D01*
X237434Y446880D01*
X238414Y446590D01*
X239420Y446413D01*
X240441Y446354D01*
Y433756D02*
Y440646D01*
Y433453D02*
Y433756D01*
Y431984D02*
Y433453D01*
X220559Y431984D02*
Y440646D01*
Y446354D02*
Y455016D01*
X240441Y446354D02*
Y455016D01*
D12*
X253244Y465000D02*
X253500Y465256D01*
X68744Y460000D02*
X69000Y460256D01*
X83000Y443244D02*
X82724Y442969D01*
X20402Y491000D02*
X20488Y491086D01*
X268500Y562744D02*
X282256D01*
X290000Y555000D01*
X295000Y392500D02*
X302500Y400000D01*
X261500Y387500D02*
X266500Y392500D01*
X282500Y477500D02*
X290000Y485000D01*
X297500Y465000D02*
X302500Y460000D01*
X245000D02*
Y470500D01*
X253500Y469000D02*
X262000Y477500D01*
X249244Y482500D02*
Y489500D01*
X246000Y494000D02*
X249244Y490756D01*
X235000Y494000D02*
X245000Y484000D01*
X137500Y494000D02*
X235000D01*
X131500Y488000D02*
X137500Y494000D01*
X125500Y468500D02*
X131500Y474500D01*
X14500Y491000D02*
X20402D01*
X14000Y499000D02*
X15500D01*
X12500Y497500D02*
X14000Y499000D01*
X12500Y493000D02*
Y497500D01*
Y493000D02*
X14500Y491000D01*
X83256Y472000D02*
Y477000D01*
Y477000D01*
X85000Y477000D02*
X87500Y479500D01*
X81256Y470000D02*
X83256Y472000D01*
X80000Y470000D02*
X81256D01*
X73000D02*
X80000D01*
X69000Y466000D02*
X73000Y470000D01*
X106000Y464500D02*
X110000Y468500D01*
X106000Y314500D02*
Y464500D01*
X83000Y443244D02*
X87244D01*
X91500Y447500D01*
X15000Y441642D02*
X20500Y447142D01*
X15000Y410000D02*
Y441642D01*
X42500Y407500D02*
Y409744D01*
X37500Y402500D02*
X42500Y407500D01*
X32500Y356500D02*
Y379142D01*
X37500Y384142D01*
X53642Y368000D02*
X61669D01*
X37500Y384142D02*
X53642Y368000D01*
X32500Y356500D02*
X36500Y352500D01*
X90000Y302500D02*
Y347500D01*
X85000Y352500D02*
X90000Y347500D01*
X36500Y352500D02*
X85000D01*
X30626Y320000D02*
X40626Y310000D01*
X51500Y282500D02*
X61500Y292500D01*
X80000D02*
X90000Y302500D01*
X40000Y272500D02*
X51500D01*
X35000Y267500D02*
X40000Y272500D01*
X35000Y214000D02*
Y267500D01*
X73256Y233256D02*
X77500Y237500D01*
X68500Y233256D02*
X73256D01*
X77500Y237500D02*
Y292500D01*
X79500Y175500D02*
Y235500D01*
X77500Y237500D02*
X79500Y235500D01*
X38000Y211000D02*
X43378D01*
X30000Y209000D02*
X35000Y214000D01*
X38000Y211000D01*
X30000Y184000D02*
Y209000D01*
X32000Y182000D02*
X34256D01*
X30000Y184000D02*
X32000Y182000D01*
X70000Y171000D02*
X75000D01*
X79500Y175500D01*
X261500Y382000D02*
Y387500D01*
X252256Y382000D02*
Y413000D01*
X249244Y489500D02*
Y490756D01*
X252256Y413000D02*
Y418000D01*
X30626Y320000D02*
Y335126D01*
X40626Y310000D02*
X81500D01*
X285000Y465000D02*
X297500D01*
X302500Y400000D02*
Y460000D01*
X266500Y392500D02*
X295000D01*
X245500Y494000D02*
X246000D01*
X13000Y486000D02*
X21488D01*
X13000Y481000D02*
X21488D01*
X13000Y471000D02*
X21488D01*
X233272Y562744D02*
X238000D01*
X242000D01*
X290000Y485000D02*
Y487500D01*
Y555000D01*
X253500Y465256D02*
Y469000D01*
X262000Y477500D02*
X263000D01*
X93654Y74626D02*
Y81154D01*
X39000Y130000D02*
X44165D01*
X34563Y335126D02*
Y342000D01*
X27000Y413500D02*
Y417850D01*
X33500Y410000D02*
X37244D01*
X33571Y424071D02*
X38929D01*
X32744Y460256D02*
Y465000D01*
X87500Y479500D02*
Y494000D01*
X74000Y477000D02*
X77744D01*
X83256Y477000D02*
X85000D01*
X69000Y460256D02*
Y466000D01*
X74256Y460000D02*
Y464256D01*
X91500Y447500D02*
Y465000D01*
X20500Y447142D02*
Y465000D01*
X37500Y384142D02*
Y402500D01*
X51500Y249315D02*
Y272500D01*
Y282500D01*
X61500Y292500D02*
X77500D01*
X80000D01*
X68500Y224000D02*
Y227744D01*
X65756Y171000D02*
X70000D01*
X275000Y553150D02*
Y557000D01*
X245000Y470500D02*
Y484000D01*
X110000Y468500D02*
X125500D01*
X131500Y474500D02*
Y488000D01*
X82000Y382000D02*
X89500D01*
X242000Y562744D02*
Y565744D01*
Y562744D02*
X268500D01*
X74468Y507031D02*
Y515650D01*
Y507031D02*
X87500Y494000D01*
X238000Y562744D02*
Y575500D01*
D13*
X50500Y359000D02*
X50636Y357965D01*
X51036Y357000D01*
X51672Y356172D01*
X52500Y355536D01*
X53465Y355136D01*
X54500Y355000D01*
X52225Y366589D02*
X52875Y366153D01*
X53642Y366000D01*
X52228Y366586D02*
X52877Y366152D01*
X53642Y366000D01*
X48000Y397414D02*
X48116Y396531D01*
X48457Y395707D01*
X49000Y395000D01*
X50500Y391379D02*
X50402Y392378D01*
X50110Y393338D01*
X49637Y394224D01*
X49000Y395000D01*
X48500Y400350D02*
X48939Y399290D01*
X48500Y400350D02*
X48939Y399289D01*
X63088Y389272D02*
X62805Y389666D01*
X63088Y389272D02*
X62805Y389667D01*
X52000Y402500D02*
X52147Y401573D01*
X52573Y400737D01*
X53237Y400073D01*
X54073Y399647D01*
X55000Y399500D01*
X64000Y393500D02*
X63909Y394542D01*
X63638Y395552D01*
X63196Y396500D01*
X62596Y397357D01*
X61857Y398096D01*
X61000Y398696D01*
X60052Y399138D01*
X59042Y399409D01*
X58000Y399500D01*
X74500Y366000D02*
X75561Y366439D01*
X75000Y355000D02*
X75993Y355052D01*
X76975Y355208D01*
X77936Y355465D01*
X78864Y355821D01*
X79750Y356273D01*
X80584Y356814D01*
X81357Y357440D01*
X82060Y358143D01*
X82686Y358916D01*
X83227Y359750D01*
X83679Y360636D01*
X84035Y361564D01*
X84292Y362525D01*
X84448Y363507D01*
X84500Y364500D01*
X74500Y366000D02*
X75560Y366439D01*
X77061Y367939D02*
X77494Y368866D01*
X77061Y367940D02*
X77494Y368866D01*
X64000Y393500D02*
X64268Y392500D01*
X65000Y391768D01*
X66000Y391500D01*
X84500Y383000D02*
X84387Y384004D01*
X84163Y384990D01*
X83830Y385944D01*
X83392Y386855D01*
X82854Y387712D01*
X82225Y388502D01*
X81511Y389217D01*
X80721Y389848D01*
X79865Y390387D01*
X78955Y390826D01*
X78001Y391160D01*
X77015Y391386D01*
X76011Y391499D01*
X75000Y391500D01*
X50500Y359000D02*
Y368314D01*
X52000Y355877D02*
Y366814D01*
X50500Y368000D02*
X50814D01*
X50500Y366000D02*
X53628D01*
X54000Y355031D02*
Y366000D01*
X58000Y355000D02*
Y366000D01*
X56000Y355000D02*
Y366000D01*
X53642D02*
X58307D01*
Y364244D02*
Y366000D01*
X52000Y372470D02*
Y396229D01*
X50500Y368314D02*
X52225Y366589D01*
X50500Y373971D02*
X54471Y370000D01*
X50500Y373971D02*
Y391379D01*
Y376000D02*
X58307D01*
X50500Y380000D02*
X58307D01*
X56000Y370000D02*
Y392229D01*
X54471Y370000D02*
X58307D01*
X58000D02*
Y390229D01*
X58307Y370000D02*
Y371756D01*
X54000Y370470D02*
Y394229D01*
X54470Y370000D02*
X58307D01*
Y374244D02*
Y381756D01*
X51854Y356000D02*
X79243D01*
X50627Y358000D02*
X81928D01*
X50500Y360000D02*
X83367D01*
X50500Y374000D02*
X66568D01*
X50500Y362000D02*
X84165D01*
X50500Y364000D02*
X84487D01*
X60000Y355000D02*
Y364244D01*
X54500Y355000D02*
X75000D01*
X62000D02*
Y364244D01*
X58307D02*
X65031D01*
X58307Y371756D02*
X65031D01*
X52470Y372000D02*
X73228D01*
X50500Y378000D02*
X58307D01*
Y374244D02*
X65031D01*
X50500Y382000D02*
X60169D01*
X50500Y388000D02*
X59366D01*
X50500Y384000D02*
X59366D01*
X50500Y386000D02*
X59366D01*
X60000Y371756D02*
Y374244D01*
X62000Y371756D02*
Y374244D01*
X58307Y381756D02*
X60169D01*
X60000D02*
Y383728D01*
X59366D02*
Y388863D01*
Y383728D02*
X60169D01*
Y381756D02*
Y383728D01*
X48000Y397414D02*
Y402000D01*
Y398000D02*
X50229D01*
X48000Y400000D02*
X48541D01*
X48000Y406000D02*
X48500D01*
X48000Y402000D02*
X48500D01*
X48000Y404000D02*
X48500D01*
X50000Y393586D02*
Y398229D01*
X51500Y404000D02*
X52000D01*
X48000Y402000D02*
Y412500D01*
Y408000D02*
X48500D01*
X48000Y397396D02*
Y412500D01*
X48000D02*
X48500D01*
X48000Y410000D02*
X48500D01*
X48000Y412000D02*
X48500D01*
Y400350D02*
Y412500D01*
X51500Y406000D02*
X52000D01*
X51500Y400972D02*
Y412500D01*
Y412000D02*
X52000D01*
X51500Y412500D02*
X52000D01*
X51500Y408000D02*
X52000D01*
X51500Y410000D02*
X52000D01*
X49778Y394000D02*
X54229D01*
X50500Y390000D02*
X58229D01*
X50462Y392000D02*
X56229D01*
X48307Y396000D02*
X52229D01*
X56472D02*
X63454D01*
X54471Y398000D02*
X61968D01*
X62471Y390000D02*
X80500D01*
X62000Y390472D02*
Y397972D01*
X60471Y392000D02*
X64677D01*
X58472Y394000D02*
X63979D01*
X48940Y399289D02*
X59366Y388863D01*
X51500Y400972D02*
X62804Y389667D01*
X52000Y402500D02*
Y412500D01*
X51500Y402000D02*
X52042D01*
X52000Y400471D02*
Y402483D01*
X58000Y394472D02*
Y399500D01*
X60000Y392472D02*
Y399157D01*
X54000Y398471D02*
Y399672D01*
X52472Y400000D02*
X53342D01*
X55000Y399500D02*
X58000D01*
X56000Y396472D02*
Y399500D01*
X64000Y355000D02*
Y364244D01*
X66000Y355000D02*
Y366000D01*
X65031Y364244D02*
Y366000D01*
X66969Y364244D02*
Y366000D01*
Y364244D02*
X73693D01*
X65031Y366000D02*
X66969D01*
X70000Y355000D02*
Y364244D01*
X72000Y355000D02*
Y364244D01*
X74000Y355000D02*
Y366000D01*
X68000Y355000D02*
Y364244D01*
X73693Y366000D02*
X74500D01*
X73693Y364244D02*
Y366000D01*
X65031Y369000D02*
Y371756D01*
Y369000D02*
X66969D01*
X66000D02*
Y383328D01*
X64000Y371756D02*
Y374244D01*
X65031Y370000D02*
X66969D01*
X66568Y373844D02*
Y382156D01*
X66969Y369000D02*
Y371756D01*
X73228D01*
X68000D02*
Y373844D01*
X72000Y371756D02*
Y373844D01*
X70000Y371756D02*
Y373844D01*
X73228Y371756D02*
Y373622D01*
X66568Y373844D02*
X74093D01*
X76000Y355053D02*
Y366879D01*
X74512Y366000D02*
X84500D01*
X75561Y366440D02*
X77060Y367939D01*
X84500Y364500D02*
Y365000D01*
X78000Y355486D02*
Y368866D01*
X77118Y368000D02*
X84500D01*
X77494Y368866D02*
X78772D01*
X73228Y373622D02*
X78772D01*
Y370000D02*
X84500D01*
X78772Y372000D02*
X84500D01*
X76000Y373622D02*
Y373978D01*
X74093D02*
X79172D01*
X78000Y373622D02*
Y373978D01*
X80000Y356422D02*
Y390310D01*
X84000Y361459D02*
Y385500D01*
X82000Y358077D02*
Y388745D01*
X78772Y368866D02*
Y373622D01*
X79172Y373978D02*
Y379534D01*
Y374000D02*
X84500D01*
X84500Y383000D02*
X84500Y365000D01*
X63169Y381756D02*
Y383728D01*
Y381756D02*
X65031D01*
X64000D02*
Y383728D01*
X63169D02*
X64122D01*
X63169Y382000D02*
X66568D01*
X64122Y386000D02*
X64478D01*
X65031Y374244D02*
Y381756D01*
Y376000D02*
X66568D01*
X65031Y378000D02*
X66568D01*
X64122Y384000D02*
X64478D01*
X65031Y380000D02*
X66568D01*
X68000Y382156D02*
Y383328D01*
X64122Y383728D02*
Y389272D01*
Y388000D02*
X64478D01*
Y383328D02*
Y389672D01*
X64000Y389272D02*
Y393486D01*
X63088Y389272D02*
X64122D01*
X66000Y389672D02*
Y391500D01*
X70000Y389672D02*
Y391500D01*
X68000Y389672D02*
Y391500D01*
X66568Y382156D02*
X74093D01*
Y379534D02*
X79172D01*
X74093Y382000D02*
X84500D01*
X79172Y376000D02*
X84500D01*
X74093Y379534D02*
Y382156D01*
X79172Y378000D02*
X84500D01*
X74093Y380000D02*
X84500D01*
X70000Y382156D02*
Y383328D01*
X64478D02*
X70034D01*
Y384000D02*
X84388D01*
X64478Y389672D02*
X70034D01*
Y388000D02*
X82641D01*
X66000Y391500D02*
X75000D01*
X72000Y382156D02*
Y391500D01*
X78000Y379534D02*
Y391160D01*
X76000Y379534D02*
Y391500D01*
X70034Y383328D02*
Y389672D01*
X74000Y382156D02*
Y391500D01*
X70034Y386000D02*
X83807D01*
D14*
X237500Y375500D02*
D03*
X272500Y445500D02*
D03*
X239500Y470500D02*
D03*
X253500Y489500D02*
D03*
X297500Y487500D02*
D03*
X280000Y379500D02*
D03*
D15*
X254000Y434000D02*
D03*
D16*
X246323Y429079D02*
D03*
Y431047D02*
D03*
Y433016D02*
D03*
Y434984D02*
D03*
Y436953D02*
D03*
Y438921D02*
D03*
X261677D02*
D03*
Y436953D02*
D03*
Y434984D02*
D03*
Y433016D02*
D03*
Y431047D02*
D03*
Y429079D02*
D03*
D17*
X249079Y441677D02*
D03*
X251047D02*
D03*
X253016D02*
D03*
X254984D02*
D03*
X256953D02*
D03*
X258921D02*
D03*
Y426323D02*
D03*
X256953D02*
D03*
X254984D02*
D03*
X253016D02*
D03*
X251047D02*
D03*
X249079D02*
D03*
D18*
X230500Y433756D02*
D03*
Y453244D02*
D03*
D19*
X239244Y460000D02*
D03*
X244756D02*
D03*
X254756Y482000D02*
D03*
X249244D02*
D03*
X253244Y460000D02*
D03*
X258756D02*
D03*
X258756Y465000D02*
D03*
X253244D02*
D03*
X252256Y418000D02*
D03*
X246744D02*
D03*
X246744Y413000D02*
D03*
X252256D02*
D03*
X272256Y436000D02*
D03*
X266744D02*
D03*
X261744Y448000D02*
D03*
X267256D02*
D03*
X32744Y465000D02*
D03*
X38256D02*
D03*
X60244Y171000D02*
D03*
X65756D02*
D03*
X74256Y460000D02*
D03*
X68744D02*
D03*
X37244Y410000D02*
D03*
X42756D02*
D03*
X67256Y386500D02*
D03*
X61744D02*
D03*
X83256Y477000D02*
D03*
X77744D02*
D03*
D20*
X282500Y432272D02*
D03*
Y438571D02*
D03*
Y425571D02*
D03*
Y419272D02*
D03*
X27000Y424150D02*
D03*
Y417850D02*
D03*
X275000Y546850D02*
D03*
Y553150D02*
D03*
X268000Y546850D02*
D03*
Y553150D02*
D03*
D21*
X242000Y571256D02*
D03*
Y565744D02*
D03*
X34500Y176244D02*
D03*
Y181756D02*
D03*
X83000Y448756D02*
D03*
Y443244D02*
D03*
X76000Y376756D02*
D03*
Y371244D02*
D03*
X68500Y233256D02*
D03*
Y227744D02*
D03*
X100000Y503756D02*
D03*
Y498244D02*
D03*
D22*
X70331Y368000D02*
D03*
Y378000D02*
D03*
X61669D02*
D03*
Y368000D02*
D03*
D23*
X64835Y130000D02*
D03*
Y135000D02*
D03*
Y140000D02*
D03*
Y145000D02*
D03*
Y150000D02*
D03*
Y155000D02*
D03*
Y160000D02*
D03*
Y165000D02*
D03*
X44165Y130000D02*
D03*
Y135000D02*
D03*
Y140000D02*
D03*
Y145000D02*
D03*
Y150000D02*
D03*
Y155000D02*
D03*
Y160000D02*
D03*
Y165000D02*
D03*
D24*
X43378Y216000D02*
D03*
Y211000D02*
D03*
Y206000D02*
D03*
Y201000D02*
D03*
Y196000D02*
D03*
Y191000D02*
D03*
Y186000D02*
D03*
X65622Y216000D02*
D03*
Y211000D02*
D03*
Y206000D02*
D03*
Y201000D02*
D03*
Y196000D02*
D03*
Y191000D02*
D03*
Y186000D02*
D03*
D25*
X47000Y416000D02*
D03*
D26*
X50150D02*
D03*
X53299D02*
D03*
X56449D02*
D03*
X59598D02*
D03*
X62748D02*
D03*
X65898D02*
D03*
X69047D02*
D03*
Y454189D02*
D03*
X65898D02*
D03*
X62748D02*
D03*
X59598D02*
D03*
X56449D02*
D03*
X53299D02*
D03*
X50150D02*
D03*
X47000D02*
D03*
D27*
X77118Y424071D02*
D03*
Y427220D02*
D03*
Y430370D02*
D03*
Y433520D02*
D03*
Y436669D02*
D03*
Y439819D02*
D03*
Y442969D02*
D03*
Y446118D02*
D03*
X38929D02*
D03*
Y442969D02*
D03*
Y439819D02*
D03*
Y436669D02*
D03*
Y433520D02*
D03*
Y430370D02*
D03*
Y427220D02*
D03*
Y424071D02*
D03*
D28*
X255850Y73000D02*
D03*
X262150D02*
D03*
D29*
X232453Y572224D02*
D03*
D30*
X225760D02*
D03*
Y562776D02*
D03*
X233240D02*
D03*
D31*
X61500Y249315D02*
D03*
D32*
X56500D02*
D03*
X51500D02*
D03*
X46500D02*
D03*
Y230685D02*
D03*
X51500D02*
D03*
X56500D02*
D03*
X61500D02*
D03*
D33*
X36512Y491086D02*
D03*
Y486086D02*
D03*
Y481086D02*
D03*
Y476086D02*
D03*
Y471086D02*
D03*
X20488D02*
D03*
Y476086D02*
D03*
Y481086D02*
D03*
Y486086D02*
D03*
Y491086D02*
D03*
D34*
X46374Y335126D02*
D03*
X42437D02*
D03*
X38500D02*
D03*
X34563D02*
D03*
X30626D02*
D03*
X93654Y74626D02*
D03*
X89717D02*
D03*
X85780D02*
D03*
X81842D02*
D03*
X77905D02*
D03*
X73968D02*
D03*
X70031D02*
D03*
X66094D02*
D03*
X62157D02*
D03*
X58220D02*
D03*
X54283D02*
D03*
X50346D02*
D03*
D35*
X58776Y325874D02*
D03*
X18224D02*
D03*
X106055Y65374D02*
D03*
X37945D02*
D03*
D36*
X80150Y155000D02*
D03*
X73850D02*
D03*
X80150Y150000D02*
D03*
X73850D02*
D03*
X80150Y145000D02*
D03*
X73850D02*
D03*
X80150Y140000D02*
D03*
X73850D02*
D03*
D37*
X116905Y496547D02*
D03*
Y498516D02*
D03*
Y500484D02*
D03*
Y502453D02*
D03*
X105095Y496547D02*
D03*
Y498516D02*
D03*
Y500484D02*
D03*
Y502453D02*
D03*
D38*
X240000Y590980D02*
D03*
X238032D02*
D03*
X236063D02*
D03*
X234095D02*
D03*
X232126D02*
D03*
X230157D02*
D03*
X228189D02*
D03*
X226220D02*
D03*
X224252D02*
D03*
X222284D02*
D03*
X220315D02*
D03*
X218347D02*
D03*
D39*
X253244Y460000D02*
Y465000D01*
D40*
X254000Y56000D02*
D03*
D41*
X264000D02*
D03*
D42*
X275138Y363130D02*
D03*
X43799D02*
D03*
Y518169D02*
D03*
X275138D02*
D03*
D43*
X64468Y515650D02*
D03*
D44*
X74468D02*
D03*
X84469D02*
D03*
X94468D02*
D03*
X104469D02*
D03*
X114469D02*
D03*
X124469D02*
D03*
X134468D02*
D03*
X144468D02*
D03*
X154469D02*
D03*
X164469D02*
D03*
X174469D02*
D03*
X184468D02*
D03*
X194468D02*
D03*
X204468D02*
D03*
X214469D02*
D03*
X224468D02*
D03*
X234469D02*
D03*
X244468D02*
D03*
X254468D02*
D03*
D45*
X245984Y619051D02*
D03*
X212362D02*
D03*
Y600429D02*
D03*
X245984D02*
D03*
D46*
X237047Y595902D02*
D03*
X221299D02*
D03*
X218150D02*
D03*
X219724Y598697D02*
D03*
X222874D02*
D03*
X224449Y595902D02*
D03*
X226024Y598697D02*
D03*
X227598Y595902D02*
D03*
X230748D02*
D03*
X232323Y598697D02*
D03*
X233898Y595902D02*
D03*
X235472Y598697D02*
D03*
X238622D02*
D03*
X240197Y595902D02*
D03*
D47*
X56500Y511500D02*
D03*
Y519000D02*
D03*
Y526500D02*
D03*
X49343Y497500D02*
D03*
X59000Y490000D02*
D03*
Y460000D02*
D03*
Y467500D02*
D03*
Y475000D02*
D03*
Y482500D02*
D03*
X52000Y460000D02*
D03*
Y467500D02*
D03*
Y475000D02*
D03*
Y482500D02*
D03*
Y490000D02*
D03*
X57500Y503500D02*
D03*
X49500Y506000D02*
D03*
Y513500D02*
D03*
Y526000D02*
D03*
Y536000D02*
D03*
X54500Y541500D02*
D03*
X60000Y536500D02*
D03*
X80000D02*
D03*
X70000D02*
D03*
X100000D02*
D03*
X90000D02*
D03*
X120000D02*
D03*
X110000D02*
D03*
X140000D02*
D03*
X130000D02*
D03*
X160000D02*
D03*
X150000D02*
D03*
X180000D02*
D03*
X170000D02*
D03*
X200000D02*
D03*
X190000D02*
D03*
X210000D02*
D03*
X221500Y540500D02*
D03*
X70000Y544500D02*
D03*
X60000D02*
D03*
X90000D02*
D03*
X80000D02*
D03*
X110000D02*
D03*
X100000D02*
D03*
X130000D02*
D03*
X120000D02*
D03*
X150000D02*
D03*
X140000D02*
D03*
X170000D02*
D03*
X160000D02*
D03*
X180000D02*
D03*
X190000D02*
D03*
X200000D02*
D03*
X210000D02*
D03*
X216000Y547500D02*
D03*
X218500Y557500D02*
D03*
X228500Y547500D02*
D03*
Y557500D02*
D03*
X139500Y508000D02*
D03*
X238000Y575500D02*
D03*
X220000D02*
D03*
X295000Y459000D02*
D03*
X91000Y427500D02*
D03*
X22500Y196000D02*
D03*
X255000Y622500D02*
D03*
Y612500D02*
D03*
Y602500D02*
D03*
Y592500D02*
D03*
X265000Y602500D02*
D03*
Y622500D02*
D03*
X275000D02*
D03*
X260000Y617500D02*
D03*
Y607500D02*
D03*
X265000Y612500D02*
D03*
X270000Y607500D02*
D03*
Y617500D02*
D03*
X274500Y612500D02*
D03*
Y602500D02*
D03*
X284500D02*
D03*
Y612500D02*
D03*
X280000Y617500D02*
D03*
Y607500D02*
D03*
X285000Y622500D02*
D03*
X294500Y602500D02*
D03*
Y612500D02*
D03*
X290000Y617500D02*
D03*
Y607500D02*
D03*
X295000Y622500D02*
D03*
X304500Y602500D02*
D03*
Y612500D02*
D03*
X300000Y617500D02*
D03*
Y607500D02*
D03*
X305000Y622500D02*
D03*
X300000Y587500D02*
D03*
Y597500D02*
D03*
X304500Y592500D02*
D03*
X290000Y587500D02*
D03*
Y597500D02*
D03*
X294500Y592500D02*
D03*
X280000Y587500D02*
D03*
Y597500D02*
D03*
X284500Y592500D02*
D03*
X274500D02*
D03*
X270000Y597500D02*
D03*
Y587500D02*
D03*
X265000Y592500D02*
D03*
X260000Y587500D02*
D03*
Y597500D02*
D03*
X150000Y617500D02*
D03*
Y607500D02*
D03*
Y587500D02*
D03*
Y597500D02*
D03*
X155000Y592500D02*
D03*
X160000Y597500D02*
D03*
Y587500D02*
D03*
X165000Y592500D02*
D03*
X170000Y587500D02*
D03*
Y597500D02*
D03*
X174500Y592500D02*
D03*
X184500D02*
D03*
X180000Y597500D02*
D03*
Y587500D02*
D03*
X194500Y592500D02*
D03*
X190000Y597500D02*
D03*
Y587500D02*
D03*
X204500Y592500D02*
D03*
X200000Y597500D02*
D03*
Y587500D02*
D03*
X205000Y622500D02*
D03*
X200000Y607500D02*
D03*
Y617500D02*
D03*
X204500Y612500D02*
D03*
Y602500D02*
D03*
X195000Y622500D02*
D03*
X190000Y607500D02*
D03*
Y617500D02*
D03*
X194500Y612500D02*
D03*
Y602500D02*
D03*
X185000Y622500D02*
D03*
X180000Y607500D02*
D03*
Y617500D02*
D03*
X184500Y612500D02*
D03*
Y602500D02*
D03*
X174500D02*
D03*
Y612500D02*
D03*
X170000Y617500D02*
D03*
Y607500D02*
D03*
X165000Y612500D02*
D03*
X160000Y607500D02*
D03*
Y617500D02*
D03*
X175000Y622500D02*
D03*
X165000D02*
D03*
X155000D02*
D03*
Y612500D02*
D03*
X165000Y602500D02*
D03*
X155000D02*
D03*
X245000Y358500D02*
D03*
X175000Y371000D02*
D03*
X181000D02*
D03*
X175000Y380500D02*
D03*
X181000D02*
D03*
X175000Y390000D02*
D03*
X181000D02*
D03*
X175000Y399500D02*
D03*
X181000D02*
D03*
X237000Y365000D02*
D03*
X245000D02*
D03*
X217500D02*
D03*
X227000D02*
D03*
X252500Y45000D02*
D03*
X177500Y105000D02*
D03*
Y75000D02*
D03*
Y90000D02*
D03*
Y45000D02*
D03*
Y60000D02*
D03*
X192500D02*
D03*
Y45000D02*
D03*
X207500Y60000D02*
D03*
Y45000D02*
D03*
X200000Y52500D02*
D03*
X185000D02*
D03*
X200000Y67500D02*
D03*
X185000D02*
D03*
X192500Y90000D02*
D03*
Y75000D02*
D03*
X207500Y90000D02*
D03*
Y75000D02*
D03*
X200000Y82500D02*
D03*
X185000D02*
D03*
X200000Y97500D02*
D03*
X185000D02*
D03*
X207500Y105000D02*
D03*
X192500D02*
D03*
X242500Y370500D02*
D03*
X232500D02*
D03*
Y380500D02*
D03*
X242500D02*
D03*
X272500Y441000D02*
D03*
Y450500D02*
D03*
X295000Y405000D02*
D03*
X305500D02*
D03*
X285000D02*
D03*
X275000D02*
D03*
X265000D02*
D03*
X244500D02*
D03*
X215000D02*
D03*
X225000D02*
D03*
X215000Y415000D02*
D03*
Y425000D02*
D03*
Y435000D02*
D03*
Y445000D02*
D03*
Y455000D02*
D03*
Y465000D02*
D03*
X255000Y495000D02*
D03*
X265000Y485000D02*
D03*
X275000D02*
D03*
X285000D02*
D03*
X280000Y490000D02*
D03*
X260000D02*
D03*
X235000Y505000D02*
D03*
X245000D02*
D03*
X255000D02*
D03*
X265000D02*
D03*
X280000Y500000D02*
D03*
X275000Y495000D02*
D03*
Y505000D02*
D03*
X285000D02*
D03*
Y495000D02*
D03*
X235000Y465000D02*
D03*
X220000Y460000D02*
D03*
X230000Y470000D02*
D03*
Y460000D02*
D03*
X225000Y465000D02*
D03*
X220000Y470000D02*
D03*
X225000Y425000D02*
D03*
X235000D02*
D03*
X220000Y420000D02*
D03*
Y410000D02*
D03*
X225000Y415000D02*
D03*
X230000Y410000D02*
D03*
Y420000D02*
D03*
X240000Y410000D02*
D03*
Y420000D02*
D03*
X234500Y415000D02*
D03*
X285000D02*
D03*
X265000D02*
D03*
X275000D02*
D03*
X265000Y425000D02*
D03*
X270000Y420000D02*
D03*
X275000Y425000D02*
D03*
X290000Y420000D02*
D03*
Y430000D02*
D03*
Y440000D02*
D03*
X295000Y450000D02*
D03*
X305500Y415000D02*
D03*
Y425000D02*
D03*
Y435000D02*
D03*
Y445000D02*
D03*
Y455000D02*
D03*
X285000Y475000D02*
D03*
X290000Y470000D02*
D03*
X300000D02*
D03*
X305000Y465000D02*
D03*
X300000Y480000D02*
D03*
X305000Y475000D02*
D03*
X295000D02*
D03*
X305000Y485000D02*
D03*
X295000Y495000D02*
D03*
Y505000D02*
D03*
X305000Y495000D02*
D03*
X300000Y500000D02*
D03*
X305000Y505000D02*
D03*
X245000Y52500D02*
D03*
Y67500D02*
D03*
X252500Y90000D02*
D03*
X245000Y82500D02*
D03*
Y97500D02*
D03*
X252500Y105000D02*
D03*
X222500D02*
D03*
X237500D02*
D03*
X215000Y97500D02*
D03*
X230000D02*
D03*
X215000Y82500D02*
D03*
X230000D02*
D03*
X237500Y75000D02*
D03*
Y90000D02*
D03*
X222500Y75000D02*
D03*
Y90000D02*
D03*
X215000Y67500D02*
D03*
X230000D02*
D03*
X215000Y52500D02*
D03*
X230000D02*
D03*
X237500Y45000D02*
D03*
Y60000D02*
D03*
X222500Y45000D02*
D03*
Y60000D02*
D03*
X55000Y335248D02*
D03*
X63000D02*
D03*
Y315248D02*
D03*
X55000D02*
D03*
X22000Y336500D02*
D03*
X14000D02*
D03*
Y316500D02*
D03*
X22000D02*
D03*
X34000Y82748D02*
D03*
X42000D02*
D03*
Y75748D02*
D03*
X34000D02*
D03*
Y55748D02*
D03*
X42000D02*
D03*
X34000Y48248D02*
D03*
X42000D02*
D03*
X102000Y82500D02*
D03*
X110000D02*
D03*
X102000Y75000D02*
D03*
X110000D02*
D03*
Y55000D02*
D03*
X102000D02*
D03*
Y48000D02*
D03*
X110000D02*
D03*
X257500Y497500D02*
D03*
Y502500D02*
D03*
X255000Y500000D02*
D03*
X249000Y457500D02*
D03*
X243000Y442500D02*
D03*
X263000Y477500D02*
D03*
X282500D02*
D03*
X275000Y472500D02*
D03*
X262000Y456500D02*
D03*
X244000Y449000D02*
D03*
Y452500D02*
D03*
X254000D02*
D03*
Y449000D02*
D03*
X95000Y437500D02*
D03*
X100000Y434500D02*
D03*
X89929Y424071D02*
D03*
X56500Y269500D02*
D03*
X42000Y262500D02*
D03*
X97500Y266000D02*
D03*
X100000Y275000D02*
D03*
X65000D02*
D03*
X90000D02*
D03*
X97500Y282500D02*
D03*
X60000Y277500D02*
D03*
X82000Y382000D02*
D03*
X49000Y224000D02*
D03*
X56500Y221500D02*
D03*
X48500Y176000D02*
D03*
X60000Y180000D02*
D03*
X59500Y150000D02*
D03*
Y140000D02*
D03*
Y155000D02*
D03*
Y145000D02*
D03*
X39500Y142500D02*
D03*
Y147500D02*
D03*
Y137500D02*
D03*
Y152500D02*
D03*
X59500Y196000D02*
D03*
Y206000D02*
D03*
Y201000D02*
D03*
Y211000D02*
D03*
X281000Y455000D02*
D03*
X267500Y440500D02*
D03*
X245500Y494000D02*
D03*
X87500D02*
D03*
X68000Y500000D02*
D03*
X41500Y465000D02*
D03*
X48500Y467500D02*
D03*
X13000Y486000D02*
D03*
Y481000D02*
D03*
Y471000D02*
D03*
X93654Y81154D02*
D03*
X39000Y130000D02*
D03*
X70500Y160000D02*
D03*
X57000Y171000D02*
D03*
X34500Y172000D02*
D03*
X72500Y216000D02*
D03*
X46500Y256500D02*
D03*
X34563Y342000D02*
D03*
X27000Y413500D02*
D03*
X33500Y410000D02*
D03*
X33571Y424071D02*
D03*
X32744Y460256D02*
D03*
X15500Y499000D02*
D03*
X74000Y477000D02*
D03*
X74256Y464256D02*
D03*
X91500Y465000D02*
D03*
X80000Y470000D02*
D03*
X77118Y449618D02*
D03*
X83000Y452500D02*
D03*
X82181Y439819D02*
D03*
X20500Y465000D02*
D03*
X15000Y410000D02*
D03*
X37500Y402500D02*
D03*
X68500Y224000D02*
D03*
X25000Y191000D02*
D03*
X38000Y201000D02*
D03*
Y206000D02*
D03*
X20000Y199000D02*
D03*
X17500Y201500D02*
D03*
X15000Y204000D02*
D03*
X12500Y206500D02*
D03*
X82500Y188500D02*
D03*
X71500Y186000D02*
D03*
X85000Y312500D02*
D03*
Y307500D02*
D03*
X105500D02*
D03*
Y312500D02*
D03*
X275000Y557000D02*
D03*
X281000Y467500D02*
D03*
Y462500D02*
D03*
X263500D02*
D03*
Y467500D02*
D03*
X93500Y140000D02*
D03*
Y145000D02*
D03*
Y150000D02*
D03*
Y155000D02*
D03*
X235000Y485000D02*
D03*
X240000Y480000D02*
D03*
X224000Y475000D02*
D03*
X92000Y441500D02*
D03*
X112000D02*
D03*
X234500Y405000D02*
D03*
X207500Y365000D02*
D03*
X198000D02*
D03*
X188000D02*
D03*
Y358500D02*
D03*
X198000D02*
D03*
X207500D02*
D03*
X227000D02*
D03*
X217500D02*
D03*
X237000D02*
D03*
X181000Y428500D02*
D03*
Y418500D02*
D03*
Y409000D02*
D03*
X175000Y428500D02*
D03*
Y418500D02*
D03*
Y409000D02*
D03*
Y438000D02*
D03*
Y448000D02*
D03*
X181000Y438000D02*
D03*
Y448000D02*
D03*
X175000Y457500D02*
D03*
Y467500D02*
D03*
X181000Y457500D02*
D03*
Y467500D02*
D03*
X175000Y477000D02*
D03*
X181000D02*
D03*
X169500Y480500D02*
D03*
X159500D02*
D03*
Y487000D02*
D03*
X169500D02*
D03*
X149500D02*
D03*
Y480500D02*
D03*
X146500Y477500D02*
D03*
Y467500D02*
D03*
X140500Y477500D02*
D03*
Y467500D02*
D03*
X146500Y458000D02*
D03*
Y448000D02*
D03*
X140500Y458000D02*
D03*
Y448000D02*
D03*
X115500Y438000D02*
D03*
Y444500D02*
D03*
X135500D02*
D03*
X125500D02*
D03*
Y438000D02*
D03*
X135500D02*
D03*
X175000Y363000D02*
D03*
X178500Y358500D02*
D03*
X179000Y485500D02*
D03*
X89500Y382000D02*
D03*
X120000Y508000D02*
D03*
X142500Y485000D02*
D03*
X143500Y441000D02*
D03*
X109500Y502500D02*
D03*
X109000Y497500D02*
D03*
X99000Y494000D02*
D03*
X61500Y488500D02*
D03*
X116000Y505500D02*
D03*
X104000Y505000D02*
D03*
X118000Y490000D02*
D03*
X230500Y587000D02*
D03*
X226000Y582500D02*
D03*
X242000Y575000D02*
D03*
X232500Y568500D02*
D03*
D48*
X256165Y436165D02*
D03*
Y431835D02*
D03*
X251835Y436165D02*
D03*
Y431835D02*
D03*
D49*
X244500Y424000D02*
D03*
M02*
