G04*
G04 #@! TF.GenerationSoftware,Altium Limited,CircuitStudio,1.5.2 (30)*
G04*
G04 Layer_Physical_Order=2*
G04 Layer_Color=12500520*
%FSLAX25Y25*%
%MOIN*%
G70*
G01*
G75*
%ADD11C,0.01000*%
%ADD12C,0.02000*%
%ADD30C,0.06300*%
%ADD31C,0.09300*%
%ADD32C,0.07700*%
%ADD33C,0.02050*%
G36*
X208092Y617524D02*
X208521Y617346D01*
X209500Y617218D01*
X210479Y617346D01*
X210906Y617523D01*
X295000Y617500D01*
Y617500D01*
X295043Y617537D01*
X296305Y617371D01*
X297522Y616867D01*
X298566Y616066D01*
X299367Y615022D01*
X299871Y613805D01*
X300043Y612500D01*
X300000Y444500D01*
Y438500D01*
X300000D01*
X300038Y438457D01*
X299871Y437195D01*
X299367Y435978D01*
X298566Y434934D01*
X297522Y434132D01*
X296305Y433629D01*
X295000Y433457D01*
X182500Y433500D01*
Y433500D01*
X182457Y433462D01*
X181195Y433629D01*
X179978Y434132D01*
X178934Y434934D01*
X178132Y435978D01*
X177629Y437195D01*
X177457Y438500D01*
X177500Y475000D01*
Y477500D01*
X177548D01*
X177355Y479460D01*
X176784Y481345D01*
X175855Y483083D01*
X174605Y484605D01*
X173083Y485855D01*
X171345Y486784D01*
X169460Y487355D01*
X167500Y487548D01*
X140000Y487500D01*
X140000Y487500D01*
Y487500D01*
X139957Y487463D01*
X138695Y487629D01*
X137478Y488132D01*
X136434Y488934D01*
X135633Y489978D01*
X135129Y491195D01*
X134957Y492500D01*
Y492500D01*
X135000Y612500D01*
X135000D01*
X135021Y612991D01*
X135129Y613805D01*
X135633Y615022D01*
X136434Y616066D01*
X137478Y616867D01*
X138695Y617371D01*
X140000Y617543D01*
X140000D01*
X208092Y617524D01*
D02*
G37*
G36*
X187500Y407500D02*
Y407500D01*
X303500Y407543D01*
X304805Y407371D01*
X306022Y406868D01*
X307066Y406066D01*
X307868Y405022D01*
X308371Y403805D01*
X308538Y402543D01*
X308500Y402500D01*
X308500D01*
X308543Y295000D01*
X308371Y293695D01*
X307868Y292478D01*
X307066Y291434D01*
X306022Y290633D01*
X304805Y290129D01*
X303543Y289963D01*
X303500Y290000D01*
Y290000D01*
X187500Y289952D01*
X185540Y290145D01*
X183655Y290717D01*
X181917Y291645D01*
X180395Y292895D01*
X179145Y294417D01*
X178217Y296155D01*
X177645Y298040D01*
X177456Y299952D01*
X177500Y300000D01*
X177500D01*
X177452Y397500D01*
X177645Y399460D01*
X178217Y401345D01*
X179145Y403083D01*
X180395Y404605D01*
X181917Y405855D01*
X183655Y406783D01*
X185540Y407355D01*
X187452Y407544D01*
X187500Y407500D01*
D02*
G37*
%LPC*%
G36*
X270000Y456657D02*
X269872Y456631D01*
X250128D01*
X250000Y456657D01*
X249366Y456531D01*
X248828Y456172D01*
X248469Y455634D01*
X248343Y455000D01*
X248469Y454366D01*
X248828Y453828D01*
X249366Y453469D01*
X250000Y453343D01*
X250128Y453369D01*
X269872D01*
X270000Y453343D01*
X270634Y453469D01*
X271172Y453828D01*
X271531Y454366D01*
X271657Y455000D01*
X271531Y455634D01*
X271172Y456172D01*
X270634Y456531D01*
X270000Y456657D01*
D02*
G37*
G36*
X215133Y568000D02*
X210000D01*
Y562867D01*
X210975Y562995D01*
X212349Y563565D01*
X213530Y564470D01*
X214435Y565651D01*
X215005Y567025D01*
X215133Y568000D01*
D02*
G37*
G36*
X209000D02*
X203867D01*
X203995Y567025D01*
X204565Y565651D01*
X205470Y564470D01*
X206651Y563565D01*
X208025Y562995D01*
X209000Y562867D01*
Y568000D01*
D02*
G37*
G36*
X270854Y329673D02*
X264500D01*
X264041Y329483D01*
X263851Y329024D01*
Y322724D01*
X264041Y322265D01*
X264500Y322075D01*
X270854D01*
X271314Y322265D01*
X271504Y322724D01*
Y329024D01*
X271314Y329483D01*
X270854Y329673D01*
D02*
G37*
G36*
X296500Y329673D02*
X290146D01*
X289686Y329483D01*
X289496Y329024D01*
Y322724D01*
X289686Y322265D01*
X290146Y322075D01*
X296500D01*
X296959Y322265D01*
X297149Y322724D01*
Y329024D01*
X296959Y329483D01*
X296500Y329673D01*
D02*
G37*
G36*
X275000Y374157D02*
X274366Y374031D01*
X273828Y373672D01*
X273469Y373134D01*
X273343Y372500D01*
X273469Y371866D01*
X273828Y371328D01*
X274366Y370969D01*
X275000Y370843D01*
X275634Y370969D01*
X276172Y371328D01*
X276205Y371378D01*
X282000D01*
Y371376D01*
X282527Y371272D01*
X282694Y371160D01*
X282844Y370528D01*
X282804Y370469D01*
X282678Y369835D01*
X282804Y369201D01*
X283163Y368663D01*
X283701Y368304D01*
X284335Y368178D01*
X284969Y368304D01*
X285506Y368663D01*
X285865Y369201D01*
X285992Y369835D01*
X285865Y370469D01*
X285506Y371006D01*
X285470Y371031D01*
X285145Y371815D01*
X284567Y372568D01*
X283816Y373145D01*
X282940Y373507D01*
X282000Y373631D01*
Y373622D01*
X276205D01*
X276172Y373672D01*
X275634Y374031D01*
X275000Y374157D01*
D02*
G37*
G36*
X252000Y587988D02*
X250838Y587836D01*
X249756Y587387D01*
X248826Y586674D01*
X248113Y585744D01*
X247664Y584662D01*
X247512Y583500D01*
X247664Y582338D01*
X248113Y581256D01*
X248826Y580326D01*
X249756Y579613D01*
X250838Y579165D01*
X252000Y579012D01*
X253162Y579165D01*
X254244Y579613D01*
X255174Y580326D01*
X255887Y581256D01*
X256335Y582338D01*
X256488Y583500D01*
X256335Y584662D01*
X255887Y585744D01*
X255174Y586674D01*
X254244Y587387D01*
X253162Y587836D01*
X252000Y587988D01*
D02*
G37*
G36*
X224500D02*
X223338Y587836D01*
X222256Y587387D01*
X221326Y586674D01*
X220613Y585744D01*
X220164Y584662D01*
X220012Y583500D01*
X220164Y582338D01*
X220613Y581256D01*
X221326Y580326D01*
X222256Y579613D01*
X223338Y579165D01*
X224500Y579012D01*
X225662Y579165D01*
X226744Y579613D01*
X227674Y580326D01*
X228387Y581256D01*
X228836Y582338D01*
X228988Y583500D01*
X228836Y584662D01*
X228387Y585744D01*
X227674Y586674D01*
X226744Y587387D01*
X225662Y587836D01*
X224500Y587988D01*
D02*
G37*
G36*
X192000Y612988D02*
X190838Y612836D01*
X189756Y612387D01*
X188826Y611674D01*
X188113Y610744D01*
X187664Y609662D01*
X187512Y608500D01*
X187664Y607338D01*
X188113Y606256D01*
X188826Y605326D01*
X189756Y604613D01*
X190838Y604165D01*
X192000Y604012D01*
X193162Y604165D01*
X194244Y604613D01*
X195174Y605326D01*
X195887Y606256D01*
X196335Y607338D01*
X196488Y608500D01*
X196335Y609662D01*
X195887Y610744D01*
X195174Y611674D01*
X194244Y612387D01*
X193162Y612836D01*
X192000Y612988D01*
D02*
G37*
G36*
X239500Y604782D02*
X238521Y604654D01*
X237609Y604276D01*
X236825Y603675D01*
X236224Y602891D01*
X235846Y601979D01*
X235718Y601000D01*
X235846Y600021D01*
X236224Y599109D01*
X236825Y598325D01*
X237609Y597724D01*
X238521Y597346D01*
X239500Y597218D01*
X240479Y597346D01*
X241391Y597724D01*
X242175Y598325D01*
X242776Y599109D01*
X243154Y600021D01*
X243282Y601000D01*
X243154Y601979D01*
X242776Y602891D01*
X242175Y603675D01*
X241391Y604276D01*
X240479Y604654D01*
X239500Y604782D01*
D02*
G37*
G36*
X224500Y572988D02*
X223338Y572835D01*
X222256Y572387D01*
X221326Y571674D01*
X220613Y570744D01*
X220164Y569662D01*
X220012Y568500D01*
X220164Y567338D01*
X220613Y566256D01*
X221326Y565326D01*
X222256Y564613D01*
X223338Y564164D01*
X224500Y564012D01*
X225662Y564164D01*
X226744Y564613D01*
X227674Y565326D01*
X228387Y566256D01*
X228836Y567338D01*
X228988Y568500D01*
X228836Y569662D01*
X228387Y570744D01*
X227674Y571674D01*
X226744Y572387D01*
X225662Y572835D01*
X224500Y572988D01*
D02*
G37*
G36*
X239500Y573795D02*
X238129Y573615D01*
X236852Y573086D01*
X235756Y572244D01*
X234914Y571148D01*
X234385Y569871D01*
X234205Y568500D01*
X234385Y567130D01*
X234914Y565852D01*
X235756Y564756D01*
X236852Y563914D01*
X238129Y563385D01*
X239500Y563205D01*
X240870Y563385D01*
X242148Y563914D01*
X243244Y564756D01*
X244086Y565852D01*
X244615Y567130D01*
X244795Y568500D01*
X244615Y569871D01*
X244086Y571148D01*
X243244Y572244D01*
X242148Y573086D01*
X240870Y573615D01*
X239500Y573795D01*
D02*
G37*
G36*
X210000Y574133D02*
Y569000D01*
X215133D01*
X215005Y569975D01*
X214435Y571349D01*
X213530Y572530D01*
X212349Y573435D01*
X210975Y574005D01*
X210000Y574133D01*
D02*
G37*
G36*
X209000D02*
X208025Y574005D01*
X206651Y573435D01*
X205470Y572530D01*
X204565Y571349D01*
X203995Y569975D01*
X203867Y569000D01*
X209000D01*
Y574133D01*
D02*
G37*
%LPD*%
D11*
X284500Y370000D02*
X284310Y370957D01*
X283768Y371768D01*
X282957Y372310D01*
X282000Y372500D01*
X284500Y370000D02*
X284335Y369835D01*
X275000Y372500D02*
X282000D01*
D12*
X250000Y455000D02*
X270000D01*
D30*
X209500Y621000D02*
D03*
X239500Y601000D02*
D03*
D31*
Y568500D02*
D03*
X209500D02*
D03*
D32*
X192000Y608500D02*
D03*
X252000Y583500D02*
D03*
X224500D02*
D03*
Y568500D02*
D03*
D33*
X242500Y555000D02*
D03*
X227500D02*
D03*
X212500D02*
D03*
X197500Y600000D02*
D03*
X137500Y495000D02*
D03*
X152500D02*
D03*
X167500D02*
D03*
X197500D02*
D03*
X212500D02*
D03*
X190000Y487500D02*
D03*
Y472500D02*
D03*
X205000D02*
D03*
X212500Y480000D02*
D03*
X197500Y465000D02*
D03*
Y480000D02*
D03*
Y450000D02*
D03*
X205000Y457500D02*
D03*
Y442500D02*
D03*
X182500Y450000D02*
D03*
Y480000D02*
D03*
Y465000D02*
D03*
X175000Y487500D02*
D03*
X190000Y442500D02*
D03*
Y457500D02*
D03*
X250000Y487500D02*
D03*
X235000Y472500D02*
D03*
X250000D02*
D03*
X220000Y457500D02*
D03*
X227500Y450000D02*
D03*
Y480000D02*
D03*
Y465000D02*
D03*
X220000Y472500D02*
D03*
X287500Y465000D02*
D03*
Y450000D02*
D03*
X272500Y495000D02*
D03*
Y480000D02*
D03*
X280000Y472500D02*
D03*
Y487500D02*
D03*
Y457500D02*
D03*
X272500Y465000D02*
D03*
X295000Y442500D02*
D03*
Y457500D02*
D03*
Y487500D02*
D03*
Y472500D02*
D03*
X287500Y480000D02*
D03*
Y495000D02*
D03*
Y615000D02*
D03*
X295000Y607500D02*
D03*
Y592500D02*
D03*
X287500Y600000D02*
D03*
Y585000D02*
D03*
Y555000D02*
D03*
Y570000D02*
D03*
X295000Y562500D02*
D03*
Y577500D02*
D03*
X287500Y525000D02*
D03*
Y540000D02*
D03*
X295000Y532500D02*
D03*
Y547500D02*
D03*
X287500Y510000D02*
D03*
X295000Y502500D02*
D03*
Y517500D02*
D03*
X257500Y615000D02*
D03*
X265000Y607500D02*
D03*
Y592500D02*
D03*
X280000Y607500D02*
D03*
Y592500D02*
D03*
X272500Y600000D02*
D03*
Y585000D02*
D03*
X257500Y600000D02*
D03*
X220000Y577500D02*
D03*
X257500Y555000D02*
D03*
Y570000D02*
D03*
X272500Y555000D02*
D03*
Y570000D02*
D03*
X280000Y562500D02*
D03*
Y577500D02*
D03*
X265000Y562500D02*
D03*
Y577500D02*
D03*
X257500Y525000D02*
D03*
Y540000D02*
D03*
X272500Y525000D02*
D03*
Y540000D02*
D03*
X280000Y532500D02*
D03*
Y547500D02*
D03*
X265000Y532500D02*
D03*
Y547500D02*
D03*
X257500Y510000D02*
D03*
X272500D02*
D03*
X280000Y502500D02*
D03*
Y517500D02*
D03*
X265000D02*
D03*
X272500Y615000D02*
D03*
X227500D02*
D03*
X235000Y607500D02*
D03*
X250000D02*
D03*
Y592500D02*
D03*
X235000D02*
D03*
X242500Y585000D02*
D03*
X227500Y600000D02*
D03*
X250000Y562500D02*
D03*
X235000Y577500D02*
D03*
X227500Y540000D02*
D03*
X242500D02*
D03*
X250000Y532500D02*
D03*
Y547500D02*
D03*
X227500Y510000D02*
D03*
X242500D02*
D03*
X250000Y517500D02*
D03*
X242500Y615000D02*
D03*
X197500D02*
D03*
X205000Y607500D02*
D03*
Y592500D02*
D03*
X220000Y607500D02*
D03*
Y592500D02*
D03*
X212500Y600000D02*
D03*
Y585000D02*
D03*
X197500D02*
D03*
Y555000D02*
D03*
Y570000D02*
D03*
X205000Y577500D02*
D03*
X197500Y525000D02*
D03*
Y540000D02*
D03*
X212500D02*
D03*
X220000Y532500D02*
D03*
Y547500D02*
D03*
X205000Y532500D02*
D03*
Y547500D02*
D03*
X212500Y510000D02*
D03*
X220000Y502500D02*
D03*
X205000D02*
D03*
X182500Y615000D02*
D03*
X190000Y502500D02*
D03*
X167500Y510000D02*
D03*
X175000Y547500D02*
D03*
Y532500D02*
D03*
X190000Y547500D02*
D03*
Y532500D02*
D03*
X182500Y540000D02*
D03*
Y525000D02*
D03*
X167500Y540000D02*
D03*
X175000Y577500D02*
D03*
Y562500D02*
D03*
X190000Y577500D02*
D03*
Y562500D02*
D03*
X182500Y570000D02*
D03*
Y555000D02*
D03*
X167500Y570000D02*
D03*
Y555000D02*
D03*
Y585000D02*
D03*
X182500D02*
D03*
Y600000D02*
D03*
X190000Y592500D02*
D03*
X175000D02*
D03*
X167500Y615000D02*
D03*
X145000Y607500D02*
D03*
Y592500D02*
D03*
X152500Y585000D02*
D03*
X137500Y600000D02*
D03*
Y585000D02*
D03*
Y555000D02*
D03*
Y570000D02*
D03*
X152500Y555000D02*
D03*
Y570000D02*
D03*
X160000Y562500D02*
D03*
Y577500D02*
D03*
X145000Y562500D02*
D03*
Y577500D02*
D03*
X137500Y525000D02*
D03*
Y540000D02*
D03*
X152500Y525000D02*
D03*
Y540000D02*
D03*
X160000Y532500D02*
D03*
Y547500D02*
D03*
X145000Y532500D02*
D03*
Y547500D02*
D03*
X137500Y510000D02*
D03*
X152500D02*
D03*
X160000Y502500D02*
D03*
Y517500D02*
D03*
X145000Y502500D02*
D03*
Y517500D02*
D03*
X152500Y615000D02*
D03*
X262500Y337500D02*
D03*
X276500Y328500D02*
D03*
Y342000D02*
D03*
X277500Y352500D02*
D03*
X279500Y394000D02*
D03*
X250000Y387500D02*
D03*
X226500Y384000D02*
D03*
X215500Y394500D02*
D03*
Y384000D02*
D03*
X285000Y390000D02*
D03*
Y405000D02*
D03*
X270000Y390000D02*
D03*
X240000Y345000D02*
D03*
X232500Y367500D02*
D03*
X247500Y382500D02*
D03*
Y367500D02*
D03*
X240000Y390000D02*
D03*
Y360000D02*
D03*
Y375000D02*
D03*
X255000Y360000D02*
D03*
X270000D02*
D03*
X262500Y367500D02*
D03*
X277500D02*
D03*
X300000Y405000D02*
D03*
X292500Y397500D02*
D03*
X300000Y390000D02*
D03*
X292500Y382500D02*
D03*
X300000Y375000D02*
D03*
X292500Y367500D02*
D03*
X300000Y345000D02*
D03*
X292500Y337500D02*
D03*
Y352500D02*
D03*
X300000Y360000D02*
D03*
Y315000D02*
D03*
X285000D02*
D03*
X277500Y322500D02*
D03*
X255000Y315000D02*
D03*
X270000D02*
D03*
X262500Y307500D02*
D03*
X277500D02*
D03*
X292500D02*
D03*
X255000Y300000D02*
D03*
X262500Y292500D02*
D03*
X277500D02*
D03*
X292500D02*
D03*
X285000Y300000D02*
D03*
X270000D02*
D03*
X300000D02*
D03*
X240000Y315000D02*
D03*
X247500Y337500D02*
D03*
Y322500D02*
D03*
X240000Y330000D02*
D03*
X247500Y307500D02*
D03*
Y292500D02*
D03*
X240000Y300000D02*
D03*
X195000Y405000D02*
D03*
X217500Y352500D02*
D03*
X225000Y345000D02*
D03*
X210000Y360000D02*
D03*
Y345000D02*
D03*
X217500Y337500D02*
D03*
Y322500D02*
D03*
X232500Y337500D02*
D03*
Y322500D02*
D03*
X225000Y330000D02*
D03*
Y315000D02*
D03*
X210000Y330000D02*
D03*
Y315000D02*
D03*
Y300000D02*
D03*
X225000D02*
D03*
X232500Y292500D02*
D03*
Y307500D02*
D03*
X217500Y292500D02*
D03*
Y307500D02*
D03*
X187500D02*
D03*
Y292500D02*
D03*
X202500Y307500D02*
D03*
Y292500D02*
D03*
X195000Y300000D02*
D03*
X180000D02*
D03*
X187500Y337500D02*
D03*
Y322500D02*
D03*
X202500Y337500D02*
D03*
Y322500D02*
D03*
X195000Y330000D02*
D03*
Y315000D02*
D03*
X180000Y330000D02*
D03*
Y315000D02*
D03*
X187500Y367500D02*
D03*
Y352500D02*
D03*
X202500Y367500D02*
D03*
Y352500D02*
D03*
X195000Y360000D02*
D03*
Y345000D02*
D03*
X180000Y360000D02*
D03*
Y345000D02*
D03*
Y375000D02*
D03*
Y390000D02*
D03*
X195000Y375000D02*
D03*
Y390000D02*
D03*
X202500Y382500D02*
D03*
Y397500D02*
D03*
X187500Y382500D02*
D03*
Y397500D02*
D03*
X250000Y455000D02*
D03*
X270000D02*
D03*
X275000Y372500D02*
D03*
X284335Y369835D02*
D03*
X160000Y592500D02*
D03*
X152500Y600000D02*
D03*
X167500D02*
D03*
X160000Y607500D02*
D03*
X175000D02*
D03*
M02*
