G04*
G04 #@! TF.GenerationSoftware,Altium Limited,CircuitStudio,1.5.2 (30)*
G04*
G04 Layer_Physical_Order=2*
G04 Layer_Color=12500520*
%FSLAX25Y25*%
%MOIN*%
G70*
G01*
G75*
%ADD12C,0.02000*%
%ADD14C,0.00800*%
%ADD30C,0.06300*%
%ADD31C,0.09300*%
%ADD32C,0.07700*%
%ADD33C,0.02050*%
G36*
X293819Y618878D02*
Y618878D01*
X293862Y618916D01*
X295124Y618749D01*
X296340Y618246D01*
X297385Y617444D01*
X298186Y616400D01*
X298690Y615183D01*
X298862Y613878D01*
X298819Y445878D01*
Y439878D01*
X298819D01*
X298856Y439835D01*
X298690Y438573D01*
X298186Y437356D01*
X297385Y436312D01*
X296340Y435510D01*
X295124Y435007D01*
X293819Y434835D01*
X181319Y434878D01*
Y434878D01*
X181276Y434840D01*
X180014Y435007D01*
X178797Y435510D01*
X177753Y436312D01*
X176952Y437356D01*
X176448Y438573D01*
X176276Y439878D01*
X176319Y476378D01*
Y478878D01*
X176367D01*
X176174Y480838D01*
X175602Y482723D01*
X174674Y484461D01*
X173424Y485983D01*
X171902Y487233D01*
X170164Y488162D01*
X168279Y488733D01*
X166319Y488926D01*
X138819Y488878D01*
X138819Y488878D01*
Y488878D01*
X138776Y488840D01*
X137514Y489007D01*
X136297Y489510D01*
X135253Y490312D01*
X134451Y491356D01*
X133948Y492573D01*
X133776Y493878D01*
Y493878D01*
X133819Y613878D01*
X133819D01*
X133840Y614369D01*
X133948Y615183D01*
X134451Y616400D01*
X135253Y617444D01*
X136297Y618246D01*
X137514Y618749D01*
X138819Y618921D01*
X138819D01*
X293819Y618878D01*
D02*
G37*
G36*
X186319Y408878D02*
Y408878D01*
X302319Y408921D01*
X303624Y408749D01*
X304840Y408246D01*
X305885Y407444D01*
X306686Y406400D01*
X307190Y405183D01*
X307357Y403921D01*
X307319Y403878D01*
X307319D01*
X307362Y296378D01*
X307190Y295073D01*
X306686Y293856D01*
X305885Y292812D01*
X304840Y292010D01*
X303624Y291507D01*
X302362Y291340D01*
X302319Y291378D01*
Y291378D01*
X186319Y291330D01*
X184359Y291523D01*
X182474Y292094D01*
X180736Y293023D01*
X179214Y294273D01*
X177964Y295795D01*
X177035Y297533D01*
X176464Y299418D01*
X176275Y301330D01*
X176319Y301378D01*
X176319D01*
X176271Y398878D01*
X176464Y400838D01*
X177035Y402723D01*
X177964Y404461D01*
X179214Y405983D01*
X180736Y407233D01*
X182474Y408161D01*
X184359Y408733D01*
X186271Y408922D01*
X186319Y408878D01*
D02*
G37*
%LPC*%
G36*
X268819Y458035D02*
X268691Y458009D01*
X248947D01*
X248819Y458035D01*
X248185Y457909D01*
X247647Y457550D01*
X247288Y457012D01*
X247162Y456378D01*
X247288Y455744D01*
X247647Y455206D01*
X248185Y454847D01*
X248819Y454721D01*
X248947Y454747D01*
X268691D01*
X268819Y454721D01*
X269453Y454847D01*
X269990Y455206D01*
X270350Y455744D01*
X270476Y456378D01*
X270350Y457012D01*
X269990Y457550D01*
X269453Y457909D01*
X268819Y458035D01*
D02*
G37*
G36*
X213952Y559878D02*
X208819D01*
Y554745D01*
X209794Y554873D01*
X211168Y555443D01*
X212349Y556348D01*
X213254Y557529D01*
X213824Y558903D01*
X213952Y559878D01*
D02*
G37*
G36*
X207819D02*
X202686D01*
X202814Y558903D01*
X203384Y557529D01*
X204289Y556348D01*
X205470Y555443D01*
X206844Y554873D01*
X207819Y554745D01*
Y559878D01*
D02*
G37*
G36*
X269673Y331051D02*
X263319D01*
X262860Y330861D01*
X262669Y330402D01*
Y324102D01*
X262860Y323643D01*
X263319Y323453D01*
X269673D01*
X270132Y323643D01*
X270323Y324102D01*
Y330402D01*
X270132Y330861D01*
X269673Y331051D01*
D02*
G37*
G36*
X295319Y331051D02*
X288965D01*
X288505Y330861D01*
X288315Y330402D01*
Y324102D01*
X288505Y323643D01*
X288965Y323453D01*
X295319D01*
X295778Y323643D01*
X295968Y324102D01*
Y330402D01*
X295778Y330861D01*
X295319Y331051D01*
D02*
G37*
G36*
X263319Y391035D02*
X262685Y390909D01*
X262147Y390550D01*
X261788Y390012D01*
X261662Y389378D01*
X261788Y388744D01*
X262147Y388206D01*
X262299Y388105D01*
Y373378D01*
X262271D01*
X262460Y371942D01*
X263015Y370604D01*
X263896Y369455D01*
X265045Y368574D01*
X266383Y368020D01*
X266443Y368012D01*
X266647Y367706D01*
X267185Y367347D01*
X267819Y367221D01*
X268453Y367347D01*
X268990Y367706D01*
X269350Y368244D01*
X269476Y368878D01*
X269350Y369512D01*
X268990Y370050D01*
X268453Y370409D01*
X267819Y370535D01*
X267185Y370409D01*
X266721Y370099D01*
X266079Y370364D01*
X265358Y370917D01*
X264805Y371638D01*
X264458Y372477D01*
X264339Y373378D01*
X264338D01*
Y388105D01*
X264491Y388206D01*
X264850Y388744D01*
X264976Y389378D01*
X264850Y390012D01*
X264491Y390550D01*
X263953Y390909D01*
X263319Y391035D01*
D02*
G37*
G36*
X238319Y565673D02*
X236948Y565493D01*
X235671Y564964D01*
X234575Y564122D01*
X233733Y563026D01*
X233204Y561749D01*
X233024Y560378D01*
X233204Y559008D01*
X233733Y557730D01*
X234575Y556634D01*
X235671Y555792D01*
X236948Y555263D01*
X238319Y555083D01*
X239689Y555263D01*
X240967Y555792D01*
X242063Y556634D01*
X242905Y557730D01*
X243434Y559008D01*
X243614Y560378D01*
X243434Y561749D01*
X242905Y563026D01*
X242063Y564122D01*
X240967Y564964D01*
X239689Y565493D01*
X238319Y565673D01*
D02*
G37*
G36*
Y596660D02*
X237340Y596531D01*
X236428Y596154D01*
X235644Y595552D01*
X235043Y594769D01*
X234665Y593857D01*
X234537Y592878D01*
X234665Y591899D01*
X235043Y590987D01*
X235644Y590204D01*
X236428Y589602D01*
X237340Y589224D01*
X238319Y589096D01*
X239298Y589224D01*
X240210Y589602D01*
X240993Y590204D01*
X241595Y590987D01*
X241972Y591899D01*
X242101Y592878D01*
X241972Y593857D01*
X241595Y594769D01*
X240993Y595552D01*
X240210Y596154D01*
X239298Y596531D01*
X238319Y596660D01*
D02*
G37*
G36*
X250819Y579866D02*
X249657Y579713D01*
X248575Y579265D01*
X247645Y578552D01*
X246932Y577622D01*
X246483Y576540D01*
X246330Y575378D01*
X246483Y574216D01*
X246932Y573134D01*
X247645Y572204D01*
X248575Y571491D01*
X249657Y571042D01*
X250819Y570890D01*
X251981Y571042D01*
X253063Y571491D01*
X253993Y572204D01*
X254706Y573134D01*
X255154Y574216D01*
X255307Y575378D01*
X255154Y576540D01*
X254706Y577622D01*
X253993Y578552D01*
X253063Y579265D01*
X251981Y579713D01*
X250819Y579866D01*
D02*
G37*
G36*
X208319Y616660D02*
X207340Y616532D01*
X206428Y616154D01*
X205644Y615553D01*
X205043Y614769D01*
X204665Y613857D01*
X204537Y612878D01*
X204665Y611899D01*
X205043Y610987D01*
X205644Y610204D01*
X206428Y609602D01*
X207340Y609225D01*
X208319Y609096D01*
X209298Y609225D01*
X210210Y609602D01*
X210994Y610204D01*
X211595Y610987D01*
X211972Y611899D01*
X212101Y612878D01*
X211972Y613857D01*
X211595Y614769D01*
X210994Y615553D01*
X210210Y616154D01*
X209298Y616532D01*
X208319Y616660D01*
D02*
G37*
G36*
X190819Y604866D02*
X189657Y604713D01*
X188575Y604265D01*
X187645Y603552D01*
X186932Y602622D01*
X186484Y601540D01*
X186330Y600378D01*
X186484Y599216D01*
X186932Y598134D01*
X187645Y597204D01*
X188575Y596491D01*
X189657Y596042D01*
X190819Y595890D01*
X191981Y596042D01*
X193063Y596491D01*
X193993Y597204D01*
X194706Y598134D01*
X195154Y599216D01*
X195307Y600378D01*
X195154Y601540D01*
X194706Y602622D01*
X193993Y603552D01*
X193063Y604265D01*
X191981Y604713D01*
X190819Y604866D01*
D02*
G37*
G36*
X207819Y566011D02*
X206844Y565883D01*
X205470Y565313D01*
X204289Y564408D01*
X203384Y563227D01*
X202814Y561853D01*
X202686Y560878D01*
X207819D01*
Y566011D01*
D02*
G37*
G36*
X223319Y564866D02*
X222157Y564713D01*
X221075Y564265D01*
X220145Y563552D01*
X219432Y562622D01*
X218984Y561540D01*
X218830Y560378D01*
X218984Y559216D01*
X219432Y558134D01*
X220145Y557204D01*
X221075Y556491D01*
X222157Y556042D01*
X223319Y555890D01*
X224481Y556042D01*
X225563Y556491D01*
X226493Y557204D01*
X227206Y558134D01*
X227654Y559216D01*
X227807Y560378D01*
X227654Y561540D01*
X227206Y562622D01*
X226493Y563552D01*
X225563Y564265D01*
X224481Y564713D01*
X223319Y564866D01*
D02*
G37*
G36*
Y579866D02*
X222157Y579713D01*
X221075Y579265D01*
X220145Y578552D01*
X219432Y577622D01*
X218984Y576540D01*
X218830Y575378D01*
X218984Y574216D01*
X219432Y573134D01*
X220145Y572204D01*
X221075Y571491D01*
X222157Y571042D01*
X223319Y570890D01*
X224481Y571042D01*
X225563Y571491D01*
X226493Y572204D01*
X227206Y573134D01*
X227654Y574216D01*
X227807Y575378D01*
X227654Y576540D01*
X227206Y577622D01*
X226493Y578552D01*
X225563Y579265D01*
X224481Y579713D01*
X223319Y579866D01*
D02*
G37*
G36*
X208819Y566011D02*
Y560878D01*
X213952D01*
X213824Y561853D01*
X213254Y563227D01*
X212349Y564408D01*
X211168Y565313D01*
X209794Y565883D01*
X208819Y566011D01*
D02*
G37*
%LPD*%
D12*
X248819Y456378D02*
X268819D01*
D14*
X263319Y373378D02*
X263432Y372377D01*
X263765Y371426D01*
X264301Y370572D01*
X265013Y369860D01*
X265866Y369324D01*
X266818Y368991D01*
X267819Y368878D01*
X263319Y373378D02*
Y389378D01*
D30*
X208319Y612878D02*
D03*
X238319Y592878D02*
D03*
D31*
Y560378D02*
D03*
X208319D02*
D03*
D32*
X190819Y600378D02*
D03*
X250819Y575378D02*
D03*
X223319D02*
D03*
Y560378D02*
D03*
D33*
X241319Y601378D02*
D03*
X226319Y586378D02*
D03*
X232500Y551000D02*
D03*
X263819Y503878D02*
D03*
X211319Y496378D02*
D03*
X203819Y503878D02*
D03*
X211319Y526378D02*
D03*
X241319Y541378D02*
D03*
X211319Y571378D02*
D03*
X241319D02*
D03*
X256319Y586378D02*
D03*
X188819Y608878D02*
D03*
X136319Y496378D02*
D03*
X151319D02*
D03*
X166319D02*
D03*
X188819Y488878D02*
D03*
Y473878D02*
D03*
X203819D02*
D03*
X196319Y466378D02*
D03*
Y451378D02*
D03*
X203819Y458878D02*
D03*
Y443878D02*
D03*
X181319Y451378D02*
D03*
Y466378D02*
D03*
X173819Y488878D02*
D03*
X188819Y443878D02*
D03*
Y458878D02*
D03*
X248819Y488878D02*
D03*
X233819Y473878D02*
D03*
X248819D02*
D03*
X218819Y458878D02*
D03*
X226319Y451378D02*
D03*
Y481378D02*
D03*
Y466378D02*
D03*
X218819Y473878D02*
D03*
X286319Y466378D02*
D03*
Y451378D02*
D03*
X271319Y496378D02*
D03*
Y481378D02*
D03*
X278819Y473878D02*
D03*
Y488878D02*
D03*
Y458878D02*
D03*
X271319Y466378D02*
D03*
X293819Y443878D02*
D03*
Y458878D02*
D03*
Y488878D02*
D03*
Y473878D02*
D03*
X286319Y481378D02*
D03*
Y496378D02*
D03*
Y616378D02*
D03*
X293819Y608878D02*
D03*
Y593878D02*
D03*
X286319Y601378D02*
D03*
Y586378D02*
D03*
Y556378D02*
D03*
Y571378D02*
D03*
X293819Y563878D02*
D03*
Y578878D02*
D03*
X286319Y526378D02*
D03*
Y541378D02*
D03*
X293819Y533878D02*
D03*
Y548878D02*
D03*
X286319Y511378D02*
D03*
X293819Y503878D02*
D03*
Y518878D02*
D03*
X256319Y616378D02*
D03*
X263819Y608878D02*
D03*
Y593878D02*
D03*
X278819Y608878D02*
D03*
Y593878D02*
D03*
X271319Y601378D02*
D03*
Y586378D02*
D03*
X256319Y601378D02*
D03*
Y556378D02*
D03*
Y571378D02*
D03*
X271319Y556378D02*
D03*
Y571378D02*
D03*
X278819Y563878D02*
D03*
Y578878D02*
D03*
X263819Y563878D02*
D03*
Y578878D02*
D03*
X256319Y526378D02*
D03*
Y541378D02*
D03*
X271319Y526378D02*
D03*
Y541378D02*
D03*
X278819Y533878D02*
D03*
Y548878D02*
D03*
X263819Y533878D02*
D03*
Y548878D02*
D03*
X256319Y511378D02*
D03*
X271319D02*
D03*
X278819Y503878D02*
D03*
Y518878D02*
D03*
X263819D02*
D03*
X271319Y616378D02*
D03*
X226319D02*
D03*
X233819Y608878D02*
D03*
X248819D02*
D03*
Y593878D02*
D03*
X241319Y586378D02*
D03*
X226319Y601378D02*
D03*
X248819Y563878D02*
D03*
X233819Y578878D02*
D03*
X248819Y533878D02*
D03*
Y548878D02*
D03*
X241319Y511378D02*
D03*
X248819Y518878D02*
D03*
X241319Y616378D02*
D03*
X196319D02*
D03*
X203819Y608878D02*
D03*
Y593878D02*
D03*
X218819Y608878D02*
D03*
Y593878D02*
D03*
X211319Y601378D02*
D03*
Y586378D02*
D03*
X196319D02*
D03*
Y556378D02*
D03*
Y571378D02*
D03*
X203819Y578878D02*
D03*
X196319Y526378D02*
D03*
Y541378D02*
D03*
X211319D02*
D03*
X218819Y533878D02*
D03*
X203819D02*
D03*
Y548878D02*
D03*
X181319Y616378D02*
D03*
X188819Y503878D02*
D03*
X166319Y511378D02*
D03*
X173819Y548878D02*
D03*
Y533878D02*
D03*
X188819Y548878D02*
D03*
Y533878D02*
D03*
X181319Y541378D02*
D03*
Y526378D02*
D03*
X166319Y541378D02*
D03*
X173819Y578878D02*
D03*
Y563878D02*
D03*
X188819Y578878D02*
D03*
Y563878D02*
D03*
X181319Y571378D02*
D03*
Y556378D02*
D03*
X166319Y571378D02*
D03*
Y556378D02*
D03*
Y586378D02*
D03*
X181319D02*
D03*
Y601378D02*
D03*
X173819Y593878D02*
D03*
X166319Y616378D02*
D03*
X143819Y608878D02*
D03*
Y593878D02*
D03*
X151319Y586378D02*
D03*
X136319Y601378D02*
D03*
Y586378D02*
D03*
Y556378D02*
D03*
Y571378D02*
D03*
X151319Y556378D02*
D03*
Y571378D02*
D03*
X158819Y563878D02*
D03*
Y578878D02*
D03*
X143819Y563878D02*
D03*
Y578878D02*
D03*
X136319Y526378D02*
D03*
Y541378D02*
D03*
X151319Y526378D02*
D03*
Y541378D02*
D03*
X158819Y533878D02*
D03*
Y548878D02*
D03*
X143819Y533878D02*
D03*
Y548878D02*
D03*
X136319Y511378D02*
D03*
X151319D02*
D03*
X158819Y503878D02*
D03*
Y518878D02*
D03*
X143819Y503878D02*
D03*
Y518878D02*
D03*
X151319Y616378D02*
D03*
X261319Y338878D02*
D03*
X278319Y395378D02*
D03*
X248819Y388878D02*
D03*
X225319Y385378D02*
D03*
X214319Y395878D02*
D03*
Y385378D02*
D03*
X283819Y391378D02*
D03*
Y406378D02*
D03*
X268819Y391378D02*
D03*
X238819Y346378D02*
D03*
X231319Y368878D02*
D03*
X246319Y383878D02*
D03*
Y368878D02*
D03*
X238819Y391378D02*
D03*
Y361378D02*
D03*
Y376378D02*
D03*
X253819Y361378D02*
D03*
X268819D02*
D03*
X261319Y368878D02*
D03*
X298819Y406378D02*
D03*
X291319Y398878D02*
D03*
X298819Y391378D02*
D03*
X291319Y383878D02*
D03*
X298819Y376378D02*
D03*
X291319Y368878D02*
D03*
X298819Y346378D02*
D03*
X291319Y338878D02*
D03*
Y353878D02*
D03*
X298819Y361378D02*
D03*
Y316378D02*
D03*
X283819D02*
D03*
X276319Y323878D02*
D03*
X261319Y308878D02*
D03*
X276319D02*
D03*
X291319D02*
D03*
X253819Y301378D02*
D03*
X261319Y293878D02*
D03*
X276319D02*
D03*
X291319D02*
D03*
X283819Y301378D02*
D03*
X268819D02*
D03*
X298819D02*
D03*
X238819Y316378D02*
D03*
X246319Y338878D02*
D03*
Y323878D02*
D03*
X238819Y331378D02*
D03*
X246319Y308878D02*
D03*
Y293878D02*
D03*
X238819Y301378D02*
D03*
X193819Y406378D02*
D03*
X216319Y353878D02*
D03*
X223819Y346378D02*
D03*
X208819Y361378D02*
D03*
Y346378D02*
D03*
X216319Y338878D02*
D03*
Y323878D02*
D03*
X231319Y338878D02*
D03*
Y323878D02*
D03*
X223819Y331378D02*
D03*
Y316378D02*
D03*
X208819Y331378D02*
D03*
Y316378D02*
D03*
Y301378D02*
D03*
X223819D02*
D03*
X231319Y293878D02*
D03*
Y308878D02*
D03*
X216319Y293878D02*
D03*
Y308878D02*
D03*
X186319D02*
D03*
Y293878D02*
D03*
X201319Y308878D02*
D03*
Y293878D02*
D03*
X193819Y301378D02*
D03*
X178819D02*
D03*
X186319Y338878D02*
D03*
Y323878D02*
D03*
X201319Y338878D02*
D03*
Y323878D02*
D03*
X193819Y331378D02*
D03*
Y316378D02*
D03*
X178819Y331378D02*
D03*
Y316378D02*
D03*
X186319Y368878D02*
D03*
Y353878D02*
D03*
X201319Y368878D02*
D03*
Y353878D02*
D03*
X193819Y361378D02*
D03*
Y346378D02*
D03*
X178819Y361378D02*
D03*
Y346378D02*
D03*
Y376378D02*
D03*
Y391378D02*
D03*
X193819Y376378D02*
D03*
Y391378D02*
D03*
X201319Y383878D02*
D03*
Y398878D02*
D03*
X186319Y383878D02*
D03*
Y398878D02*
D03*
X248819Y456378D02*
D03*
X268819D02*
D03*
X158819Y593878D02*
D03*
X151319Y601378D02*
D03*
X166319D02*
D03*
X158819Y608878D02*
D03*
X173819D02*
D03*
X283819Y361378D02*
D03*
Y346378D02*
D03*
X268819D02*
D03*
X261319Y353878D02*
D03*
X253819Y346378D02*
D03*
X246319Y353878D02*
D03*
X263319Y389378D02*
D03*
X267819Y368878D02*
D03*
X283819Y376378D02*
D03*
X276319Y383878D02*
D03*
X268819Y376378D02*
D03*
M02*
