G04*
G04 #@! TF.GenerationSoftware,Altium Limited,CircuitStudio,1.5.2 (30)*
G04*
G04 Layer_Physical_Order=1*
G04 Layer_Color=11767835*
%FSLAX25Y25*%
%MOIN*%
G70*
G01*
G75*
%ADD10C,0.01200*%
%ADD11C,0.01000*%
%ADD12C,0.02000*%
%ADD13C,0.01600*%
%ADD14C,0.00800*%
%ADD15R,0.02362X0.07480*%
%ADD16R,0.08268X0.11024*%
%ADD17C,0.03937*%
%ADD18O,0.04488X0.07480*%
%ADD19R,0.04488X0.07480*%
G04:AMPARAMS|DCode=20|XSize=23.62mil|YSize=57.09mil|CornerRadius=2.01mil|HoleSize=0mil|Usage=FLASHONLY|Rotation=180.000|XOffset=0mil|YOffset=0mil|HoleType=Round|Shape=RoundedRectangle|*
%AMROUNDEDRECTD20*
21,1,0.02362,0.05307,0,0,180.0*
21,1,0.01961,0.05709,0,0,180.0*
1,1,0.00402,-0.00980,0.02654*
1,1,0.00402,0.00980,0.02654*
1,1,0.00402,0.00980,-0.02654*
1,1,0.00402,-0.00980,-0.02654*
%
%ADD20ROUNDEDRECTD20*%
%ADD21R,0.02362X0.07874*%
%ADD22O,0.02362X0.07874*%
%ADD23R,0.02362X0.04331*%
%ADD24O,0.02362X0.04331*%
%ADD25R,0.02756X0.05118*%
%ADD26R,0.03543X0.03937*%
%ADD27R,0.04803X0.03583*%
%ADD28R,0.03543X0.02756*%
%ADD29R,0.02756X0.03543*%
%ADD30C,0.06300*%
%ADD31C,0.09300*%
%ADD32C,0.07700*%
%ADD33C,0.02050*%
G36*
X208092Y617524D02*
X208521Y617346D01*
X209500Y617218D01*
X210479Y617346D01*
X210906Y617523D01*
X295000Y617500D01*
Y617500D01*
X295043Y617537D01*
X296305Y617371D01*
X297522Y616867D01*
X298566Y616066D01*
X299367Y615022D01*
X299871Y613805D01*
X300043Y612500D01*
X300000Y444500D01*
Y438500D01*
X300000D01*
X300038Y438457D01*
X299871Y437195D01*
X299367Y435978D01*
X298566Y434934D01*
X297522Y434132D01*
X296305Y433629D01*
X295000Y433457D01*
X281058Y433462D01*
X280907Y433962D01*
X281072Y434073D01*
X281555Y434795D01*
X281724Y435646D01*
Y437902D01*
X279500D01*
X277276D01*
Y435646D01*
X277445Y434795D01*
X277927Y434073D01*
X278092Y433963D01*
X277940Y433463D01*
X275227Y433464D01*
X275178Y433964D01*
X275195Y433968D01*
X275784Y434362D01*
X276178Y434951D01*
X276316Y435646D01*
Y441157D01*
X276178Y441852D01*
X276131Y441922D01*
Y450500D01*
X276128Y450518D01*
X276012Y451696D01*
X275663Y452846D01*
X275097Y453905D01*
X274334Y454834D01*
X273405Y455596D01*
X272346Y456163D01*
X271196Y456512D01*
X270272Y456603D01*
X270000Y456657D01*
X269366Y456531D01*
X268828Y456172D01*
X268469Y455634D01*
X268343Y455000D01*
X268469Y454366D01*
X268828Y453828D01*
X269366Y453469D01*
X270000Y453343D01*
X270095Y453362D01*
X270744Y453277D01*
X271437Y452989D01*
X272033Y452533D01*
X272490Y451937D01*
X272777Y451244D01*
X272872Y450518D01*
X272869Y450500D01*
Y441922D01*
X272822Y441852D01*
X272684Y441157D01*
Y435646D01*
X272822Y434951D01*
X273216Y434362D01*
X273805Y433968D01*
X273820Y433965D01*
X273770Y433465D01*
X270236Y433466D01*
X270187Y433966D01*
X270195Y433968D01*
X270784Y434362D01*
X271178Y434951D01*
X271316Y435646D01*
Y441157D01*
X271178Y441852D01*
X270784Y442442D01*
X270195Y442835D01*
X269500Y442974D01*
X268805Y442835D01*
X268216Y442442D01*
X267822Y441852D01*
X267684Y441157D01*
Y435646D01*
X267822Y434951D01*
X268216Y434362D01*
X268805Y433968D01*
X268810Y433967D01*
X268761Y433467D01*
X265246Y433468D01*
X265195Y433968D01*
X265784Y434362D01*
X266178Y434951D01*
X266316Y435646D01*
Y441157D01*
X266178Y441852D01*
X265784Y442442D01*
X265723Y442482D01*
Y502500D01*
X265730D01*
X265610Y503715D01*
X265256Y504884D01*
X264680Y505961D01*
X263905Y506905D01*
X262961Y507680D01*
X261884Y508256D01*
X260715Y508610D01*
X259500Y508730D01*
Y508723D01*
X231500D01*
Y508730D01*
X230285Y508610D01*
X229116Y508256D01*
X228039Y507680D01*
X227095Y506905D01*
X226320Y505961D01*
X225744Y504884D01*
X225390Y503715D01*
X225270Y502500D01*
X225276D01*
Y500193D01*
X225207Y500179D01*
X224942Y500002D01*
X224765Y499738D01*
X224703Y499425D01*
Y494118D01*
X224765Y493806D01*
X224942Y493541D01*
X225207Y493364D01*
X225520Y493302D01*
X227480D01*
X227793Y493364D01*
X228058Y493541D01*
X228235Y493806D01*
X228297Y494118D01*
Y499425D01*
X228235Y499738D01*
X228058Y500002D01*
X227793Y500179D01*
X227724Y500193D01*
Y502500D01*
X227720Y502518D01*
X227847Y503479D01*
X228224Y504391D01*
X228825Y505174D01*
X229609Y505776D01*
X230521Y506153D01*
X231482Y506280D01*
X231500Y506277D01*
X232943D01*
X233043Y505777D01*
X232630Y505606D01*
X231648Y504852D01*
X230894Y503870D01*
X230421Y502727D01*
X230259Y501500D01*
X230276D01*
Y500193D01*
X230207Y500179D01*
X229942Y500002D01*
X229765Y499738D01*
X229703Y499425D01*
Y494118D01*
X229765Y493806D01*
X229942Y493541D01*
X230207Y493364D01*
X230520Y493302D01*
X232480D01*
X232793Y493364D01*
X233058Y493541D01*
X233235Y493806D01*
X233297Y494118D01*
Y499425D01*
X233235Y499738D01*
X233058Y500002D01*
X232793Y500179D01*
X232723Y500193D01*
Y501500D01*
X232715Y501544D01*
X232880Y502378D01*
X233378Y503122D01*
X234122Y503619D01*
X234776Y503750D01*
X235277Y503444D01*
Y500193D01*
X235207Y500179D01*
X234942Y500002D01*
X234765Y499738D01*
X234703Y499425D01*
Y494118D01*
X234765Y493806D01*
X234942Y493541D01*
X235207Y493364D01*
X235520Y493302D01*
X237480D01*
X237793Y493364D01*
X238058Y493541D01*
X238235Y493806D01*
X238297Y494118D01*
Y499425D01*
X238235Y499738D01*
X238058Y500002D01*
X237793Y500179D01*
X237723Y500193D01*
Y503777D01*
X241665D01*
X241865Y503328D01*
X241862Y503276D01*
X241218Y502782D01*
X240705Y502114D01*
X240382Y501335D01*
X240272Y500500D01*
X240272D01*
X240066Y500085D01*
X239942Y500002D01*
X239765Y499738D01*
X239703Y499425D01*
Y494118D01*
X239765Y493806D01*
X239942Y493541D01*
X240207Y493364D01*
X240520Y493302D01*
X242480D01*
X242793Y493364D01*
X243058Y493541D01*
X243235Y493806D01*
X243297Y494118D01*
Y499425D01*
X243235Y499738D01*
X243058Y500002D01*
X242937Y500083D01*
X242782Y500402D01*
X242770Y500673D01*
X242793Y500793D01*
X242959Y501041D01*
X243207Y501206D01*
X243500Y501265D01*
Y501276D01*
X249500D01*
X249518Y501280D01*
X250479Y501154D01*
X251391Y500776D01*
X252174Y500175D01*
X252776Y499391D01*
X253153Y498479D01*
X253280Y497518D01*
X253276Y497500D01*
Y442482D01*
X253216Y442442D01*
X252822Y441852D01*
X252684Y441157D01*
Y435646D01*
X252822Y434951D01*
X253216Y434362D01*
X253805Y433968D01*
X253732Y433473D01*
X251075Y433474D01*
X250924Y433974D01*
X251073Y434073D01*
X251555Y434795D01*
X251724Y435646D01*
Y437902D01*
X249500D01*
X247276D01*
Y435646D01*
X247445Y434795D01*
X247927Y434073D01*
X248075Y433975D01*
X247923Y433475D01*
X245285Y433476D01*
X245195Y433968D01*
X245784Y434362D01*
X246178Y434951D01*
X246316Y435646D01*
Y441157D01*
X246178Y441852D01*
X245784Y442442D01*
X245621Y442550D01*
Y443628D01*
X246222D01*
Y448372D01*
X245875D01*
Y453369D01*
X249872D01*
X250000Y453343D01*
X250634Y453469D01*
X251172Y453828D01*
X251531Y454366D01*
X251657Y455000D01*
X251531Y455634D01*
X251172Y456172D01*
X250634Y456531D01*
X250000Y456657D01*
X249872Y456631D01*
X245875D01*
Y480756D01*
X245884D01*
X245723Y482392D01*
X245246Y483964D01*
X244471Y485414D01*
X243429Y486685D01*
X242158Y487727D01*
X240709Y488502D01*
X239136Y488979D01*
X237500Y489140D01*
Y489131D01*
X210000D01*
X209927Y489117D01*
X208363Y489271D01*
X206789Y489748D01*
X205339Y490524D01*
X204067Y491567D01*
X203024Y492838D01*
X202248Y494289D01*
X201771Y495863D01*
X201617Y497427D01*
X201631Y497500D01*
Y514369D01*
X204500D01*
Y514360D01*
X205701Y514518D01*
X206820Y514982D01*
X207781Y515719D01*
X208518Y516680D01*
X208982Y517799D01*
X209140Y519000D01*
X209140D01*
X209208Y519472D01*
X209257Y519722D01*
X209666Y520334D01*
X210278Y520743D01*
X210956Y520878D01*
X211000Y520869D01*
X218369D01*
Y520234D01*
X217628D01*
Y516278D01*
X222372D01*
Y520234D01*
X221631D01*
Y521878D01*
X224670D01*
X224797Y521683D01*
X224888Y521378D01*
X224765Y521194D01*
X224703Y520882D01*
Y515575D01*
X224765Y515262D01*
X224942Y514997D01*
X225207Y514820D01*
X225520Y514758D01*
X227480D01*
X227793Y514820D01*
X228058Y514997D01*
X228235Y515262D01*
X228297Y515575D01*
Y520882D01*
X228235Y521194D01*
X228058Y521459D01*
X227793Y521636D01*
X227599Y521675D01*
X227533Y522179D01*
X227271Y522811D01*
X226854Y523354D01*
X226743Y523440D01*
X226722Y523932D01*
X226722Y523932D01*
X226722Y523932D01*
Y529069D01*
X221979D01*
Y528128D01*
X221060Y528007D01*
X220184Y527645D01*
X219432Y527068D01*
X218855Y526315D01*
X218493Y525440D01*
X218370Y524504D01*
X218369Y524500D01*
Y524131D01*
X211000D01*
Y524144D01*
X209669Y523969D01*
X208428Y523455D01*
X207363Y522637D01*
X206545Y521572D01*
X206031Y520331D01*
X205856Y519000D01*
X205856D01*
X205783Y518530D01*
X205772Y518473D01*
X205473Y518027D01*
X205027Y517728D01*
X204520Y517627D01*
X204500Y517631D01*
X178631D01*
Y518450D01*
X178671Y518521D01*
X178784Y518585D01*
X179266Y518628D01*
Y518628D01*
X183222D01*
Y523372D01*
X179266D01*
Y522605D01*
X178430Y522495D01*
X177432Y522081D01*
X176576Y521424D01*
X175919Y520568D01*
X175505Y519570D01*
X175365Y518500D01*
X175369D01*
Y517631D01*
X173000D01*
X172980Y517627D01*
X172473Y517728D01*
X172027Y518027D01*
X171728Y518473D01*
X171627Y518980D01*
X171631Y519000D01*
Y524014D01*
X171832Y524168D01*
X172244Y524705D01*
X172502Y525329D01*
X172591Y526000D01*
X172502Y526671D01*
X172244Y527295D01*
X171832Y527832D01*
X171295Y528244D01*
X170670Y528502D01*
X170000Y528591D01*
X169330Y528502D01*
X168705Y528244D01*
X168168Y527832D01*
X167756Y527295D01*
X167498Y526671D01*
X167409Y526000D01*
X167498Y525329D01*
X167756Y524705D01*
X168168Y524168D01*
X168369Y524014D01*
Y519000D01*
X168360D01*
X168518Y517799D01*
X168982Y516680D01*
X169719Y515719D01*
X170680Y514982D01*
X171799Y514518D01*
X173000Y514360D01*
Y514369D01*
X174782D01*
Y508065D01*
X178738D01*
Y514369D01*
X182262D01*
Y508065D01*
X186218D01*
Y514369D01*
X198369D01*
Y497500D01*
X198364D01*
X198507Y495680D01*
X198934Y493904D01*
X199632Y492217D01*
X200586Y490661D01*
X201772Y489272D01*
X203161Y488086D01*
X204717Y487132D01*
X205212Y486927D01*
X205113Y486427D01*
X183000D01*
Y486429D01*
X182590Y486511D01*
X182243Y486743D01*
X182011Y487090D01*
X181929Y487500D01*
X181927D01*
Y488128D01*
X182222D01*
Y492872D01*
X182222D01*
X181983Y493230D01*
X182053Y493399D01*
X182215Y493610D01*
X182513Y493987D01*
X182513Y493987D01*
X183613Y495274D01*
X184497Y496717D01*
X185145Y498281D01*
X185226Y498617D01*
X186218D01*
Y504935D01*
X182878D01*
Y505335D01*
X181000D01*
Y501776D01*
X180000D01*
Y505335D01*
X178122D01*
Y504935D01*
X174782D01*
Y498617D01*
X175274D01*
X175355Y498281D01*
X176003Y496717D01*
X176887Y495274D01*
X177987Y493987D01*
X177987Y493987D01*
X178285Y493610D01*
X178447Y493399D01*
X178513Y493240D01*
X178266Y492872D01*
X178266D01*
Y488128D01*
X179073D01*
Y487500D01*
X179066D01*
X179200Y486482D01*
X179593Y485533D01*
X180219Y484719D01*
X181033Y484093D01*
X181982Y483700D01*
X183000Y483566D01*
Y483573D01*
X215000D01*
X215024Y483577D01*
X215927Y483459D01*
X216790Y483101D01*
X217532Y482532D01*
X218101Y481790D01*
X218459Y480927D01*
X218577Y480024D01*
X218573Y480000D01*
Y476427D01*
X217000D01*
Y476429D01*
X216112Y476312D01*
X215285Y475970D01*
X214575Y475425D01*
X214030Y474715D01*
X213687Y473888D01*
X213571Y473000D01*
X213573D01*
Y471427D01*
X212500D01*
Y471434D01*
X211482Y471300D01*
X210533Y470907D01*
X209718Y470282D01*
X209093Y469467D01*
X208700Y468518D01*
X208566Y467500D01*
X208573D01*
Y465828D01*
X206998D01*
Y461046D01*
X213002D01*
Y465828D01*
X211427D01*
Y467500D01*
X211429D01*
X211511Y467910D01*
X211743Y468257D01*
X212090Y468489D01*
X212500Y468571D01*
Y468573D01*
X231500D01*
Y468571D01*
X231910Y468489D01*
X232257Y468257D01*
X232489Y467910D01*
X232571Y467500D01*
X232573D01*
Y465828D01*
X230998D01*
Y461046D01*
X237002D01*
Y465828D01*
X235427D01*
Y467500D01*
X235434D01*
X235300Y468518D01*
X234907Y469467D01*
X234281Y470282D01*
X233467Y470907D01*
X232518Y471300D01*
X231500Y471434D01*
Y471427D01*
X216427D01*
Y473000D01*
X216420Y473037D01*
X216579Y473421D01*
X216963Y473580D01*
X217000Y473573D01*
X224266D01*
Y472628D01*
X228222D01*
Y477372D01*
X224266D01*
Y476427D01*
X221427D01*
Y480000D01*
X221431D01*
X221307Y481255D01*
X220941Y482461D01*
X220347Y483573D01*
X219547Y484547D01*
X218573Y485347D01*
X218505Y485384D01*
X218626Y485869D01*
X237500D01*
X237577Y485884D01*
X238830Y485719D01*
X240069Y485206D01*
X241133Y484389D01*
X241950Y483325D01*
X242463Y482086D01*
X242628Y480832D01*
X242613Y480756D01*
Y455000D01*
Y448372D01*
X242266D01*
Y443628D01*
X243378D01*
Y442550D01*
X243216Y442442D01*
X242822Y441852D01*
X242684Y441157D01*
Y435646D01*
X242822Y434951D01*
X243216Y434362D01*
X243805Y433968D01*
X243712Y433476D01*
X182500Y433500D01*
Y433500D01*
X182457Y433462D01*
X181195Y433629D01*
X179978Y434132D01*
X178934Y434934D01*
X178132Y435978D01*
X177629Y437195D01*
X177457Y438500D01*
X177500Y475000D01*
Y477500D01*
X177548D01*
X177355Y479460D01*
X176784Y481345D01*
X175855Y483083D01*
X174605Y484605D01*
X173083Y485855D01*
X171345Y486784D01*
X169460Y487355D01*
X167500Y487548D01*
X140000Y487500D01*
X140000Y487500D01*
Y487500D01*
X139957Y487463D01*
X138695Y487629D01*
X137478Y488132D01*
X136434Y488934D01*
X135633Y489978D01*
X135129Y491195D01*
X134957Y492500D01*
Y492500D01*
X135000Y612500D01*
X135000D01*
X135021Y612991D01*
X135129Y613805D01*
X135633Y615022D01*
X136434Y616066D01*
X137478Y616867D01*
X138695Y617371D01*
X140000Y617543D01*
X140000D01*
X208092Y617524D01*
D02*
G37*
G36*
X187500Y407500D02*
Y407500D01*
X303500Y407543D01*
X304805Y407371D01*
X306022Y406868D01*
X307066Y406066D01*
X307868Y405022D01*
X308371Y403805D01*
X308538Y402543D01*
X308500Y402500D01*
X308500D01*
X308508Y381235D01*
X308009Y381136D01*
X307421Y382555D01*
X306508Y384045D01*
X305373Y385373D01*
X304045Y386508D01*
X302555Y387421D01*
X300941Y388089D01*
X299242Y388497D01*
X297500Y388634D01*
Y388621D01*
X280000D01*
X279973Y388616D01*
X278864Y388762D01*
X277806Y389200D01*
X276898Y389897D01*
X276200Y390806D01*
X275762Y391864D01*
X275616Y392972D01*
X275622Y393000D01*
Y396851D01*
X275784Y396960D01*
X276178Y397549D01*
X276316Y398244D01*
Y403756D01*
X276178Y404451D01*
X275784Y405040D01*
X275195Y405434D01*
X274500Y405572D01*
X273805Y405434D01*
X273216Y405040D01*
X272822Y404451D01*
X272684Y403756D01*
Y398244D01*
X272822Y397549D01*
X273216Y396960D01*
X273378Y396851D01*
Y393000D01*
X273368D01*
X273496Y391706D01*
X273873Y390462D01*
X274486Y389316D01*
X275310Y388311D01*
X276315Y387486D01*
X277462Y386873D01*
X278706Y386495D01*
X280000Y386368D01*
Y386379D01*
X297500D01*
X297548Y386388D01*
X299235Y386222D01*
X300903Y385716D01*
X302441Y384894D01*
X303788Y383788D01*
X304894Y382441D01*
X305716Y380903D01*
X306222Y379235D01*
X306388Y377548D01*
X306379Y377500D01*
Y332461D01*
X305909Y332386D01*
X305909Y332386D01*
X305909Y332386D01*
X301276D01*
Y325874D01*
Y319362D01*
X303217D01*
X303439Y318862D01*
X303315Y318724D01*
X302514Y318619D01*
X302500Y318621D01*
X277500D01*
X277486Y318619D01*
X276495Y318749D01*
X275558Y319137D01*
X274754Y319754D01*
X274137Y320558D01*
X273749Y321495D01*
X273619Y322486D01*
X273622Y322500D01*
Y330786D01*
X274382D01*
Y330386D01*
X276063D01*
Y335126D01*
Y339866D01*
X274382D01*
X274155Y340272D01*
Y347476D01*
X274168D01*
X273992Y349265D01*
X273470Y350985D01*
X272623Y352570D01*
X271483Y353959D01*
X270093Y355099D01*
X268508Y355946D01*
X266789Y356468D01*
X265000Y356644D01*
Y356631D01*
X245875D01*
Y390128D01*
X246222D01*
Y394872D01*
X245366D01*
Y396463D01*
X246281D01*
Y405537D01*
X242719D01*
Y396463D01*
X243123D01*
Y394872D01*
X242266D01*
Y390128D01*
X242613D01*
Y356631D01*
X229244D01*
X229212Y356625D01*
X228097Y356735D01*
X226994Y357069D01*
X225978Y357612D01*
X225087Y358343D01*
X224356Y359234D01*
X223813Y360250D01*
X223722Y360551D01*
Y364872D01*
X223372D01*
Y366620D01*
X223828Y366709D01*
X223888Y366693D01*
X224196Y366232D01*
X224785Y365838D01*
X225119Y365772D01*
X225070Y365272D01*
X224878D01*
Y363000D01*
X226756D01*
Y365272D01*
X225891D01*
X225842Y365772D01*
X226175Y365838D01*
X226764Y366232D01*
X227158Y366821D01*
X227296Y367516D01*
Y369484D01*
X227158Y370179D01*
X227112Y370249D01*
Y370980D01*
X227108Y371000D01*
X227217Y371263D01*
X227481Y371373D01*
X227500Y371369D01*
X232000D01*
X232002Y371369D01*
X232944Y371493D01*
X233823Y371857D01*
X234579Y372437D01*
X235158Y373192D01*
X235523Y374072D01*
X235647Y375013D01*
X235647Y375016D01*
Y393171D01*
X236044Y393476D01*
X236500Y394070D01*
X236787Y394761D01*
X236884Y395504D01*
Y398496D01*
X236787Y399238D01*
X236500Y399930D01*
X236044Y400525D01*
X235450Y400980D01*
X234758Y401267D01*
X234016Y401365D01*
X233273Y401267D01*
X232581Y400980D01*
X231987Y400525D01*
X231531Y399930D01*
X231245Y399238D01*
X231147Y398496D01*
Y395504D01*
X231245Y394761D01*
X231531Y394070D01*
X231987Y393476D01*
X232384Y393171D01*
Y375016D01*
X232388Y374997D01*
X232280Y374736D01*
X232019Y374628D01*
X232000Y374631D01*
X227500D01*
X227498Y374631D01*
X226555Y374507D01*
X225675Y374142D01*
X224918Y373562D01*
X224338Y372806D01*
X223973Y371925D01*
X223871Y371151D01*
X223372Y371183D01*
Y376082D01*
X223871Y376234D01*
X223908Y376180D01*
X224629Y375697D01*
X224980Y375628D01*
Y378736D01*
Y381845D01*
X224629Y381775D01*
X223908Y381293D01*
X223871Y381239D01*
X223372Y381390D01*
Y387128D01*
X223734D01*
Y391872D01*
X223372D01*
Y392990D01*
X223442Y393020D01*
X224036Y393476D01*
X224492Y394070D01*
X224779Y394761D01*
X224876Y395504D01*
Y398496D01*
X224779Y399238D01*
X224492Y399930D01*
X224036Y400525D01*
X223442Y400980D01*
X222750Y401267D01*
X222008Y401365D01*
X221265Y401267D01*
X220573Y400980D01*
X219979Y400525D01*
X219524Y399930D01*
X219237Y399238D01*
X219139Y398496D01*
Y395504D01*
X219237Y394761D01*
X219524Y394070D01*
X219979Y393476D01*
X220109Y393376D01*
Y391872D01*
X219778D01*
Y387128D01*
X220109D01*
Y381390D01*
X219609Y381239D01*
X219572Y381293D01*
X218851Y381775D01*
X218500Y381845D01*
Y378736D01*
Y375628D01*
X218851Y375697D01*
X219572Y376180D01*
X219609Y376234D01*
X220109Y376082D01*
Y372083D01*
X219609Y371715D01*
X219534Y371738D01*
X219507Y371940D01*
X219145Y372815D01*
X218567Y373568D01*
X217815Y374145D01*
X216940Y374507D01*
X216004Y374630D01*
X216000Y374631D01*
X212500D01*
Y374633D01*
X212168Y374699D01*
X211887Y374887D01*
X211699Y375168D01*
X211633Y375500D01*
X211631D01*
Y392660D01*
X212844D01*
Y401340D01*
X207156D01*
Y392660D01*
X208369D01*
Y375500D01*
X208365D01*
X208506Y374430D01*
X208919Y373432D01*
X209576Y372576D01*
X210432Y371919D01*
X211430Y371505D01*
X212500Y371365D01*
Y371369D01*
X215762D01*
X216032Y371308D01*
X216219Y370952D01*
Y365735D01*
X219609D01*
X219769Y365735D01*
X220108Y365370D01*
X220081Y364872D01*
X219766D01*
Y360128D01*
X220454D01*
X220796Y359001D01*
X221641Y357420D01*
X222778Y356034D01*
X224164Y354897D01*
X225745Y354052D01*
X227460Y353532D01*
X229244Y353356D01*
Y353369D01*
X258379D01*
Y346816D01*
X258205Y346744D01*
X257668Y346332D01*
X257256Y345795D01*
X256998Y345170D01*
X256909Y344500D01*
X256998Y343829D01*
X257256Y343205D01*
X257668Y342668D01*
X258205Y342256D01*
X258829Y341998D01*
X259500Y341909D01*
X260171Y341998D01*
X260795Y342256D01*
X261332Y342668D01*
X261744Y343205D01*
X262002Y343829D01*
X262091Y344500D01*
X262002Y345170D01*
X261744Y345795D01*
X261332Y346332D01*
X260795Y346744D01*
X260622Y346816D01*
Y353369D01*
X265000D01*
X265033Y353375D01*
X266151Y353265D01*
X267259Y352929D01*
X268279Y352384D01*
X269173Y351650D01*
X269907Y350755D01*
X270453Y349735D01*
X270789Y348628D01*
X270899Y347509D01*
X270892Y347476D01*
Y339466D01*
X270845D01*
Y330786D01*
X271378D01*
Y329997D01*
X270878Y329663D01*
X270854Y329673D01*
X265358D01*
Y332386D01*
X260724D01*
Y325874D01*
Y319362D01*
X265358D01*
Y322075D01*
X270854D01*
X270908Y322097D01*
X271442Y321777D01*
X271488Y321304D01*
X271837Y320154D01*
X272404Y319095D01*
X273166Y318166D01*
X274095Y317404D01*
X275154Y316837D01*
X276304Y316488D01*
X277500Y316371D01*
Y316378D01*
X302500D01*
Y316371D01*
X303696Y316488D01*
X304846Y316837D01*
X305905Y317404D01*
X306834Y318166D01*
X307596Y319095D01*
X308033Y319912D01*
X308533Y319786D01*
X308543Y295000D01*
X308371Y293695D01*
X307868Y292478D01*
X307066Y291434D01*
X306022Y290633D01*
X304805Y290129D01*
X303543Y289963D01*
X303500Y290000D01*
Y290000D01*
X187500Y289952D01*
X185540Y290145D01*
X183655Y290717D01*
X181917Y291645D01*
X180395Y292895D01*
X179145Y294417D01*
X178217Y296155D01*
X177645Y298040D01*
X177456Y299952D01*
X177500Y300000D01*
X177500D01*
X177452Y397500D01*
X177645Y399460D01*
X178217Y401345D01*
X179145Y403083D01*
X180395Y404605D01*
X181917Y405855D01*
X183655Y406783D01*
X185540Y407355D01*
X187452Y407544D01*
X187500Y407500D01*
D02*
G37*
%LPC*%
G36*
X251724Y400500D02*
X250000D01*
Y396120D01*
X250351Y396189D01*
X251073Y396672D01*
X251555Y397393D01*
X251724Y398244D01*
Y400500D01*
D02*
G37*
G36*
X279000D02*
X277276D01*
Y398244D01*
X277445Y397393D01*
X277927Y396672D01*
X278649Y396189D01*
X279000Y396120D01*
Y400500D01*
D02*
G37*
G36*
X269500Y405572D02*
X268805Y405434D01*
X268216Y405040D01*
X267822Y404451D01*
X267684Y403756D01*
Y398244D01*
X267822Y397549D01*
X268216Y396960D01*
X268805Y396566D01*
X269500Y396428D01*
X270195Y396566D01*
X270784Y396960D01*
X271178Y397549D01*
X271316Y398244D01*
Y403756D01*
X271178Y404451D01*
X270784Y405040D01*
X270195Y405434D01*
X269500Y405572D01*
D02*
G37*
G36*
X281724Y400500D02*
X280000D01*
Y396120D01*
X280351Y396189D01*
X281072Y396672D01*
X281555Y397393D01*
X281724Y398244D01*
Y400500D01*
D02*
G37*
G36*
X252134Y395272D02*
X250256D01*
Y393000D01*
X252134D01*
Y395272D01*
D02*
G37*
G36*
X249256D02*
X247378D01*
Y393000D01*
X249256D01*
Y395272D01*
D02*
G37*
G36*
X249000Y400500D02*
X247276D01*
Y398244D01*
X247445Y397393D01*
X247927Y396672D01*
X248649Y396189D01*
X249000Y396120D01*
Y400500D01*
D02*
G37*
G36*
X218622Y392272D02*
X216744D01*
Y390000D01*
X218622D01*
Y392272D01*
D02*
G37*
G36*
X249000Y405880D02*
X248649Y405810D01*
X247927Y405328D01*
X247445Y404607D01*
X247276Y403756D01*
Y401500D01*
X249000D01*
Y405880D01*
D02*
G37*
G36*
X237002Y452954D02*
X230998D01*
Y448172D01*
X232384D01*
Y445357D01*
X231987Y445052D01*
X231531Y444458D01*
X231245Y443766D01*
X231147Y443024D01*
Y440031D01*
X231245Y439289D01*
X231531Y438597D01*
X231987Y438003D01*
X232581Y437547D01*
X233273Y437261D01*
X234016Y437163D01*
X234758Y437261D01*
X235450Y437547D01*
X236044Y438003D01*
X236500Y438597D01*
X236787Y439289D01*
X236884Y440031D01*
Y443024D01*
X236787Y443766D01*
X236500Y444458D01*
X236044Y445052D01*
X235647Y445357D01*
Y448172D01*
X237002D01*
Y452954D01*
D02*
G37*
G36*
X213002D02*
X206998D01*
Y448172D01*
X208369D01*
Y445357D01*
X207972Y445052D01*
X207516Y444458D01*
X207229Y443766D01*
X207131Y443024D01*
Y440031D01*
X207229Y439289D01*
X207516Y438597D01*
X207972Y438003D01*
X208566Y437547D01*
X209258Y437261D01*
X210000Y437163D01*
X210742Y437261D01*
X211434Y437547D01*
X212028Y438003D01*
X212484Y438597D01*
X212771Y439289D01*
X212869Y440031D01*
Y443024D01*
X212771Y443766D01*
X212484Y444458D01*
X212028Y445052D01*
X211631Y445357D01*
Y448172D01*
X213002D01*
Y452954D01*
D02*
G37*
G36*
X252134Y445500D02*
X249756D01*
X247378D01*
Y443228D01*
X247773D01*
X247927Y442730D01*
X247445Y442008D01*
X247276Y441157D01*
Y438902D01*
X249500D01*
X251724D01*
Y441157D01*
X251555Y442008D01*
X251073Y442730D01*
X251227Y443228D01*
X252134D01*
Y445500D01*
D02*
G37*
G36*
X280000Y443282D02*
Y438902D01*
X281724D01*
Y441157D01*
X281555Y442008D01*
X281072Y442730D01*
X280351Y443212D01*
X280000Y443282D01*
D02*
G37*
G36*
X279000D02*
X278649Y443212D01*
X277927Y442730D01*
X277445Y442008D01*
X277276Y441157D01*
Y438902D01*
X279000D01*
Y443282D01*
D02*
G37*
G36*
X250000Y405880D02*
Y401500D01*
X251724D01*
Y403756D01*
X251555Y404607D01*
X251073Y405328D01*
X250351Y405810D01*
X250000Y405880D01*
D02*
G37*
G36*
X279000D02*
X278649Y405810D01*
X277927Y405328D01*
X277445Y404607D01*
X277276Y403756D01*
Y401500D01*
X279000D01*
Y405880D01*
D02*
G37*
G36*
X280000D02*
Y401500D01*
X281724D01*
Y403756D01*
X281555Y404607D01*
X281072Y405328D01*
X280351Y405810D01*
X280000Y405880D01*
D02*
G37*
G36*
X225280Y441027D02*
X222508D01*
Y436825D01*
X222855Y436871D01*
X223644Y437198D01*
X224322Y437718D01*
X224842Y438396D01*
X225168Y439185D01*
X225280Y440031D01*
Y441027D01*
D02*
G37*
G36*
X221508D02*
X218736D01*
Y440031D01*
X218847Y439185D01*
X219174Y438396D01*
X219694Y437718D01*
X220372Y437198D01*
X221161Y436871D01*
X221508Y436825D01*
Y441027D01*
D02*
G37*
G36*
X215744Y392272D02*
X213866D01*
Y390000D01*
X215744D01*
Y392272D01*
D02*
G37*
G36*
X250000Y347428D02*
Y345000D01*
X252428D01*
X252392Y345275D01*
X252093Y345997D01*
X251617Y346617D01*
X250997Y347093D01*
X250275Y347392D01*
X250000Y347428D01*
D02*
G37*
G36*
X249000D02*
X248725Y347392D01*
X248003Y347093D01*
X247383Y346617D01*
X246907Y345997D01*
X246608Y345275D01*
X246572Y345000D01*
X249000D01*
Y347428D01*
D02*
G37*
G36*
X226756Y362000D02*
X224878D01*
Y359728D01*
X226756D01*
Y362000D01*
D02*
G37*
G36*
X229634Y365272D02*
X227756D01*
Y363000D01*
X229634D01*
Y365272D01*
D02*
G37*
G36*
Y362000D02*
X227756D01*
Y359728D01*
X229634D01*
Y362000D01*
D02*
G37*
G36*
X300276Y332386D02*
X295642D01*
Y329673D01*
X290146D01*
X289686Y329483D01*
X289496Y329024D01*
Y322724D01*
X289686Y322265D01*
X290146Y322075D01*
X295642D01*
Y319362D01*
X300276D01*
Y325874D01*
Y332386D01*
D02*
G37*
G36*
X259724Y325374D02*
X255091D01*
Y319362D01*
X259724D01*
Y325374D01*
D02*
G37*
G36*
Y332386D02*
X255091D01*
Y326374D01*
X259724D01*
Y332386D01*
D02*
G37*
G36*
X252428Y344000D02*
X250000D01*
Y341572D01*
X250275Y341608D01*
X250997Y341907D01*
X251617Y342383D01*
X252093Y343003D01*
X252392Y343725D01*
X252428Y344000D01*
D02*
G37*
G36*
X249000D02*
X246572D01*
X246608Y343725D01*
X246907Y343003D01*
X247383Y342383D01*
X248003Y341907D01*
X248725Y341608D01*
X249000Y341572D01*
Y344000D01*
D02*
G37*
G36*
X215744Y389000D02*
X213866D01*
Y386728D01*
X215744D01*
Y389000D01*
D02*
G37*
G36*
X264500Y405572D02*
X263805Y405434D01*
X263216Y405040D01*
X262822Y404451D01*
X262684Y403756D01*
Y398244D01*
X262822Y397549D01*
X263216Y396960D01*
X263480Y396783D01*
Y388000D01*
X263469D01*
X263594Y386726D01*
X263966Y385501D01*
X264569Y384371D01*
X265382Y383382D01*
X266371Y382569D01*
X267500Y381966D01*
X268726Y381594D01*
X269482Y381520D01*
X269457Y381020D01*
X267500D01*
X267489Y381017D01*
X266138Y381151D01*
X264827Y381548D01*
X263620Y382193D01*
X262562Y383062D01*
X261693Y384120D01*
X261048Y385328D01*
X260651Y386638D01*
X260517Y387989D01*
X260520Y388000D01*
Y396783D01*
X260784Y396960D01*
X261178Y397549D01*
X261316Y398244D01*
Y403756D01*
X261178Y404451D01*
X260784Y405040D01*
X260195Y405434D01*
X259500Y405572D01*
X258805Y405434D01*
X258216Y405040D01*
X257822Y404451D01*
X257684Y403756D01*
Y398244D01*
X257822Y397549D01*
X258216Y396960D01*
X258480Y396783D01*
Y388000D01*
X258456D01*
X258630Y386236D01*
X259145Y384539D01*
X259981Y382976D01*
X261105Y381605D01*
X262476Y380481D01*
X264039Y379645D01*
X265736Y379130D01*
X267500Y378956D01*
Y378980D01*
X270398D01*
X270441Y378989D01*
X272152Y378820D01*
X273839Y378309D01*
X275394Y377478D01*
X276757Y376359D01*
X277875Y374996D01*
X278706Y373442D01*
X279218Y371755D01*
X279387Y370043D01*
X279378Y370000D01*
Y339466D01*
X278744D01*
Y339866D01*
X277063D01*
Y335126D01*
Y330386D01*
X278744D01*
Y330432D01*
X279098Y330786D01*
X282156D01*
X282281Y330786D01*
X282469D01*
X282656D01*
X282781Y330786D01*
X286093D01*
X286218Y330786D01*
X286405D01*
X286593D01*
X286718Y330786D01*
X290155D01*
Y339466D01*
X289291D01*
Y372500D01*
X289306D01*
X289170Y374226D01*
X288766Y375910D01*
X288103Y377509D01*
X287198Y378986D01*
X286074Y380302D01*
X284757Y381427D01*
X283281Y382331D01*
X281681Y382994D01*
X279998Y383398D01*
X278272Y383534D01*
Y383520D01*
X270000D01*
X269976Y383515D01*
X268838Y383664D01*
X267756Y384113D01*
X266826Y384826D01*
X266113Y385756D01*
X265665Y386838D01*
X265515Y387976D01*
X265520Y388000D01*
Y396783D01*
X265784Y396960D01*
X266178Y397549D01*
X266316Y398244D01*
Y403756D01*
X266178Y404451D01*
X265784Y405040D01*
X265195Y405434D01*
X264500Y405572D01*
D02*
G37*
G36*
X218622Y389000D02*
X216744D01*
Y386728D01*
X218622D01*
Y389000D01*
D02*
G37*
G36*
X252134Y392000D02*
X250256D01*
Y389728D01*
X252134D01*
Y392000D01*
D02*
G37*
G36*
X249256D02*
X247378D01*
Y389728D01*
X249256D01*
Y392000D01*
D02*
G37*
G36*
X217500Y378236D02*
X215776D01*
Y377752D01*
X215945Y376901D01*
X216427Y376180D01*
X217149Y375697D01*
X217500Y375628D01*
Y378236D01*
D02*
G37*
G36*
X254500Y405572D02*
X253805Y405434D01*
X253216Y405040D01*
X252822Y404451D01*
X252684Y403756D01*
Y398244D01*
X252822Y397549D01*
X253216Y396960D01*
X253379Y396851D01*
Y382500D01*
X253366D01*
X253503Y380758D01*
X253911Y379059D01*
X254579Y377445D01*
X255492Y375955D01*
X256627Y374627D01*
X257955Y373492D01*
X259445Y372579D01*
X261059Y371911D01*
X262758Y371503D01*
X264500Y371366D01*
Y371378D01*
X273795D01*
X273828Y371328D01*
X274366Y370969D01*
X275000Y370843D01*
X275634Y370969D01*
X276172Y371328D01*
X276531Y371866D01*
X276657Y372500D01*
X276531Y373134D01*
X276172Y373672D01*
X275634Y374031D01*
X275000Y374157D01*
X274366Y374031D01*
X273828Y373672D01*
X273795Y373622D01*
X264500D01*
X264452Y373612D01*
X262765Y373778D01*
X261097Y374284D01*
X259559Y375106D01*
X258212Y376212D01*
X257106Y377559D01*
X256284Y379097D01*
X255778Y380765D01*
X255612Y382452D01*
X255622Y382500D01*
Y396851D01*
X255784Y396960D01*
X256178Y397549D01*
X256316Y398244D01*
Y403756D01*
X256178Y404451D01*
X255784Y405040D01*
X255195Y405434D01*
X254500Y405572D01*
D02*
G37*
G36*
X227704Y378236D02*
X225980D01*
Y375628D01*
X226331Y375697D01*
X227053Y376180D01*
X227535Y376901D01*
X227704Y377752D01*
Y378236D01*
D02*
G37*
G36*
X225980Y381845D02*
Y379236D01*
X227704D01*
Y379720D01*
X227535Y380572D01*
X227053Y381293D01*
X226331Y381775D01*
X225980Y381845D01*
D02*
G37*
G36*
X217500Y381845D02*
X217149Y381775D01*
X216427Y381293D01*
X215945Y380572D01*
X215776Y379720D01*
Y379236D01*
X217500D01*
Y381845D01*
D02*
G37*
G36*
X221508Y446230D02*
X221161Y446184D01*
X220372Y445857D01*
X219694Y445337D01*
X219174Y444660D01*
X218847Y443870D01*
X218736Y443024D01*
Y442028D01*
X221508D01*
Y446230D01*
D02*
G37*
G36*
X243150Y529468D02*
X240878D01*
Y527000D01*
X243150D01*
Y529468D01*
D02*
G37*
G36*
X246421Y526000D02*
X244150D01*
Y523531D01*
X246421D01*
Y526000D01*
D02*
G37*
G36*
Y529468D02*
X244150D01*
Y527000D01*
X246421D01*
Y529468D01*
D02*
G37*
G36*
X172928Y535500D02*
X170500D01*
Y533072D01*
X170775Y533108D01*
X171497Y533407D01*
X172117Y533883D01*
X172593Y534503D01*
X172892Y535225D01*
X172928Y535500D01*
D02*
G37*
G36*
X169500D02*
X167072D01*
X167108Y535225D01*
X167407Y534503D01*
X167883Y533883D01*
X168503Y533407D01*
X169225Y533108D01*
X169500Y533072D01*
Y535500D01*
D02*
G37*
G36*
X242480Y522106D02*
X242000D01*
Y518728D01*
X243705D01*
Y520882D01*
X243611Y521350D01*
X243346Y521748D01*
X242949Y522013D01*
X242480Y522106D01*
D02*
G37*
G36*
X241000D02*
X240520D01*
X240051Y522013D01*
X239654Y521748D01*
X239389Y521350D01*
X239295Y520882D01*
Y518728D01*
X241000D01*
Y522106D01*
D02*
G37*
G36*
X186256Y523772D02*
X184378D01*
Y521500D01*
X186256D01*
Y523772D01*
D02*
G37*
G36*
X243150Y526000D02*
X240878D01*
Y523531D01*
X243150D01*
Y526000D01*
D02*
G37*
G36*
X189134Y523772D02*
X187256D01*
Y521500D01*
X189134D01*
Y523772D01*
D02*
G37*
G36*
X210000Y574133D02*
Y569000D01*
X215133D01*
X215005Y569975D01*
X214435Y571349D01*
X213530Y572530D01*
X212349Y573435D01*
X210975Y574005D01*
X210000Y574133D01*
D02*
G37*
G36*
X209000D02*
X208025Y574005D01*
X206651Y573435D01*
X205470Y572530D01*
X204565Y571349D01*
X203995Y569975D01*
X203867Y569000D01*
X209000D01*
Y574133D01*
D02*
G37*
G36*
X252000Y587988D02*
X250838Y587836D01*
X249756Y587387D01*
X248826Y586674D01*
X248113Y585744D01*
X247664Y584662D01*
X247512Y583500D01*
X247664Y582338D01*
X248113Y581256D01*
X248826Y580326D01*
X249756Y579613D01*
X250838Y579165D01*
X252000Y579012D01*
X253162Y579165D01*
X254244Y579613D01*
X255174Y580326D01*
X255887Y581256D01*
X256335Y582338D01*
X256488Y583500D01*
X256335Y584662D01*
X255887Y585744D01*
X255174Y586674D01*
X254244Y587387D01*
X253162Y587836D01*
X252000Y587988D01*
D02*
G37*
G36*
X192000Y614827D02*
X190766Y614706D01*
X189579Y614346D01*
X188485Y613761D01*
X187526Y612974D01*
X186739Y612015D01*
X186154Y610921D01*
X185794Y609734D01*
X185673Y608500D01*
X185794Y607266D01*
X186154Y606079D01*
X186739Y604985D01*
X187526Y604026D01*
X188485Y603239D01*
X189579Y602654D01*
X190766Y602294D01*
X192000Y602173D01*
X193234Y602294D01*
X194421Y602654D01*
X195515Y603239D01*
X196474Y604026D01*
X197261Y604985D01*
X197846Y606079D01*
X198206Y607266D01*
X198327Y608500D01*
X198206Y609734D01*
X197846Y610921D01*
X197261Y612015D01*
X196474Y612974D01*
X195515Y613761D01*
X194421Y614346D01*
X193234Y614706D01*
X192000Y614827D01*
D02*
G37*
G36*
X239500Y604782D02*
X238521Y604654D01*
X237609Y604276D01*
X236825Y603675D01*
X236224Y602891D01*
X235846Y601979D01*
X235718Y601000D01*
X235846Y600021D01*
X236224Y599109D01*
X236825Y598325D01*
X237609Y597724D01*
X238521Y597346D01*
X239500Y597218D01*
X240479Y597346D01*
X241391Y597724D01*
X242175Y598325D01*
X242776Y599109D01*
X243154Y600021D01*
X243282Y601000D01*
X243154Y601979D01*
X242776Y602891D01*
X242175Y603675D01*
X241391Y604276D01*
X240479Y604654D01*
X239500Y604782D01*
D02*
G37*
G36*
X170500Y538928D02*
Y536500D01*
X172928D01*
X172892Y536775D01*
X172593Y537497D01*
X172117Y538117D01*
X171497Y538593D01*
X170775Y538892D01*
X170500Y538928D01*
D02*
G37*
G36*
X169500D02*
X169225Y538892D01*
X168503Y538593D01*
X167883Y538117D01*
X167407Y537497D01*
X167108Y536775D01*
X167072Y536500D01*
X169500D01*
Y538928D01*
D02*
G37*
G36*
X209000Y568000D02*
X203867D01*
X203995Y567025D01*
X204565Y565651D01*
X205470Y564470D01*
X206651Y563565D01*
X208025Y562995D01*
X209000Y562867D01*
Y568000D01*
D02*
G37*
G36*
X239500Y573795D02*
X238129Y573615D01*
X236852Y573086D01*
X235756Y572244D01*
X234914Y571148D01*
X234385Y569871D01*
X234205Y568500D01*
X234385Y567130D01*
X234914Y565852D01*
X235756Y564756D01*
X236852Y563914D01*
X238129Y563385D01*
X239500Y563205D01*
X240870Y563385D01*
X242148Y563914D01*
X243244Y564756D01*
X244086Y565852D01*
X244615Y567130D01*
X244795Y568500D01*
X244615Y569871D01*
X244086Y571148D01*
X243244Y572244D01*
X242148Y573086D01*
X240870Y573615D01*
X239500Y573795D01*
D02*
G37*
G36*
X215133Y568000D02*
X210000D01*
Y562867D01*
X210975Y562995D01*
X212349Y563565D01*
X213530Y564470D01*
X214435Y565651D01*
X215005Y567025D01*
X215133Y568000D01*
D02*
G37*
G36*
X189134Y520500D02*
X187256D01*
Y518228D01*
X189134D01*
Y520500D01*
D02*
G37*
G36*
X234134Y477772D02*
X232256D01*
Y475500D01*
X234134D01*
Y477772D01*
D02*
G37*
G36*
X231256D02*
X229378D01*
Y475500D01*
X231256D01*
Y477772D01*
D02*
G37*
G36*
X185256Y490000D02*
X183378D01*
Y487728D01*
X185256D01*
Y490000D01*
D02*
G37*
G36*
Y493272D02*
X183378D01*
Y491000D01*
X185256D01*
Y493272D01*
D02*
G37*
G36*
X188134Y490000D02*
X186256D01*
Y487728D01*
X188134D01*
Y490000D01*
D02*
G37*
G36*
X249256Y448772D02*
X247378D01*
Y446500D01*
X249256D01*
Y448772D01*
D02*
G37*
G36*
X222508Y446230D02*
Y442028D01*
X225280D01*
Y443024D01*
X225168Y443870D01*
X224842Y444660D01*
X224322Y445337D01*
X223644Y445857D01*
X222855Y446184D01*
X222508Y446230D01*
D02*
G37*
G36*
X252134Y448772D02*
X250256D01*
Y446500D01*
X252134D01*
Y448772D01*
D02*
G37*
G36*
X234134Y474500D02*
X232256D01*
Y472228D01*
X234134D01*
Y474500D01*
D02*
G37*
G36*
X231256D02*
X229378D01*
Y472228D01*
X231256D01*
Y474500D01*
D02*
G37*
G36*
X243705Y517728D02*
X242000D01*
Y514351D01*
X242480D01*
X242949Y514444D01*
X243346Y514709D01*
X243611Y515106D01*
X243705Y515575D01*
Y517728D01*
D02*
G37*
G36*
X241000D02*
X239295D01*
Y515575D01*
X239389Y515106D01*
X239654Y514709D01*
X240051Y514444D01*
X240520Y514351D01*
X241000D01*
Y517728D01*
D02*
G37*
G36*
X224500Y572988D02*
X223338Y572835D01*
X222256Y572387D01*
X221326Y571674D01*
X220613Y570744D01*
X220164Y569662D01*
X220012Y568500D01*
X220164Y567338D01*
X220613Y566256D01*
X221326Y565326D01*
X222256Y564613D01*
X223276Y564190D01*
Y554642D01*
X223265D01*
X223404Y552885D01*
X223815Y551170D01*
X224490Y549542D01*
X225411Y548039D01*
X226556Y546698D01*
X226564Y546706D01*
X227056Y546213D01*
X227101Y546183D01*
X228161Y544892D01*
X228974Y543372D01*
X229474Y541723D01*
X229638Y540061D01*
X229627Y540007D01*
Y536068D01*
X228479D01*
Y530932D01*
X229426D01*
Y529069D01*
X228278D01*
Y523932D01*
X230276D01*
Y521650D01*
X230207Y521636D01*
X229942Y521459D01*
X229765Y521194D01*
X229703Y520882D01*
Y515575D01*
X229765Y515262D01*
X229942Y514997D01*
X230207Y514820D01*
X230520Y514758D01*
X232480D01*
X232793Y514820D01*
X233058Y514997D01*
X233235Y515262D01*
X233297Y515575D01*
Y520882D01*
X233235Y521194D01*
X233058Y521459D01*
X232793Y521636D01*
X232723Y521650D01*
Y523932D01*
X233021D01*
Y529069D01*
X231873D01*
Y530932D01*
X233222D01*
Y536068D01*
X232074D01*
Y540007D01*
X232085D01*
X231947Y541765D01*
X231535Y543479D01*
X230860Y545108D01*
X229939Y546611D01*
X228795Y547952D01*
X228787Y547944D01*
X228294Y548436D01*
X228249Y548466D01*
X227189Y549757D01*
X226377Y551277D01*
X225877Y552927D01*
X225713Y554589D01*
X225724Y554642D01*
Y564190D01*
X226744Y564613D01*
X227674Y565326D01*
X228387Y566256D01*
X228836Y567338D01*
X228988Y568500D01*
X228836Y569662D01*
X228387Y570744D01*
X227674Y571674D01*
X226744Y572387D01*
X225662Y572835D01*
X224500Y572988D01*
D02*
G37*
G36*
X186256Y520500D02*
X184378D01*
Y518228D01*
X186256D01*
Y520500D01*
D02*
G37*
G36*
X224500Y587988D02*
X223338Y587836D01*
X222256Y587387D01*
X221326Y586674D01*
X220613Y585744D01*
X220164Y584662D01*
X220012Y583500D01*
X220164Y582338D01*
X220613Y581256D01*
X221326Y580326D01*
X222256Y579613D01*
X223338Y579165D01*
X224500Y579012D01*
X225662Y579165D01*
X226682Y579587D01*
X227206Y579064D01*
X227251Y579034D01*
X228311Y577743D01*
X229123Y576223D01*
X229623Y574573D01*
X229787Y572911D01*
X229777Y572858D01*
Y555642D01*
X229765D01*
X229904Y553885D01*
X230315Y552170D01*
X230990Y550542D01*
X231911Y549039D01*
X233056Y547698D01*
X233056Y547698D01*
X233355Y547414D01*
X233378Y547399D01*
X233379Y547399D01*
X233417Y547363D01*
X233420Y547360D01*
X234460Y546093D01*
X235273Y544573D01*
X235773Y542924D01*
X235937Y541262D01*
X235926Y541208D01*
Y536068D01*
X234778D01*
Y530932D01*
X236127D01*
Y529069D01*
X234979D01*
Y523932D01*
X235277D01*
Y521650D01*
X235207Y521636D01*
X234942Y521459D01*
X234765Y521194D01*
X234703Y520882D01*
Y515575D01*
X234765Y515262D01*
X234942Y514997D01*
X235207Y514820D01*
X235520Y514758D01*
X237480D01*
X237793Y514820D01*
X238058Y514997D01*
X238235Y515262D01*
X238297Y515575D01*
Y520882D01*
X238235Y521194D01*
X238058Y521459D01*
X237793Y521636D01*
X237723Y521650D01*
Y523932D01*
X239722D01*
Y529069D01*
X238574D01*
Y530932D01*
X239521D01*
Y536068D01*
X238373D01*
Y541208D01*
X238384D01*
X238246Y542966D01*
X237834Y544680D01*
X237160Y546309D01*
X236239Y547812D01*
X235094Y549152D01*
X235094Y549152D01*
X234794Y549436D01*
X234771Y549451D01*
X234771Y549452D01*
X234733Y549487D01*
X234729Y549490D01*
X233689Y550757D01*
X232877Y552278D01*
X232377Y553927D01*
X232213Y555589D01*
X232224Y555642D01*
Y572858D01*
X232235D01*
X232096Y574615D01*
X231685Y576330D01*
X231010Y577958D01*
X230089Y579461D01*
X228944Y580802D01*
X228936Y580794D01*
X228413Y581318D01*
X228836Y582338D01*
X228988Y583500D01*
X228836Y584662D01*
X228387Y585744D01*
X227674Y586674D01*
X226744Y587387D01*
X225662Y587836D01*
X224500Y587988D01*
D02*
G37*
G36*
X219500Y512244D02*
X217228D01*
Y510366D01*
X219500D01*
Y512244D01*
D02*
G37*
G36*
X188134Y493272D02*
X186256D01*
Y491000D01*
X188134D01*
Y493272D01*
D02*
G37*
G36*
X222772Y512244D02*
X220500D01*
Y510366D01*
X222772D01*
Y512244D01*
D02*
G37*
G36*
Y515122D02*
X220500D01*
Y513244D01*
X222772D01*
Y515122D01*
D02*
G37*
G36*
X219500D02*
X217228D01*
Y513244D01*
X219500D01*
Y515122D01*
D02*
G37*
%LPD*%
D10*
X231000Y572858D02*
X230952Y573838D01*
X230808Y574809D01*
X230569Y575761D01*
X230239Y576685D01*
X229819Y577572D01*
X229315Y578414D01*
X228730Y579202D01*
X228071Y579929D01*
X237350Y533299D02*
X237150Y533500D01*
Y541208D02*
X237102Y542188D01*
X236958Y543159D01*
X236719Y544111D01*
X236388Y545035D01*
X235969Y545922D01*
X235464Y546764D01*
X234880Y547552D01*
X234221Y548279D01*
X231000Y555642D02*
X231048Y554662D01*
X231192Y553691D01*
X231431Y552739D01*
X231761Y551815D01*
X232181Y550928D01*
X232685Y550086D01*
X233270Y549298D01*
X233929Y548571D01*
X224500Y554642D02*
X224548Y553662D01*
X224692Y552691D01*
X224931Y551739D01*
X225261Y550815D01*
X225681Y549928D01*
X226185Y549086D01*
X226770Y548298D01*
X227429Y547571D01*
X230850Y533500D02*
X230650Y533299D01*
X230850Y540007D02*
X230802Y540988D01*
X230658Y541958D01*
X230420Y542910D01*
X230089Y543834D01*
X229670Y544721D01*
X229165Y545563D01*
X228580Y546351D01*
X227922Y547079D01*
X237350Y526500D02*
X236500Y525650D01*
X231500Y525650D02*
X230650Y526500D01*
X254500Y497500D02*
X254404Y498476D01*
X254119Y499413D01*
X253657Y500278D01*
X253035Y501035D01*
X252278Y501657D01*
X251413Y502119D01*
X250476Y502404D01*
X249500Y502500D01*
X243500D02*
X242500Y502232D01*
X241768Y501500D01*
X241500Y500500D01*
X259500Y500000D02*
X259404Y500976D01*
X259119Y501913D01*
X258657Y502778D01*
X258035Y503536D01*
X257278Y504157D01*
X256413Y504619D01*
X255475Y504904D01*
X254500Y505000D01*
X264500Y502500D02*
X264404Y503476D01*
X264119Y504413D01*
X263657Y505278D01*
X263035Y506036D01*
X262278Y506657D01*
X261413Y507119D01*
X260475Y507404D01*
X259500Y507500D01*
X235000Y505000D02*
X233918Y504829D01*
X232943Y504332D01*
X232168Y503557D01*
X231671Y502582D01*
X231500Y501500D01*
Y507500D02*
X230524Y507404D01*
X229587Y507119D01*
X228722Y506657D01*
X227964Y506036D01*
X227343Y505278D01*
X226881Y504413D01*
X226596Y503476D01*
X226500Y502500D01*
X231000Y555642D02*
Y572858D01*
X224500Y554642D02*
Y568500D01*
X237350Y526500D02*
Y533299D01*
X224500Y583500D02*
X228071Y579929D01*
X237150Y533500D02*
Y541208D01*
X233929Y548571D02*
X234221Y548279D01*
X230650Y526500D02*
Y533299D01*
X227429Y547571D02*
X227922Y547079D01*
X230850Y533500D02*
Y540007D01*
X236500Y518228D02*
Y525650D01*
X231500Y518228D02*
Y525650D01*
X254500Y438402D02*
Y497500D01*
X243500Y502500D02*
X249500D01*
X236500Y505000D02*
X254500D01*
X259500Y438402D02*
Y500000D01*
X264500Y438402D02*
Y502500D01*
X231500Y507500D02*
X259500D01*
X241500Y496772D02*
Y500500D01*
X235000Y505000D02*
X236500D01*
Y496772D02*
Y505000D01*
X231500Y496772D02*
Y501500D01*
X226500Y496772D02*
Y502500D01*
D11*
X307500Y377500D02*
X307452Y378480D01*
X307308Y379451D01*
X307069Y380403D01*
X306739Y381327D01*
X306319Y382214D01*
X305815Y383056D01*
X305230Y383844D01*
X304571Y384571D01*
X303844Y385230D01*
X303056Y385815D01*
X302214Y386319D01*
X301327Y386739D01*
X300403Y387069D01*
X299451Y387308D01*
X298480Y387452D01*
X297500Y387500D01*
X302500Y317500D02*
X303475Y317596D01*
X304413Y317881D01*
X305278Y318343D01*
X306035Y318965D01*
X306657Y319722D01*
X307119Y320587D01*
X307404Y321525D01*
X307500Y322500D01*
X272500D02*
X272596Y321525D01*
X272881Y320587D01*
X273343Y319722D01*
X273965Y318965D01*
X274722Y318343D01*
X275587Y317881D01*
X276524Y317596D01*
X277500Y317500D01*
X244500Y445382D02*
X244244Y446000D01*
X226500Y521500D02*
X226061Y522561D01*
X225000Y523000D01*
X220500D02*
X220000Y522500D01*
X244500Y401000D02*
X244244Y400744D01*
X274500Y393000D02*
X274584Y392045D01*
X274832Y391119D01*
X275237Y390250D01*
X275787Y389465D01*
X276465Y388787D01*
X277250Y388237D01*
X278119Y387832D01*
X279045Y387584D01*
X280000Y387500D01*
X254500Y382500D02*
X254548Y381520D01*
X254692Y380549D01*
X254931Y379597D01*
X255261Y378673D01*
X255681Y377786D01*
X256185Y376944D01*
X256770Y376156D01*
X257429Y375429D01*
X258156Y374770D01*
X258944Y374185D01*
X259786Y373681D01*
X260673Y373261D01*
X261597Y372931D01*
X262549Y372692D01*
X263520Y372548D01*
X264500Y372500D01*
X280000Y387500D02*
X297500D01*
X277500Y317500D02*
X302500D01*
X307500Y322500D02*
Y377500D01*
X272500Y322500D02*
Y335126D01*
X259500Y344500D02*
Y355000D01*
X244500Y438402D02*
Y445382D01*
X226500Y518228D02*
Y521500D01*
X220500Y523000D02*
X225000D01*
X244244Y392500D02*
Y400744D01*
X274500Y393000D02*
Y401000D01*
X264500Y372500D02*
X275000D01*
X254500Y382500D02*
Y401000D01*
X284335Y335126D02*
Y369835D01*
D12*
X274500Y450500D02*
X274387Y451501D01*
X274054Y452453D01*
X273518Y453306D01*
X272806Y454018D01*
X271953Y454554D01*
X271001Y454887D01*
X270000Y455000D01*
X244244Y480756D02*
X244175Y481716D01*
X243971Y482656D01*
X243635Y483558D01*
X243174Y484402D01*
X242597Y485172D01*
X241916Y485853D01*
X241146Y486429D01*
X240302Y486891D01*
X239400Y487227D01*
X238460Y487431D01*
X237500Y487500D01*
X200000Y497500D02*
X200048Y496520D01*
X200192Y495549D01*
X200431Y494597D01*
X200761Y493673D01*
X201181Y492786D01*
X201685Y491944D01*
X202270Y491156D01*
X202929Y490429D01*
X203656Y489770D01*
X204444Y489185D01*
X205286Y488681D01*
X206173Y488261D01*
X207097Y487931D01*
X208049Y487692D01*
X209020Y487548D01*
X210000Y487500D01*
X222000Y526500D02*
X221000Y526232D01*
X220268Y525500D01*
X220000Y524500D01*
X211000Y522500D02*
X209918Y522329D01*
X208943Y521832D01*
X208168Y521057D01*
X207671Y520082D01*
X207500Y519000D01*
X204500Y516000D02*
X205427Y516147D01*
X206263Y516573D01*
X206927Y517237D01*
X207353Y518073D01*
X207500Y519000D01*
X170000D02*
X170147Y518073D01*
X170573Y517237D01*
X171237Y516573D01*
X172073Y516147D01*
X173000Y516000D01*
X179500Y521000D02*
X178543Y520810D01*
X177732Y520268D01*
X177190Y519457D01*
X177000Y518500D01*
X176760Y511224D02*
X177000Y511465D01*
X218000Y371000D02*
X217732Y372000D01*
X217000Y372732D01*
X216000Y373000D01*
X210000Y375500D02*
X210190Y374543D01*
X210732Y373732D01*
X211543Y373190D01*
X212500Y373000D01*
X227500D02*
X226490Y372729D01*
X225751Y371990D01*
X225480Y370980D01*
X232000Y373000D02*
X233008Y373270D01*
X233746Y374008D01*
X234016Y375016D01*
X222008Y397000D02*
X221740Y396732D01*
X221744Y362500D02*
X221808Y361521D01*
X222000Y360559D01*
X222315Y359630D01*
X222749Y358750D01*
X223294Y357934D01*
X223941Y357197D01*
X224678Y356550D01*
X225494Y356005D01*
X226374Y355571D01*
X227303Y355256D01*
X228265Y355064D01*
X229244Y355000D01*
X272524Y347476D02*
X272459Y348458D01*
X272267Y349424D01*
X271951Y350356D01*
X271516Y351238D01*
X270969Y352057D01*
X270320Y352796D01*
X269580Y353445D01*
X268762Y353992D01*
X267879Y354427D01*
X266947Y354744D01*
X265982Y354936D01*
X265000Y355000D01*
X229244D02*
X265000D01*
X244244Y455000D02*
Y480756D01*
Y446000D02*
Y455000D01*
X274500Y438402D02*
Y450500D01*
X244244Y455000D02*
X250000D01*
X200000Y516000D02*
X204500D01*
X177000D02*
X200000D01*
X210000Y487500D02*
X237500D01*
X200000Y497500D02*
Y516000D01*
X220000Y522500D02*
Y524500D01*
Y518256D02*
Y522500D01*
X211000D02*
X220000D01*
X222000Y526500D02*
X224350D01*
X177000Y516000D02*
Y518500D01*
X173000Y516000D02*
X177000D01*
Y511465D02*
Y516000D01*
X170000Y519000D02*
Y526000D01*
X179500Y521000D02*
X181244D01*
X210000Y441528D02*
Y450563D01*
X234016Y441528D02*
Y450563D01*
X244244Y355244D02*
Y392500D01*
X272524Y335126D02*
Y347476D01*
X218000Y368500D02*
Y371000D01*
X212500Y373000D02*
X216000D01*
X210000Y375500D02*
Y397000D01*
X225480Y368500D02*
Y370980D01*
X227500Y373000D02*
X232000D01*
X234016Y375016D02*
Y397000D01*
X221740Y362500D02*
Y368500D01*
Y378736D02*
Y396732D01*
Y368500D02*
Y378736D01*
D13*
X176260Y501615D02*
X176319Y500568D01*
X176494Y499534D01*
X176785Y498525D01*
X177186Y497556D01*
X177694Y496638D01*
X178301Y495782D01*
X179000Y495000D01*
X180256Y491968D02*
X180110Y493078D01*
X179681Y494112D01*
X179000Y495000D01*
X181500D02*
X180819Y494112D01*
X180390Y493078D01*
X180244Y491968D01*
X180500Y490244D02*
X180244Y490500D01*
X181500Y495000D02*
X182199Y495782D01*
X182806Y496638D01*
X183314Y497556D01*
X183715Y498525D01*
X184006Y499534D01*
X184181Y500568D01*
X184240Y501615D01*
X180500Y487500D02*
X180690Y486543D01*
X181232Y485732D01*
X182043Y485190D01*
X183000Y485000D01*
X220000Y480000D02*
X219904Y480975D01*
X219619Y481913D01*
X219157Y482778D01*
X218535Y483535D01*
X217778Y484157D01*
X216913Y484619D01*
X215975Y484904D01*
X215000Y485000D01*
X217000Y475000D02*
X216000Y474732D01*
X215268Y474000D01*
X215000Y473000D01*
X234000Y467500D02*
X233810Y468457D01*
X233268Y469268D01*
X232457Y469810D01*
X231500Y470000D01*
X212500D02*
X211543Y469810D01*
X210732Y469268D01*
X210190Y468457D01*
X210000Y467500D01*
X180500Y487500D02*
Y490244D01*
X180244Y490500D02*
Y491968D01*
X184240Y501615D02*
Y501776D01*
X183000Y485000D02*
X215000D01*
X220000Y475000D02*
X226244D01*
X217000D02*
X220000D01*
Y480000D01*
X212500Y470000D02*
X231500D01*
X215000D02*
Y473000D01*
X234000Y463437D02*
Y467500D01*
X210000Y463437D02*
Y467500D01*
D14*
X280398Y370000D02*
X280349Y370980D01*
X280205Y371951D01*
X279967Y372903D01*
X279637Y373827D01*
X279217Y374714D01*
X278712Y375556D01*
X278128Y376344D01*
X277469Y377071D01*
X276742Y377730D01*
X275953Y378315D01*
X275112Y378819D01*
X274224Y379239D01*
X273301Y379569D01*
X272348Y379808D01*
X271378Y379952D01*
X270398Y380000D01*
X259500Y388000D02*
X259558Y387036D01*
X259733Y386086D01*
X260020Y385163D01*
X260416Y384282D01*
X260916Y383455D01*
X261512Y382695D01*
X262195Y382012D01*
X262955Y381416D01*
X263782Y380916D01*
X264663Y380520D01*
X265585Y380233D01*
X266536Y380058D01*
X267500Y380000D01*
X288272Y372500D02*
X288224Y373480D01*
X288080Y374451D01*
X287841Y375403D01*
X287510Y376327D01*
X287091Y377214D01*
X286586Y378056D01*
X286002Y378844D01*
X285343Y379571D01*
X284616Y380230D01*
X283827Y380815D01*
X282986Y381319D01*
X282099Y381739D01*
X281174Y382069D01*
X280223Y382308D01*
X279252Y382452D01*
X278272Y382500D01*
X264500Y388000D02*
X264584Y387045D01*
X264832Y386119D01*
X265237Y385250D01*
X265787Y384465D01*
X266465Y383787D01*
X267250Y383237D01*
X268119Y382832D01*
X269045Y382584D01*
X270000Y382500D01*
X280398Y335126D02*
Y370000D01*
X267500Y380000D02*
X270398D01*
X259500Y388000D02*
Y401000D01*
X270000Y382500D02*
X278272D01*
X264500Y388000D02*
Y401000D01*
X288272Y335126D02*
Y372500D01*
D15*
X288374Y335126D02*
D03*
X284437D02*
D03*
X280500D02*
D03*
X276563D02*
D03*
X272626D02*
D03*
D16*
X300776Y325874D02*
D03*
X260224D02*
D03*
D17*
X259500Y344500D02*
D03*
X249500D02*
D03*
X170000Y536000D02*
D03*
Y526000D02*
D03*
D18*
X234016Y441528D02*
D03*
X222008D02*
D03*
X210000D02*
D03*
X234016Y397000D02*
D03*
X222008D02*
D03*
D19*
X210000D02*
D03*
D20*
X241500Y518228D02*
D03*
X236500D02*
D03*
X231500D02*
D03*
X226500D02*
D03*
X241500Y496772D02*
D03*
X236500D02*
D03*
X231500D02*
D03*
X226500D02*
D03*
D21*
X244500Y401000D02*
D03*
D22*
X249500D02*
D03*
X254500D02*
D03*
X259500D02*
D03*
X264500D02*
D03*
X269500D02*
D03*
X274500D02*
D03*
X279500D02*
D03*
X244500Y438402D02*
D03*
X249500D02*
D03*
X254500D02*
D03*
X259500D02*
D03*
X264500D02*
D03*
X269500D02*
D03*
X274500D02*
D03*
X279500D02*
D03*
D23*
X218000Y368500D02*
D03*
D24*
X221740D02*
D03*
X225480D02*
D03*
X218000Y378736D02*
D03*
X221740D02*
D03*
X225480D02*
D03*
D25*
X176760Y501776D02*
D03*
X180500D02*
D03*
X184240D02*
D03*
Y511224D02*
D03*
X176760D02*
D03*
D26*
X243650Y526500D02*
D03*
X237350D02*
D03*
X230850Y533500D02*
D03*
X237150D02*
D03*
X230650Y526500D02*
D03*
X224350D02*
D03*
D27*
X234000Y450563D02*
D03*
Y463437D02*
D03*
X210000Y450563D02*
D03*
Y463437D02*
D03*
D28*
X220000Y512744D02*
D03*
Y518256D02*
D03*
D29*
X249756Y446000D02*
D03*
X244244D02*
D03*
X249756Y392500D02*
D03*
X244244D02*
D03*
X216244Y389500D02*
D03*
X221756D02*
D03*
X185756Y490500D02*
D03*
X180244D02*
D03*
X186756Y521000D02*
D03*
X181244D02*
D03*
X231756Y475000D02*
D03*
X226244D02*
D03*
X227256Y362500D02*
D03*
X221744D02*
D03*
D30*
X209500Y621000D02*
D03*
X239500Y601000D02*
D03*
D31*
Y568500D02*
D03*
X209500D02*
D03*
D32*
X192000Y608500D02*
D03*
X252000Y583500D02*
D03*
X224500D02*
D03*
Y568500D02*
D03*
D33*
X242500Y555000D02*
D03*
X227500D02*
D03*
X212500D02*
D03*
X197500Y600000D02*
D03*
X137500Y495000D02*
D03*
X152500D02*
D03*
X167500D02*
D03*
X197500D02*
D03*
X212500D02*
D03*
X190000Y487500D02*
D03*
Y472500D02*
D03*
X205000D02*
D03*
X212500Y480000D02*
D03*
X197500Y465000D02*
D03*
Y480000D02*
D03*
Y450000D02*
D03*
X205000Y457500D02*
D03*
Y442500D02*
D03*
X182500Y450000D02*
D03*
Y480000D02*
D03*
Y465000D02*
D03*
X175000Y487500D02*
D03*
X190000Y442500D02*
D03*
Y457500D02*
D03*
X250000Y487500D02*
D03*
X235000Y472500D02*
D03*
X250000D02*
D03*
X220000Y457500D02*
D03*
X227500Y450000D02*
D03*
Y480000D02*
D03*
Y465000D02*
D03*
X220000Y472500D02*
D03*
X287500Y465000D02*
D03*
Y450000D02*
D03*
X272500Y495000D02*
D03*
Y480000D02*
D03*
X280000Y472500D02*
D03*
Y487500D02*
D03*
Y457500D02*
D03*
X272500Y465000D02*
D03*
X295000Y442500D02*
D03*
Y457500D02*
D03*
Y487500D02*
D03*
Y472500D02*
D03*
X287500Y480000D02*
D03*
Y495000D02*
D03*
Y615000D02*
D03*
X295000Y607500D02*
D03*
Y592500D02*
D03*
X287500Y600000D02*
D03*
Y585000D02*
D03*
Y555000D02*
D03*
Y570000D02*
D03*
X295000Y562500D02*
D03*
Y577500D02*
D03*
X287500Y525000D02*
D03*
Y540000D02*
D03*
X295000Y532500D02*
D03*
Y547500D02*
D03*
X287500Y510000D02*
D03*
X295000Y502500D02*
D03*
Y517500D02*
D03*
X257500Y615000D02*
D03*
X265000Y607500D02*
D03*
Y592500D02*
D03*
X280000Y607500D02*
D03*
Y592500D02*
D03*
X272500Y600000D02*
D03*
Y585000D02*
D03*
X257500Y600000D02*
D03*
X220000Y577500D02*
D03*
X257500Y555000D02*
D03*
Y570000D02*
D03*
X272500Y555000D02*
D03*
Y570000D02*
D03*
X280000Y562500D02*
D03*
Y577500D02*
D03*
X265000Y562500D02*
D03*
Y577500D02*
D03*
X257500Y525000D02*
D03*
Y540000D02*
D03*
X272500Y525000D02*
D03*
Y540000D02*
D03*
X280000Y532500D02*
D03*
Y547500D02*
D03*
X265000Y532500D02*
D03*
Y547500D02*
D03*
X257500Y510000D02*
D03*
X272500D02*
D03*
X280000Y502500D02*
D03*
Y517500D02*
D03*
X265000D02*
D03*
X272500Y615000D02*
D03*
X227500D02*
D03*
X235000Y607500D02*
D03*
X250000D02*
D03*
Y592500D02*
D03*
X235000D02*
D03*
X242500Y585000D02*
D03*
X227500Y600000D02*
D03*
X250000Y562500D02*
D03*
X235000Y577500D02*
D03*
X227500Y540000D02*
D03*
X242500D02*
D03*
X250000Y532500D02*
D03*
Y547500D02*
D03*
X227500Y510000D02*
D03*
X242500D02*
D03*
X250000Y517500D02*
D03*
X242500Y615000D02*
D03*
X197500D02*
D03*
X205000Y607500D02*
D03*
Y592500D02*
D03*
X220000Y607500D02*
D03*
Y592500D02*
D03*
X212500Y600000D02*
D03*
Y585000D02*
D03*
X197500D02*
D03*
Y555000D02*
D03*
Y570000D02*
D03*
X205000Y577500D02*
D03*
X197500Y525000D02*
D03*
Y540000D02*
D03*
X212500D02*
D03*
X220000Y532500D02*
D03*
Y547500D02*
D03*
X205000Y532500D02*
D03*
Y547500D02*
D03*
X212500Y510000D02*
D03*
X220000Y502500D02*
D03*
X205000D02*
D03*
X182500Y615000D02*
D03*
X190000Y502500D02*
D03*
X167500Y510000D02*
D03*
X175000Y547500D02*
D03*
Y532500D02*
D03*
X190000Y547500D02*
D03*
Y532500D02*
D03*
X182500Y540000D02*
D03*
Y525000D02*
D03*
X167500Y540000D02*
D03*
X175000Y577500D02*
D03*
Y562500D02*
D03*
X190000Y577500D02*
D03*
Y562500D02*
D03*
X182500Y570000D02*
D03*
Y555000D02*
D03*
X167500Y570000D02*
D03*
Y555000D02*
D03*
Y585000D02*
D03*
X182500D02*
D03*
Y600000D02*
D03*
X190000Y592500D02*
D03*
X175000D02*
D03*
X167500Y615000D02*
D03*
X145000Y607500D02*
D03*
Y592500D02*
D03*
X152500Y585000D02*
D03*
X137500Y600000D02*
D03*
Y585000D02*
D03*
Y555000D02*
D03*
Y570000D02*
D03*
X152500Y555000D02*
D03*
Y570000D02*
D03*
X160000Y562500D02*
D03*
Y577500D02*
D03*
X145000Y562500D02*
D03*
Y577500D02*
D03*
X137500Y525000D02*
D03*
Y540000D02*
D03*
X152500Y525000D02*
D03*
Y540000D02*
D03*
X160000Y532500D02*
D03*
Y547500D02*
D03*
X145000Y532500D02*
D03*
Y547500D02*
D03*
X137500Y510000D02*
D03*
X152500D02*
D03*
X160000Y502500D02*
D03*
Y517500D02*
D03*
X145000Y502500D02*
D03*
Y517500D02*
D03*
X152500Y615000D02*
D03*
X262500Y337500D02*
D03*
X276500Y328500D02*
D03*
Y342000D02*
D03*
X277500Y352500D02*
D03*
X279500Y394000D02*
D03*
X250000Y387500D02*
D03*
X226500Y384000D02*
D03*
X215500Y394500D02*
D03*
Y384000D02*
D03*
X285000Y390000D02*
D03*
Y405000D02*
D03*
X270000Y390000D02*
D03*
X240000Y345000D02*
D03*
X232500Y367500D02*
D03*
X247500Y382500D02*
D03*
Y367500D02*
D03*
X240000Y390000D02*
D03*
Y360000D02*
D03*
Y375000D02*
D03*
X255000Y360000D02*
D03*
X270000D02*
D03*
X262500Y367500D02*
D03*
X277500D02*
D03*
X300000Y405000D02*
D03*
X292500Y397500D02*
D03*
X300000Y390000D02*
D03*
X292500Y382500D02*
D03*
X300000Y375000D02*
D03*
X292500Y367500D02*
D03*
X300000Y345000D02*
D03*
X292500Y337500D02*
D03*
Y352500D02*
D03*
X300000Y360000D02*
D03*
Y315000D02*
D03*
X285000D02*
D03*
X277500Y322500D02*
D03*
X255000Y315000D02*
D03*
X270000D02*
D03*
X262500Y307500D02*
D03*
X277500D02*
D03*
X292500D02*
D03*
X255000Y300000D02*
D03*
X262500Y292500D02*
D03*
X277500D02*
D03*
X292500D02*
D03*
X285000Y300000D02*
D03*
X270000D02*
D03*
X300000D02*
D03*
X240000Y315000D02*
D03*
X247500Y337500D02*
D03*
Y322500D02*
D03*
X240000Y330000D02*
D03*
X247500Y307500D02*
D03*
Y292500D02*
D03*
X240000Y300000D02*
D03*
X195000Y405000D02*
D03*
X217500Y352500D02*
D03*
X225000Y345000D02*
D03*
X210000Y360000D02*
D03*
Y345000D02*
D03*
X217500Y337500D02*
D03*
Y322500D02*
D03*
X232500Y337500D02*
D03*
Y322500D02*
D03*
X225000Y330000D02*
D03*
Y315000D02*
D03*
X210000Y330000D02*
D03*
Y315000D02*
D03*
Y300000D02*
D03*
X225000D02*
D03*
X232500Y292500D02*
D03*
Y307500D02*
D03*
X217500Y292500D02*
D03*
Y307500D02*
D03*
X187500D02*
D03*
Y292500D02*
D03*
X202500Y307500D02*
D03*
Y292500D02*
D03*
X195000Y300000D02*
D03*
X180000D02*
D03*
X187500Y337500D02*
D03*
Y322500D02*
D03*
X202500Y337500D02*
D03*
Y322500D02*
D03*
X195000Y330000D02*
D03*
Y315000D02*
D03*
X180000Y330000D02*
D03*
Y315000D02*
D03*
X187500Y367500D02*
D03*
Y352500D02*
D03*
X202500Y367500D02*
D03*
Y352500D02*
D03*
X195000Y360000D02*
D03*
Y345000D02*
D03*
X180000Y360000D02*
D03*
Y345000D02*
D03*
Y375000D02*
D03*
Y390000D02*
D03*
X195000Y375000D02*
D03*
Y390000D02*
D03*
X202500Y382500D02*
D03*
Y397500D02*
D03*
X187500Y382500D02*
D03*
Y397500D02*
D03*
X250000Y455000D02*
D03*
X270000D02*
D03*
X275000Y372500D02*
D03*
X284335Y369835D02*
D03*
X160000Y592500D02*
D03*
X152500Y600000D02*
D03*
X167500D02*
D03*
X160000Y607500D02*
D03*
X175000D02*
D03*
M02*
