G04*
G04 #@! TF.GenerationSoftware,Altium Limited,CircuitStudio,1.5.2 (30)*
G04*
G04 Layer_Color=20142*
%FSLAX25Y25*%
%MOIN*%
G70*
G01*
G75*
G04:AMPARAMS|DCode=39|XSize=29.65mil|YSize=57.21mil|CornerRadius=5.95mil|HoleSize=0mil|Usage=FLASHONLY|Rotation=180.000|XOffset=0mil|YOffset=0mil|HoleType=Round|Shape=RoundedRectangle|*
%AMROUNDEDRECTD39*
21,1,0.02965,0.04532,0,0,180.0*
21,1,0.01776,0.05721,0,0,180.0*
1,1,0.01190,-0.00888,0.02266*
1,1,0.01190,0.00888,0.02266*
1,1,0.01190,0.00888,-0.02266*
1,1,0.01190,-0.00888,-0.02266*
%
%ADD39ROUNDEDRECTD39*%
%ADD40R,0.03162X0.08280*%
%ADD41R,0.09068X0.11824*%
%ADD42C,0.04737*%
%ADD43O,0.05288X0.08280*%
%ADD44R,0.05288X0.08280*%
%ADD45R,0.03162X0.08674*%
%ADD46O,0.03162X0.08674*%
%ADD47R,0.03162X0.05131*%
%ADD48O,0.03162X0.05131*%
%ADD49R,0.03556X0.05918*%
%ADD50R,0.04343X0.04737*%
%ADD51R,0.05603X0.04383*%
%ADD52R,0.04343X0.03556*%
%ADD53R,0.03556X0.04343*%
%ADD54C,0.07100*%
%ADD55C,0.10100*%
%ADD56C,0.08500*%
D39*
X240319Y514213D02*
D03*
X235319D02*
D03*
X230319D02*
D03*
X225319D02*
D03*
X240319Y493543D02*
D03*
X235319D02*
D03*
X230319D02*
D03*
X225319D02*
D03*
D40*
X287193Y336504D02*
D03*
X283256D02*
D03*
X279319D02*
D03*
X275382D02*
D03*
X271445D02*
D03*
D41*
X299594Y327252D02*
D03*
X259043D02*
D03*
D42*
X258319Y345878D02*
D03*
X248319D02*
D03*
X168819Y537378D02*
D03*
Y527378D02*
D03*
D43*
X232835Y442906D02*
D03*
X220827D02*
D03*
X208819D02*
D03*
X232835Y398378D02*
D03*
X220827D02*
D03*
D44*
X208819D02*
D03*
D45*
X243319Y402378D02*
D03*
D46*
X248319D02*
D03*
X253319D02*
D03*
X258319D02*
D03*
X263319D02*
D03*
X268319D02*
D03*
X273319D02*
D03*
X278319D02*
D03*
X243319Y439780D02*
D03*
X248319D02*
D03*
X253319D02*
D03*
X258319D02*
D03*
X263319D02*
D03*
X268319D02*
D03*
X273319D02*
D03*
X278319D02*
D03*
D47*
X216819Y369878D02*
D03*
D48*
X220559D02*
D03*
X224299D02*
D03*
X216819Y380114D02*
D03*
X220559D02*
D03*
X224299D02*
D03*
D49*
X175579Y503154D02*
D03*
X179319D02*
D03*
X183059D02*
D03*
Y512602D02*
D03*
X175579D02*
D03*
D50*
X223669Y523378D02*
D03*
X229969D02*
D03*
X235969Y529878D02*
D03*
X229669D02*
D03*
X235669Y523378D02*
D03*
X241969D02*
D03*
D51*
X232819Y451941D02*
D03*
Y464815D02*
D03*
X208819Y451941D02*
D03*
Y464815D02*
D03*
D52*
X218819Y503622D02*
D03*
Y509134D02*
D03*
D53*
X248575Y447378D02*
D03*
X243063D02*
D03*
X248575Y393878D02*
D03*
X243063D02*
D03*
X215063Y390878D02*
D03*
X220575D02*
D03*
X184575Y491878D02*
D03*
X179063D02*
D03*
X185575Y522378D02*
D03*
X180063D02*
D03*
X230575Y476378D02*
D03*
X225063D02*
D03*
X226075Y363878D02*
D03*
X220563D02*
D03*
D54*
X208319Y612878D02*
D03*
X238319Y592878D02*
D03*
D55*
Y560378D02*
D03*
X208319D02*
D03*
D56*
X190819Y600378D02*
D03*
X250819Y575378D02*
D03*
X223319D02*
D03*
Y560378D02*
D03*
M02*
