G04*
G04 #@! TF.GenerationSoftware,Altium Limited,CircuitStudio,1.5.2 (30)*
G04*
G04 Layer_Color=15065295*
%FSLAX25Y25*%
%MOIN*%
G70*
G01*
G75*
%ADD11C,0.01000*%
%ADD14C,0.00800*%
%ADD35C,0.02362*%
%ADD36C,0.00984*%
%ADD37C,0.00787*%
%ADD38C,0.00300*%
D11*
X213252Y495250D02*
X218250D01*
X219250Y496250D01*
Y498249D01*
X218250Y499249D01*
X213252D01*
X219250Y501248D02*
Y503247D01*
Y502248D01*
X213252D01*
X214252Y501248D01*
X216152Y542950D02*
X221150D01*
X222150Y543950D01*
Y545949D01*
X221150Y546949D01*
X216152D01*
X222150Y552947D02*
Y548948D01*
X218151Y552947D01*
X217152D01*
X216152Y551947D01*
Y549948D01*
X217152Y548948D01*
X314448Y337051D02*
Y339051D01*
Y338051D01*
X309450D01*
X308450Y339051D01*
Y340050D01*
X309450Y341050D01*
X308450Y335052D02*
Y333053D01*
Y334052D01*
X314448D01*
X313448Y335052D01*
D14*
X240000Y352999D02*
X242666D01*
X241333D01*
Y349000D01*
X243999D02*
Y352999D01*
X245998D01*
X246665Y352332D01*
Y350999D01*
X245998Y350333D01*
X243999D01*
X250663Y349000D02*
X247997D01*
X250663Y351666D01*
Y352332D01*
X249997Y352999D01*
X248664D01*
X247997Y352332D01*
X258500Y352499D02*
X261166D01*
X259833D01*
Y348500D01*
X262499D02*
Y352499D01*
X264498D01*
X265164Y351832D01*
Y350499D01*
X264498Y349833D01*
X262499D01*
X266497Y348500D02*
X267830D01*
X267164D01*
Y352499D01*
X266497Y351832D01*
X155000Y537999D02*
X157666D01*
X156333D01*
Y534000D01*
X158999D02*
Y537999D01*
X160998D01*
X161664Y537332D01*
Y535999D01*
X160998Y535333D01*
X158999D01*
X164997Y534000D02*
Y537999D01*
X162997Y535999D01*
X165663D01*
X198000Y404999D02*
X200666Y401000D01*
Y404999D02*
X198000Y401000D01*
X201999D02*
X203332D01*
X202665D01*
Y404999D01*
X201999Y404332D01*
X238001Y396000D02*
X241334D01*
X242000Y396666D01*
Y397999D01*
X241334Y398666D01*
X238001D01*
X238668Y399999D02*
X238001Y400665D01*
Y401998D01*
X238668Y402665D01*
X239334D01*
X240001Y401998D01*
X240667Y402665D01*
X241334D01*
X242000Y401998D01*
Y400665D01*
X241334Y399999D01*
X240667D01*
X240001Y400665D01*
X239334Y399999D01*
X238668D01*
X240001Y400665D02*
Y401998D01*
X207500Y370499D02*
Y367166D01*
X208166Y366500D01*
X209499D01*
X210166Y367166D01*
Y370499D01*
X211499D02*
X214164D01*
Y369832D01*
X211499Y367166D01*
Y366500D01*
X163500Y503999D02*
Y500666D01*
X164166Y500000D01*
X165499D01*
X166166Y500666D01*
Y503999D01*
X170165D02*
X168832Y503332D01*
X167499Y501999D01*
Y500666D01*
X168165Y500000D01*
X169498D01*
X170165Y500666D01*
Y501333D01*
X169498Y501999D01*
X167499D01*
X155000Y527999D02*
X157666D01*
X156333D01*
Y524000D01*
X158999D02*
Y527999D01*
X160998D01*
X161664Y527332D01*
Y525999D01*
X160998Y525333D01*
X158999D01*
X162997Y527332D02*
X163664Y527999D01*
X164997D01*
X165663Y527332D01*
Y526666D01*
X164997Y525999D01*
X164330D01*
X164997D01*
X165663Y525333D01*
Y524666D01*
X164997Y524000D01*
X163664D01*
X162997Y524666D01*
X211500Y525500D02*
Y529499D01*
X213499D01*
X214166Y528832D01*
Y527499D01*
X213499Y526833D01*
X211500D01*
X212833D02*
X214166Y525500D01*
X215499D02*
X216832D01*
X216165D01*
Y529499D01*
X215499Y528832D01*
X218831D02*
X219497Y529499D01*
X220830D01*
X221497Y528832D01*
Y528166D01*
X220830Y527499D01*
X221497Y526833D01*
Y526166D01*
X220830Y525500D01*
X219497D01*
X218831Y526166D01*
Y526833D01*
X219497Y527499D01*
X218831Y528166D01*
Y528832D01*
X219497Y527499D02*
X220830D01*
X230000Y537500D02*
Y541499D01*
X231999D01*
X232666Y540832D01*
Y539499D01*
X231999Y538833D01*
X230000D01*
X231333D02*
X232666Y537500D01*
X233999D02*
X235332D01*
X234665D01*
Y541499D01*
X233999Y540832D01*
X237331Y541499D02*
X239997D01*
Y540832D01*
X237331Y538166D01*
Y537500D01*
X247000Y525000D02*
Y528999D01*
X248999D01*
X249666Y528332D01*
Y526999D01*
X248999Y526333D01*
X247000D01*
X248333D02*
X249666Y525000D01*
X250999D02*
X252332D01*
X251665D01*
Y528999D01*
X250999Y528332D01*
X256997Y528999D02*
X255664Y528332D01*
X254331Y526999D01*
Y525666D01*
X254997Y525000D01*
X256330D01*
X256997Y525666D01*
Y526333D01*
X256330Y526999D01*
X254331D01*
X223000Y460499D02*
Y456500D01*
X224999D01*
X225666Y457166D01*
Y459832D01*
X224999Y460499D01*
X223000D01*
X226999Y459832D02*
X227665Y460499D01*
X228998D01*
X229664Y459832D01*
Y459166D01*
X228998Y458499D01*
X228332D01*
X228998D01*
X229664Y457833D01*
Y457166D01*
X228998Y456500D01*
X227665D01*
X226999Y457166D01*
X214500Y455999D02*
Y452000D01*
X216499D01*
X217166Y452666D01*
Y455332D01*
X216499Y455999D01*
X214500D01*
X221164Y452000D02*
X218499D01*
X221164Y454666D01*
Y455332D01*
X220498Y455999D01*
X219165D01*
X218499Y455332D01*
X208166Y509832D02*
X207499Y510499D01*
X206166D01*
X205500Y509832D01*
Y507166D01*
X206166Y506500D01*
X207499D01*
X208166Y507166D01*
X212164Y506500D02*
X209499D01*
X212164Y509166D01*
Y509832D01*
X211498Y510499D01*
X210165D01*
X209499Y509832D01*
X213497D02*
X214164Y510499D01*
X215497D01*
X216163Y509832D01*
Y509166D01*
X215497Y508499D01*
X214830D01*
X215497D01*
X216163Y507833D01*
Y507166D01*
X215497Y506500D01*
X214164D01*
X213497Y507166D01*
X256166Y447832D02*
X255499Y448499D01*
X254166D01*
X253500Y447832D01*
Y445166D01*
X254166Y444500D01*
X255499D01*
X256166Y445166D01*
X260164Y444500D02*
X257499D01*
X260164Y447166D01*
Y447832D01*
X259498Y448499D01*
X258165D01*
X257499Y447832D01*
X264163Y444500D02*
X261497D01*
X264163Y447166D01*
Y447832D01*
X263497Y448499D01*
X262164D01*
X261497Y447832D01*
X242166Y387832D02*
X241499Y388499D01*
X240166D01*
X239500Y387832D01*
Y385166D01*
X240166Y384500D01*
X241499D01*
X242166Y385166D01*
X246164Y384500D02*
X243499D01*
X246164Y387166D01*
Y387832D01*
X245498Y388499D01*
X244165D01*
X243499Y387832D01*
X247497Y384500D02*
X248830D01*
X248164D01*
Y388499D01*
X247497Y387832D01*
X227166Y390832D02*
X226499Y391499D01*
X225166D01*
X224500Y390832D01*
Y388166D01*
X225166Y387500D01*
X226499D01*
X227166Y388166D01*
X231165Y387500D02*
X228499D01*
X231165Y390166D01*
Y390832D01*
X230498Y391499D01*
X229165D01*
X228499Y390832D01*
X232497D02*
X233164Y391499D01*
X234497D01*
X235163Y390832D01*
Y388166D01*
X234497Y387500D01*
X233164D01*
X232497Y388166D01*
Y390832D01*
X170166Y492832D02*
X169499Y493499D01*
X168166D01*
X167500Y492832D01*
Y490166D01*
X168166Y489500D01*
X169499D01*
X170166Y490166D01*
X171499Y489500D02*
X172832D01*
X172165D01*
Y493499D01*
X171499Y492832D01*
X174831Y490166D02*
X175497Y489500D01*
X176830D01*
X177497Y490166D01*
Y492832D01*
X176830Y493499D01*
X175497D01*
X174831Y492832D01*
Y492166D01*
X175497Y491499D01*
X177497D01*
X193166Y522332D02*
X192499Y522999D01*
X191166D01*
X190500Y522332D01*
Y519666D01*
X191166Y519000D01*
X192499D01*
X193166Y519666D01*
X194499Y519000D02*
X195832D01*
X195165D01*
Y522999D01*
X194499Y522332D01*
X197831D02*
X198497Y522999D01*
X199830D01*
X200497Y522332D01*
Y521666D01*
X199830Y520999D01*
X200497Y520333D01*
Y519666D01*
X199830Y519000D01*
X198497D01*
X197831Y519666D01*
Y520333D01*
X198497Y520999D01*
X197831Y521666D01*
Y522332D01*
X198497Y520999D02*
X199830D01*
X232666Y482332D02*
X231999Y482999D01*
X230666D01*
X230000Y482332D01*
Y479666D01*
X230666Y479000D01*
X231999D01*
X232666Y479666D01*
X233999Y479000D02*
X235332D01*
X234665D01*
Y482999D01*
X233999Y482332D01*
X237331Y482999D02*
X239997D01*
Y482332D01*
X237331Y479666D01*
Y479000D01*
X222666Y358332D02*
X221999Y358999D01*
X220666D01*
X220000Y358332D01*
Y355666D01*
X220666Y355000D01*
X221999D01*
X222666Y355666D01*
X223999Y355000D02*
X225332D01*
X224665D01*
Y358999D01*
X223999Y358332D01*
X229997Y358999D02*
X228664Y358332D01*
X227331Y356999D01*
Y355666D01*
X227997Y355000D01*
X229330D01*
X229997Y355666D01*
Y356333D01*
X229330Y356999D01*
X227331D01*
X201500Y550000D02*
Y553999D01*
X203499D01*
X204166Y553332D01*
Y551999D01*
X203499Y551333D01*
X201500D01*
X205499Y550000D02*
X206832D01*
X206165D01*
Y553999D01*
X205499Y553332D01*
D35*
X229276Y505138D02*
X228831Y506061D01*
X227832Y506289D01*
X227030Y505650D01*
Y504625D01*
X227832Y503986D01*
X228831Y504214D01*
X229276Y505138D01*
D36*
X223744Y497165D02*
X223006Y497592D01*
Y496739D01*
X223744Y497165D01*
X226618Y545169D02*
X225880Y545596D01*
Y544743D01*
X226618Y545169D01*
X273118Y341032D02*
X272380Y341458D01*
Y340605D01*
X273118Y341032D01*
X173709Y501776D02*
X172970Y502202D01*
Y501349D01*
X173709Y501776D01*
X239059Y463437D02*
X238321Y463863D01*
Y463011D01*
X239059Y463437D01*
X215059D02*
X214321Y463863D01*
Y463011D01*
X215059Y463437D01*
D37*
X203996Y416262D02*
X205023Y416443D01*
X205926Y416964D01*
X206596Y417763D01*
X206952Y418743D01*
Y419785D01*
X206596Y420765D01*
X205926Y421563D01*
X205023Y422085D01*
X203996Y422266D01*
X242000Y418451D02*
X242884Y418817D01*
X243250Y419701D01*
X242884Y420585D01*
X242000Y420951D01*
X216130Y372683D02*
X216940Y373151D01*
Y374086D01*
X216130Y374553D01*
X243843Y501201D02*
Y513799D01*
X224158Y501201D02*
Y513799D01*
X243843D01*
X224158Y501201D02*
X243843D01*
X228095Y549500D02*
Y552256D01*
X230457D01*
X239906Y549500D02*
Y552256D01*
X237543D02*
X239906D01*
X303776Y303433D02*
X304122Y303780D01*
X303776Y307764D02*
X304122Y307417D01*
X298413Y307764D02*
Y313276D01*
X300185D02*
Y318787D01*
X265933Y329811D02*
X295067D01*
X298413Y313276D02*
X300185D01*
X304122Y303780D02*
Y307417D01*
X257224Y303433D02*
X303776D01*
X298413Y307764D02*
X303776D01*
X256878Y303779D02*
X257224Y303433D01*
X256878Y307417D02*
X257224Y307764D01*
Y307764D02*
X262586D01*
X256878Y303780D02*
Y307417D01*
X260815Y313276D02*
X262586D01*
Y307764D02*
Y313276D01*
X260815D02*
Y318787D01*
X203996Y404028D02*
X240020D01*
Y434500D01*
X203996D02*
X240020D01*
X203996Y422266D02*
Y434500D01*
Y404028D02*
Y416262D01*
X242000Y408618D02*
Y418451D01*
Y420951D02*
Y430784D01*
X282000D01*
Y408618D02*
Y430784D01*
X242000Y408618D02*
X282000D01*
X216130Y372683D02*
Y373953D01*
Y373284D02*
Y374553D01*
Y373284D02*
X227350D01*
Y373953D01*
X216130D02*
X227350D01*
X174398Y505909D02*
Y507091D01*
X186602Y505909D02*
Y507091D01*
X174398Y505909D02*
X186602D01*
X174398Y507091D02*
X186602D01*
X227803Y525425D02*
X228197D01*
X227803Y528575D02*
X228197D01*
X233803Y535075D02*
X234197D01*
X233803Y531925D02*
X234197D01*
X239803Y525425D02*
X240197D01*
X239803Y528575D02*
X240197D01*
X230850Y453929D02*
X237150D01*
X230850D02*
Y460071D01*
X237150Y453929D02*
Y460071D01*
X230850D02*
X237150D01*
X206850Y453929D02*
X213150D01*
X206850D02*
Y460071D01*
X213150Y453929D02*
Y460071D01*
X206850D02*
X213150D01*
X218622Y509803D02*
Y510197D01*
X221378Y509803D02*
Y510197D01*
X246803Y444622D02*
X247197D01*
X246803Y447378D02*
X247197D01*
X246803Y391122D02*
X247197D01*
X246803Y393878D02*
X247197D01*
X218803Y390878D02*
X219197D01*
X218803Y388122D02*
X219197D01*
X182803Y489122D02*
X183197D01*
X182803Y491878D02*
X183197D01*
X183803Y519622D02*
X184197D01*
X183803Y522378D02*
X184197D01*
X228803Y473622D02*
X229197D01*
X228803Y476378D02*
X229197D01*
X224303Y361122D02*
X224697D01*
X224303Y363878D02*
X224697D01*
D38*
X174500Y407500D02*
X308500D01*
X174500Y433500D02*
X308500D01*
M02*
