G04*
G04 #@! TF.GenerationSoftware,Altium Limited,CircuitStudio,1.5.2 (30)*
G04*
G04 Layer_Physical_Order=1*
G04 Layer_Color=11767835*
%FSLAX25Y25*%
%MOIN*%
G70*
G01*
G75*
%ADD10C,0.00800*%
%ADD11C,0.01000*%
%ADD12C,0.02000*%
%ADD13C,0.01200*%
%ADD14C,0.01600*%
%ADD15R,0.02756X0.03543*%
%ADD16R,0.03543X0.02756*%
%ADD17R,0.04803X0.03583*%
%ADD18R,0.03543X0.03937*%
%ADD19C,0.03937*%
%ADD20R,0.02756X0.05118*%
%ADD21O,0.02362X0.04331*%
%ADD22R,0.02362X0.04331*%
%ADD23O,0.02362X0.07874*%
%ADD24R,0.02362X0.07874*%
%ADD25R,0.04488X0.07480*%
%ADD26O,0.04488X0.07480*%
%ADD27R,0.02362X0.07480*%
%ADD28R,0.08268X0.11024*%
%ADD29R,0.03937X0.05512*%
G04:AMPARAMS|DCode=30|XSize=21.65mil|YSize=49.21mil|CornerRadius=1.95mil|HoleSize=0mil|Usage=FLASHONLY|Rotation=180.000|XOffset=0mil|YOffset=0mil|HoleType=Round|Shape=RoundedRectangle|*
%AMROUNDEDRECTD30*
21,1,0.02165,0.04532,0,0,180.0*
21,1,0.01776,0.04921,0,0,180.0*
1,1,0.00390,-0.00888,0.02266*
1,1,0.00390,0.00888,0.02266*
1,1,0.00390,0.00888,-0.02266*
1,1,0.00390,-0.00888,-0.02266*
%
%ADD30ROUNDEDRECTD30*%
%ADD31C,0.07700*%
%ADD32C,0.09300*%
%ADD33C,0.06300*%
%ADD34C,0.02050*%
G36*
X206911Y618902D02*
X207340Y618724D01*
X208319Y618596D01*
X209298Y618724D01*
X209725Y618901D01*
X293819Y618878D01*
Y618878D01*
X293862Y618916D01*
X295124Y618749D01*
X296340Y618246D01*
X297385Y617444D01*
X298186Y616400D01*
X298690Y615183D01*
X298862Y613878D01*
X298819Y445878D01*
Y439878D01*
X298819D01*
X298856Y439835D01*
X298690Y438573D01*
X298186Y437356D01*
X297385Y436312D01*
X296340Y435510D01*
X295124Y435007D01*
X293819Y434835D01*
X279877Y434840D01*
X279726Y435340D01*
X279891Y435451D01*
X280374Y436173D01*
X280543Y437024D01*
Y439280D01*
X278319D01*
X276095D01*
Y437024D01*
X276264Y436173D01*
X276747Y435451D01*
X276911Y435341D01*
X276759Y434841D01*
X274046Y434842D01*
X273997Y435343D01*
X274014Y435346D01*
X274603Y435740D01*
X274997Y436329D01*
X275135Y437024D01*
Y442535D01*
X274997Y443230D01*
X274950Y443300D01*
Y451878D01*
X274947Y451896D01*
X274831Y453074D01*
X274482Y454224D01*
X273916Y455283D01*
X273153Y456212D01*
X272224Y456975D01*
X271165Y457541D01*
X270015Y457890D01*
X269091Y457981D01*
X268819Y458035D01*
X268185Y457909D01*
X267647Y457550D01*
X267288Y457012D01*
X267162Y456378D01*
X267288Y455744D01*
X267647Y455206D01*
X268185Y454847D01*
X268819Y454721D01*
X268914Y454740D01*
X269563Y454655D01*
X270256Y454367D01*
X270852Y453911D01*
X271308Y453315D01*
X271596Y452622D01*
X271691Y451896D01*
X271688Y451878D01*
Y443300D01*
X271641Y443230D01*
X271503Y442535D01*
Y437024D01*
X271641Y436329D01*
X272035Y435740D01*
X272624Y435346D01*
X272639Y435343D01*
X272589Y434843D01*
X269055Y434844D01*
X269006Y435344D01*
X269014Y435346D01*
X269603Y435740D01*
X269997Y436329D01*
X270135Y437024D01*
Y442535D01*
X269997Y443230D01*
X269603Y443820D01*
X269014Y444213D01*
X268319Y444351D01*
X267624Y444213D01*
X267035Y443820D01*
X266641Y443230D01*
X266503Y442535D01*
Y437024D01*
X266641Y436329D01*
X267035Y435740D01*
X267624Y435346D01*
X267629Y435345D01*
X267580Y434845D01*
X264065Y434846D01*
X264014Y435346D01*
X264603Y435740D01*
X264997Y436329D01*
X265135Y437024D01*
Y442535D01*
X264997Y443230D01*
X264603Y443820D01*
X264543Y443860D01*
Y503878D01*
X264549D01*
X264429Y505093D01*
X264075Y506262D01*
X263499Y507339D01*
X262724Y508283D01*
X261780Y509058D01*
X260703Y509634D01*
X259534Y509988D01*
X258319Y510108D01*
Y510102D01*
X230319D01*
Y510108D01*
X229103Y509988D01*
X227935Y509634D01*
X226858Y509058D01*
X225914Y508283D01*
X225139Y507339D01*
X224563Y506262D01*
X224209Y505093D01*
X224089Y503878D01*
X224095D01*
Y501541D01*
X223858Y501382D01*
X223682Y501119D01*
X223621Y500809D01*
Y496278D01*
X223682Y495967D01*
X223858Y495705D01*
X224121Y495529D01*
X224431Y495467D01*
X226207D01*
X226517Y495529D01*
X226780Y495705D01*
X226956Y495967D01*
X227017Y496278D01*
Y500809D01*
X226956Y501119D01*
X226780Y501382D01*
X226542Y501541D01*
Y503878D01*
X226539Y503896D01*
X226665Y504857D01*
X227043Y505769D01*
X227644Y506553D01*
X228428Y507154D01*
X229340Y507531D01*
X230301Y507658D01*
X230319Y507654D01*
X231762D01*
X231862Y507155D01*
X231449Y506983D01*
X230467Y506230D01*
X229714Y505248D01*
X229240Y504105D01*
X229078Y502878D01*
X229095D01*
Y501541D01*
X228858Y501382D01*
X228682Y501119D01*
X228621Y500809D01*
Y496278D01*
X228682Y495967D01*
X228858Y495705D01*
X229121Y495529D01*
X229431Y495467D01*
X231207D01*
X231517Y495529D01*
X231780Y495705D01*
X231956Y495967D01*
X232017Y496278D01*
Y500809D01*
X231956Y501119D01*
X231780Y501382D01*
X231542Y501541D01*
Y502878D01*
X231534Y502922D01*
X231699Y503756D01*
X232197Y504500D01*
X232941Y504997D01*
X233595Y505128D01*
X234095Y504822D01*
Y501541D01*
X233858Y501382D01*
X233682Y501119D01*
X233621Y500809D01*
Y496278D01*
X233682Y495967D01*
X233858Y495705D01*
X234121Y495529D01*
X234431Y495467D01*
X236207D01*
X236517Y495529D01*
X236780Y495705D01*
X236955Y495967D01*
X237017Y496278D01*
Y500809D01*
X236955Y501119D01*
X236780Y501382D01*
X236543Y501541D01*
Y505155D01*
X240484D01*
X240684Y504706D01*
X240681Y504655D01*
X240037Y504160D01*
X239524Y503492D01*
X239201Y502713D01*
X239091Y501878D01*
X239091D01*
X238944Y501439D01*
X238858Y501382D01*
X238682Y501119D01*
X238621Y500809D01*
Y496278D01*
X238682Y495967D01*
X238858Y495705D01*
X239121Y495529D01*
X239431Y495467D01*
X241207D01*
X241517Y495529D01*
X241780Y495705D01*
X241955Y495967D01*
X242017Y496278D01*
Y500809D01*
X241955Y501119D01*
X241780Y501382D01*
X241697Y501437D01*
X241554Y501878D01*
X241613Y502171D01*
X241778Y502419D01*
X242026Y502585D01*
X242319Y502643D01*
Y502655D01*
X248319D01*
X248337Y502658D01*
X249298Y502531D01*
X250210Y502154D01*
X250993Y501552D01*
X251595Y500769D01*
X251972Y499857D01*
X252099Y498896D01*
X252095Y498878D01*
Y443860D01*
X252035Y443820D01*
X251641Y443230D01*
X251503Y442535D01*
Y437024D01*
X251641Y436329D01*
X252035Y435740D01*
X252624Y435346D01*
X252551Y434851D01*
X249894Y434852D01*
X249743Y435352D01*
X249891Y435451D01*
X250374Y436173D01*
X250543Y437024D01*
Y439280D01*
X248319D01*
X246095D01*
Y437024D01*
X246264Y436173D01*
X246746Y435451D01*
X246894Y435353D01*
X246742Y434853D01*
X244104Y434854D01*
X244014Y435346D01*
X244603Y435740D01*
X244997Y436329D01*
X245135Y437024D01*
Y442535D01*
X244997Y443230D01*
X244603Y443820D01*
X244441Y443928D01*
Y445006D01*
X245041D01*
Y449750D01*
X244694D01*
Y454747D01*
X248691D01*
X248819Y454721D01*
X249453Y454847D01*
X249991Y455206D01*
X250350Y455744D01*
X250476Y456378D01*
X250350Y457012D01*
X249991Y457550D01*
X249453Y457909D01*
X248819Y458035D01*
X248691Y458009D01*
X244694D01*
Y482134D01*
X244703D01*
X244542Y483770D01*
X244065Y485343D01*
X243290Y486792D01*
X242248Y488063D01*
X240977Y489105D01*
X239528Y489880D01*
X237955Y490357D01*
X236319Y490518D01*
Y490509D01*
X208819D01*
X208746Y490495D01*
X207182Y490649D01*
X205608Y491126D01*
X204157Y491902D01*
X202886Y492945D01*
X201843Y494216D01*
X201067Y495667D01*
X200590Y497241D01*
X200436Y498805D01*
X200450Y498878D01*
Y515747D01*
X203319D01*
X203336Y515750D01*
X203587Y515646D01*
X203691Y515395D01*
X203688Y515378D01*
X203701Y515310D01*
X203799Y514569D01*
X204111Y513815D01*
X204608Y513167D01*
X205256Y512670D01*
X206010Y512358D01*
X206751Y512260D01*
X206819Y512247D01*
X216447D01*
Y512156D01*
X221191D01*
Y512756D01*
X248819D01*
X248819Y512756D01*
X249248Y512842D01*
X249612Y513085D01*
X250587Y514059D01*
X251339Y514159D01*
X252518Y514647D01*
X253530Y515423D01*
X254306Y516435D01*
X254794Y517613D01*
X254961Y518878D01*
X254941D01*
Y524878D01*
X254963D01*
X254788Y526209D01*
X254274Y527450D01*
X253456Y528515D01*
X252391Y529333D01*
X251150Y529847D01*
X249819Y530022D01*
Y529999D01*
X244340D01*
Y530946D01*
X239597D01*
Y525809D01*
X244340D01*
Y527757D01*
X249819D01*
Y527753D01*
X250563Y527655D01*
X251256Y527367D01*
X251852Y526911D01*
X252308Y526315D01*
X252596Y525622D01*
X252694Y524878D01*
X252697D01*
Y518878D01*
X252691D01*
X252602Y518201D01*
X252341Y517570D01*
X251925Y517028D01*
X251383Y516612D01*
X250752Y516351D01*
X250075Y516261D01*
Y516256D01*
X249646Y516170D01*
X249282Y515927D01*
X249282Y515927D01*
X248354Y514999D01*
X221191D01*
Y516112D01*
X220441D01*
Y522878D01*
X220440Y522879D01*
X220551Y523146D01*
X220818Y523257D01*
X220819Y523256D01*
X223819D01*
X223820Y523257D01*
X224087Y523146D01*
X224198Y522879D01*
X224197Y522878D01*
Y522242D01*
X224121Y522227D01*
X223858Y522051D01*
X223682Y521789D01*
X223621Y521478D01*
Y516947D01*
X223682Y516637D01*
X223858Y516374D01*
X224121Y516198D01*
X224431Y516136D01*
X226207D01*
X226517Y516198D01*
X226780Y516374D01*
X226956Y516637D01*
X227017Y516947D01*
Y521478D01*
X226956Y521789D01*
X226780Y522051D01*
X226517Y522227D01*
X226441Y522242D01*
Y522878D01*
X226441D01*
X226352Y523557D01*
X226090Y524189D01*
X225673Y524732D01*
X225442Y524909D01*
X225612Y525410D01*
X226441D01*
Y527878D01*
X223669D01*
X220898D01*
Y525968D01*
X220819Y525500D01*
X220140Y525411D01*
X219508Y525149D01*
X218965Y524732D01*
X218548Y524189D01*
X218286Y523557D01*
X218197Y522878D01*
X218197D01*
Y516112D01*
X216447D01*
Y515509D01*
X206933D01*
X206826Y516318D01*
X206464Y517194D01*
X205887Y517946D01*
X205135Y518523D01*
X204259Y518885D01*
X203323Y519008D01*
X203319Y519009D01*
X177450D01*
Y519828D01*
X177490Y519899D01*
X177603Y519964D01*
X178085Y520006D01*
Y520006D01*
X182041D01*
Y524750D01*
X178085D01*
Y523983D01*
X177249Y523873D01*
X176251Y523459D01*
X175395Y522802D01*
X174738Y521946D01*
X174325Y520948D01*
X174184Y519878D01*
X174188D01*
Y519009D01*
X171819D01*
X171799Y519005D01*
X171292Y519106D01*
X170846Y519405D01*
X170547Y519851D01*
X170446Y520358D01*
X170450Y520378D01*
Y525392D01*
X170651Y525546D01*
X171063Y526083D01*
X171321Y526708D01*
X171410Y527378D01*
X171321Y528049D01*
X171063Y528673D01*
X170651Y529210D01*
X170114Y529622D01*
X169490Y529880D01*
X168819Y529969D01*
X168148Y529880D01*
X167524Y529622D01*
X166987Y529210D01*
X166575Y528673D01*
X166317Y528049D01*
X166228Y527378D01*
X166317Y526708D01*
X166575Y526083D01*
X166987Y525546D01*
X167188Y525392D01*
Y520378D01*
X167179D01*
X167337Y519177D01*
X167801Y518058D01*
X168538Y517097D01*
X169499Y516360D01*
X170618Y515896D01*
X171819Y515738D01*
Y515747D01*
X173601D01*
Y509443D01*
X177557D01*
Y515747D01*
X181081D01*
Y509443D01*
X185037D01*
Y515747D01*
X197188D01*
Y498878D01*
X197183D01*
X197326Y497058D01*
X197753Y495282D01*
X198451Y493595D01*
X199405Y492039D01*
X200591Y490650D01*
X201980Y489464D01*
X203536Y488510D01*
X204031Y488305D01*
X203932Y487805D01*
X181819D01*
Y487807D01*
X181409Y487889D01*
X181062Y488121D01*
X180830Y488468D01*
X180748Y488878D01*
X180746D01*
Y489506D01*
X181041D01*
Y494250D01*
X181041D01*
X180802Y494608D01*
X180872Y494777D01*
X181034Y494988D01*
X181332Y495365D01*
X181332Y495365D01*
X182432Y496652D01*
X183317Y498095D01*
X183964Y499659D01*
X184045Y499995D01*
X185037D01*
Y506313D01*
X181697D01*
Y506713D01*
X179819D01*
Y503154D01*
X178819D01*
Y506713D01*
X176941D01*
Y506313D01*
X173601D01*
Y499995D01*
X174093D01*
X174174Y499659D01*
X174821Y498095D01*
X175706Y496652D01*
X176805Y495365D01*
X176805Y495365D01*
X177104Y494988D01*
X177266Y494777D01*
X177332Y494619D01*
X177085Y494250D01*
X177085D01*
Y489506D01*
X177892D01*
Y488878D01*
X177885D01*
X178019Y487860D01*
X178412Y486911D01*
X179037Y486096D01*
X179852Y485471D01*
X180801Y485078D01*
X181819Y484944D01*
Y484951D01*
X213819D01*
X213843Y484955D01*
X214746Y484837D01*
X215609Y484479D01*
X216351Y483910D01*
X216920Y483168D01*
X217278Y482305D01*
X217396Y481402D01*
X217391Y481378D01*
Y477805D01*
X215819D01*
Y477807D01*
X214931Y477691D01*
X214104Y477348D01*
X213394Y476803D01*
X212849Y476093D01*
X212507Y475266D01*
X212390Y474378D01*
X212391D01*
Y472805D01*
X211319D01*
Y472812D01*
X210301Y472678D01*
X209352Y472285D01*
X208537Y471660D01*
X207912Y470845D01*
X207519Y469896D01*
X207385Y468878D01*
X207392D01*
Y467206D01*
X205817D01*
Y462424D01*
X211821D01*
Y467206D01*
X210246D01*
Y468878D01*
X210248D01*
X210330Y469288D01*
X210562Y469635D01*
X210909Y469867D01*
X211319Y469949D01*
Y469951D01*
X230319D01*
Y469949D01*
X230729Y469867D01*
X231076Y469635D01*
X231308Y469288D01*
X231389Y468878D01*
X231392D01*
Y467206D01*
X229817D01*
Y462424D01*
X235821D01*
Y467206D01*
X234246D01*
Y468878D01*
X234253D01*
X234119Y469896D01*
X233726Y470845D01*
X233101Y471660D01*
X232286Y472285D01*
X231337Y472678D01*
X230319Y472812D01*
Y472805D01*
X215246D01*
Y474378D01*
X215239Y474415D01*
X215398Y474799D01*
X215782Y474958D01*
X215819Y474951D01*
X223085D01*
Y474006D01*
X227041D01*
Y478750D01*
X223085D01*
Y477805D01*
X220246D01*
Y481378D01*
X220250D01*
X220126Y482633D01*
X219760Y483839D01*
X219166Y484951D01*
X218366Y485925D01*
X217392Y486725D01*
X217324Y486762D01*
X217445Y487247D01*
X236319D01*
X236396Y487262D01*
X237649Y487097D01*
X238888Y486584D01*
X239952Y485767D01*
X240769Y484703D01*
X241282Y483464D01*
X241447Y482210D01*
X241432Y482134D01*
Y456378D01*
Y449750D01*
X241085D01*
Y445006D01*
X242197D01*
Y443928D01*
X242035Y443820D01*
X241641Y443230D01*
X241503Y442535D01*
Y437024D01*
X241641Y436329D01*
X242035Y435740D01*
X242624Y435346D01*
X242531Y434855D01*
X181319Y434878D01*
Y434878D01*
X181276Y434840D01*
X180014Y435007D01*
X178797Y435510D01*
X177753Y436312D01*
X176952Y437356D01*
X176448Y438573D01*
X176276Y439878D01*
X176319Y476378D01*
Y478878D01*
X176367D01*
X176174Y480838D01*
X175602Y482723D01*
X174674Y484461D01*
X173424Y485983D01*
X171902Y487233D01*
X170164Y488162D01*
X168279Y488733D01*
X166319Y488926D01*
X138819Y488878D01*
X138819Y488878D01*
Y488878D01*
X138776Y488840D01*
X137514Y489007D01*
X136297Y489510D01*
X135253Y490312D01*
X134451Y491356D01*
X133948Y492573D01*
X133776Y493878D01*
Y493878D01*
X133819Y613878D01*
X133819D01*
X133840Y614369D01*
X133948Y615183D01*
X134451Y616400D01*
X135253Y617444D01*
X136297Y618246D01*
X137514Y618749D01*
X138819Y618921D01*
X138819D01*
X206911Y618902D01*
D02*
G37*
G36*
X186319Y408878D02*
Y408878D01*
X302319Y408921D01*
X303624Y408749D01*
X304840Y408246D01*
X305885Y407444D01*
X306686Y406400D01*
X307190Y405183D01*
X307357Y403921D01*
X307319Y403878D01*
X307319D01*
X307328Y382613D01*
X306827Y382514D01*
X306240Y383933D01*
X305327Y385423D01*
X304192Y386751D01*
X302864Y387886D01*
X301374Y388799D01*
X299760Y389467D01*
X298061Y389875D01*
X296319Y390012D01*
Y390000D01*
X278819D01*
X278791Y389994D01*
X277683Y390140D01*
X276625Y390578D01*
X275716Y391276D01*
X275019Y392184D01*
X274581Y393242D01*
X274435Y394351D01*
X274441Y394378D01*
Y398229D01*
X274603Y398338D01*
X274997Y398927D01*
X275135Y399622D01*
Y405134D01*
X274997Y405829D01*
X274603Y406418D01*
X274014Y406812D01*
X273319Y406950D01*
X272624Y406812D01*
X272035Y406418D01*
X271641Y405829D01*
X271503Y405134D01*
Y399622D01*
X271641Y398927D01*
X272035Y398338D01*
X272197Y398229D01*
Y394378D01*
X272187D01*
X272314Y393084D01*
X272692Y391840D01*
X273305Y390693D01*
X274130Y389688D01*
X275134Y388864D01*
X276281Y388251D01*
X277525Y387874D01*
X278819Y387746D01*
Y387756D01*
X296319D01*
X296367Y387766D01*
X298054Y387600D01*
X299722Y387094D01*
X301259Y386272D01*
X302607Y385166D01*
X303713Y383819D01*
X304535Y382281D01*
X305041Y380613D01*
X305207Y378926D01*
X305197Y378878D01*
Y353878D01*
X305200Y353864D01*
X305070Y352873D01*
X304682Y351936D01*
X304065Y351132D01*
X303261Y350515D01*
X302324Y350127D01*
X301333Y349997D01*
X301319Y349999D01*
X292319D01*
Y350008D01*
X291098Y349888D01*
X289925Y349532D01*
X288843Y348954D01*
X287895Y348176D01*
X287117Y347228D01*
X286539Y346146D01*
X286183Y344972D01*
X286063Y343752D01*
X286071D01*
Y340844D01*
X285437D01*
Y341244D01*
X283756D01*
Y336504D01*
Y331764D01*
X285437D01*
X285562Y331315D01*
Y324752D01*
X285572Y324698D01*
X285434Y323649D01*
X285009Y322622D01*
X284332Y321739D01*
X283449Y321062D01*
X282422Y320637D01*
X281373Y320499D01*
X281319Y320509D01*
X264582D01*
X264177Y320740D01*
X264177Y321009D01*
Y323453D01*
X269673D01*
X270132Y323643D01*
X270323Y324102D01*
Y330402D01*
X270132Y330861D01*
X269673Y331051D01*
X264177D01*
Y333764D01*
X259543D01*
Y327252D01*
X259043D01*
Y326752D01*
X253909D01*
Y321009D01*
X253909Y320740D01*
X253505Y320509D01*
X253505Y320509D01*
X246319D01*
X246287Y320503D01*
X245692Y320621D01*
X245161Y320976D01*
X244806Y321507D01*
X244688Y322102D01*
X244694Y322134D01*
Y355256D01*
X253319D01*
X253333Y355259D01*
X254324Y355129D01*
X255261Y354741D01*
X256065Y354124D01*
X256682Y353320D01*
X257070Y352383D01*
X257200Y351392D01*
X257197Y351378D01*
Y348194D01*
X257024Y348122D01*
X256487Y347710D01*
X256075Y347173D01*
X255817Y346549D01*
X255728Y345878D01*
X255817Y345208D01*
X256075Y344583D01*
X256487Y344046D01*
X257024Y343634D01*
X257648Y343376D01*
X258319Y343287D01*
X258990Y343376D01*
X259614Y343634D01*
X260151Y344046D01*
X260562Y344583D01*
X260821Y345208D01*
X260910Y345878D01*
X260821Y346549D01*
X260562Y347173D01*
X260151Y347710D01*
X259614Y348122D01*
X259440Y348194D01*
Y351378D01*
X259449D01*
X259331Y352574D01*
X258982Y353724D01*
X258416Y354783D01*
X257653Y355712D01*
X256724Y356474D01*
X255665Y357041D01*
X254515Y357390D01*
X253319Y357507D01*
Y357500D01*
X244694D01*
Y391506D01*
X245041D01*
Y396250D01*
X244185D01*
Y397841D01*
X245100D01*
Y406915D01*
X241538D01*
Y397841D01*
X241941D01*
Y396250D01*
X241085D01*
Y391506D01*
X241432D01*
Y358009D01*
X228063D01*
X228030Y358003D01*
X226916Y358113D01*
X225814Y358447D01*
X224797Y358990D01*
X223906Y359721D01*
X223175Y360612D01*
X222632Y361629D01*
X222541Y361929D01*
Y366250D01*
X222190D01*
Y367998D01*
X222647Y368087D01*
X222707Y368071D01*
X223015Y367610D01*
X223604Y367216D01*
X223938Y367150D01*
X223889Y366650D01*
X223697D01*
Y364378D01*
X225575D01*
Y366650D01*
X224710D01*
X224661Y367150D01*
X224994Y367216D01*
X225583Y367610D01*
X225977Y368199D01*
X226115Y368894D01*
Y370862D01*
X225977Y371557D01*
X225931Y371627D01*
Y372358D01*
X225927Y372378D01*
X226036Y372641D01*
X226300Y372750D01*
X226319Y372747D01*
X230819D01*
X230821Y372747D01*
X231763Y372871D01*
X232642Y373235D01*
X233398Y373815D01*
X233977Y374570D01*
X234342Y375450D01*
X234466Y376392D01*
X234466Y376394D01*
Y394549D01*
X234863Y394853D01*
X235319Y395448D01*
X235606Y396140D01*
X235703Y396882D01*
Y399874D01*
X235606Y400617D01*
X235319Y401308D01*
X234863Y401902D01*
X234269Y402358D01*
X233577Y402645D01*
X232835Y402743D01*
X232092Y402645D01*
X231400Y402358D01*
X230806Y401902D01*
X230350Y401308D01*
X230064Y400617D01*
X229966Y399874D01*
Y396882D01*
X230064Y396140D01*
X230350Y395448D01*
X230806Y394853D01*
X231203Y394549D01*
Y376394D01*
X231207Y376375D01*
X231099Y376114D01*
X230838Y376006D01*
X230819Y376009D01*
X226319D01*
X226317Y376009D01*
X225374Y375885D01*
X224494Y375520D01*
X223737Y374940D01*
X223157Y374184D01*
X222792Y373303D01*
X222691Y372529D01*
X222190Y372561D01*
Y377460D01*
X222691Y377612D01*
X222727Y377557D01*
X223448Y377075D01*
X223799Y377006D01*
Y380114D01*
Y383223D01*
X223448Y383153D01*
X222727Y382671D01*
X222691Y382617D01*
X222190Y382768D01*
Y388506D01*
X222553D01*
Y393250D01*
X222190D01*
Y394368D01*
X222261Y394398D01*
X222855Y394853D01*
X223311Y395448D01*
X223598Y396140D01*
X223695Y396882D01*
Y399874D01*
X223598Y400617D01*
X223311Y401308D01*
X222855Y401902D01*
X222261Y402358D01*
X221569Y402645D01*
X220827Y402743D01*
X220084Y402645D01*
X219392Y402358D01*
X218798Y401902D01*
X218342Y401308D01*
X218056Y400617D01*
X217958Y399874D01*
Y396882D01*
X218056Y396140D01*
X218342Y395448D01*
X218798Y394853D01*
X218928Y394754D01*
Y393250D01*
X218597D01*
Y388506D01*
X218928D01*
Y382768D01*
X218428Y382617D01*
X218391Y382671D01*
X217670Y383153D01*
X217319Y383223D01*
Y380114D01*
Y377006D01*
X217670Y377075D01*
X218391Y377557D01*
X218428Y377612D01*
X218928Y377460D01*
Y373461D01*
X218428Y373093D01*
X218353Y373116D01*
X218326Y373318D01*
X217964Y374194D01*
X217387Y374946D01*
X216634Y375523D01*
X215759Y375885D01*
X214823Y376009D01*
X214819Y376009D01*
X211319D01*
Y376011D01*
X210987Y376077D01*
X210706Y376265D01*
X210518Y376546D01*
X210452Y376878D01*
X210450D01*
Y394038D01*
X211663D01*
Y402718D01*
X205975D01*
Y394038D01*
X207188D01*
Y376878D01*
X207184D01*
X207325Y375808D01*
X207738Y374810D01*
X208395Y373954D01*
X209251Y373297D01*
X210249Y372884D01*
X211319Y372743D01*
Y372747D01*
X214581D01*
X214851Y372686D01*
X215038Y372329D01*
Y367113D01*
X218428D01*
X218588Y367113D01*
X218927Y366748D01*
X218900Y366250D01*
X218585D01*
Y361506D01*
X219273D01*
X219615Y360379D01*
X220460Y358798D01*
X221597Y357412D01*
X222983Y356275D01*
X224564Y355430D01*
X226279Y354910D01*
X228063Y354734D01*
Y354747D01*
X241432D01*
Y322134D01*
X241421D01*
X241588Y320866D01*
X242077Y319685D01*
X242856Y318671D01*
X243870Y317892D01*
X245051Y317403D01*
X246319Y317236D01*
Y317247D01*
X281319D01*
Y317242D01*
X282784Y317386D01*
X284193Y317813D01*
X285491Y318508D01*
X286629Y319442D01*
X287563Y320580D01*
X288258Y321878D01*
X288615Y323057D01*
X288965Y323453D01*
X294461D01*
Y320740D01*
X299095D01*
Y327252D01*
Y333764D01*
X294461D01*
Y331051D01*
X288965D01*
X288824Y331145D01*
Y332164D01*
X288974D01*
Y340844D01*
X288315D01*
Y343752D01*
X288311Y343770D01*
X288445Y344790D01*
X288846Y345757D01*
X289483Y346588D01*
X290314Y347225D01*
X291281Y347626D01*
X292301Y347760D01*
X292319Y347756D01*
X301319D01*
Y347748D01*
X302515Y347866D01*
X303665Y348215D01*
X304724Y348781D01*
X305653Y349544D01*
X306416Y350473D01*
X306840Y351267D01*
X307340Y351142D01*
X307362Y296378D01*
X307190Y295073D01*
X306686Y293856D01*
X305885Y292812D01*
X304840Y292010D01*
X303624Y291507D01*
X302362Y291340D01*
X302319Y291378D01*
Y291378D01*
X186319Y291330D01*
X184359Y291523D01*
X182474Y292094D01*
X180736Y293023D01*
X179214Y294273D01*
X177964Y295795D01*
X177035Y297533D01*
X176464Y299418D01*
X176275Y301330D01*
X176319Y301378D01*
X176319D01*
X176271Y398878D01*
X176464Y400838D01*
X177035Y402723D01*
X177964Y404461D01*
X179214Y405983D01*
X180736Y407233D01*
X182474Y408161D01*
X184359Y408733D01*
X186271Y408922D01*
X186319Y408878D01*
D02*
G37*
%LPC*%
G36*
X277819Y401878D02*
X276095D01*
Y399622D01*
X276264Y398771D01*
X276747Y398050D01*
X277468Y397568D01*
X277819Y397498D01*
Y401878D01*
D02*
G37*
G36*
X268319Y406950D02*
X267624Y406812D01*
X267035Y406418D01*
X266641Y405829D01*
X266503Y405134D01*
Y399622D01*
X266641Y398927D01*
X267035Y398338D01*
X267624Y397944D01*
X268319Y397806D01*
X269014Y397944D01*
X269603Y398338D01*
X269997Y398927D01*
X270135Y399622D01*
Y405134D01*
X269997Y405829D01*
X269603Y406418D01*
X269014Y406812D01*
X268319Y406950D01*
D02*
G37*
G36*
X280543Y401878D02*
X278819D01*
Y397498D01*
X279170Y397568D01*
X279891Y398050D01*
X280374Y398771D01*
X280543Y399622D01*
Y401878D01*
D02*
G37*
G36*
X250543D02*
X248819D01*
Y397498D01*
X249170Y397568D01*
X249891Y398050D01*
X250374Y398771D01*
X250543Y399622D01*
Y401878D01*
D02*
G37*
G36*
X248075Y396650D02*
X246197D01*
Y394378D01*
X248075D01*
Y396650D01*
D02*
G37*
G36*
X217441Y393650D02*
X215563D01*
Y391378D01*
X217441D01*
Y393650D01*
D02*
G37*
G36*
X247819Y401878D02*
X246095D01*
Y399622D01*
X246264Y398771D01*
X246746Y398050D01*
X247468Y397568D01*
X247819Y397498D01*
Y401878D01*
D02*
G37*
G36*
X250953Y396650D02*
X249075D01*
Y394378D01*
X250953D01*
Y396650D01*
D02*
G37*
G36*
X247819Y407258D02*
X247468Y407189D01*
X246746Y406706D01*
X246264Y405985D01*
X246095Y405134D01*
Y402878D01*
X247819D01*
Y407258D01*
D02*
G37*
G36*
X235821Y454332D02*
X229817D01*
Y449550D01*
X231203D01*
Y446735D01*
X230806Y446430D01*
X230350Y445836D01*
X230064Y445144D01*
X229966Y444402D01*
Y441409D01*
X230064Y440667D01*
X230350Y439975D01*
X230806Y439381D01*
X231400Y438925D01*
X232092Y438639D01*
X232835Y438541D01*
X233577Y438639D01*
X234269Y438925D01*
X234863Y439381D01*
X235319Y439975D01*
X235606Y440667D01*
X235703Y441409D01*
Y444402D01*
X235606Y445144D01*
X235319Y445836D01*
X234863Y446430D01*
X234466Y446735D01*
Y449550D01*
X235821D01*
Y454332D01*
D02*
G37*
G36*
X211821D02*
X205817D01*
Y449550D01*
X207188D01*
Y446735D01*
X206790Y446430D01*
X206335Y445836D01*
X206048Y445144D01*
X205950Y444402D01*
Y441409D01*
X206048Y440667D01*
X206335Y439975D01*
X206790Y439381D01*
X207385Y438925D01*
X208077Y438639D01*
X208819Y438541D01*
X209561Y438639D01*
X210253Y438925D01*
X210847Y439381D01*
X211303Y439975D01*
X211590Y440667D01*
X211688Y441409D01*
Y444402D01*
X211590Y445144D01*
X211303Y445836D01*
X210847Y446430D01*
X210450Y446735D01*
Y449550D01*
X211821D01*
Y454332D01*
D02*
G37*
G36*
X250953Y446878D02*
X248575D01*
X246197D01*
Y444606D01*
X246592D01*
X246746Y444108D01*
X246264Y443387D01*
X246095Y442535D01*
Y440280D01*
X248319D01*
X250543D01*
Y442535D01*
X250374Y443387D01*
X249891Y444108D01*
X250046Y444606D01*
X250953D01*
Y446878D01*
D02*
G37*
G36*
X278819Y444660D02*
Y440280D01*
X280543D01*
Y442535D01*
X280374Y443387D01*
X279891Y444108D01*
X279170Y444590D01*
X278819Y444660D01*
D02*
G37*
G36*
X277819D02*
X277468Y444590D01*
X276747Y444108D01*
X276264Y443387D01*
X276095Y442535D01*
Y440280D01*
X277819D01*
Y444660D01*
D02*
G37*
G36*
X248819Y407258D02*
Y402878D01*
X250543D01*
Y405134D01*
X250374Y405985D01*
X249891Y406706D01*
X249170Y407189D01*
X248819Y407258D01*
D02*
G37*
G36*
X277819D02*
X277468Y407189D01*
X276747Y406706D01*
X276264Y405985D01*
X276095Y405134D01*
Y402878D01*
X277819D01*
Y407258D01*
D02*
G37*
G36*
X278819D02*
Y402878D01*
X280543D01*
Y405134D01*
X280374Y405985D01*
X279891Y406706D01*
X279170Y407189D01*
X278819Y407258D01*
D02*
G37*
G36*
X224099Y442406D02*
X221327D01*
Y438203D01*
X221674Y438249D01*
X222463Y438576D01*
X223141Y439096D01*
X223660Y439774D01*
X223987Y440563D01*
X224099Y441409D01*
Y442406D01*
D02*
G37*
G36*
X220327D02*
X217555D01*
Y441409D01*
X217666Y440563D01*
X217993Y439774D01*
X218513Y439096D01*
X219191Y438576D01*
X219980Y438249D01*
X220327Y438203D01*
Y442406D01*
D02*
G37*
G36*
X214563Y393650D02*
X212685D01*
Y391378D01*
X214563D01*
Y393650D01*
D02*
G37*
G36*
X247819Y348806D02*
X247544Y348770D01*
X246822Y348471D01*
X246202Y347995D01*
X245726Y347375D01*
X245427Y346653D01*
X245391Y346378D01*
X247819D01*
Y348806D01*
D02*
G37*
G36*
X251247Y345378D02*
X248819D01*
Y342950D01*
X249094Y342986D01*
X249816Y343285D01*
X250436Y343761D01*
X250912Y344381D01*
X251211Y345103D01*
X251247Y345378D01*
D02*
G37*
G36*
X248819Y348806D02*
Y346378D01*
X251247D01*
X251211Y346653D01*
X250912Y347375D01*
X250436Y347995D01*
X249816Y348471D01*
X249094Y348770D01*
X248819Y348806D01*
D02*
G37*
G36*
X228453Y363378D02*
X226575D01*
Y361106D01*
X228453D01*
Y363378D01*
D02*
G37*
G36*
X225575D02*
X223697D01*
Y361106D01*
X225575D01*
Y363378D01*
D02*
G37*
G36*
X258543Y333764D02*
X253909D01*
Y327752D01*
X258543D01*
Y333764D01*
D02*
G37*
G36*
X304728Y326752D02*
X300095D01*
Y320740D01*
X304728D01*
Y326752D01*
D02*
G37*
G36*
Y333764D02*
X300095D01*
Y327752D01*
X304728D01*
Y333764D01*
D02*
G37*
G36*
X247819Y345378D02*
X245391D01*
X245427Y345103D01*
X245726Y344381D01*
X246202Y343761D01*
X246822Y343285D01*
X247544Y342986D01*
X247819Y342950D01*
Y345378D01*
D02*
G37*
G36*
X258319Y406950D02*
X257624Y406812D01*
X257035Y406418D01*
X256641Y405829D01*
X256503Y405134D01*
Y399622D01*
X256641Y398927D01*
X257035Y398338D01*
X257299Y398161D01*
Y389378D01*
X257275D01*
X257449Y387614D01*
X257964Y385917D01*
X258800Y384354D01*
X259924Y382983D01*
X261295Y381859D01*
X262858Y381023D01*
X264555Y380508D01*
X266319Y380334D01*
Y380358D01*
X271819D01*
X271822Y380359D01*
X273083Y380235D01*
X274299Y379866D01*
X275420Y379267D01*
X276402Y378461D01*
X277208Y377479D01*
X277807Y376358D01*
X278176Y375142D01*
X278300Y373881D01*
X278299Y373878D01*
Y341198D01*
X277946Y340844D01*
X277663D01*
X277538Y340844D01*
X277350D01*
X277163D01*
X277038Y340844D01*
X276503D01*
Y367315D01*
X276519D01*
X276371Y368817D01*
X275933Y370262D01*
X275221Y371593D01*
X274264Y372760D01*
X273097Y373717D01*
X271766Y374429D01*
X270321Y374867D01*
X268819Y375015D01*
Y374999D01*
X263319D01*
X263271Y374990D01*
X261584Y375156D01*
X259916Y375662D01*
X258378Y376484D01*
X257031Y377590D01*
X255925Y378937D01*
X255103Y380475D01*
X254597Y382143D01*
X254431Y383830D01*
X254440Y383878D01*
Y398229D01*
X254603Y398338D01*
X254997Y398927D01*
X255135Y399622D01*
Y405134D01*
X254997Y405829D01*
X254603Y406418D01*
X254014Y406812D01*
X253319Y406950D01*
X252624Y406812D01*
X252035Y406418D01*
X251641Y405829D01*
X251503Y405134D01*
Y399622D01*
X251641Y398927D01*
X252035Y398338D01*
X252197Y398229D01*
Y383878D01*
X252185D01*
X252322Y382136D01*
X252730Y380437D01*
X253398Y378823D01*
X254311Y377333D01*
X255446Y376005D01*
X256774Y374870D01*
X258264Y373957D01*
X259878Y373289D01*
X261577Y372881D01*
X263319Y372744D01*
Y372756D01*
X268819D01*
X268874Y372767D01*
X270232Y372589D01*
X271549Y372043D01*
X272680Y371176D01*
X273547Y370045D01*
X274093Y368728D01*
X274271Y367370D01*
X274260Y367315D01*
Y341198D01*
X273907Y340844D01*
X273726D01*
X273601Y340844D01*
X273413D01*
X273226D01*
X273101Y340844D01*
X272464D01*
Y365252D01*
X272485D01*
X272326Y366460D01*
X271860Y367585D01*
X271118Y368551D01*
X270152Y369293D01*
X269245Y369668D01*
X268990Y370050D01*
X268453Y370409D01*
X267819Y370535D01*
X267185Y370409D01*
X266647Y370050D01*
X266288Y369512D01*
X266162Y368878D01*
X266288Y368244D01*
X266647Y367706D01*
X267185Y367347D01*
X267819Y367221D01*
X268453Y367347D01*
X268851Y367613D01*
X269118Y367502D01*
X269656Y367089D01*
X270069Y366551D01*
X270329Y365925D01*
X270417Y365252D01*
X270425D01*
Y340844D01*
X269664D01*
Y332164D01*
X273101D01*
X273226Y332164D01*
X273413D01*
X273601D01*
X273726Y332164D01*
X277038D01*
X277163Y332164D01*
X277350D01*
X277538D01*
X277663Y332164D01*
X281075D01*
Y331764D01*
X282756D01*
Y336504D01*
Y341244D01*
X281075D01*
Y340844D01*
X280339D01*
Y373878D01*
X280360D01*
X280196Y375544D01*
X279710Y377147D01*
X278921Y378623D01*
X277858Y379918D01*
X276564Y380980D01*
X275087Y381769D01*
X273485Y382255D01*
X271819Y382419D01*
Y382398D01*
X266319D01*
X266308Y382395D01*
X264956Y382529D01*
X263646Y382926D01*
X262439Y383571D01*
X261381Y384440D01*
X260512Y385498D01*
X259867Y386705D01*
X259470Y388016D01*
X259336Y389367D01*
X259338Y389378D01*
Y398161D01*
X259603Y398338D01*
X259997Y398927D01*
X260135Y399622D01*
Y405134D01*
X259997Y405829D01*
X259603Y406418D01*
X259014Y406812D01*
X258319Y406950D01*
D02*
G37*
G36*
X214563Y390378D02*
X212685D01*
Y388106D01*
X214563D01*
Y390378D01*
D02*
G37*
G36*
X263319Y406950D02*
X262624Y406812D01*
X262035Y406418D01*
X261641Y405829D01*
X261503Y405134D01*
Y399622D01*
X261641Y398927D01*
X262035Y398338D01*
X262299Y398161D01*
Y390651D01*
X262147Y390550D01*
X261788Y390012D01*
X261662Y389378D01*
X261788Y388744D01*
X262147Y388206D01*
X262685Y387847D01*
X263319Y387721D01*
X263953Y387847D01*
X264491Y388206D01*
X264850Y388744D01*
X264976Y389378D01*
X264850Y390012D01*
X264491Y390550D01*
X264338Y390651D01*
Y398161D01*
X264603Y398338D01*
X264997Y398927D01*
X265135Y399622D01*
Y405134D01*
X264997Y405829D01*
X264603Y406418D01*
X264014Y406812D01*
X263319Y406950D01*
D02*
G37*
G36*
X217441Y390378D02*
X215563D01*
Y388106D01*
X217441D01*
Y390378D01*
D02*
G37*
G36*
X250953Y393378D02*
X249075D01*
Y391106D01*
X250953D01*
Y393378D01*
D02*
G37*
G36*
X248075D02*
X246197D01*
Y391106D01*
X248075D01*
Y393378D01*
D02*
G37*
G36*
X216319Y379614D02*
X214595D01*
Y379130D01*
X214764Y378279D01*
X215247Y377557D01*
X215968Y377075D01*
X216319Y377006D01*
Y379614D01*
D02*
G37*
G36*
X228453Y366650D02*
X226575D01*
Y364378D01*
X228453D01*
Y366650D01*
D02*
G37*
G36*
X226523Y379614D02*
X224799D01*
Y377006D01*
X225150Y377075D01*
X225872Y377557D01*
X226354Y378279D01*
X226523Y379130D01*
Y379614D01*
D02*
G37*
G36*
X224799Y383223D02*
Y380614D01*
X226523D01*
Y381099D01*
X226354Y381949D01*
X225872Y382671D01*
X225150Y383153D01*
X224799Y383223D01*
D02*
G37*
G36*
X216319Y383223D02*
X215968Y383153D01*
X215247Y382671D01*
X214764Y381949D01*
X214595Y381099D01*
Y380614D01*
X216319D01*
Y383223D01*
D02*
G37*
G36*
X168319Y536878D02*
X165891D01*
X165927Y536603D01*
X166226Y535881D01*
X166702Y535261D01*
X167322Y534785D01*
X168044Y534486D01*
X168319Y534450D01*
Y536878D01*
D02*
G37*
G36*
X226441Y531347D02*
X224169D01*
Y528878D01*
X226441D01*
Y531347D01*
D02*
G37*
G36*
X171747Y536878D02*
X169319D01*
Y534450D01*
X169594Y534486D01*
X170316Y534785D01*
X170936Y535261D01*
X171412Y535881D01*
X171711Y536603D01*
X171747Y536878D01*
D02*
G37*
G36*
X169319Y540306D02*
Y537878D01*
X171747D01*
X171711Y538153D01*
X171412Y538875D01*
X170936Y539495D01*
X170316Y539971D01*
X169594Y540270D01*
X169319Y540306D01*
D02*
G37*
G36*
X168319Y540306D02*
X168044Y540270D01*
X167322Y539971D01*
X166702Y539495D01*
X166226Y538875D01*
X165927Y538153D01*
X165891Y537878D01*
X168319D01*
Y540306D01*
D02*
G37*
G36*
X241207Y522697D02*
X240819D01*
Y519713D01*
X242425D01*
Y521478D01*
X242332Y521945D01*
X242068Y522340D01*
X241673Y522604D01*
X241207Y522697D01*
D02*
G37*
G36*
X239819D02*
X239431D01*
X238965Y522604D01*
X238570Y522340D01*
X238306Y521945D01*
X238213Y521478D01*
Y519713D01*
X239819D01*
Y522697D01*
D02*
G37*
G36*
X185075Y525150D02*
X183197D01*
Y522878D01*
X185075D01*
Y525150D01*
D02*
G37*
G36*
X223169Y531347D02*
X220898D01*
Y528878D01*
X223169D01*
Y531347D01*
D02*
G37*
G36*
X187953Y525150D02*
X186075D01*
Y522878D01*
X187953D01*
Y525150D01*
D02*
G37*
G36*
X223319Y589366D02*
X222157Y589214D01*
X221075Y588765D01*
X220145Y588052D01*
X219432Y587122D01*
X218995Y586067D01*
X218353Y585983D01*
X217453Y585610D01*
X216680Y585017D01*
X216087Y584244D01*
X215714Y583344D01*
X215587Y582378D01*
X215595D01*
Y559878D01*
X215584D01*
X215723Y558467D01*
X216135Y557109D01*
X216803Y555859D01*
X217703Y554762D01*
X218799Y553862D01*
X220050Y553194D01*
X221408Y552782D01*
X222819Y552643D01*
Y552655D01*
X224819D01*
Y552652D01*
X225537Y552557D01*
X226206Y552280D01*
X226780Y551839D01*
X227221Y551265D01*
X227498Y550596D01*
X227540Y550279D01*
X227210Y549903D01*
X226510D01*
Y543191D01*
X228446D01*
Y537446D01*
X227298D01*
Y532309D01*
X228745D01*
Y530946D01*
X227597D01*
Y525809D01*
X229095D01*
Y522210D01*
X228858Y522051D01*
X228682Y521789D01*
X228621Y521478D01*
Y516947D01*
X228682Y516637D01*
X228858Y516374D01*
X229121Y516198D01*
X229431Y516136D01*
X231207D01*
X231517Y516198D01*
X231780Y516374D01*
X231956Y516637D01*
X232017Y516947D01*
Y521478D01*
X231956Y521789D01*
X231780Y522051D01*
X231542Y522210D01*
Y525809D01*
X232340D01*
Y530946D01*
X231192D01*
Y532309D01*
X232041D01*
Y537446D01*
X230893D01*
Y543191D01*
X231647D01*
Y549903D01*
X230061D01*
X229922Y550953D01*
X230269Y551420D01*
X230336Y551453D01*
X232319D01*
Y554709D01*
X229851D01*
Y552626D01*
X229396Y552509D01*
X229350Y552514D01*
X228528Y553587D01*
X227441Y554420D01*
X226176Y554944D01*
X224819Y555123D01*
Y555101D01*
X222819D01*
X222775Y555093D01*
X221579Y555250D01*
X220424Y555729D01*
X219431Y556490D01*
X218670Y557482D01*
X218191Y558638D01*
X218034Y559834D01*
X218042Y559878D01*
Y582378D01*
X218044D01*
X218142Y582866D01*
X218418Y583279D01*
X218579Y583387D01*
X219179Y583244D01*
X219432Y582634D01*
X220145Y581704D01*
X221075Y580991D01*
X222157Y580543D01*
X223319Y580390D01*
X224481Y580543D01*
X225563Y580991D01*
X226493Y581704D01*
X227206Y582634D01*
X227654Y583716D01*
X227807Y584878D01*
X227654Y586040D01*
X227206Y587122D01*
X226493Y588052D01*
X225563Y588765D01*
X224481Y589214D01*
X223319Y589366D01*
D02*
G37*
G36*
X208819Y575511D02*
Y570378D01*
X213952D01*
X213824Y571353D01*
X213254Y572727D01*
X212349Y573908D01*
X211168Y574813D01*
X209794Y575383D01*
X208819Y575511D01*
D02*
G37*
G36*
X250819Y589366D02*
X249657Y589214D01*
X248575Y588765D01*
X247645Y588052D01*
X246932Y587122D01*
X246483Y586040D01*
X246330Y584878D01*
X246483Y583716D01*
X246932Y582634D01*
X247645Y581704D01*
X248575Y580991D01*
X249657Y580543D01*
X250819Y580390D01*
X251981Y580543D01*
X253063Y580991D01*
X253993Y581704D01*
X254706Y582634D01*
X255154Y583716D01*
X255307Y584878D01*
X255154Y586040D01*
X254706Y587122D01*
X253993Y588052D01*
X253063Y588765D01*
X251981Y589214D01*
X250819Y589366D01*
D02*
G37*
G36*
X190819Y616205D02*
X189585Y616084D01*
X188398Y615724D01*
X187304Y615139D01*
X186345Y614352D01*
X185558Y613393D01*
X184973Y612299D01*
X184613Y611112D01*
X184492Y609878D01*
X184613Y608644D01*
X184973Y607457D01*
X185558Y606363D01*
X186345Y605404D01*
X187304Y604617D01*
X188398Y604032D01*
X189585Y603672D01*
X190819Y603551D01*
X192053Y603672D01*
X193240Y604032D01*
X194334Y604617D01*
X195293Y605404D01*
X196080Y606363D01*
X196665Y607457D01*
X197025Y608644D01*
X197146Y609878D01*
X197025Y611112D01*
X196665Y612299D01*
X196080Y613393D01*
X195293Y614352D01*
X194334Y615139D01*
X193240Y615724D01*
X192053Y616084D01*
X190819Y616205D01*
D02*
G37*
G36*
X238319Y606160D02*
X237340Y606032D01*
X236428Y605654D01*
X235644Y605053D01*
X235043Y604269D01*
X234665Y603357D01*
X234537Y602378D01*
X234665Y601399D01*
X235043Y600487D01*
X235644Y599704D01*
X236428Y599102D01*
X237340Y598725D01*
X238319Y598596D01*
X239298Y598725D01*
X240210Y599102D01*
X240993Y599704D01*
X241595Y600487D01*
X241972Y601399D01*
X242101Y602378D01*
X241972Y603357D01*
X241595Y604269D01*
X240993Y605053D01*
X240210Y605654D01*
X239298Y606032D01*
X238319Y606160D01*
D02*
G37*
G36*
X207819Y569378D02*
X202686D01*
X202814Y568403D01*
X203384Y567029D01*
X204289Y565848D01*
X205470Y564943D01*
X206844Y564373D01*
X207819Y564245D01*
Y569378D01*
D02*
G37*
G36*
X232319Y558965D02*
X229851D01*
Y555709D01*
X232319D01*
Y558965D01*
D02*
G37*
G36*
X213952Y569378D02*
X208819D01*
Y564245D01*
X209794Y564373D01*
X211168Y564943D01*
X212349Y565848D01*
X213254Y567029D01*
X213824Y568403D01*
X213952Y569378D01*
D02*
G37*
G36*
X207819Y575511D02*
X206844Y575383D01*
X205470Y574813D01*
X204289Y573908D01*
X203384Y572727D01*
X202814Y571353D01*
X202686Y570378D01*
X207819D01*
Y575511D01*
D02*
G37*
G36*
X238319Y575173D02*
X236948Y574993D01*
X235671Y574464D01*
X234575Y573622D01*
X233733Y572526D01*
X233204Y571248D01*
X233024Y569878D01*
X233204Y568507D01*
X233733Y567230D01*
X234575Y566134D01*
X235671Y565292D01*
X236948Y564763D01*
X238319Y564583D01*
X239689Y564763D01*
X240967Y565292D01*
X242063Y566134D01*
X242905Y567230D01*
X243434Y568507D01*
X243614Y569878D01*
X243434Y571248D01*
X242905Y572526D01*
X242063Y573622D01*
X240967Y574464D01*
X239689Y574993D01*
X238319Y575173D01*
D02*
G37*
G36*
X187953Y521878D02*
X186075D01*
Y519606D01*
X187953D01*
Y521878D01*
D02*
G37*
G36*
X230075Y479150D02*
X228197D01*
Y476878D01*
X230075D01*
Y479150D01*
D02*
G37*
G36*
X232953Y475878D02*
X231075D01*
Y473606D01*
X232953D01*
Y475878D01*
D02*
G37*
G36*
Y479150D02*
X231075D01*
Y476878D01*
X232953D01*
Y479150D01*
D02*
G37*
G36*
X186953Y491378D02*
X185075D01*
Y489106D01*
X186953D01*
Y491378D01*
D02*
G37*
G36*
X184075D02*
X182197D01*
Y489106D01*
X184075D01*
Y491378D01*
D02*
G37*
G36*
X221327Y447608D02*
Y443406D01*
X224099D01*
Y444402D01*
X223987Y445249D01*
X223660Y446038D01*
X223141Y446715D01*
X222463Y447235D01*
X221674Y447562D01*
X221327Y447608D01*
D02*
G37*
G36*
X220327D02*
X219980Y447562D01*
X219191Y447235D01*
X218513Y446715D01*
X217993Y446038D01*
X217666Y445249D01*
X217555Y444402D01*
Y443406D01*
X220327D01*
Y447608D01*
D02*
G37*
G36*
X248075Y450150D02*
X246197D01*
Y447878D01*
X248075D01*
Y450150D01*
D02*
G37*
G36*
X230075Y475878D02*
X228197D01*
Y473606D01*
X230075D01*
Y475878D01*
D02*
G37*
G36*
X250953Y450150D02*
X249075D01*
Y447878D01*
X250953D01*
Y450150D01*
D02*
G37*
G36*
X239819Y518713D02*
X238213D01*
Y516947D01*
X238306Y516481D01*
X238570Y516085D01*
X238965Y515821D01*
X239431Y515729D01*
X239819D01*
Y518713D01*
D02*
G37*
G36*
X221591Y511000D02*
X219319D01*
Y509122D01*
X221591D01*
Y511000D01*
D02*
G37*
G36*
X242425Y518713D02*
X240819D01*
Y515729D01*
X241207D01*
X241673Y515821D01*
X242068Y516085D01*
X242332Y516481D01*
X242425Y516947D01*
Y518713D01*
D02*
G37*
G36*
X185075Y521878D02*
X183197D01*
Y519606D01*
X185075D01*
Y521878D01*
D02*
G37*
G36*
X223319Y574366D02*
X222157Y574214D01*
X221075Y573765D01*
X220145Y573052D01*
X219432Y572122D01*
X218984Y571040D01*
X218830Y569878D01*
X218984Y568716D01*
X219432Y567634D01*
X220145Y566704D01*
X221075Y565991D01*
X221725Y565722D01*
X222087Y565390D01*
X222215Y564421D01*
X222588Y563518D01*
X223183Y562743D01*
X223959Y562148D01*
X224862Y561773D01*
X225831Y561646D01*
Y561655D01*
X234819D01*
Y561653D01*
X235307Y561555D01*
X235720Y561279D01*
X235996Y560866D01*
X236093Y560378D01*
X236095D01*
Y559337D01*
X235787Y558965D01*
X235595Y558965D01*
X233319D01*
Y555209D01*
Y551453D01*
X235595D01*
X235787Y551453D01*
X236095Y551081D01*
X236095Y551080D01*
Y549903D01*
X233991D01*
Y543191D01*
X234745D01*
Y537446D01*
X233597D01*
Y532309D01*
X234446D01*
Y530946D01*
X233298D01*
Y525809D01*
X234095D01*
Y522210D01*
X233858Y522051D01*
X233682Y521789D01*
X233621Y521478D01*
Y516947D01*
X233682Y516637D01*
X233858Y516374D01*
X234121Y516198D01*
X234431Y516136D01*
X236207D01*
X236517Y516198D01*
X236780Y516374D01*
X236955Y516637D01*
X237017Y516947D01*
Y521478D01*
X236955Y521789D01*
X236780Y522051D01*
X236543Y522210D01*
Y525809D01*
X238041D01*
Y530946D01*
X236893D01*
Y532309D01*
X238340D01*
Y537446D01*
X237192D01*
Y543191D01*
X239128D01*
Y549903D01*
X238543D01*
Y560378D01*
X238551D01*
X238424Y561344D01*
X238051Y562244D01*
X237458Y563017D01*
X236685Y563610D01*
X235785Y563983D01*
X234819Y564110D01*
Y564102D01*
X225831D01*
Y564103D01*
X225338Y564201D01*
X224921Y564480D01*
X224642Y564897D01*
X224544Y565390D01*
X224908Y565719D01*
X225563Y565991D01*
X226493Y566704D01*
X227206Y567634D01*
X227654Y568716D01*
X227807Y569878D01*
X227654Y571040D01*
X227206Y572122D01*
X226493Y573052D01*
X225563Y573765D01*
X224481Y574214D01*
X223319Y574366D01*
D02*
G37*
G36*
X186953Y494650D02*
X185075D01*
Y492378D01*
X186953D01*
Y494650D01*
D02*
G37*
G36*
X184075D02*
X182197D01*
Y492378D01*
X184075D01*
Y494650D01*
D02*
G37*
G36*
X218319Y508122D02*
X216047D01*
Y506244D01*
X218319D01*
Y508122D01*
D02*
G37*
G36*
Y511000D02*
X216047D01*
Y509122D01*
X218319D01*
Y511000D01*
D02*
G37*
G36*
X221591Y508122D02*
X219319D01*
Y506244D01*
X221591D01*
Y508122D01*
D02*
G37*
%LPD*%
D10*
X271445Y365252D02*
X271321Y366191D01*
X270959Y367065D01*
X270383Y367816D01*
X269632Y368392D01*
X268757Y368754D01*
X267819Y368878D01*
X279319Y373878D02*
X279255Y374857D01*
X279063Y375819D01*
X278748Y376748D01*
X278314Y377628D01*
X277769Y378444D01*
X277122Y379181D01*
X276385Y379828D01*
X275569Y380373D01*
X274689Y380807D01*
X273760Y381122D01*
X272798Y381314D01*
X271819Y381378D01*
X258319Y389378D02*
X258377Y388414D01*
X258551Y387463D01*
X258839Y386541D01*
X259235Y385660D01*
X259735Y384834D01*
X260331Y384073D01*
X261014Y383390D01*
X261774Y382794D01*
X262601Y382294D01*
X263482Y381898D01*
X264404Y381610D01*
X265355Y381436D01*
X266319Y381378D01*
X271445Y336504D02*
Y365252D01*
X279319Y336504D02*
Y373878D01*
X266319Y381378D02*
X271819D01*
X279319Y336504D02*
X279319D01*
X263319Y389378D02*
Y402378D01*
X258319Y389378D02*
Y402378D01*
D11*
X275382Y367315D02*
X275301Y368342D01*
X275061Y369343D01*
X274667Y370294D01*
X274129Y371173D01*
X273460Y371956D01*
X272677Y372625D01*
X271798Y373163D01*
X270847Y373557D01*
X269846Y373797D01*
X268819Y373878D01*
X301319Y348878D02*
X302294Y348974D01*
X303232Y349259D01*
X304097Y349721D01*
X304854Y350342D01*
X305476Y351100D01*
X305938Y351965D01*
X306223Y352903D01*
X306319Y353878D01*
X292319Y348878D02*
X291319Y348780D01*
X290357Y348488D01*
X289471Y348014D01*
X288694Y347377D01*
X288057Y346600D01*
X287583Y345714D01*
X287292Y344752D01*
X287193Y343752D01*
X258319Y351378D02*
X258223Y352354D01*
X257938Y353291D01*
X257476Y354156D01*
X256855Y354913D01*
X256097Y355535D01*
X255232Y355997D01*
X254294Y356282D01*
X253319Y356378D01*
X225319Y522878D02*
X224880Y523939D01*
X223819Y524378D01*
X220819D02*
X219758Y523939D01*
X219319Y522878D01*
X218819Y514134D02*
X219319Y514634D01*
X242469Y528878D02*
X241969Y528378D01*
X253819Y524878D02*
X253683Y525913D01*
X253283Y526878D01*
X252647Y527706D01*
X251819Y528342D01*
X250854Y528742D01*
X249819Y528878D01*
X250075Y515134D02*
X251044Y515262D01*
X251947Y515635D01*
X252722Y516230D01*
X253317Y517006D01*
X253691Y517909D01*
X253819Y518878D01*
X253319Y383878D02*
X253367Y382898D01*
X253511Y381927D01*
X253749Y380975D01*
X254080Y380051D01*
X254500Y379164D01*
X255004Y378322D01*
X255589Y377534D01*
X256248Y376807D01*
X256975Y376148D01*
X257763Y375563D01*
X258605Y375059D01*
X259492Y374639D01*
X260416Y374309D01*
X261368Y374070D01*
X262339Y373926D01*
X263319Y373878D01*
X273319Y394378D02*
X273403Y393423D01*
X273651Y392497D01*
X274056Y391628D01*
X274606Y390843D01*
X275284Y390165D01*
X276069Y389615D01*
X276938Y389210D01*
X277864Y388962D01*
X278819Y388878D01*
X243319Y402378D02*
X243063Y402122D01*
X243319Y446760D02*
X243063Y447378D01*
X306319Y378878D02*
X306271Y379858D01*
X306127Y380829D01*
X305888Y381781D01*
X305558Y382705D01*
X305138Y383592D01*
X304634Y384434D01*
X304049Y385222D01*
X303390Y385949D01*
X302663Y386608D01*
X301875Y387193D01*
X301033Y387697D01*
X300146Y388117D01*
X299222Y388447D01*
X298270Y388686D01*
X297299Y388830D01*
X296319Y388878D01*
X263319Y373878D02*
X268819D01*
X275382Y336504D02*
Y367315D01*
X306319Y353878D02*
Y378878D01*
X292319Y348878D02*
X301319D01*
X287193Y336504D02*
Y343752D01*
X258319Y345878D02*
Y351378D01*
X243063Y356378D02*
X253319D01*
X220819Y524378D02*
X223819D01*
X218819Y513878D02*
X248819D01*
X219319Y514634D02*
Y522878D01*
X248819Y513878D02*
X250075Y515134D01*
X242469Y528878D02*
X249819D01*
X253819Y518878D02*
Y524878D01*
X253319Y383878D02*
Y402378D01*
X273319Y394378D02*
Y402378D01*
X243063Y393878D02*
Y402122D01*
X225319Y519606D02*
Y522878D01*
X243319Y439780D02*
Y446760D01*
X278819Y388878D02*
X296319D01*
D12*
X243063Y322134D02*
X243222Y321128D01*
X243685Y320220D01*
X244405Y319500D01*
X245313Y319037D01*
X246319Y318878D01*
X281319D02*
X282339Y318967D01*
X283328Y319232D01*
X284256Y319665D01*
X285095Y320252D01*
X285819Y320976D01*
X286406Y321815D01*
X286839Y322743D01*
X287104Y323732D01*
X287193Y324752D01*
X218563Y513878D02*
X218819Y514134D01*
X205319Y515378D02*
X205758Y514317D01*
X206819Y513878D01*
X205319Y515378D02*
X205051Y516378D01*
X204319Y517110D01*
X203319Y517378D01*
X220563Y363878D02*
X220627Y362899D01*
X220819Y361937D01*
X221134Y361008D01*
X221568Y360128D01*
X222113Y359312D01*
X222760Y358575D01*
X223497Y357928D01*
X224313Y357383D01*
X225193Y356949D01*
X226122Y356634D01*
X227084Y356442D01*
X228063Y356378D01*
X220827Y398378D02*
X220559Y398110D01*
X230819Y374378D02*
X231827Y374648D01*
X232565Y375386D01*
X232835Y376394D01*
X226319Y374378D02*
X225309Y374107D01*
X224570Y373368D01*
X224299Y372358D01*
X208819Y376878D02*
X209009Y375921D01*
X209551Y375110D01*
X210362Y374568D01*
X211319Y374378D01*
X216819Y372378D02*
X216551Y373378D01*
X215819Y374110D01*
X214819Y374378D01*
X175579Y512602D02*
X175819Y512843D01*
X178319Y522378D02*
X177362Y522188D01*
X176551Y521646D01*
X176009Y520835D01*
X175819Y519878D01*
X168819Y520378D02*
X168966Y519451D01*
X169392Y518615D01*
X170056Y517951D01*
X170892Y517525D01*
X171819Y517378D01*
X198819Y498878D02*
X198867Y497898D01*
X199011Y496927D01*
X199249Y495975D01*
X199580Y495051D01*
X200000Y494164D01*
X200504Y493322D01*
X201089Y492534D01*
X201748Y491807D01*
X202475Y491148D01*
X203263Y490563D01*
X204105Y490059D01*
X204992Y489639D01*
X205916Y489309D01*
X206868Y489070D01*
X207839Y488926D01*
X208819Y488878D01*
X243063Y482134D02*
X242994Y483094D01*
X242790Y484034D01*
X242454Y484936D01*
X241992Y485780D01*
X241416Y486550D01*
X240735Y487231D01*
X239965Y487807D01*
X239121Y488269D01*
X238219Y488605D01*
X237279Y488809D01*
X236319Y488878D01*
X273319Y451878D02*
X273206Y452879D01*
X272873Y453830D01*
X272337Y454684D01*
X271625Y455396D01*
X270771Y455932D01*
X269820Y456265D01*
X268819Y456378D01*
X243063Y322134D02*
Y356378D01*
X228063D02*
X243063D01*
X246319Y318878D02*
X281319D01*
X243063Y356378D02*
Y393878D01*
X287193Y324752D02*
Y336504D01*
X206819Y513878D02*
X218563D01*
X198819Y517378D02*
X203319D01*
X220559Y369878D02*
Y380114D01*
Y398110D01*
Y363878D02*
Y369878D01*
X232835Y376394D02*
Y398378D01*
X226319Y374378D02*
X230819D01*
X224299Y369878D02*
Y372358D01*
X208819Y376878D02*
Y398378D01*
X211319Y374378D02*
X214819D01*
X216819Y369878D02*
Y372378D01*
X232835Y442906D02*
Y451941D01*
X208819Y442906D02*
Y451941D01*
X178319Y522378D02*
X180063D01*
X168819Y520378D02*
Y527378D01*
X175819Y512843D02*
Y517378D01*
X171819D02*
X175819D01*
Y519878D01*
X198819Y498878D02*
Y517378D01*
X208819Y488878D02*
X236319D01*
X175819Y517378D02*
X198819D01*
X243063Y456378D02*
X248819D01*
X273319Y439780D02*
Y451878D01*
X243063Y447378D02*
Y456378D01*
Y482134D01*
D13*
X219319Y584878D02*
X218362Y584688D01*
X217551Y584146D01*
X217009Y583335D01*
X216819Y582378D01*
X235669Y528378D02*
X235319Y528028D01*
X230319Y528028D02*
X229969Y528378D01*
X230319Y508878D02*
X229344Y508782D01*
X228405Y508497D01*
X227541Y508035D01*
X226783Y507413D01*
X226162Y506656D01*
X225699Y505791D01*
X225415Y504853D01*
X225319Y503878D01*
X233819Y506378D02*
X232737Y506207D01*
X231762Y505710D01*
X230987Y504935D01*
X230490Y503960D01*
X230319Y502878D01*
X263319Y503878D02*
X263223Y504853D01*
X262938Y505791D01*
X262476Y506656D01*
X261855Y507413D01*
X261097Y508035D01*
X260232Y508497D01*
X259294Y508782D01*
X258319Y508878D01*
Y501378D02*
X258223Y502353D01*
X257938Y503291D01*
X257476Y504156D01*
X256855Y504914D01*
X256097Y505535D01*
X255232Y505997D01*
X254294Y506282D01*
X253319Y506378D01*
X242319Y503878D02*
X241319Y503610D01*
X240587Y502878D01*
X240319Y501878D01*
X253319Y498878D02*
X253223Y499853D01*
X252938Y500791D01*
X252476Y501656D01*
X251854Y502414D01*
X251097Y503035D01*
X250232Y503497D01*
X249294Y503782D01*
X248319Y503878D01*
X229969Y534579D02*
X229669Y534878D01*
X228819Y549878D02*
X228683Y550913D01*
X228283Y551878D01*
X227647Y552706D01*
X226819Y553342D01*
X225854Y553742D01*
X224819Y553878D01*
X216819Y559878D02*
X216910Y558836D01*
X217181Y557826D01*
X217623Y556878D01*
X218223Y556021D01*
X218962Y555282D01*
X219819Y554682D01*
X220767Y554240D01*
X221777Y553969D01*
X222819Y553878D01*
X228819Y546807D02*
X229079Y546547D01*
X223319Y565390D02*
X223510Y564428D01*
X224055Y563614D01*
X224869Y563069D01*
X225831Y562878D01*
X237319Y560378D02*
X237129Y561335D01*
X236587Y562146D01*
X235776Y562688D01*
X234819Y562878D01*
X235969Y534878D02*
X235669Y534579D01*
X236559Y546547D02*
X237319Y547307D01*
X236559Y546547D02*
X235969Y545957D01*
X219319Y584878D02*
X223319D01*
X216819Y559878D02*
Y582378D01*
X235319Y519606D02*
Y528028D01*
X230319Y519606D02*
Y528028D01*
X225319Y498150D02*
Y503878D01*
X230319Y498150D02*
Y502878D01*
X235319Y498150D02*
Y506378D01*
X233819D02*
X235319D01*
X240319Y498150D02*
Y501878D01*
X230319Y508878D02*
X258319D01*
X263319Y439780D02*
Y503878D01*
X258319Y439780D02*
Y501378D01*
X235319Y506378D02*
X253319D01*
X242319Y503878D02*
X248319D01*
X253319Y439780D02*
Y498878D01*
X229969Y528378D02*
Y534579D01*
X222819Y553878D02*
X224819D01*
X228819Y546807D02*
Y549878D01*
X229079Y546547D02*
X229669Y545957D01*
Y534878D02*
Y545957D01*
X223319Y565390D02*
Y569878D01*
X225831Y562878D02*
X234819D01*
X235969Y534878D02*
Y545957D01*
X235669Y528378D02*
Y534579D01*
X237319Y547307D02*
Y560378D01*
D14*
X211319Y471378D02*
X210362Y471188D01*
X209551Y470646D01*
X209009Y469835D01*
X208819Y468878D01*
X232819D02*
X232629Y469835D01*
X232087Y470646D01*
X231276Y471188D01*
X230319Y471378D01*
X215819Y476378D02*
X214819Y476110D01*
X214087Y475378D01*
X213819Y474378D01*
X218819Y481378D02*
X218723Y482353D01*
X218438Y483291D01*
X217976Y484156D01*
X217354Y484913D01*
X216597Y485535D01*
X215732Y485997D01*
X214794Y486282D01*
X213819Y486378D01*
X179319Y488878D02*
X179509Y487921D01*
X180051Y487110D01*
X180862Y486568D01*
X181819Y486378D01*
X180319Y496378D02*
X181018Y497160D01*
X181625Y498016D01*
X182133Y498934D01*
X182534Y499903D01*
X182825Y500912D01*
X183000Y501946D01*
X183059Y502993D01*
X179319Y491622D02*
X179063Y491878D01*
X180319Y496378D02*
X179638Y495490D01*
X179209Y494456D01*
X179063Y493346D01*
X179075D02*
X178929Y494456D01*
X178500Y495490D01*
X177819Y496378D01*
X175079Y502993D02*
X175138Y501946D01*
X175313Y500912D01*
X175604Y499903D01*
X176005Y498934D01*
X176513Y498016D01*
X177120Y497160D01*
X177819Y496378D01*
X208819Y464815D02*
Y468878D01*
X232819Y464815D02*
Y468878D01*
X213819Y471378D02*
Y474378D01*
X211319Y471378D02*
X230319D01*
X218819Y476378D02*
Y481378D01*
X215819Y476378D02*
X218819D01*
X225063D01*
X181819Y486378D02*
X213819D01*
X183059Y502993D02*
Y503154D01*
X179063Y491878D02*
Y493346D01*
X179319Y488878D02*
Y491622D01*
D15*
X220563Y363878D02*
D03*
X226075D02*
D03*
X225063Y476378D02*
D03*
X230575D02*
D03*
X180063Y522378D02*
D03*
X185575D02*
D03*
X179063Y491878D02*
D03*
X184575D02*
D03*
X220575Y390878D02*
D03*
X215063D02*
D03*
X243063Y393878D02*
D03*
X248575D02*
D03*
X243063Y447378D02*
D03*
X248575D02*
D03*
D16*
X218819Y514134D02*
D03*
Y508622D02*
D03*
D17*
X208819Y464815D02*
D03*
Y451941D02*
D03*
X232819Y464815D02*
D03*
Y451941D02*
D03*
D18*
X241969Y528378D02*
D03*
X235669D02*
D03*
X229669Y534878D02*
D03*
X235969D02*
D03*
X229969Y528378D02*
D03*
X223669D02*
D03*
D19*
X168819Y527378D02*
D03*
Y537378D02*
D03*
X248319Y345878D02*
D03*
X258319D02*
D03*
D20*
X175579Y512602D02*
D03*
X183059D02*
D03*
Y503154D02*
D03*
X179319D02*
D03*
X175579D02*
D03*
D21*
X224299Y380114D02*
D03*
X220559D02*
D03*
X216819D02*
D03*
X224299Y369878D02*
D03*
X220559D02*
D03*
D22*
X216819D02*
D03*
D23*
X278319Y439780D02*
D03*
X273319D02*
D03*
X268319D02*
D03*
X263319D02*
D03*
X258319D02*
D03*
X253319D02*
D03*
X248319D02*
D03*
X243319D02*
D03*
X278319Y402378D02*
D03*
X273319D02*
D03*
X268319D02*
D03*
X263319D02*
D03*
X258319D02*
D03*
X253319D02*
D03*
X248319D02*
D03*
D24*
X243319D02*
D03*
D25*
X208819Y398378D02*
D03*
D26*
X220827D02*
D03*
X232835D02*
D03*
X208819Y442906D02*
D03*
X220827D02*
D03*
X232835D02*
D03*
D27*
X271445Y336504D02*
D03*
X275382D02*
D03*
X279319D02*
D03*
X283256D02*
D03*
X287193D02*
D03*
D28*
X259043Y327252D02*
D03*
X299594D02*
D03*
D29*
X232819Y555209D02*
D03*
X236559Y546547D02*
D03*
X229079D02*
D03*
D30*
X225319Y498543D02*
D03*
X230319D02*
D03*
X235319D02*
D03*
X240319D02*
D03*
X225319Y519213D02*
D03*
X230319D02*
D03*
X235319D02*
D03*
X240319D02*
D03*
D31*
X223319Y569878D02*
D03*
Y584878D02*
D03*
X250819D02*
D03*
X190819Y609878D02*
D03*
D32*
X208319Y569878D02*
D03*
X238319D02*
D03*
D33*
Y602378D02*
D03*
X208319Y622378D02*
D03*
D34*
X268819Y376378D02*
D03*
X276319Y383878D02*
D03*
X283819Y376378D02*
D03*
X267819Y368878D02*
D03*
X263319Y389378D02*
D03*
X246319Y353878D02*
D03*
X253819Y346378D02*
D03*
X261319Y353878D02*
D03*
X268819Y346378D02*
D03*
X283819D02*
D03*
Y361378D02*
D03*
X173819Y608878D02*
D03*
X158819D02*
D03*
X166319Y601378D02*
D03*
X151319D02*
D03*
X158819Y593878D02*
D03*
X268819Y456378D02*
D03*
X248819D02*
D03*
X186319Y398878D02*
D03*
Y383878D02*
D03*
X201319Y398878D02*
D03*
Y383878D02*
D03*
X193819Y391378D02*
D03*
Y376378D02*
D03*
X178819Y391378D02*
D03*
Y376378D02*
D03*
Y346378D02*
D03*
Y361378D02*
D03*
X193819Y346378D02*
D03*
Y361378D02*
D03*
X201319Y353878D02*
D03*
Y368878D02*
D03*
X186319Y353878D02*
D03*
Y368878D02*
D03*
X178819Y316378D02*
D03*
Y331378D02*
D03*
X193819Y316378D02*
D03*
Y331378D02*
D03*
X201319Y323878D02*
D03*
Y338878D02*
D03*
X186319Y323878D02*
D03*
Y338878D02*
D03*
X178819Y301378D02*
D03*
X193819D02*
D03*
X201319Y293878D02*
D03*
Y308878D02*
D03*
X186319Y293878D02*
D03*
Y308878D02*
D03*
X216319D02*
D03*
Y293878D02*
D03*
X231319Y308878D02*
D03*
Y293878D02*
D03*
X223819Y301378D02*
D03*
X208819D02*
D03*
Y316378D02*
D03*
Y331378D02*
D03*
X223819Y316378D02*
D03*
Y331378D02*
D03*
X231319Y323878D02*
D03*
Y338878D02*
D03*
X216319Y323878D02*
D03*
Y338878D02*
D03*
X208819Y346378D02*
D03*
Y361378D02*
D03*
X223819Y346378D02*
D03*
X216319Y353878D02*
D03*
X193819Y406378D02*
D03*
X238819Y301378D02*
D03*
X246319Y293878D02*
D03*
Y308878D02*
D03*
X238819Y331378D02*
D03*
X246319Y323878D02*
D03*
Y338878D02*
D03*
X238819Y316378D02*
D03*
X298819Y301378D02*
D03*
X268819D02*
D03*
X283819D02*
D03*
X291319Y293878D02*
D03*
X276319D02*
D03*
X261319D02*
D03*
X253819Y301378D02*
D03*
X291319Y308878D02*
D03*
X276319D02*
D03*
X261319D02*
D03*
X276319Y323878D02*
D03*
X283819Y316378D02*
D03*
X298819D02*
D03*
Y361378D02*
D03*
X291319Y353878D02*
D03*
Y338878D02*
D03*
X298819Y346378D02*
D03*
X291319Y368878D02*
D03*
X298819Y376378D02*
D03*
X291319Y383878D02*
D03*
X298819Y391378D02*
D03*
X291319Y398878D02*
D03*
X298819Y406378D02*
D03*
X261319Y368878D02*
D03*
X268819Y361378D02*
D03*
X253819D02*
D03*
X238819Y376378D02*
D03*
Y361378D02*
D03*
Y391378D02*
D03*
X246319Y368878D02*
D03*
Y383878D02*
D03*
X231319Y368878D02*
D03*
X238819Y346378D02*
D03*
X268819Y391378D02*
D03*
X283819Y406378D02*
D03*
Y391378D02*
D03*
X214319Y385378D02*
D03*
Y395878D02*
D03*
X225319Y385378D02*
D03*
X248819Y388878D02*
D03*
X278319Y395378D02*
D03*
X261319Y338878D02*
D03*
X151319Y616378D02*
D03*
X143819Y518878D02*
D03*
Y503878D02*
D03*
X158819Y518878D02*
D03*
Y503878D02*
D03*
X151319Y511378D02*
D03*
X136319D02*
D03*
X143819Y548878D02*
D03*
Y533878D02*
D03*
X158819Y548878D02*
D03*
Y533878D02*
D03*
X151319Y541378D02*
D03*
Y526378D02*
D03*
X136319Y541378D02*
D03*
Y526378D02*
D03*
X143819Y578878D02*
D03*
Y563878D02*
D03*
X158819Y578878D02*
D03*
Y563878D02*
D03*
X151319Y571378D02*
D03*
Y556378D02*
D03*
X136319Y571378D02*
D03*
Y556378D02*
D03*
Y586378D02*
D03*
Y601378D02*
D03*
X151319Y586378D02*
D03*
X143819Y593878D02*
D03*
Y608878D02*
D03*
X166319Y616378D02*
D03*
X173819Y593878D02*
D03*
X188819D02*
D03*
X181319Y601378D02*
D03*
Y586378D02*
D03*
X166319D02*
D03*
Y556378D02*
D03*
Y571378D02*
D03*
X181319Y556378D02*
D03*
Y571378D02*
D03*
X188819Y563878D02*
D03*
Y578878D02*
D03*
X173819Y563878D02*
D03*
Y578878D02*
D03*
X166319Y541378D02*
D03*
X181319Y526378D02*
D03*
Y541378D02*
D03*
X188819Y533878D02*
D03*
Y548878D02*
D03*
X173819Y533878D02*
D03*
Y548878D02*
D03*
X166319Y511378D02*
D03*
X188819Y503878D02*
D03*
X181319Y616378D02*
D03*
X203819Y503878D02*
D03*
X218819D02*
D03*
X203819Y548878D02*
D03*
Y533878D02*
D03*
X218819Y548878D02*
D03*
Y533878D02*
D03*
X211319Y541378D02*
D03*
X196319D02*
D03*
Y526378D02*
D03*
X203819Y578878D02*
D03*
X196319Y571378D02*
D03*
Y556378D02*
D03*
Y586378D02*
D03*
X211319D02*
D03*
Y601378D02*
D03*
X218819Y593878D02*
D03*
Y608878D02*
D03*
X203819Y593878D02*
D03*
Y608878D02*
D03*
X196319Y616378D02*
D03*
X241319D02*
D03*
X248819Y518878D02*
D03*
X241319Y511378D02*
D03*
X226319D02*
D03*
X248819Y548878D02*
D03*
Y533878D02*
D03*
X241319Y541378D02*
D03*
X226319D02*
D03*
X233819Y578878D02*
D03*
X248819Y563878D02*
D03*
X226319Y601378D02*
D03*
X241319Y586378D02*
D03*
X233819Y593878D02*
D03*
X248819D02*
D03*
Y608878D02*
D03*
X233819D02*
D03*
X226319Y616378D02*
D03*
X271319D02*
D03*
X263819Y518878D02*
D03*
X278819D02*
D03*
Y503878D02*
D03*
X271319Y511378D02*
D03*
X256319D02*
D03*
X263819Y548878D02*
D03*
Y533878D02*
D03*
X278819Y548878D02*
D03*
Y533878D02*
D03*
X271319Y541378D02*
D03*
Y526378D02*
D03*
X256319Y541378D02*
D03*
Y526378D02*
D03*
X263819Y578878D02*
D03*
Y563878D02*
D03*
X278819Y578878D02*
D03*
Y563878D02*
D03*
X271319Y571378D02*
D03*
Y556378D02*
D03*
X256319Y571378D02*
D03*
Y556378D02*
D03*
Y601378D02*
D03*
X271319Y586378D02*
D03*
Y601378D02*
D03*
X278819Y593878D02*
D03*
Y608878D02*
D03*
X263819Y593878D02*
D03*
Y608878D02*
D03*
X256319Y616378D02*
D03*
X293819Y518878D02*
D03*
Y503878D02*
D03*
X286319Y511378D02*
D03*
X293819Y548878D02*
D03*
Y533878D02*
D03*
X286319Y541378D02*
D03*
Y526378D02*
D03*
X293819Y578878D02*
D03*
Y563878D02*
D03*
X286319Y571378D02*
D03*
Y556378D02*
D03*
Y586378D02*
D03*
Y601378D02*
D03*
X293819Y593878D02*
D03*
Y608878D02*
D03*
X286319Y616378D02*
D03*
Y496378D02*
D03*
Y481378D02*
D03*
X293819Y473878D02*
D03*
Y488878D02*
D03*
Y458878D02*
D03*
Y443878D02*
D03*
X271319Y466378D02*
D03*
X278819Y458878D02*
D03*
Y488878D02*
D03*
Y473878D02*
D03*
X271319Y481378D02*
D03*
Y496378D02*
D03*
X286319Y451378D02*
D03*
Y466378D02*
D03*
X218819Y473878D02*
D03*
X226319Y466378D02*
D03*
Y481378D02*
D03*
Y451378D02*
D03*
X218819Y458878D02*
D03*
X248819Y473878D02*
D03*
X233819D02*
D03*
X248819Y488878D02*
D03*
X188819Y458878D02*
D03*
Y443878D02*
D03*
X173819Y488878D02*
D03*
X181319Y466378D02*
D03*
Y481378D02*
D03*
Y451378D02*
D03*
X203819Y443878D02*
D03*
Y458878D02*
D03*
X196319Y451378D02*
D03*
Y481378D02*
D03*
Y466378D02*
D03*
X211319Y481378D02*
D03*
X203819Y473878D02*
D03*
X188819D02*
D03*
Y488878D02*
D03*
X211319Y496378D02*
D03*
X196319D02*
D03*
X166319D02*
D03*
X151319D02*
D03*
X136319D02*
D03*
X196319Y601378D02*
D03*
X211319Y556378D02*
D03*
X226319D02*
D03*
X241319D02*
D03*
X226319Y560378D02*
D03*
X232819D02*
D03*
M02*
