G04*
G04 #@! TF.GenerationSoftware,Altium Limited,CircuitStudio,1.5.2 (30)*
G04*
G04 Layer_Color=7318015*
%FSLAX25Y25*%
%MOIN*%
G70*
G01*
G75*
G04:AMPARAMS|DCode=15|XSize=21.65mil|YSize=49.21mil|CornerRadius=1.95mil|HoleSize=0mil|Usage=FLASHONLY|Rotation=180.000|XOffset=0mil|YOffset=0mil|HoleType=Round|Shape=RoundedRectangle|*
%AMROUNDEDRECTD15*
21,1,0.02165,0.04532,0,0,180.0*
21,1,0.01776,0.04921,0,0,180.0*
1,1,0.00390,-0.00888,0.02266*
1,1,0.00390,0.00888,0.02266*
1,1,0.00390,0.00888,-0.02266*
1,1,0.00390,-0.00888,-0.02266*
%
%ADD15ROUNDEDRECTD15*%
%ADD16R,0.02362X0.07480*%
%ADD17R,0.08268X0.11024*%
%ADD18C,0.03937*%
%ADD19O,0.04488X0.07480*%
%ADD20R,0.04488X0.07480*%
%ADD21R,0.02362X0.07874*%
%ADD22O,0.02362X0.07874*%
%ADD23R,0.02362X0.04331*%
%ADD24O,0.02362X0.04331*%
%ADD25R,0.02756X0.05118*%
%ADD26R,0.03543X0.03937*%
%ADD27R,0.04803X0.03583*%
%ADD28R,0.03543X0.02756*%
%ADD29R,0.02756X0.03543*%
D15*
X240319Y514213D02*
D03*
X235319D02*
D03*
X230319D02*
D03*
X225319D02*
D03*
X240319Y493543D02*
D03*
X235319D02*
D03*
X230319D02*
D03*
X225319D02*
D03*
D16*
X287193Y336504D02*
D03*
X283256D02*
D03*
X279319D02*
D03*
X275382D02*
D03*
X271445D02*
D03*
D17*
X299594Y327252D02*
D03*
X259043D02*
D03*
D18*
X258319Y345878D02*
D03*
X248319D02*
D03*
X168819Y537378D02*
D03*
Y527378D02*
D03*
D19*
X232835Y442906D02*
D03*
X220827D02*
D03*
X208819D02*
D03*
X232835Y398378D02*
D03*
X220827D02*
D03*
D20*
X208819D02*
D03*
D21*
X243319Y402378D02*
D03*
D22*
X248319D02*
D03*
X253319D02*
D03*
X258319D02*
D03*
X263319D02*
D03*
X268319D02*
D03*
X273319D02*
D03*
X278319D02*
D03*
X243319Y439780D02*
D03*
X248319D02*
D03*
X253319D02*
D03*
X258319D02*
D03*
X263319D02*
D03*
X268319D02*
D03*
X273319D02*
D03*
X278319D02*
D03*
D23*
X216819Y369878D02*
D03*
D24*
X220559D02*
D03*
X224299D02*
D03*
X216819Y380114D02*
D03*
X220559D02*
D03*
X224299D02*
D03*
D25*
X175579Y503154D02*
D03*
X179319D02*
D03*
X183059D02*
D03*
Y512602D02*
D03*
X175579D02*
D03*
D26*
X223669Y523378D02*
D03*
X229969D02*
D03*
X235969Y529878D02*
D03*
X229669D02*
D03*
X235669Y523378D02*
D03*
X241969D02*
D03*
D27*
X232819Y451941D02*
D03*
Y464815D02*
D03*
X208819Y451941D02*
D03*
Y464815D02*
D03*
D28*
X218819Y503622D02*
D03*
Y509134D02*
D03*
D29*
X248575Y447378D02*
D03*
X243063D02*
D03*
X248575Y393878D02*
D03*
X243063D02*
D03*
X215063Y390878D02*
D03*
X220575D02*
D03*
X184575Y491878D02*
D03*
X179063D02*
D03*
X185575Y522378D02*
D03*
X180063D02*
D03*
X230575Y476378D02*
D03*
X225063D02*
D03*
X226075Y363878D02*
D03*
X220563D02*
D03*
M02*
