G04*
G04 #@! TF.GenerationSoftware,Altium Limited,CircuitStudio,1.5.2 (30)*
G04*
G04 Layer_Color=15065295*
%FSLAX25Y25*%
%MOIN*%
G70*
G01*
G75*
%ADD10C,0.00800*%
%ADD11C,0.01000*%
%ADD35C,0.00984*%
%ADD36C,0.00787*%
%ADD37C,0.02362*%
%ADD38C,0.00300*%
D10*
X200319Y551378D02*
Y555377D01*
X202318D01*
X202985Y554710D01*
Y553377D01*
X202318Y552711D01*
X200319D01*
X204318Y551378D02*
X205651D01*
X204984D01*
Y555377D01*
X204318Y554710D01*
X221485Y359710D02*
X220818Y360377D01*
X219485D01*
X218819Y359710D01*
Y357045D01*
X219485Y356378D01*
X220818D01*
X221485Y357045D01*
X222818Y356378D02*
X224151D01*
X223484D01*
Y360377D01*
X222818Y359710D01*
X228816Y360377D02*
X227483Y359710D01*
X226150Y358377D01*
Y357045D01*
X226816Y356378D01*
X228149D01*
X228816Y357045D01*
Y357711D01*
X228149Y358377D01*
X226150D01*
X231485Y483710D02*
X230818Y484377D01*
X229485D01*
X228819Y483710D01*
Y481044D01*
X229485Y480378D01*
X230818D01*
X231485Y481044D01*
X232818Y480378D02*
X234151D01*
X233484D01*
Y484377D01*
X232818Y483710D01*
X236150Y484377D02*
X238816D01*
Y483710D01*
X236150Y481044D01*
Y480378D01*
X191985Y523710D02*
X191318Y524377D01*
X189985D01*
X189319Y523710D01*
Y521044D01*
X189985Y520378D01*
X191318D01*
X191985Y521044D01*
X193318Y520378D02*
X194651D01*
X193984D01*
Y524377D01*
X193318Y523710D01*
X196650D02*
X197316Y524377D01*
X198649D01*
X199316Y523710D01*
Y523044D01*
X198649Y522377D01*
X199316Y521711D01*
Y521044D01*
X198649Y520378D01*
X197316D01*
X196650Y521044D01*
Y521711D01*
X197316Y522377D01*
X196650Y523044D01*
Y523710D01*
X197316Y522377D02*
X198649D01*
X168985Y494210D02*
X168318Y494877D01*
X166985D01*
X166319Y494210D01*
Y491544D01*
X166985Y490878D01*
X168318D01*
X168985Y491544D01*
X170318Y490878D02*
X171651D01*
X170984D01*
Y494877D01*
X170318Y494210D01*
X173650Y491544D02*
X174316Y490878D01*
X175649D01*
X176316Y491544D01*
Y494210D01*
X175649Y494877D01*
X174316D01*
X173650Y494210D01*
Y493544D01*
X174316Y492877D01*
X176316D01*
X225985Y392210D02*
X225318Y392877D01*
X223985D01*
X223319Y392210D01*
Y389545D01*
X223985Y388878D01*
X225318D01*
X225985Y389545D01*
X229983Y388878D02*
X227318D01*
X229983Y391544D01*
Y392210D01*
X229317Y392877D01*
X227984D01*
X227318Y392210D01*
X231316D02*
X231983Y392877D01*
X233316D01*
X233982Y392210D01*
Y389545D01*
X233316Y388878D01*
X231983D01*
X231316Y389545D01*
Y392210D01*
X240985Y389210D02*
X240318Y389877D01*
X238985D01*
X238319Y389210D01*
Y386544D01*
X238985Y385878D01*
X240318D01*
X240985Y386544D01*
X244984Y385878D02*
X242318D01*
X244984Y388544D01*
Y389210D01*
X244317Y389877D01*
X242984D01*
X242318Y389210D01*
X246316Y385878D02*
X247649D01*
X246983D01*
Y389877D01*
X246316Y389210D01*
X254985Y449210D02*
X254318Y449877D01*
X252985D01*
X252319Y449210D01*
Y446544D01*
X252985Y445878D01*
X254318D01*
X254985Y446544D01*
X258983Y445878D02*
X256318D01*
X258983Y448544D01*
Y449210D01*
X258317Y449877D01*
X256984D01*
X256318Y449210D01*
X262982Y445878D02*
X260316D01*
X262982Y448544D01*
Y449210D01*
X262316Y449877D01*
X260983D01*
X260316Y449210D01*
X206985Y511210D02*
X206318Y511877D01*
X204985D01*
X204319Y511210D01*
Y508544D01*
X204985Y507878D01*
X206318D01*
X206985Y508544D01*
X210983Y507878D02*
X208318D01*
X210983Y510544D01*
Y511210D01*
X210317Y511877D01*
X208984D01*
X208318Y511210D01*
X212316D02*
X212983Y511877D01*
X214316D01*
X214982Y511210D01*
Y510544D01*
X214316Y509877D01*
X213649D01*
X214316D01*
X214982Y509211D01*
Y508544D01*
X214316Y507878D01*
X212983D01*
X212316Y508544D01*
X213319Y457377D02*
Y453378D01*
X215318D01*
X215985Y454044D01*
Y456710D01*
X215318Y457377D01*
X213319D01*
X219984Y453378D02*
X217318D01*
X219984Y456044D01*
Y456710D01*
X219317Y457377D01*
X217984D01*
X217318Y456710D01*
X221819Y461877D02*
Y457878D01*
X223818D01*
X224485Y458544D01*
Y461210D01*
X223818Y461877D01*
X221819D01*
X225818Y461210D02*
X226484Y461877D01*
X227817D01*
X228484Y461210D01*
Y460544D01*
X227817Y459877D01*
X227151D01*
X227817D01*
X228484Y459211D01*
Y458544D01*
X227817Y457878D01*
X226484D01*
X225818Y458544D01*
X245819Y526378D02*
Y530377D01*
X247818D01*
X248485Y529710D01*
Y528377D01*
X247818Y527711D01*
X245819D01*
X247152D02*
X248485Y526378D01*
X249818D02*
X251151D01*
X250484D01*
Y530377D01*
X249818Y529710D01*
X255816Y530377D02*
X254483Y529710D01*
X253150Y528377D01*
Y527044D01*
X253816Y526378D01*
X255149D01*
X255816Y527044D01*
Y527711D01*
X255149Y528377D01*
X253150D01*
X228819Y538878D02*
Y542877D01*
X230818D01*
X231485Y542210D01*
Y540877D01*
X230818Y540211D01*
X228819D01*
X230152D02*
X231485Y538878D01*
X232818D02*
X234151D01*
X233484D01*
Y542877D01*
X232818Y542210D01*
X236150Y542877D02*
X238816D01*
Y542210D01*
X236150Y539544D01*
Y538878D01*
X210319Y526878D02*
Y530877D01*
X212318D01*
X212985Y530210D01*
Y528877D01*
X212318Y528211D01*
X210319D01*
X211652D02*
X212985Y526878D01*
X214318D02*
X215651D01*
X214984D01*
Y530877D01*
X214318Y530210D01*
X217650D02*
X218316Y530877D01*
X219649D01*
X220316Y530210D01*
Y529544D01*
X219649Y528877D01*
X220316Y528211D01*
Y527544D01*
X219649Y526878D01*
X218316D01*
X217650Y527544D01*
Y528211D01*
X218316Y528877D01*
X217650Y529544D01*
Y530210D01*
X218316Y528877D02*
X219649D01*
X153819Y529377D02*
X156485D01*
X155152D01*
Y525378D01*
X157818D02*
Y529377D01*
X159817D01*
X160484Y528710D01*
Y527377D01*
X159817Y526711D01*
X157818D01*
X161816Y528710D02*
X162483Y529377D01*
X163816D01*
X164482Y528710D01*
Y528044D01*
X163816Y527377D01*
X163149D01*
X163816D01*
X164482Y526711D01*
Y526044D01*
X163816Y525378D01*
X162483D01*
X161816Y526044D01*
X162319Y505377D02*
Y502044D01*
X162985Y501378D01*
X164318D01*
X164985Y502044D01*
Y505377D01*
X168983D02*
X167651Y504710D01*
X166318Y503377D01*
Y502044D01*
X166984Y501378D01*
X168317D01*
X168983Y502044D01*
Y502711D01*
X168317Y503377D01*
X166318D01*
X206319Y371877D02*
Y368545D01*
X206985Y367878D01*
X208318D01*
X208985Y368545D01*
Y371877D01*
X210318D02*
X212983D01*
Y371210D01*
X210318Y368545D01*
Y367878D01*
X236820Y397378D02*
X240153D01*
X240819Y398044D01*
Y399377D01*
X240153Y400044D01*
X236820D01*
X237487Y401377D02*
X236820Y402043D01*
Y403376D01*
X237487Y404042D01*
X238153D01*
X238820Y403376D01*
X239486Y404042D01*
X240153D01*
X240819Y403376D01*
Y402043D01*
X240153Y401377D01*
X239486D01*
X238820Y402043D01*
X238153Y401377D01*
X237487D01*
X238820Y402043D02*
Y403376D01*
X196819Y406377D02*
X199485Y402378D01*
Y406377D02*
X196819Y402378D01*
X200818D02*
X202151D01*
X201484D01*
Y406377D01*
X200818Y405710D01*
X153819Y539377D02*
X156485D01*
X155152D01*
Y535378D01*
X157818D02*
Y539377D01*
X159817D01*
X160484Y538710D01*
Y537377D01*
X159817Y536711D01*
X157818D01*
X163816Y535378D02*
Y539377D01*
X161816Y537377D01*
X164482D01*
X257319Y353877D02*
X259985D01*
X258652D01*
Y349878D01*
X261318D02*
Y353877D01*
X263317D01*
X263983Y353210D01*
Y351877D01*
X263317Y351211D01*
X261318D01*
X265316Y349878D02*
X266649D01*
X265983D01*
Y353877D01*
X265316Y353210D01*
X238819Y354377D02*
X241485D01*
X240152D01*
Y350378D01*
X242818D02*
Y354377D01*
X244817D01*
X245483Y353710D01*
Y352377D01*
X244817Y351711D01*
X242818D01*
X249482Y350378D02*
X246816D01*
X249482Y353044D01*
Y353710D01*
X248816Y354377D01*
X247483D01*
X246816Y353710D01*
D11*
X313267Y338429D02*
Y340429D01*
Y339429D01*
X308269D01*
X307269Y340429D01*
Y341428D01*
X308269Y342428D01*
X307269Y336430D02*
Y334431D01*
Y335430D01*
X313267D01*
X312267Y336430D01*
X212071Y496628D02*
X217069D01*
X218069Y497628D01*
Y499627D01*
X217069Y500627D01*
X212071D01*
X218069Y502626D02*
Y504625D01*
Y503626D01*
X212071D01*
X213071Y502626D01*
X214971Y544328D02*
X219969D01*
X220969Y545328D01*
Y547327D01*
X219969Y548327D01*
X214971D01*
X220969Y554325D02*
Y550326D01*
X216970Y554325D01*
X215971D01*
X214971Y553325D01*
Y551326D01*
X215971Y550326D01*
D35*
X213878Y464815D02*
X213140Y465241D01*
Y464389D01*
X213878Y464815D01*
X237878D02*
X237140Y465241D01*
Y464389D01*
X237878Y464815D01*
X172528Y503154D02*
X171789Y503580D01*
Y502727D01*
X172528Y503154D01*
X271937Y342409D02*
X271199Y342836D01*
Y341983D01*
X271937Y342409D01*
X225437Y546547D02*
X224699Y546974D01*
Y546121D01*
X225437Y546547D01*
X222563Y498543D02*
X221825Y498970D01*
Y498117D01*
X222563Y498543D01*
D36*
X214949Y374061D02*
X215759Y374529D01*
Y375464D01*
X214949Y375931D01*
X240819Y419829D02*
X241703Y420195D01*
X242069Y421079D01*
X241703Y421963D01*
X240819Y422329D01*
X202815Y417640D02*
X203842Y417821D01*
X204745Y418342D01*
X205415Y419141D01*
X205771Y420120D01*
Y421163D01*
X205415Y422143D01*
X204745Y422941D01*
X203842Y423463D01*
X202815Y423644D01*
X223122Y365256D02*
X223516D01*
X223122Y362500D02*
X223516D01*
X227622Y477756D02*
X228016D01*
X227622Y475000D02*
X228016D01*
X182622Y523756D02*
X183016D01*
X182622Y521000D02*
X183016D01*
X181622Y493256D02*
X182016D01*
X181622Y490500D02*
X182016D01*
X217622Y389500D02*
X218016D01*
X217622Y392256D02*
X218016D01*
X245622Y395256D02*
X246016D01*
X245622Y392500D02*
X246016D01*
X245622Y448756D02*
X246016D01*
X245622Y446000D02*
X246016D01*
X220197Y511181D02*
Y511575D01*
X217441Y511181D02*
Y511575D01*
X205669Y461449D02*
X211969D01*
Y455307D02*
Y461449D01*
X205669Y455307D02*
Y461449D01*
Y455307D02*
X211969D01*
X229669Y461449D02*
X235969D01*
Y455307D02*
Y461449D01*
X229669Y455307D02*
Y461449D01*
Y455307D02*
X235969D01*
X238622Y529953D02*
X239016D01*
X238622Y526803D02*
X239016D01*
X232622Y533303D02*
X233016D01*
X232622Y536453D02*
X233016D01*
X226622Y529953D02*
X227016D01*
X226622Y526803D02*
X227016D01*
X173217Y508468D02*
X185421D01*
X173217Y507287D02*
X185421D01*
Y508468D01*
X173217Y507287D02*
Y508468D01*
X214949Y375331D02*
X226169D01*
Y374661D02*
Y375331D01*
X214949Y374661D02*
X226169D01*
X214949D02*
Y375931D01*
Y374061D02*
Y375331D01*
X240819Y409996D02*
X280819D01*
Y432162D01*
X240819D02*
X280819D01*
X240819Y422329D02*
Y432162D01*
Y409996D02*
Y419829D01*
X202815Y405406D02*
Y417640D01*
Y423644D02*
Y435878D01*
X238839D01*
Y405406D02*
Y435878D01*
X202815Y405406D02*
X238839D01*
X259634Y314654D02*
Y320165D01*
X261405Y309142D02*
Y314654D01*
X259634D02*
X261405D01*
X255697Y305157D02*
Y308795D01*
X256043Y309142D02*
X261405D01*
X255697Y308795D02*
X256043Y309141D01*
X255697Y305157D02*
X256043Y304811D01*
X297232Y309142D02*
X302594D01*
X256043Y304811D02*
X302595D01*
X302941Y305157D02*
Y308795D01*
X297232Y314654D02*
X299004D01*
X264752Y331189D02*
X293886D01*
X299004Y314654D02*
Y320165D01*
X297232Y309142D02*
Y314654D01*
X302594Y309142D02*
X302941Y308795D01*
X302595Y304811D02*
X302941Y305157D01*
X236362Y553634D02*
X238724D01*
Y550878D02*
Y553634D01*
X226913D02*
X229276D01*
X226913Y550878D02*
Y553634D01*
X222976Y502579D02*
X242661D01*
X222976Y515177D02*
X242661D01*
X222976Y502579D02*
Y515177D01*
X242661Y502579D02*
Y515177D01*
D37*
X228095Y506516D02*
X227650Y507439D01*
X226651Y507667D01*
X225849Y507028D01*
Y506003D01*
X226651Y505364D01*
X227650Y505592D01*
X228095Y506516D01*
D38*
X173319Y434878D02*
X307319D01*
X173319Y408878D02*
X307319D01*
M02*
