M48
;Layer_Color=6321
;FILE_FORMAT=2:5
INCH,LZ
;TYPE=PLATED
T1F00S00C0.00787
T2F00S00C0.01000
T3F00S00C0.01575
T5F00S00C0.03937
T6F00S00C0.05118
;TYPE=NON_PLATED
T7F00S00C0.09449
%
T01
X0250654Y0433213
Y0437543
X0254984
Y0433213
T02
X0032819Y0049626
X0040819
X0100819Y0049378
X0108819
X0176319Y0046378
X0183819Y0053878
X0198819
X0206319Y0046378
X0191319
X0221319
X0236319
X0228819Y0053878
X0213819
X0243819
X0251319Y0046378
X0236319Y0061378
X0221319
X0228819Y0068878
X0213819
X0221319Y0076378
Y0091378
X0236319
Y0076378
X0228819Y0083878
X0213819
Y0098878
X0228819
X0236319Y0106378
X0221319
X0251319
X0243819Y0098878
Y0083878
X0251319Y0091378
X0243819Y0068878
X0206319Y0076378
X0198819Y0083878
Y0098878
X0191319Y0106378
X0206319
Y0091378
X0191319
X0183819Y0098878
Y0083878
X0191319Y0076378
X0183819Y0068878
X0198819
X0206319Y0061378
X0191319
X0176319
Y0076378
Y0091378
Y0106378
X0108819Y0083878
Y0076378
X0100819
Y0083878
X0092472Y0082531
X0100819Y0056378
X0108819
X0092319Y0141378
Y0146378
Y0151378
Y0156378
X0069319Y0161378
X0058319Y0156378
Y0151378
Y0146378
Y0141378
X0058819Y0181378
X0058319Y0197378
Y0202378
Y0207378
Y0212378
X0070319Y0187378
X0081319Y0189878
X0055819Y0172378
X0047319Y0177378
X0033319Y0173378
X0038319Y0153878
Y0148878
Y0143878
Y0138878
X0037819Y0131378
X0040819Y0084126
Y0077126
X0032819
Y0084126
Y0057126
X0040819
X0036819Y0202378
Y0207378
X0013819Y0205378
X0011319Y0207878
X0016319Y0202878
X0018819Y0200378
X0021319Y0197378
X0023819Y0192378
X0047819Y0225378
X0055319Y0222878
X0045319Y0257878
X0040819Y0263878
X0055319Y0270878
X0053819Y0316626
Y0336626
X0033382Y0343378
X0020819Y0337878
X0012819
Y0317878
X0020819
X0061819Y0316626
Y0336626
X0083819Y0313878
Y0308878
X0104319
Y0313878
X0096319Y0283878
X0098819Y0276378
X0088819
X0096319Y0267378
X0063819Y0276378
X0058819Y0278878
X0067319Y0225378
X0071319Y0217378
X0177319Y0359878
X0173819Y0364378
X0186819Y0366378
Y0359878
X0196819
Y0366378
X0206319
Y0359878
X0216319
Y0366378
X0225819
Y0359878
X0235819
Y0366378
X0243819
Y0359878
X0241319Y0371878
Y0381878
X0231319
Y0371878
X0233319Y0406378
X0228819Y0411378
X0233319Y0416378
X0228819Y0421378
X0238819
X0243319Y0425378
X0233819Y0426378
X0223819
Y0416378
X0218819Y0411378
Y0421378
X0213819Y0426378
Y0436378
Y0446378
Y0456378
X0218819Y0461378
Y0471378
X0222819Y0476378
X0223819Y0466378
X0228819Y0461378
Y0471378
X0233819Y0466378
X0238819Y0481378
X0233819Y0486378
X0244319Y0495378
X0253819Y0496378
Y0501378
X0256319Y0503878
Y0498878
X0253819Y0506378
X0263819
X0273819
X0283819
X0293819
X0303819
X0298819Y0501378
X0303819Y0496378
X0293819
X0283819
X0273819
X0278819Y0501378
Y0491378
X0283819Y0486378
X0281319Y0478878
X0283819Y0476378
X0293819
X0303819
Y0486378
X0298819Y0481378
Y0471378
X0303819Y0466378
X0304319Y0456378
Y0446378
Y0436378
Y0426378
Y0416378
Y0406378
X0293819
X0283819
Y0416378
X0288819Y0421378
Y0431378
Y0441378
X0293819Y0451378
Y0460378
X0288819Y0471378
X0279819Y0468878
Y0463878
Y0456378
X0271319Y0451878
Y0442378
X0266319Y0441878
X0263819Y0426378
X0273819
X0268819Y0421378
X0273819Y0416378
X0263819
Y0406378
X0273819
X0243319
X0238819Y0411378
X0223819Y0406378
X0213819
Y0416378
Y0466378
X0242819Y0453878
Y0450378
X0241819Y0443878
X0252819Y0450378
Y0453878
X0247819Y0458878
X0260819Y0457878
X0262319Y0463878
Y0468878
X0261819Y0478878
X0263819Y0486378
X0258819Y0491378
X0273819Y0486378
Y0473878
X0243819Y0506378
X0233819
X0177819Y0486878
X0179819Y0478378
X0173819
X0168319Y0481878
Y0488378
X0158319
Y0481878
X0148319
X0145319Y0478878
X0139319
X0141319Y0486378
X0148319Y0488378
X0145319Y0468878
X0139319
Y0459378
X0145319
Y0449378
X0139319
X0134319Y0445878
Y0439378
X0124319
Y0445878
X0114319
Y0439378
X0110819Y0442878
X0098819Y0435878
X0093819Y0438878
X0090819Y0442878
X0081Y0441197
X0081819Y0453878
X0075937Y0450996
X0073075Y0465634
X0078819Y0471378
X0072819Y0478378
X0057819Y0476378
Y0483878
Y0491378
X0060319Y0489878
X0066819Y0501378
X0056319Y0504878
X0057819Y0468878
Y0461378
X0090319Y0466378
X0086319Y0495378
X0097819
X0107819Y0498878
X0108319Y0503878
X0102819Y0506378
X0114819Y0506878
X0118819Y0509378
X0138319
X0116819Y0491378
X0142319Y0442378
X0173819Y0439378
X0179819
Y0429878
X0173819
Y0419878
X0179819
Y0410378
X0173819
Y0400878
X0179819
Y0391378
X0173819
Y0381878
X0179819
Y0372378
X0173819
Y0449378
X0179819
Y0458878
X0173819
Y0468878
X0179819
X0089819Y0428878
X0088748Y0425449
X0088319Y0383378
X0080819
X0036319Y0403878
X0032319Y0411378
X0025819Y0414878
X0013819Y0411378
X003239Y0425449
X0031563Y0461634
X0040319Y0466378
X0047319Y0468878
X0050819
Y0476378
Y0483878
Y0491378
X0048162Y0498878
X0048319Y0507378
Y0514878
X0055319Y0512878
Y0520378
X0014319Y0500378
X0011819Y0487378
Y0482378
Y0472378
X0019319Y0466378
X0050819Y0461378
X0048319Y0527378
X0055319Y0527878
X0048319Y0537378
X0053319Y0542878
X0058819Y0545878
Y0537878
X0068819
Y0545878
X0078819
Y0537878
X0088819
Y0545878
X0098819
Y0537878
X0108819
Y0545878
X0118819
Y0537878
X0128819
Y0545878
X0138819
Y0537878
X0148819
Y0545878
X0158819
Y0537878
X0168819
Y0545878
X0178819
Y0537878
X0188819
Y0545878
X0198819
Y0537878
X0208819
Y0545878
X0198819Y0588878
X0203319Y0593878
X0198819Y0598878
X0203319Y0603878
X0198819Y0608878
X0203319Y0613878
X0198819Y0618878
X0188819
X0193319Y0613878
X0188819Y0608878
X0193319Y0603878
X0188819Y0598878
X0193319Y0593878
X0188819Y0588878
X0178819
X0183319Y0593878
X0178819Y0598878
X0183319Y0603878
X0178819Y0608878
X0183319Y0613878
X0178819Y0618878
X0173819Y0623878
X0163819
X0153819
Y0613878
Y0603878
X0163819
X0173319
X0168819Y0608878
X0173319Y0613878
X0163819
X0158819Y0618878
Y0608878
Y0598878
X0168819
X0173319Y0593878
X0168819Y0588878
X0163819Y0593878
X0158819Y0588878
X0153819Y0593878
X0148819Y0598878
Y0588878
Y0608878
Y0618878
X0168819
X0183819Y0623878
X0193819
X0203819
X0253819
X0258819Y0618878
X0268819
X0273319Y0613878
X0268819Y0608878
X0273319Y0603878
X0268819Y0598878
X0273319Y0593878
X0263819
X0258819Y0598878
Y0588878
X0268819
X0278819
X0283319Y0593878
X0278819Y0598878
X0283319Y0603878
X0278819Y0608878
X0283319Y0613878
X0278819Y0618878
X0288819
X0293319Y0613878
X0288819Y0608878
X0293319Y0603878
X0288819Y0598878
X0293319Y0593878
X0288819Y0588878
X0298819
X0303319Y0593878
X0298819Y0598878
X0303319Y0603878
X0298819Y0608878
X0303319Y0613878
X0298819Y0618878
X0303819Y0623878
X0293819
X0283819
X0273819
X0263819
Y0613878
X0258819Y0608878
X0263819Y0603878
X0253819
Y0593878
Y0613878
X0229319Y0588378
X0224819Y0583878
X0218819Y0576878
X0236819
X0240819Y0576378
X0231319Y0569878
X0227319Y0558878
Y0548878
X0214819
X0217319Y0558878
X0220319Y0541878
X0273819Y0558378
T03
X0216969Y059728
X0220118
X0223268
X0226417
X0229567
X0232717
X0235866
X0239016
X0237441Y0600075
X0234291
X0231142
X0224843
X0221693
X0218543
T05
X0214469Y051565
X0224468
X0234469
X0244468
X0254468
X0204468
X0194468
X0184468
X0174469
X0164469
X0154469
X0144468
X0134468
X0124469
X0114469
X0104469
X0094468
X0084469
X0074468
X0064468
T06
X0252819Y0057378
X0262819
T07
X0043799Y036313
X0275138
Y0518169
X0043799
M30
