M48
;Layer_Color=6321
;FILE_FORMAT=2:5
INCH,LZ
;TYPE=PLATED
T1F00S00C0.00787
T2F00S00C0.01000
T3F00S00C0.01575
T5F00S00C0.03937
T6F00S00C0.05118
;TYPE=NON_PLATED
T7F00S00C0.09449
%
T01
X0251835Y0431835
X0256165
Y0436165
X0251835
T02
X0034Y0048248
Y0055748
X0042
Y0048248
X0102Y0048
Y0055
X011
Y0048
X01775Y0045
X01925
X02075
X02Y00525
X0185
X0215
X023
X0245
X02525Y0045
X02375
X02225
Y006
Y0075
X0215Y00825
Y00975
X02225Y0105
X02375
X0245Y00975
X02525Y009
X0245Y00825
Y00675
X02375Y0075
X023Y00825
Y00975
X02375Y009
X02225
X0215Y00675
X023
X02375Y006
X02525Y0105
X02075
Y009
X01925
X01775
Y0105
X0185Y00975
Y00825
X01775Y0075
Y006
X01925
X02075
X02Y00675
X0185
X01925Y0075
X02075
X02Y00825
Y00975
X01925Y0105
X011Y00825
Y0075
X0102
Y00825
X0093654Y0081154
X00935Y014
Y0145
Y015
Y0155
X00705Y016
X00595Y0155
Y015
Y0145
Y014
X0057Y0171
X006Y018
X00595Y0196
Y0201
Y0206
Y0211
X00715Y0186
X00825Y01885
X00485Y0176
X00345Y0172
X00395Y01525
Y01475
Y01425
Y01375
X0039Y013
X0042Y0082748
Y0075748
X0034
Y0082748
X0025Y0191
X00225Y0196
X002Y0199
X00175Y02015
X0015Y0204
X00125Y02065
X0038Y0206
Y0201
X0049Y0224
X00465Y02565
X0042Y02625
X0055Y0315248
Y0335248
X0034563Y0342
X0022Y03365
X0014
Y03165
X0022
X0063Y0315248
Y0335248
X0085Y03125
Y03075
X01055
Y03125
X00975Y02825
X01Y0275
X009
X00975Y0266
X0065Y0275
X006Y02775
X00565Y02695
Y02215
X00685Y0224
X00725Y0216
X01785Y03585
X0175Y0363
X0188Y0365
Y03585
X0198
Y0365
X02075
Y03585
X02175
Y0365
X0227
Y03585
X0237
Y0365
X0245
Y03585
X02425Y03705
X02325
Y03805
X02425
X02445Y0405
X024Y041
X023
X02345Y0415
X0225
Y0405
X02345
X0215
Y0415
Y0425
Y0435
Y0445
Y0455
Y0465
X022Y046
X023
X0235Y0465
X023Y047
X0225Y0465
X022Y047
X0224Y0475
X0235Y0485
X024Y048
X02455Y0494
X0255Y0495
X02575Y04975
Y05025
X0255Y0505
Y05
X026Y049
X0265Y0485
X0263Y04775
X02635Y04675
Y04625
X0262Y04565
X0254Y04525
Y0449
X0244
Y04525
X0249Y04575
X0243Y04425
X02445Y0424
X024Y042
X0235Y0425
X0225
X022Y042
Y041
X023Y042
X0265Y0415
Y0405
X0275
X0285
X0295
X03055
Y0415
Y0425
Y0435
Y0445
Y0455
X0305Y0465
X03Y047
X029
X0285Y0475
X02825Y04775
X0285Y0485
X0275
X028Y049
Y05
X0275Y0495
Y0505
X0265
X0245
X0235
X0285
Y0495
X0295
Y0505
X03Y05
X0305Y0495
Y0485
X03Y048
X0305Y0475
X0295
Y0459
Y045
X029Y044
Y043
Y042
X0285Y0415
X0275
X027Y042
X0265Y0425
X0275
X02725Y0441
X02675Y04405
X02725Y04505
X0281Y0455
Y04625
Y04675
X0275Y04725
X0305Y0505
X0179Y04855
X0181Y0477
X0175
X01695Y04805
Y0487
X01595
Y04805
X01495
X01465Y04775
X01405
X01425Y0485
X01495Y0487
X01465Y04675
X01405
Y0458
X01465
Y0448
X01405
X01355Y04445
Y0438
X01255
Y04445
X01155
X0112Y04415
X01155Y0438
X01Y04345
X0095Y04375
X0092Y04415
X0082181Y0439819
X0083Y04525
X0077118Y0449618
X0074256Y0464256
X008Y047
X0074Y0477
X0059Y0475
Y04675
Y046
Y04825
Y049
X00615Y04885
X0068Y05
X00575Y05035
X00565Y05115
Y0519
X00875Y0494
X0099
X0109Y04975
X01095Y05025
X0104Y0505
X0116Y05055
X012Y0508
X01395
X0118Y049
X00915Y0465
X0091Y04275
X0089929Y0424071
X00895Y0382
X0082
X0175Y03805
X0181
Y0371
X0175
Y039
X0181
Y03995
X0175
Y0409
X0181
Y04185
X0175
Y04285
X0181
Y0438
X0175
Y0448
X0181
Y04575
X0175
Y04675
X0181
X01435Y0441
X0052Y046
Y04675
X00485
X00415Y0465
X0032744Y0460256
X00205Y0465
X0013Y0471
Y0481
Y0486
X00155Y0499
X0049343Y04975
X00495Y0506
Y05135
X0052Y049
Y04825
Y0475
X0033571Y0424071
X00335Y041
X0027Y04135
X0015Y041
X00375Y04025
X00495Y0526
Y0536
X00545Y05415
X006Y05445
Y05365
X007
Y05445
X008
Y05365
X009
Y05445
X01
Y05365
X011
Y05445
X012
Y05365
X013
Y05445
X014
Y05365
X015
Y05445
X016
Y05365
X017
Y05445
X018
Y05365
X019
Y05445
X02
Y05365
X021
Y05445
X02Y05875
X02045Y05925
X02Y05975
X02045Y06025
X02Y06075
X02045Y06125
X02Y06175
X0205Y06225
X0195
X019Y06175
X01945Y06125
X019Y06075
X01945Y06025
X019Y05975
X01945Y05925
X019Y05875
X018
X01845Y05925
X018Y05975
X01845Y06025
X018Y06075
X01845Y06125
X018Y06175
X0185Y06225
X0175
X017Y06175
X01745Y06125
X017Y06075
X01745Y06025
X017Y05975
X01745Y05925
X0165
X0155
X015Y05875
Y05975
Y06075
Y06175
X016
X0165Y06125
X016Y06075
Y05975
Y05875
X017
X0165Y06025
X0155
Y06125
Y06225
X0165
X00565Y05265
X02215Y05405
X0216Y05475
X02185Y05575
X02285
Y05475
X02325Y05685
X0238Y05755
X0242Y0575
X022Y05755
X0226Y05825
X02305Y0587
X0255Y05925
Y06025
Y06125
Y06225
X0265
X0275
X027Y06175
X02745Y06125
X0265
Y06025
X02745
X027Y06075
X026
Y06175
X028
X02845Y06125
X028Y06075
X02845Y06025
X028Y05975
X02845Y05925
X028Y05875
X029
X02945Y05925
X029Y05975
X02945Y06025
X029Y06075
X02945Y06125
X029Y06175
X0285Y06225
X0295
X03Y06175
X03045Y06125
X03Y06075
X03045Y06025
X03Y05975
X03045Y05925
X03Y05875
X027
X02745Y05925
X027Y05975
X0265Y05925
X026Y05875
Y05975
X0275Y0557
X0305Y06225
T03
X021815Y0595902
X0221299
X0224449
X0227598
X0230748
X0233898
X0237047
X0240197
X0238622Y0598697
X0235472
X0232323
X0226024
X0222874
X0219724
T05
X0214469Y051565
X0224468
X0234469
X0244468
X0254468
X0204468
X0194468
X0184468
X0174469
X0164469
X0154469
X0144468
X0134468
X0124469
X0114469
X0104469
X0094468
X0084469
X0074468
X0064468
T06
X0254Y0056
X0264
T07
X0043799Y036313
X0275138
Y0518169
X0043799
M30
