M48
;Layer_Color=6321
;FILE_FORMAT=2:5
INCH,LZ
;TYPE=PLATED
T1F00S00C0.01000
%
T01
X0125Y012585
X01725
X022
X02675
X03305Y016989
Y017339
Y017689
X03455
Y017339
Y016989
X03325Y0209
Y0213
Y0217
Y0221
X03305Y0238
Y02415
Y0245
X03455
Y02415
Y0238
X02675Y025135
X022
X01725
Y018835
X022
X02675
X03Y0165
X03025Y01625
X0305Y016
X03075Y01575
X0125Y018835
Y025135
Y031435
Y037735
Y044035
X01725
X022
X02675
Y037735
X022
X01725
Y031435
X022
X02675
M30
