M48
;Layer_Color=6321
;FILE_FORMAT=2:5
INCH,LZ
;TYPE=PLATED
T1F00S00C0.01000
%
T01
X027789Y01465
X028139
X028489
X0346
X03495
X0353
Y01615
X03495
X0346
X0317Y0186
X0315Y0195
X03175Y01975
X0315Y0204
X03125Y0236
Y0254
X03
X029335Y023615
X026925
X023335
X020925
X017335
Y028615
X020925
X023335
X026925
X029335
X031Y0286
Y0304
X03
Y0204
X02975Y01925
X0295Y0195
X02815Y0186
X02694
X027789Y01615
X028139
X028489
X02335Y0186
X02094
X01735
X01489
X0113
X011285Y023615
X014875
Y028615
X011285
Y033615
X014875
Y038615
X011285
Y043615
X014875
X017335
X020925
X023335
X026925
X029335
X03025Y0436
X0305Y0404
X03
X0305Y0386
X029335Y038615
X026925
X023335
X020925
X017335
Y033615
X020925
X023335
X026925
X029335
X03075Y0336
Y0354
X03
M30
