M48
;Layer_Color=6321
;FILE_FORMAT=2:5
INCH,LZ
;TYPE=PLATED
T1F00S00C0.01000
T2F00S00C0.04700
T3F00S00C0.06300
;TYPE=NON_PLATED
T4F00S00C0.06300
%
T01
X01875Y02925
Y03075
X02025
X021Y0315
Y033
Y0345
Y036
X02025Y03675
X01875
Y03525
Y03375
Y03225
X02025
Y03375
X0195Y033
Y0315
Y03
X021
X02025Y02925
X018Y03
Y0315
Y033
Y0345
X0195
X02025Y03525
X0195Y036
X018
X02175Y03525
X0225Y0345
X024
Y036
X02325Y03675
X02475
X0255Y036
X027
X0269Y03675
X02625
Y03525
Y03375
X02475
Y03225
X024Y0315
Y033
X02325Y03375
X02175
Y03225
X02325
X0225Y033
Y0315
Y03
X024
X0255
X02625Y03075
X02775
X0285Y0315
X03
X02925Y03075
Y02925
X02775
X02625
X027Y03
X0285
X03
Y0345
X02925Y03375
Y03525
Y03675
X03Y036
X0285
Y0345
X027
X0255
X02475Y03525
Y03075
Y02925
X02325
Y03075
X02175
Y02925
X02775Y03225
X0285Y0375
Y039
X02795Y0394
X027Y039
X02645Y0388
X025Y03875
X02475Y03825
X024Y039
Y0375
X02265Y0384
X02155
Y03945
X022Y04575
X02275Y045
Y0465
X0235Y04725
X025
Y04875
X02275Y048
X02125
Y0495
X022Y05025
X02275Y051
X02425
X02575
X02725
Y0495
Y048
X028Y04725
X02875Y0465
Y045
X028Y04575
X027Y0455
X02725Y0465
X028Y04875
X0295
Y04725
Y04575
Y04425
X03Y0405
X0285
X02925Y03975
X03Y039
X02925Y03825
X03Y0375
X02775Y03825
X027Y0375
X025Y0455
X022Y04725
X02875Y048
Y0495
Y051
X0295Y05025
Y05175
X028
Y05025
X0265Y05175
X025
X0205Y05025
X01975Y0495
X019Y04875
Y04725
X0205
X01975Y0465
Y048
X01825
Y0465
Y045
X01975
X0205Y04575
Y04425
X019
Y04575
X0175Y04875
X01675Y0495
X01525
X01375
Y051
X01525
X01675
X016Y05025
Y05175
X0145
Y05025
X019
X0195Y0405
Y039
X018
Y0375
X0195
X02025Y03825
Y03975
X01875
Y03825
X01825Y0525
X01975
Y054
Y0555
Y057
Y0585
Y06
Y0615
X0205Y06075
Y05925
Y05775
X019
X0175
Y05625
Y05475
Y05325
X019
X0205
Y05475
X019
X01825Y054
X01675
Y0555
X01825
X019Y05625
X01825Y057
X01675
Y0585
X01825
Y06
Y0615
X01675
X01525
X0145Y06075
Y05925
X01525Y0585
X01375
Y06
X01525
X016Y05925
X0175
X019
X01675Y06
X016Y06075
X0175
X016Y05775
X01525Y057
X01375
Y0555
X01525
X016Y05625
X0145
Y05775
Y05475
X01375Y054
Y0525
X01525
Y054
X016Y05325
Y05475
X0145Y05325
X02125Y054
Y0555
X02275
Y0559
X0234
X02425Y0555
X02575
Y057
X02725
X02875
Y0585
X0295Y05925
Y06075
X02875Y0615
Y06
X028Y06075
X0265
X02575Y0615
Y06
X0265Y05925
X028
X02725Y06
Y0585
X028Y05775
X0295
Y05625
X02875Y0555
Y054
Y0525
X0295Y05325
Y05475
X028
X02725Y0555
X028Y05625
X0265
Y05775
Y05475
X02575Y054
Y0525
X02725
Y054
X028Y05325
X0265
X025
X02425Y054
X02275
X022Y05325
Y05475
X025
Y05625
Y05925
Y06075
X0235
X02275Y0615
Y06
X0235Y05925
X02425Y0585
X0235Y05775
X022Y05925
Y06075
X02125Y06
Y0585
X02425Y0615
X02725
T02
X0192Y06085
X02245Y05835
Y05685
X0252Y05835
T03
X02095Y05685
X02395
T04
X02095Y0621
X02395Y0601
M30
