M48
;Layer_Color=6321
;FILE_FORMAT=2:5
INCH,LZ
;TYPE=PLATED
T1F00S00C0.01000
T2F00S00C0.04700
T3F00S00C0.06300
;TYPE=NON_PLATED
T4F00S00C0.06300
%
T01
X0178819Y0301378
Y0316378
Y0331378
Y0346378
Y0361378
X0193819
Y0346378
X0201319Y0353878
X0186319
Y0338878
X0193819Y0331378
Y0316378
X0201319Y0323878
Y0338878
X0208819Y0331378
Y0316378
X0201319Y0308878
X0193819Y0301378
X0201319Y0293878
X0186319
Y0308878
Y0323878
X0208819Y0301378
Y0346378
Y0361378
X0216319Y0353878
Y0338878
X0223819Y0331378
Y0316378
X0216319Y0308878
Y0293878
X0231319
Y0308878
X0223819Y0301378
X0238819
X0246319Y0293878
Y0308878
Y0323878
X0231319
Y0338878
X0223819Y0346378
X0238819
X0246319Y0353878
X0253819Y0346378
X0261319Y0353878
X0268819Y0346378
X0283819
Y0361378
X0298819
X0291319Y0353878
Y0338878
X0298819Y0346378
Y0316378
Y0301378
X0283819
X0268819
X0276319Y0293878
X0291319
Y0308878
X0276319
X0261319
Y0293878
X0253819Y0301378
X0238819Y0316378
Y0331378
X0246319Y0338878
X0261319
X0276319Y0323878
X0283819Y0316378
X0268819Y0361378
X0253819
X0238819
X0216319Y0323878
X0231319Y0368878
X0238819Y0376378
Y0391378
X0248819Y0388878
X0246319Y0383878
Y0368878
X0261319
X0267819
X0268819Y0376378
X0276319Y0383878
X0278319Y0395378
X0283819Y0391378
Y0376378
X0291319Y0368878
X0298819Y0376378
X0291319Y0383878
X0298819Y0391378
X0291319Y0398878
X0298819Y0406378
X0283819
X0268819Y0391378
X0263319Y0389378
X0225319Y0385378
X0214319
Y0395878
X0226319Y0451378
Y0466378
X0218819Y0473878
X0226319Y0481378
X0233819Y0473878
X0248819
Y0488878
Y0518878
X0241319Y0511378
X0256319
X0263819Y0518878
X0278819
Y0503878
X0271319Y0511378
X0286319
X0293819Y0518878
Y0503878
X0286319Y0496378
Y0481378
X0293819Y0473878
Y0488878
X0278819
Y0473878
X0271319Y0466378
X0268819Y0456378
X0278819Y0458878
X0293819
Y0443878
X0286319Y0451378
Y0466378
X0271319Y0481378
Y0496378
X0263819Y0503878
X0248819Y0456378
X0218819Y0458878
X0203819
X0188819
Y0443878
X0181319Y0451378
Y0466378
X0196319
Y0451378
X0203819Y0443878
Y0473878
X0188819
Y0488878
Y0503878
X0203819
X0211319Y0496378
X0173819Y0488878
X0166319Y0496378
X0158819Y0503878
X0143819
Y0518878
X0158819
X0151319Y0511378
X0136319
Y0496378
X0151319
X0166319Y0511378
X0186319Y0398878
Y0383878
X0201319
Y0398878
X0193819Y0391378
Y0376378
X0178819
Y0391378
X0186319Y0368878
X0201319
X0193819Y0406378
X0196319Y0526378
X0181319
Y0541378
Y0556378
X0166319
X0158819Y0548878
X0143819
Y0533878
X0158819
X0151319Y0541378
Y0526378
X0136319
Y0541378
Y0556378
X0143819Y0563878
Y0578878
X0158819
Y0593878
Y0608878
X0173819
X0166319Y0601378
X0151319
Y0616378
X0143819Y0608878
X0136319Y0601378
Y0586378
Y0571378
X0151319
X0158819Y0563878
X0151319Y0556378
Y0586378
X0143819Y0593878
X0173819
X0181319Y0601378
Y0586378
X0166319
Y0571378
X0181319
X0188819Y0563878
Y0578878
X0173819
Y0563878
Y0548878
X0166319Y0541378
X0173819Y0533878
X0188819
Y0548878
X0203819
Y0533878
X0211319Y0541378
X0196319
Y0556378
Y0571378
X0203819Y0578878
X0196319Y0586378
X0211319
Y0601378
X0203819Y0593878
Y0608878
X0196319Y0616378
X0181319
X0166319
X0188819Y0608878
X0211319Y0571378
Y0526378
X0218819Y0533878
X0248819
Y0548878
Y0563878
X0263819
Y0548878
Y0533878
X0278819
Y0548878
X0271319Y0541378
Y0526378
X0256319
Y0541378
Y0556378
X0271319
X0278819Y0563878
Y0578878
X0263819
X0271319Y0571378
X0256319
Y0586378
X0241319
X0233819Y0578878
X0241319Y0571378
X02325Y0551
X0241319Y0541378
X0286319
X0293819Y0548878
Y0533878
X0286319Y0526378
Y0556378
X0293819Y0563878
Y0578878
X0286319Y0571378
Y0586378
X0271319
Y0601378
Y0616378
X0278819Y0608878
Y0593878
X0263819
X0248819
Y0608878
X0241319Y0616378
X0233819Y0608878
X0218819
Y0593878
X0226319Y0601378
Y0616378
X0256319
Y0601378
X0263819Y0608878
X0286319Y0601378
X0293819Y0593878
Y0608878
X0286319Y0616378
X0241319Y0601378
X0226319Y0586378
T02
X0190819Y0600378
X0223319Y0575378
Y0560378
X0250819Y0575378
T03
X0208319Y0560378
X0238319
T04
X0208319Y0612878
X0238319Y0592878
M30
